%TF.GenerationSoftware,KiCad,Pcbnew,8.0.6*%
%TF.CreationDate,2025-03-20T16:43:12-06:00*%
%TF.ProjectId,Invitaci_nTDS_general,496e7669-7461-4636-99f3-6e5444535f67,rev?*%
%TF.SameCoordinates,Original*%
%TF.FileFunction,Copper,L2,Bot*%
%TF.FilePolarity,Positive*%
%FSLAX46Y46*%
G04 Gerber Fmt 4.6, Leading zero omitted, Abs format (unit mm)*
G04 Created by KiCad (PCBNEW 8.0.6) date 2025-03-20 16:43:12*
%MOMM*%
%LPD*%
G01*
G04 APERTURE LIST*
G04 Aperture macros list*
%AMRoundRect*
0 Rectangle with rounded corners*
0 $1 Rounding radius*
0 $2 $3 $4 $5 $6 $7 $8 $9 X,Y pos of 4 corners*
0 Add a 4 corners polygon primitive as box body*
4,1,4,$2,$3,$4,$5,$6,$7,$8,$9,$2,$3,0*
0 Add four circle primitives for the rounded corners*
1,1,$1+$1,$2,$3*
1,1,$1+$1,$4,$5*
1,1,$1+$1,$6,$7*
1,1,$1+$1,$8,$9*
0 Add four rect primitives between the rounded corners*
20,1,$1+$1,$2,$3,$4,$5,0*
20,1,$1+$1,$4,$5,$6,$7,0*
20,1,$1+$1,$6,$7,$8,$9,0*
20,1,$1+$1,$8,$9,$2,$3,0*%
G04 Aperture macros list end*
%TA.AperFunction,ComponentPad*%
%ADD10C,1.600000*%
%TD*%
%TA.AperFunction,ComponentPad*%
%ADD11O,1.600000X1.600000*%
%TD*%
%TA.AperFunction,ComponentPad*%
%ADD12R,1.800000X1.800000*%
%TD*%
%TA.AperFunction,ComponentPad*%
%ADD13C,1.800000*%
%TD*%
%TA.AperFunction,ComponentPad*%
%ADD14RoundRect,0.250000X-0.250000X-0.250000X0.250000X-0.250000X0.250000X0.250000X-0.250000X0.250000X0*%
%TD*%
%TA.AperFunction,ComponentPad*%
%ADD15C,1.000000*%
%TD*%
%TA.AperFunction,ComponentPad*%
%ADD16R,1.050000X1.500000*%
%TD*%
%TA.AperFunction,ComponentPad*%
%ADD17O,1.050000X1.500000*%
%TD*%
%TA.AperFunction,ComponentPad*%
%ADD18R,1.500000X1.050000*%
%TD*%
%TA.AperFunction,ComponentPad*%
%ADD19O,1.500000X1.050000*%
%TD*%
%TA.AperFunction,ComponentPad*%
%ADD20R,1.600000X1.600000*%
%TD*%
%TA.AperFunction,ComponentPad*%
%ADD21R,1.600000X2.400000*%
%TD*%
%TA.AperFunction,ComponentPad*%
%ADD22O,1.600000X2.400000*%
%TD*%
%TA.AperFunction,ComponentPad*%
%ADD23C,1.440000*%
%TD*%
%TA.AperFunction,ComponentPad*%
%ADD24R,1.700000X1.700000*%
%TD*%
%TA.AperFunction,ComponentPad*%
%ADD25O,1.700000X1.700000*%
%TD*%
%TA.AperFunction,ComponentPad*%
%ADD26R,2.000000X2.000000*%
%TD*%
%TA.AperFunction,ComponentPad*%
%ADD27C,2.000000*%
%TD*%
%TA.AperFunction,ViaPad*%
%ADD28C,0.600000*%
%TD*%
%TA.AperFunction,Conductor*%
%ADD29C,1.000000*%
%TD*%
G04 APERTURE END LIST*
D10*
%TO.P,R1,1*%
%TO.N,Net-(Q1-B)*%
X94420000Y-102500000D03*
D11*
%TO.P,R1,2*%
%TO.N,GND*%
X104580000Y-102500000D03*
%TD*%
D12*
%TO.P,D4,1,K*%
%TO.N,Net-(D4-K)*%
X113460000Y-89000000D03*
D13*
%TO.P,D4,2,A*%
%TO.N,/LEDSchem/PinName*%
X116000000Y-89000000D03*
%TD*%
D10*
%TO.P,R9,1*%
%TO.N,Net-(A1-+5V)*%
X141920000Y-57000000D03*
D11*
%TO.P,R9,2*%
%TO.N,Net-(MK1-+)*%
X152080000Y-57000000D03*
%TD*%
D10*
%TO.P,R5,1*%
%TO.N,Net-(Q5-B)*%
X142420000Y-130000000D03*
D11*
%TO.P,R5,2*%
%TO.N,/LEDSchem/PinName*%
X152580000Y-130000000D03*
%TD*%
D10*
%TO.P,R10,1*%
%TO.N,Net-(A1-D2)*%
X128340000Y-97000000D03*
D11*
%TO.P,R10,2*%
%TO.N,GND*%
X138500000Y-97000000D03*
%TD*%
D14*
%TO.P,MK1,1,-*%
%TO.N,GND*%
X146332500Y-63000000D03*
D15*
%TO.P,MK1,2,+*%
%TO.N,Net-(MK1-+)*%
X148232500Y-63000000D03*
%TD*%
D16*
%TO.P,Q2,1,E*%
%TO.N,GND*%
X152500000Y-93500000D03*
D17*
%TO.P,Q2,2,B*%
%TO.N,Net-(Q2-B)*%
X151230000Y-93500000D03*
%TO.P,Q2,3,C*%
%TO.N,Net-(D2-K)*%
X149960000Y-93500000D03*
%TD*%
D18*
%TO.P,Q1,1,E*%
%TO.N,GND*%
X104500000Y-96500000D03*
D19*
%TO.P,Q1,2,B*%
%TO.N,Net-(Q1-B)*%
X104500000Y-95230000D03*
%TO.P,Q1,3,C*%
%TO.N,Net-(D1-K)*%
X104500000Y-93960000D03*
%TD*%
D10*
%TO.P,C1,1*%
%TO.N,Net-(Q7-B)*%
X151000000Y-70000000D03*
%TO.P,C1,2*%
%TO.N,Net-(MK1-+)*%
X153500000Y-70000000D03*
%TD*%
D20*
%TO.P,U1,1*%
%TO.N,unconnected-(U1-Pad1)*%
X96380000Y-63920000D03*
D11*
%TO.P,U1,2,-*%
%TO.N,unconnected-(U1A---Pad2)*%
X96380000Y-66460000D03*
%TO.P,U1,3,+*%
%TO.N,unconnected-(U1A-+-Pad3)*%
X96380000Y-69000000D03*
%TO.P,U1,4,V-*%
%TO.N,unconnected-(U1C-V--Pad4)*%
X96380000Y-71540000D03*
%TO.P,U1,5,+*%
%TO.N,unconnected-(U1B-+-Pad5)*%
X104000000Y-71540000D03*
%TO.P,U1,6,-*%
%TO.N,unconnected-(U1B---Pad6)*%
X104000000Y-69000000D03*
%TO.P,U1,7*%
%TO.N,unconnected-(U1-Pad7)*%
X104000000Y-66460000D03*
%TO.P,U1,8,V+*%
%TO.N,unconnected-(U1C-V+-Pad8)*%
X104000000Y-63920000D03*
%TD*%
D12*
%TO.P,D2,1,K*%
%TO.N,Net-(D2-K)*%
X152460000Y-86000000D03*
D13*
%TO.P,D2,2,A*%
%TO.N,/LEDSchem/PinName*%
X155000000Y-86000000D03*
%TD*%
D16*
%TO.P,Q7,1,E*%
%TO.N,GND*%
X145730000Y-85360000D03*
D17*
%TO.P,Q7,2,B*%
%TO.N,Net-(Q7-B)*%
X147000000Y-85360000D03*
%TO.P,Q7,3,C*%
%TO.N,Net-(Q7-C)*%
X148270000Y-85360000D03*
%TD*%
D12*
%TO.P,D1,1,K*%
%TO.N,Net-(D1-K)*%
X90460000Y-96500000D03*
D13*
%TO.P,D1,2,A*%
%TO.N,/LEDSchem/PinName*%
X93000000Y-96500000D03*
%TD*%
D21*
%TO.P,U2,1*%
%TO.N,unconnected-(U2-Pad1)*%
X73375000Y-128325000D03*
D22*
%TO.P,U2,2*%
%TO.N,unconnected-(U2-Pad2)*%
X75915000Y-128325000D03*
%TO.P,U2,3*%
%TO.N,unconnected-(U2-Pad3)*%
X78455000Y-128325000D03*
%TO.P,U2,4*%
%TO.N,unconnected-(U2-Pad4)*%
X80995000Y-128325000D03*
%TO.P,U2,5*%
%TO.N,unconnected-(U2-Pad5)*%
X83535000Y-128325000D03*
%TO.P,U2,6*%
%TO.N,unconnected-(U2-Pad6)*%
X86075000Y-128325000D03*
%TO.P,U2,7,GND*%
%TO.N,unconnected-(U2E-GND-Pad7)*%
X88615000Y-128325000D03*
%TO.P,U2,8*%
%TO.N,unconnected-(U2-Pad8)*%
X88615000Y-120705000D03*
%TO.P,U2,9*%
%TO.N,unconnected-(U2-Pad9)*%
X86075000Y-120705000D03*
%TO.P,U2,10*%
%TO.N,unconnected-(U2-Pad10)*%
X83535000Y-120705000D03*
%TO.P,U2,11*%
%TO.N,unconnected-(U2-Pad11)*%
X80995000Y-120705000D03*
%TO.P,U2,12*%
%TO.N,unconnected-(U2-Pad12)*%
X78455000Y-120705000D03*
%TO.P,U2,13*%
%TO.N,unconnected-(U2-Pad13)*%
X75915000Y-120705000D03*
%TO.P,U2,14,VCC*%
%TO.N,unconnected-(U2E-VCC-Pad14)*%
X73375000Y-120705000D03*
%TD*%
D12*
%TO.P,D3,1,K*%
%TO.N,Net-(D3-K)*%
X96500000Y-130000000D03*
D13*
%TO.P,D3,2,A*%
%TO.N,/LEDSchem/PinName*%
X99040000Y-130000000D03*
%TD*%
D23*
%TO.P,RV1,1,1*%
%TO.N,Net-(A1-+5V)*%
X83920000Y-54000000D03*
%TO.P,RV1,2,2*%
%TO.N,Net-(A1-A1)*%
X86460000Y-54000000D03*
%TO.P,RV1,3,3*%
%TO.N,GND*%
X89000000Y-54000000D03*
%TD*%
D16*
%TO.P,Q5,1,E*%
%TO.N,GND*%
X135460000Y-130000000D03*
D17*
%TO.P,Q5,2,B*%
%TO.N,Net-(Q5-B)*%
X136730000Y-130000000D03*
%TO.P,Q5,3,C*%
%TO.N,Net-(D5-K)*%
X138000000Y-130000000D03*
%TD*%
D24*
%TO.P,J2,1,Pin_1*%
%TO.N,unconnected-(J2-Pin_1-Pad1)*%
X156000000Y-108840000D03*
D25*
%TO.P,J2,2,Pin_2*%
%TO.N,Net-(A1-D1{slash}TX)*%
X156000000Y-111380000D03*
%TO.P,J2,3,Pin_3*%
%TO.N,Net-(A1-D0{slash}RX)*%
X156000000Y-113920000D03*
%TO.P,J2,4,Pin_4*%
%TO.N,Net-(A1-+5V)*%
X156000000Y-116460000D03*
%TO.P,J2,5,Pin_5*%
%TO.N,unconnected-(J2-Pin_5-Pad5)*%
X156000000Y-119000000D03*
%TO.P,J2,6,Pin_6*%
%TO.N,GND*%
X156000000Y-121540000D03*
%TD*%
D16*
%TO.P,Q3,1,E*%
%TO.N,GND*%
X104960000Y-130000000D03*
D17*
%TO.P,Q3,2,B*%
%TO.N,Net-(Q3-B)*%
X106230000Y-130000000D03*
%TO.P,Q3,3,C*%
%TO.N,Net-(D3-K)*%
X107500000Y-130000000D03*
%TD*%
D10*
%TO.P,R3,1*%
%TO.N,Net-(Q3-B)*%
X111920000Y-129500000D03*
D11*
%TO.P,R3,2*%
%TO.N,/LEDSchem2/PinName*%
X122080000Y-129500000D03*
%TD*%
D26*
%TO.P,BZ1,1,+*%
%TO.N,Net-(A1-D6)*%
X76500000Y-100000000D03*
D27*
%TO.P,BZ1,2,-*%
%TO.N,GND*%
X68900000Y-100000000D03*
%TD*%
%TO.P,SW1,1,1*%
%TO.N,Net-(A1-D2)*%
X97000000Y-53500000D03*
X103500000Y-53500000D03*
%TO.P,SW1,2,2*%
%TO.N,Net-(A1-+5V)*%
X97000000Y-58000000D03*
X103500000Y-58000000D03*
%TD*%
D10*
%TO.P,R7,1*%
%TO.N,Net-(A1-+5V)*%
X157500000Y-79500000D03*
D11*
%TO.P,R7,2*%
%TO.N,Net-(Q7-C)*%
X157500000Y-69340000D03*
%TD*%
D12*
%TO.P,D5,1,K*%
%TO.N,Net-(D5-K)*%
X126960000Y-130000000D03*
D13*
%TO.P,D5,2,A*%
%TO.N,/LEDSchem/PinName*%
X129500000Y-130000000D03*
%TD*%
D20*
%TO.P,C2,1*%
%TO.N,Net-(Q7-C)*%
X154500000Y-63000000D03*
D10*
%TO.P,C2,2*%
%TO.N,Net-(A1-A0)*%
X157000000Y-63000000D03*
%TD*%
%TO.P,R4,1*%
%TO.N,Net-(Q4-B)*%
X118920000Y-92000000D03*
D11*
%TO.P,R4,2*%
%TO.N,/LEDSchem/PinName*%
X129080000Y-92000000D03*
%TD*%
D16*
%TO.P,Q4,1,E*%
%TO.N,GND*%
X107960000Y-81360000D03*
D17*
%TO.P,Q4,2,B*%
%TO.N,Net-(Q4-B)*%
X109230000Y-81360000D03*
%TO.P,Q4,3,C*%
%TO.N,Net-(D4-K)*%
X110500000Y-81360000D03*
%TD*%
D10*
%TO.P,R8,1*%
%TO.N,Net-(Q7-C)*%
X139000000Y-92500000D03*
D11*
%TO.P,R8,2*%
%TO.N,Net-(Q7-B)*%
X139000000Y-82340000D03*
%TD*%
D10*
%TO.P,R2,1*%
%TO.N,Net-(Q2-B)*%
X156500000Y-97000000D03*
D11*
%TO.P,R2,2*%
%TO.N,/LEDSchem/PinName*%
X146340000Y-97000000D03*
%TD*%
%TO.P,A1,32,SCL/A5*%
%TO.N,unconnected-(A1-SCL{slash}A5-Pad32)*%
X156620000Y-102000000D03*
%TO.P,A1,31,SDA/A4*%
%TO.N,unconnected-(A1-SDA{slash}A4-Pad31)*%
X154080000Y-102000000D03*
%TO.P,A1,30,AREF*%
%TO.N,unconnected-(A1-AREF-Pad30)*%
X151540000Y-102000000D03*
%TO.P,A1,29,GND*%
%TO.N,GND*%
X149000000Y-102000000D03*
%TO.P,A1,28,D13*%
%TO.N,/LEDSchem5/PinName*%
X146460000Y-102000000D03*
%TO.P,A1,27,D12*%
%TO.N,/LEDSchem/PinName*%
X143920000Y-102000000D03*
%TO.P,A1,26,D11*%
X141380000Y-102000000D03*
%TO.P,A1,25,D10*%
%TO.N,/LEDSchem2/PinName*%
X138840000Y-102000000D03*
%TO.P,A1,24,D9*%
%TO.N,GND*%
X136300000Y-102000000D03*
%TO.P,A1,23,D8*%
%TO.N,/LEDSchem/PinName*%
X133760000Y-102000000D03*
%TO.P,A1,22,D7*%
%TO.N,unconnected-(A1-D7-Pad22)*%
X129700000Y-102000000D03*
%TO.P,A1,21,D6*%
%TO.N,Net-(A1-D6)*%
X127160000Y-102000000D03*
%TO.P,A1,20,D5*%
%TO.N,Net-(A1-D5)*%
X124620000Y-102000000D03*
%TO.P,A1,19,D4*%
%TO.N,unconnected-(A1-D4-Pad19)*%
X122080000Y-102000000D03*
%TO.P,A1,18,D3*%
%TO.N,unconnected-(A1-D3-Pad18)*%
X119540000Y-102000000D03*
%TO.P,A1,17,D2*%
%TO.N,Net-(A1-D2)*%
X117000000Y-102000000D03*
%TO.P,A1,16,D1/TX*%
%TO.N,Net-(A1-D1{slash}TX)*%
X114460000Y-102000000D03*
%TO.P,A1,15,D0/RX*%
%TO.N,Net-(A1-D0{slash}RX)*%
X111920000Y-102000000D03*
%TO.P,A1,14,SCL/A5*%
%TO.N,unconnected-(A1-SCL{slash}A5-Pad14)*%
X111920000Y-53740000D03*
%TO.P,A1,13,SDA/A4*%
%TO.N,unconnected-(A1-SDA{slash}A4-Pad13)*%
X114460000Y-53740000D03*
%TO.P,A1,12,A3*%
%TO.N,unconnected-(A1-A3-Pad12)*%
X117000000Y-53740000D03*
%TO.P,A1,11,A2*%
%TO.N,unconnected-(A1-A2-Pad11)*%
X119540000Y-53740000D03*
%TO.P,A1,10,A1*%
%TO.N,Net-(A1-A1)*%
X122080000Y-53740000D03*
%TO.P,A1,9,A0*%
%TO.N,Net-(A1-A0)*%
X124620000Y-53740000D03*
%TO.P,A1,8,VIN*%
%TO.N,/LEDSchem/PinName*%
X129700000Y-53740000D03*
%TO.P,A1,7,GND*%
%TO.N,GND*%
X132240000Y-53740000D03*
%TO.P,A1,6,GND*%
X134780000Y-53740000D03*
%TO.P,A1,5,+5V*%
%TO.N,Net-(A1-+5V)*%
X137320000Y-53740000D03*
%TO.P,A1,4,3V3*%
%TO.N,Net-(A1-3V3)*%
X139860000Y-53740000D03*
%TO.P,A1,3,~{RESET}*%
%TO.N,Net-(A1-~{RESET})*%
X142400000Y-53740000D03*
%TO.P,A1,2,IOREF*%
%TO.N,Net-(A1-IOREF)*%
X144940000Y-53740000D03*
D20*
%TO.P,A1,1,NC*%
%TO.N,unconnected-(A1-NC-Pad1)*%
X147480000Y-53740000D03*
%TD*%
D28*
%TO.N,GND*%
X152000000Y-99000000D03*
X155500000Y-95500000D03*
X93500000Y-56000000D03*
%TO.N,Net-(A1-D1{slash}TX)*%
X114500000Y-106000000D03*
%TO.N,Net-(A1-D2)*%
X106000000Y-87000000D03*
X110500000Y-91500000D03*
%TO.N,Net-(A1-D0{slash}RX)*%
X112000000Y-107000000D03*
%TD*%
D29*
%TO.N,Net-(A1-+5V)*%
X159000000Y-113460000D02*
X159000000Y-81000000D01*
X103500000Y-58000000D02*
X97000000Y-58000000D01*
X109260000Y-52240000D02*
X103500000Y-58000000D01*
X137320000Y-53740000D02*
X135820000Y-52240000D01*
X156000000Y-116460000D02*
X159000000Y-113460000D01*
X159000000Y-81000000D02*
X157500000Y-79500000D01*
X135820000Y-52240000D02*
X109260000Y-52240000D01*
%TO.N,GND*%
X135460000Y-130687412D02*
X136272588Y-131500000D01*
X152500000Y-92812588D02*
X152500000Y-93500000D01*
X146332500Y-63000000D02*
X144040000Y-63000000D01*
X134780000Y-53740000D02*
X132240000Y-53740000D01*
X136272588Y-131500000D02*
X146040000Y-131500000D01*
X103080000Y-104000000D02*
X104580000Y-102500000D01*
X104960000Y-102880000D02*
X104580000Y-102500000D01*
X93500000Y-56000000D02*
X93500000Y-57500000D01*
X146744824Y-87057412D02*
X152500000Y-92812588D01*
X156000000Y-121540000D02*
X149000000Y-114540000D01*
X146332500Y-63000000D02*
X145730000Y-63602500D01*
X96000000Y-60000000D02*
X125980000Y-60000000D01*
X145730000Y-87057412D02*
X146744824Y-87057412D01*
X145730000Y-85360000D02*
X145730000Y-87057412D01*
X146040000Y-131500000D02*
X156000000Y-121540000D01*
X145730000Y-63602500D02*
X145730000Y-85360000D01*
X152000000Y-99000000D02*
X155250000Y-95750000D01*
X125980000Y-60000000D02*
X132240000Y-53740000D01*
X68900000Y-100000000D02*
X72900000Y-104000000D01*
X155250000Y-95750000D02*
X155500000Y-95500000D01*
X144040000Y-63000000D02*
X134780000Y-53740000D01*
X104960000Y-130000000D02*
X104960000Y-102880000D01*
X93500000Y-57500000D02*
X96000000Y-60000000D01*
X149000000Y-114540000D02*
X149000000Y-102000000D01*
X72900000Y-104000000D02*
X103080000Y-104000000D01*
X135460000Y-130000000D02*
X135460000Y-130687412D01*
%TO.N,Net-(A1-D1{slash}TX)*%
X114460000Y-105960000D02*
X114500000Y-106000000D01*
X114460000Y-102000000D02*
X114460000Y-105960000D01*
%TO.N,/LEDSchem/PinName*%
X93000000Y-96500000D02*
X96765000Y-92735000D01*
X113537792Y-92735000D02*
X116000000Y-90272792D01*
X129500000Y-113880000D02*
X141380000Y-102000000D01*
X116000000Y-90272792D02*
X116000000Y-89000000D01*
X96765000Y-92735000D02*
X113537792Y-92735000D01*
X129500000Y-130000000D02*
X129500000Y-113880000D01*
%TO.N,/LEDSchem2/PinName*%
X122080000Y-129500000D02*
X122080000Y-118760000D01*
X122080000Y-118760000D02*
X138840000Y-102000000D01*
%TO.N,Net-(A1-D2)*%
X106000000Y-87000000D02*
X110500000Y-91500000D01*
X103500000Y-53500000D02*
X97000000Y-53500000D01*
%TO.N,Net-(A1-D6)*%
X76500000Y-100000000D02*
X125160000Y-100000000D01*
X125160000Y-100000000D02*
X127160000Y-102000000D01*
%TO.N,Net-(A1-D0{slash}RX)*%
X111920000Y-106920000D02*
X112000000Y-107000000D01*
X111920000Y-102000000D02*
X111920000Y-106920000D01*
%TO.N,Net-(Q7-B)*%
X147000000Y-74000000D02*
X147000000Y-85360000D01*
X151000000Y-70000000D02*
X147000000Y-74000000D01*
%TO.N,Net-(D2-K)*%
X153725000Y-94950000D02*
X153675000Y-95000000D01*
X153675000Y-95000000D02*
X150000000Y-95000000D01*
X149960000Y-94960000D02*
X149960000Y-93500000D01*
X152460000Y-86000000D02*
X153725000Y-87265000D01*
X150000000Y-95000000D02*
X149960000Y-94960000D01*
X153725000Y-87265000D02*
X153725000Y-94950000D01*
%TO.N,Net-(Q3-B)*%
X106230000Y-130000000D02*
X106230000Y-128250000D01*
X106480000Y-128000000D02*
X110420000Y-128000000D01*
X110420000Y-128000000D02*
X111920000Y-129500000D01*
X106230000Y-128250000D02*
X106480000Y-128000000D01*
%TO.N,Net-(Q5-B)*%
X136730000Y-130000000D02*
X136730000Y-129312588D01*
X137542588Y-128500000D02*
X140920000Y-128500000D01*
X140920000Y-128500000D02*
X142420000Y-130000000D01*
X136730000Y-129312588D02*
X137542588Y-128500000D01*
%TD*%
%TA.AperFunction,Conductor*%
%TO.N,GND*%
G36*
X134314075Y-53547007D02*
G01*
X134280000Y-53674174D01*
X134280000Y-53805826D01*
X134314075Y-53932993D01*
X134346988Y-53990000D01*
X132673012Y-53990000D01*
X132705925Y-53932993D01*
X132740000Y-53805826D01*
X132740000Y-53674174D01*
X132705925Y-53547007D01*
X132673012Y-53490000D01*
X134346988Y-53490000D01*
X134314075Y-53547007D01*
G37*
%TD.AperFunction*%
%TA.AperFunction,Conductor*%
G36*
X152502211Y-50500578D02*
G01*
X152994924Y-50518176D01*
X153003717Y-50518804D01*
X153491755Y-50571274D01*
X153500471Y-50572527D01*
X153983520Y-50659679D01*
X153992128Y-50661552D01*
X154467713Y-50782938D01*
X154476177Y-50785423D01*
X154941866Y-50940419D01*
X154950160Y-50943512D01*
X155403602Y-51131335D01*
X155411653Y-51135012D01*
X155697200Y-51277946D01*
X155850551Y-51354708D01*
X155858287Y-51358931D01*
X156280432Y-51609401D01*
X156287842Y-51614164D01*
X156535063Y-51785813D01*
X156691001Y-51894083D01*
X156698087Y-51899387D01*
X156822320Y-51999500D01*
X157080257Y-52207358D01*
X157086933Y-52213143D01*
X157266546Y-52380368D01*
X157446152Y-52547588D01*
X157452411Y-52553847D01*
X157479046Y-52582455D01*
X157767362Y-52892128D01*
X157786850Y-52913059D01*
X157792643Y-52919745D01*
X157808142Y-52938977D01*
X158100612Y-53301912D01*
X158105916Y-53308998D01*
X158301152Y-53590190D01*
X158363452Y-53679920D01*
X158385827Y-53712145D01*
X158390602Y-53719574D01*
X158641062Y-54141703D01*
X158645294Y-54149453D01*
X158864987Y-54588346D01*
X158868664Y-54596397D01*
X159056487Y-55049839D01*
X159059580Y-55058133D01*
X159214571Y-55523807D01*
X159217065Y-55532300D01*
X159338442Y-56007851D01*
X159340324Y-56016500D01*
X159427468Y-56499505D01*
X159428728Y-56508267D01*
X159481193Y-56996264D01*
X159481824Y-57005093D01*
X159499421Y-57497788D01*
X159499500Y-57502214D01*
X159499500Y-79785217D01*
X159479815Y-79852256D01*
X159427011Y-79898011D01*
X159357853Y-79907955D01*
X159294297Y-79878930D01*
X159287819Y-79872898D01*
X158826887Y-79411966D01*
X158793402Y-79350643D01*
X158791040Y-79335092D01*
X158785635Y-79273313D01*
X158785635Y-79273308D01*
X158726739Y-79053504D01*
X158630568Y-78847266D01*
X158500047Y-78660861D01*
X158500045Y-78660858D01*
X158339141Y-78499954D01*
X158152734Y-78369432D01*
X158152732Y-78369431D01*
X157946497Y-78273261D01*
X157946488Y-78273258D01*
X157726697Y-78214366D01*
X157726693Y-78214365D01*
X157726692Y-78214365D01*
X157726691Y-78214364D01*
X157726686Y-78214364D01*
X157500002Y-78194532D01*
X157499998Y-78194532D01*
X157273313Y-78214364D01*
X157273302Y-78214366D01*
X157053511Y-78273258D01*
X157053502Y-78273261D01*
X156847267Y-78369431D01*
X156847265Y-78369432D01*
X156660858Y-78499954D01*
X156499954Y-78660858D01*
X156369432Y-78847265D01*
X156369431Y-78847267D01*
X156273261Y-79053502D01*
X156273258Y-79053511D01*
X156214366Y-79273302D01*
X156214364Y-79273313D01*
X156194532Y-79499998D01*
X156194532Y-79500001D01*
X156214364Y-79726686D01*
X156214366Y-79726697D01*
X156273258Y-79946488D01*
X156273261Y-79946497D01*
X156369431Y-80152732D01*
X156369432Y-80152734D01*
X156499954Y-80339141D01*
X156660858Y-80500045D01*
X156660861Y-80500047D01*
X156847266Y-80630568D01*
X157053504Y-80726739D01*
X157273308Y-80785635D01*
X157335093Y-80791040D01*
X157400161Y-80816492D01*
X157411966Y-80826887D01*
X157963181Y-81378101D01*
X157996666Y-81439424D01*
X157999500Y-81465782D01*
X157999500Y-96629588D01*
X157979815Y-96696627D01*
X157927011Y-96742382D01*
X157857853Y-96752326D01*
X157794297Y-96723301D01*
X157756523Y-96664523D01*
X157755725Y-96661681D01*
X157726741Y-96553511D01*
X157726738Y-96553502D01*
X157724811Y-96549370D01*
X157630568Y-96347266D01*
X157500047Y-96160861D01*
X157500045Y-96160858D01*
X157339141Y-95999954D01*
X157152734Y-95869432D01*
X157152732Y-95869431D01*
X156946497Y-95773261D01*
X156946488Y-95773258D01*
X156726697Y-95714366D01*
X156726693Y-95714365D01*
X156726692Y-95714365D01*
X156726691Y-95714364D01*
X156726686Y-95714364D01*
X156500002Y-95694532D01*
X156499998Y-95694532D01*
X156273313Y-95714364D01*
X156273302Y-95714366D01*
X156053511Y-95773258D01*
X156053502Y-95773261D01*
X155847267Y-95869431D01*
X155847265Y-95869432D01*
X155660858Y-95999954D01*
X155499954Y-96160858D01*
X155369432Y-96347265D01*
X155369431Y-96347267D01*
X155273261Y-96553502D01*
X155273258Y-96553511D01*
X155214366Y-96773302D01*
X155214364Y-96773313D01*
X155194532Y-96999998D01*
X155194532Y-97000001D01*
X155214364Y-97226686D01*
X155214366Y-97226697D01*
X155273258Y-97446488D01*
X155273261Y-97446497D01*
X155369431Y-97652732D01*
X155369432Y-97652734D01*
X155499954Y-97839141D01*
X155660858Y-98000045D01*
X155660861Y-98000047D01*
X155847266Y-98130568D01*
X156053504Y-98226739D01*
X156273308Y-98285635D01*
X156435230Y-98299801D01*
X156499998Y-98305468D01*
X156500000Y-98305468D01*
X156500002Y-98305468D01*
X156556673Y-98300509D01*
X156726692Y-98285635D01*
X156946496Y-98226739D01*
X157152734Y-98130568D01*
X157339139Y-98000047D01*
X157500047Y-97839139D01*
X157630568Y-97652734D01*
X157726739Y-97446496D01*
X157755725Y-97338317D01*
X157792090Y-97278657D01*
X157854936Y-97248128D01*
X157924312Y-97256422D01*
X157978190Y-97300908D01*
X157999465Y-97367459D01*
X157999500Y-97370411D01*
X157999500Y-101321774D01*
X157979815Y-101388813D01*
X157927011Y-101434568D01*
X157857853Y-101444512D01*
X157794297Y-101415487D01*
X157763119Y-101374180D01*
X157750571Y-101347272D01*
X157750567Y-101347265D01*
X157750566Y-101347264D01*
X157644387Y-101195623D01*
X157620045Y-101160858D01*
X157459141Y-100999954D01*
X157272734Y-100869432D01*
X157272732Y-100869431D01*
X157066497Y-100773261D01*
X157066488Y-100773258D01*
X156846697Y-100714366D01*
X156846693Y-100714365D01*
X156846692Y-100714365D01*
X156846691Y-100714364D01*
X156846686Y-100714364D01*
X156620002Y-100694532D01*
X156619998Y-100694532D01*
X156393313Y-100714364D01*
X156393302Y-100714366D01*
X156173511Y-100773258D01*
X156173502Y-100773261D01*
X155967267Y-100869431D01*
X155967265Y-100869432D01*
X155780858Y-100999954D01*
X155619954Y-101160858D01*
X155489432Y-101347265D01*
X155489431Y-101347267D01*
X155462382Y-101405275D01*
X155416209Y-101457714D01*
X155349016Y-101476866D01*
X155282135Y-101456650D01*
X155237618Y-101405275D01*
X155229942Y-101388813D01*
X155210568Y-101347266D01*
X155104387Y-101195623D01*
X155080045Y-101160858D01*
X154919141Y-100999954D01*
X154732734Y-100869432D01*
X154732732Y-100869431D01*
X154526497Y-100773261D01*
X154526488Y-100773258D01*
X154306697Y-100714366D01*
X154306693Y-100714365D01*
X154306692Y-100714365D01*
X154306691Y-100714364D01*
X154306686Y-100714364D01*
X154080002Y-100694532D01*
X154079998Y-100694532D01*
X153853313Y-100714364D01*
X153853302Y-100714366D01*
X153633511Y-100773258D01*
X153633502Y-100773261D01*
X153427267Y-100869431D01*
X153427265Y-100869432D01*
X153240858Y-100999954D01*
X153079954Y-101160858D01*
X152949432Y-101347265D01*
X152949431Y-101347267D01*
X152922382Y-101405275D01*
X152876209Y-101457714D01*
X152809016Y-101476866D01*
X152742135Y-101456650D01*
X152697618Y-101405275D01*
X152689942Y-101388813D01*
X152670568Y-101347266D01*
X152564387Y-101195623D01*
X152540045Y-101160858D01*
X152379141Y-100999954D01*
X152192734Y-100869432D01*
X152192732Y-100869431D01*
X151986497Y-100773261D01*
X151986488Y-100773258D01*
X151766697Y-100714366D01*
X151766693Y-100714365D01*
X151766692Y-100714365D01*
X151766691Y-100714364D01*
X151766686Y-100714364D01*
X151540002Y-100694532D01*
X151539998Y-100694532D01*
X151313313Y-100714364D01*
X151313302Y-100714366D01*
X151093511Y-100773258D01*
X151093502Y-100773261D01*
X150887267Y-100869431D01*
X150887265Y-100869432D01*
X150700858Y-100999954D01*
X150539954Y-101160858D01*
X150409433Y-101347264D01*
X150409432Y-101347266D01*
X150394929Y-101378369D01*
X150382106Y-101405867D01*
X150335933Y-101458306D01*
X150268739Y-101477457D01*
X150201858Y-101457241D01*
X150157342Y-101405865D01*
X150130135Y-101347520D01*
X150130134Y-101347518D01*
X149999657Y-101161179D01*
X149838820Y-101000342D01*
X149652482Y-100869865D01*
X149446328Y-100773734D01*
X149250000Y-100721127D01*
X149250000Y-101566988D01*
X149192993Y-101534075D01*
X149065826Y-101500000D01*
X148934174Y-101500000D01*
X148807007Y-101534075D01*
X148750000Y-101566988D01*
X148750000Y-100721127D01*
X148553671Y-100773734D01*
X148347517Y-100869865D01*
X148161179Y-101000342D01*
X148000342Y-101161179D01*
X147869867Y-101347515D01*
X147842657Y-101405867D01*
X147796484Y-101458306D01*
X147729290Y-101477457D01*
X147662409Y-101457241D01*
X147617893Y-101405865D01*
X147609941Y-101388813D01*
X147590568Y-101347266D01*
X147484387Y-101195623D01*
X147460045Y-101160858D01*
X147299141Y-100999954D01*
X147112734Y-100869432D01*
X147112732Y-100869431D01*
X146906497Y-100773261D01*
X146906488Y-100773258D01*
X146686697Y-100714366D01*
X146686693Y-100714365D01*
X146686692Y-100714365D01*
X146686691Y-100714364D01*
X146686686Y-100714364D01*
X146460002Y-100694532D01*
X146459998Y-100694532D01*
X146233313Y-100714364D01*
X146233302Y-100714366D01*
X146013511Y-100773258D01*
X146013502Y-100773261D01*
X145807267Y-100869431D01*
X145807265Y-100869432D01*
X145620858Y-100999954D01*
X145459954Y-101160858D01*
X145329432Y-101347265D01*
X145329431Y-101347267D01*
X145302382Y-101405275D01*
X145256209Y-101457714D01*
X145189016Y-101476866D01*
X145122135Y-101456650D01*
X145077618Y-101405275D01*
X145069942Y-101388813D01*
X145050568Y-101347266D01*
X144944387Y-101195623D01*
X144920045Y-101160858D01*
X144759141Y-100999954D01*
X144572734Y-100869432D01*
X144572732Y-100869431D01*
X144366497Y-100773261D01*
X144366488Y-100773258D01*
X144146697Y-100714366D01*
X144146693Y-100714365D01*
X144146692Y-100714365D01*
X144146691Y-100714364D01*
X144146686Y-100714364D01*
X143920002Y-100694532D01*
X143919998Y-100694532D01*
X143693313Y-100714364D01*
X143693302Y-100714366D01*
X143473511Y-100773258D01*
X143473502Y-100773261D01*
X143267267Y-100869431D01*
X143267265Y-100869432D01*
X143080858Y-100999954D01*
X142919954Y-101160858D01*
X142789432Y-101347265D01*
X142789431Y-101347267D01*
X142762382Y-101405275D01*
X142716209Y-101457714D01*
X142649016Y-101476866D01*
X142582135Y-101456650D01*
X142537618Y-101405275D01*
X142529942Y-101388813D01*
X142510568Y-101347266D01*
X142404387Y-101195623D01*
X142380045Y-101160858D01*
X142219141Y-100999954D01*
X142032734Y-100869432D01*
X142032732Y-100869431D01*
X141826497Y-100773261D01*
X141826488Y-100773258D01*
X141606697Y-100714366D01*
X141606693Y-100714365D01*
X141606692Y-100714365D01*
X141606691Y-100714364D01*
X141606686Y-100714364D01*
X141380002Y-100694532D01*
X141379998Y-100694532D01*
X141153313Y-100714364D01*
X141153302Y-100714366D01*
X140933511Y-100773258D01*
X140933502Y-100773261D01*
X140727267Y-100869431D01*
X140727265Y-100869432D01*
X140540858Y-100999954D01*
X140379954Y-101160858D01*
X140249432Y-101347265D01*
X140249431Y-101347267D01*
X140222382Y-101405275D01*
X140176209Y-101457714D01*
X140109016Y-101476866D01*
X140042135Y-101456650D01*
X139997618Y-101405275D01*
X139989942Y-101388813D01*
X139970568Y-101347266D01*
X139864387Y-101195623D01*
X139840045Y-101160858D01*
X139679141Y-100999954D01*
X139492734Y-100869432D01*
X139492732Y-100869431D01*
X139286497Y-100773261D01*
X139286488Y-100773258D01*
X139066697Y-100714366D01*
X139066693Y-100714365D01*
X139066692Y-100714365D01*
X139066691Y-100714364D01*
X139066686Y-100714364D01*
X138840002Y-100694532D01*
X138839998Y-100694532D01*
X138613313Y-100714364D01*
X138613302Y-100714366D01*
X138393511Y-100773258D01*
X138393502Y-100773261D01*
X138187267Y-100869431D01*
X138187265Y-100869432D01*
X138000858Y-100999954D01*
X137839954Y-101160858D01*
X137709433Y-101347264D01*
X137709432Y-101347266D01*
X137694929Y-101378369D01*
X137682106Y-101405867D01*
X137635933Y-101458306D01*
X137568739Y-101477457D01*
X137501858Y-101457241D01*
X137457342Y-101405865D01*
X137430135Y-101347520D01*
X137430134Y-101347518D01*
X137299657Y-101161179D01*
X137138820Y-101000342D01*
X136952482Y-100869865D01*
X136746328Y-100773734D01*
X136550000Y-100721127D01*
X136550000Y-101566988D01*
X136492993Y-101534075D01*
X136365826Y-101500000D01*
X136234174Y-101500000D01*
X136107007Y-101534075D01*
X136050000Y-101566988D01*
X136050000Y-100721127D01*
X135853671Y-100773734D01*
X135647517Y-100869865D01*
X135461179Y-101000342D01*
X135300342Y-101161179D01*
X135169867Y-101347515D01*
X135142657Y-101405867D01*
X135096484Y-101458306D01*
X135029290Y-101477457D01*
X134962409Y-101457241D01*
X134917893Y-101405865D01*
X134909941Y-101388813D01*
X134890568Y-101347266D01*
X134784387Y-101195623D01*
X134760045Y-101160858D01*
X134599141Y-100999954D01*
X134412734Y-100869432D01*
X134412732Y-100869431D01*
X134206497Y-100773261D01*
X134206488Y-100773258D01*
X133986697Y-100714366D01*
X133986693Y-100714365D01*
X133986692Y-100714365D01*
X133986691Y-100714364D01*
X133986686Y-100714364D01*
X133760002Y-100694532D01*
X133759998Y-100694532D01*
X133533313Y-100714364D01*
X133533302Y-100714366D01*
X133313511Y-100773258D01*
X133313502Y-100773261D01*
X133107267Y-100869431D01*
X133107265Y-100869432D01*
X132920858Y-100999954D01*
X132759954Y-101160858D01*
X132629432Y-101347265D01*
X132629431Y-101347267D01*
X132533261Y-101553502D01*
X132533258Y-101553511D01*
X132474366Y-101773302D01*
X132474364Y-101773313D01*
X132454532Y-101999998D01*
X132454532Y-102000001D01*
X132474364Y-102226686D01*
X132474366Y-102226697D01*
X132533258Y-102446488D01*
X132533261Y-102446497D01*
X132629431Y-102652732D01*
X132629432Y-102652734D01*
X132759954Y-102839141D01*
X132920858Y-103000045D01*
X132920861Y-103000047D01*
X133107266Y-103130568D01*
X133313504Y-103226739D01*
X133533308Y-103285635D01*
X133695230Y-103299801D01*
X133759998Y-103305468D01*
X133760000Y-103305468D01*
X133760002Y-103305468D01*
X133816673Y-103300509D01*
X133986692Y-103285635D01*
X134206496Y-103226739D01*
X134412734Y-103130568D01*
X134599139Y-103000047D01*
X134760047Y-102839139D01*
X134890568Y-102652734D01*
X134917895Y-102594129D01*
X134964064Y-102541695D01*
X135031257Y-102522542D01*
X135098139Y-102542757D01*
X135142657Y-102594133D01*
X135169865Y-102652482D01*
X135300342Y-102838820D01*
X135461179Y-102999657D01*
X135647517Y-103130134D01*
X135853673Y-103226265D01*
X135853682Y-103226269D01*
X135918418Y-103243615D01*
X135978079Y-103279980D01*
X136008608Y-103342827D01*
X136000313Y-103412202D01*
X135974006Y-103451071D01*
X125049659Y-114375420D01*
X121442220Y-117982859D01*
X121442218Y-117982861D01*
X121372538Y-118052540D01*
X121302859Y-118122219D01*
X121193371Y-118286079D01*
X121193364Y-118286092D01*
X121117950Y-118468160D01*
X121117947Y-118468170D01*
X121079500Y-118661456D01*
X121079500Y-128622410D01*
X121059815Y-128689449D01*
X121057076Y-128693532D01*
X120949431Y-128847267D01*
X120853261Y-129053502D01*
X120853258Y-129053511D01*
X120794366Y-129273302D01*
X120794364Y-129273313D01*
X120774532Y-129499998D01*
X120774532Y-129500001D01*
X120794364Y-129726686D01*
X120794366Y-129726697D01*
X120853258Y-129946488D01*
X120853261Y-129946497D01*
X120949431Y-130152732D01*
X120949432Y-130152734D01*
X121079954Y-130339141D01*
X121240858Y-130500045D01*
X121240861Y-130500047D01*
X121427266Y-130630568D01*
X121633504Y-130726739D01*
X121853308Y-130785635D01*
X122015230Y-130799801D01*
X122079998Y-130805468D01*
X122080000Y-130805468D01*
X122080002Y-130805468D01*
X122136673Y-130800509D01*
X122306692Y-130785635D01*
X122526496Y-130726739D01*
X122732734Y-130630568D01*
X122919139Y-130500047D01*
X123080047Y-130339139D01*
X123210568Y-130152734D01*
X123306739Y-129946496D01*
X123365635Y-129726692D01*
X123385468Y-129500000D01*
X123384476Y-129488666D01*
X123377297Y-129406610D01*
X123365635Y-129273308D01*
X123308301Y-129059333D01*
X123306741Y-129053511D01*
X123306738Y-129053502D01*
X123298959Y-129036819D01*
X123210568Y-128847266D01*
X123102924Y-128693532D01*
X123080597Y-128627326D01*
X123080500Y-128622410D01*
X123080500Y-119225781D01*
X123100185Y-119158742D01*
X123116814Y-119138105D01*
X128287819Y-113967099D01*
X128349142Y-113933615D01*
X128418834Y-113938599D01*
X128474767Y-113980471D01*
X128499184Y-114045935D01*
X128499500Y-114054781D01*
X128499500Y-128746538D01*
X128479815Y-128813577D01*
X128427011Y-128859332D01*
X128357853Y-128869276D01*
X128294297Y-128840251D01*
X128276234Y-128820850D01*
X128227988Y-128756403D01*
X128217546Y-128742454D01*
X128217544Y-128742453D01*
X128217544Y-128742452D01*
X128102335Y-128656206D01*
X128102328Y-128656202D01*
X127967482Y-128605908D01*
X127967483Y-128605908D01*
X127907883Y-128599501D01*
X127907881Y-128599500D01*
X127907873Y-128599500D01*
X127907864Y-128599500D01*
X126012129Y-128599500D01*
X126012123Y-128599501D01*
X125952516Y-128605908D01*
X125817671Y-128656202D01*
X125817664Y-128656206D01*
X125702455Y-128742452D01*
X125702452Y-128742455D01*
X125616206Y-128857664D01*
X125616202Y-128857671D01*
X125565908Y-128992517D01*
X125559501Y-129052116D01*
X125559500Y-129052135D01*
X125559500Y-130947870D01*
X125559501Y-130947876D01*
X125565908Y-131007483D01*
X125616202Y-131142328D01*
X125616206Y-131142335D01*
X125702452Y-131257544D01*
X125702455Y-131257547D01*
X125817664Y-131343793D01*
X125817671Y-131343797D01*
X125952517Y-131394091D01*
X125952516Y-131394091D01*
X125959444Y-131394835D01*
X126012127Y-131400500D01*
X127907872Y-131400499D01*
X127967483Y-131394091D01*
X128102331Y-131343796D01*
X128217546Y-131257546D01*
X128303796Y-131142331D01*
X128327009Y-131080095D01*
X128332455Y-131065493D01*
X128374326Y-131009559D01*
X128439790Y-130985141D01*
X128508063Y-130999992D01*
X128539866Y-131024843D01*
X128547302Y-131032920D01*
X128548215Y-131033912D01*
X128548222Y-131033918D01*
X128731365Y-131176464D01*
X128731371Y-131176468D01*
X128731374Y-131176470D01*
X128935497Y-131286936D01*
X128989479Y-131305468D01*
X129155015Y-131362297D01*
X129155017Y-131362297D01*
X129155019Y-131362298D01*
X129383951Y-131400500D01*
X129383952Y-131400500D01*
X129616048Y-131400500D01*
X129616049Y-131400500D01*
X129844981Y-131362298D01*
X130064503Y-131286936D01*
X130268626Y-131176470D01*
X130451784Y-131033913D01*
X130608979Y-130863153D01*
X130735924Y-130668849D01*
X130829157Y-130456300D01*
X130886134Y-130231305D01*
X130886516Y-130226697D01*
X130905300Y-130000006D01*
X130905300Y-129999993D01*
X130886135Y-129768702D01*
X130886133Y-129768691D01*
X130829157Y-129543699D01*
X130735924Y-129331151D01*
X130651647Y-129202155D01*
X134435000Y-129202155D01*
X134435000Y-129750000D01*
X135179670Y-129750000D01*
X135159925Y-129769745D01*
X135110556Y-129855255D01*
X135085000Y-129950630D01*
X135085000Y-130049370D01*
X135110556Y-130144745D01*
X135159925Y-130230255D01*
X135179670Y-130250000D01*
X134435000Y-130250000D01*
X134435000Y-130797844D01*
X134441401Y-130857372D01*
X134441403Y-130857379D01*
X134491645Y-130992086D01*
X134491649Y-130992093D01*
X134577809Y-131107187D01*
X134577812Y-131107190D01*
X134692906Y-131193350D01*
X134692913Y-131193354D01*
X134827620Y-131243596D01*
X134827627Y-131243598D01*
X134887155Y-131249999D01*
X134887172Y-131250000D01*
X135210000Y-131250000D01*
X135210000Y-130280330D01*
X135229745Y-130300075D01*
X135315255Y-130349444D01*
X135410630Y-130375000D01*
X135509370Y-130375000D01*
X135604745Y-130349444D01*
X135690255Y-130300075D01*
X135704500Y-130285830D01*
X135704500Y-130326003D01*
X135707113Y-130339141D01*
X135707617Y-130341671D01*
X135710000Y-130365865D01*
X135710000Y-131250000D01*
X136032828Y-131250000D01*
X136032844Y-131249999D01*
X136092372Y-131243598D01*
X136092376Y-131243597D01*
X136227089Y-131193352D01*
X136227896Y-131192748D01*
X136228845Y-131192393D01*
X136234876Y-131189101D01*
X136235349Y-131189967D01*
X136293360Y-131168329D01*
X136349661Y-131177451D01*
X136430873Y-131211091D01*
X136594288Y-131243596D01*
X136628992Y-131250499D01*
X136628996Y-131250500D01*
X136628997Y-131250500D01*
X136831004Y-131250500D01*
X136831005Y-131250499D01*
X137029127Y-131211091D01*
X137215756Y-131133786D01*
X137296110Y-131080094D01*
X137362786Y-131059217D01*
X137430166Y-131077701D01*
X137433865Y-131080078D01*
X137514244Y-131133786D01*
X137700873Y-131211091D01*
X137864288Y-131243596D01*
X137898992Y-131250499D01*
X137898996Y-131250500D01*
X137898997Y-131250500D01*
X138101004Y-131250500D01*
X138101005Y-131250499D01*
X138299127Y-131211091D01*
X138485756Y-131133786D01*
X138653718Y-131021558D01*
X138796558Y-130878718D01*
X138908786Y-130710756D01*
X138986091Y-130524127D01*
X139025500Y-130326003D01*
X139025500Y-129673997D01*
X139020466Y-129648689D01*
X139026694Y-129579099D01*
X139069558Y-129523922D01*
X139135448Y-129500678D01*
X139142084Y-129500500D01*
X140454218Y-129500500D01*
X140521257Y-129520185D01*
X140541899Y-129536819D01*
X141093111Y-130088032D01*
X141126596Y-130149355D01*
X141128958Y-130164903D01*
X141134364Y-130226688D01*
X141134366Y-130226697D01*
X141193258Y-130446488D01*
X141193261Y-130446497D01*
X141289431Y-130652732D01*
X141289432Y-130652734D01*
X141419954Y-130839141D01*
X141580858Y-131000045D01*
X141580861Y-131000047D01*
X141767266Y-131130568D01*
X141973504Y-131226739D01*
X142193308Y-131285635D01*
X142355230Y-131299801D01*
X142419998Y-131305468D01*
X142420000Y-131305468D01*
X142420002Y-131305468D01*
X142476673Y-131300509D01*
X142646692Y-131285635D01*
X142866496Y-131226739D01*
X143072734Y-131130568D01*
X143259139Y-131000047D01*
X143420047Y-130839139D01*
X143550568Y-130652734D01*
X143646739Y-130446496D01*
X143705635Y-130226692D01*
X143723798Y-130019091D01*
X143725468Y-130000001D01*
X143725468Y-129999998D01*
X151274532Y-129999998D01*
X151274532Y-130000001D01*
X151294364Y-130226686D01*
X151294366Y-130226697D01*
X151353258Y-130446488D01*
X151353261Y-130446497D01*
X151449431Y-130652732D01*
X151449432Y-130652734D01*
X151579954Y-130839141D01*
X151740858Y-131000045D01*
X151740861Y-131000047D01*
X151927266Y-131130568D01*
X152133504Y-131226739D01*
X152353308Y-131285635D01*
X152515230Y-131299801D01*
X152579998Y-131305468D01*
X152580000Y-131305468D01*
X152580002Y-131305468D01*
X152636673Y-131300509D01*
X152806692Y-131285635D01*
X153026496Y-131226739D01*
X153232734Y-131130568D01*
X153419139Y-131000047D01*
X153580047Y-130839139D01*
X153710568Y-130652734D01*
X153806739Y-130446496D01*
X153865635Y-130226692D01*
X153883798Y-130019091D01*
X153885468Y-130000001D01*
X153885468Y-129999998D01*
X153865635Y-129773313D01*
X153865635Y-129773308D01*
X153806739Y-129553504D01*
X153710568Y-129347266D01*
X153580047Y-129160861D01*
X153580045Y-129160858D01*
X153419141Y-128999954D01*
X153232734Y-128869432D01*
X153232732Y-128869431D01*
X153026497Y-128773261D01*
X153026488Y-128773258D01*
X152806697Y-128714366D01*
X152806693Y-128714365D01*
X152806692Y-128714365D01*
X152806691Y-128714364D01*
X152806686Y-128714364D01*
X152580002Y-128694532D01*
X152579998Y-128694532D01*
X152353313Y-128714364D01*
X152353302Y-128714366D01*
X152133511Y-128773258D01*
X152133502Y-128773261D01*
X151927267Y-128869431D01*
X151927265Y-128869432D01*
X151740858Y-128999954D01*
X151579954Y-129160858D01*
X151449432Y-129347265D01*
X151449431Y-129347267D01*
X151353261Y-129553502D01*
X151353258Y-129553511D01*
X151294366Y-129773302D01*
X151294364Y-129773313D01*
X151274532Y-129999998D01*
X143725468Y-129999998D01*
X143705635Y-129773313D01*
X143705635Y-129773308D01*
X143646739Y-129553504D01*
X143550568Y-129347266D01*
X143420047Y-129160861D01*
X143420045Y-129160858D01*
X143259141Y-128999954D01*
X143072734Y-128869432D01*
X143072732Y-128869431D01*
X142866497Y-128773261D01*
X142866488Y-128773258D01*
X142646697Y-128714366D01*
X142646688Y-128714364D01*
X142584903Y-128708958D01*
X142519835Y-128683504D01*
X142508032Y-128673111D01*
X141704209Y-127869289D01*
X141704206Y-127869285D01*
X141704206Y-127869286D01*
X141697139Y-127862219D01*
X141697139Y-127862218D01*
X141557782Y-127722861D01*
X141557781Y-127722860D01*
X141557780Y-127722859D01*
X141393920Y-127613371D01*
X141393911Y-127613366D01*
X141321315Y-127583296D01*
X141265165Y-127560038D01*
X141211836Y-127537949D01*
X141211832Y-127537948D01*
X141211828Y-127537946D01*
X141115188Y-127518724D01*
X141018544Y-127499500D01*
X141018541Y-127499500D01*
X137444047Y-127499500D01*
X137444043Y-127499500D01*
X137347400Y-127518724D01*
X137250755Y-127537947D01*
X137250749Y-127537949D01*
X137197422Y-127560037D01*
X137197422Y-127560038D01*
X137151903Y-127578892D01*
X137068677Y-127613366D01*
X137068667Y-127613371D01*
X136904807Y-127722859D01*
X136851587Y-127776080D01*
X136765449Y-127862218D01*
X136765446Y-127862221D01*
X136092221Y-128535446D01*
X136092218Y-128535449D01*
X136028167Y-128599500D01*
X135952861Y-128674805D01*
X135939440Y-128694892D01*
X135885827Y-128739696D01*
X135836338Y-128750000D01*
X135710000Y-128750000D01*
X135710000Y-129634134D01*
X135707617Y-129658326D01*
X135704500Y-129673997D01*
X135704500Y-129714170D01*
X135690255Y-129699925D01*
X135604745Y-129650556D01*
X135509370Y-129625000D01*
X135410630Y-129625000D01*
X135315255Y-129650556D01*
X135229745Y-129699925D01*
X135210000Y-129719670D01*
X135210000Y-128750000D01*
X134887155Y-128750000D01*
X134827627Y-128756401D01*
X134827620Y-128756403D01*
X134692913Y-128806645D01*
X134692906Y-128806649D01*
X134577812Y-128892809D01*
X134577809Y-128892812D01*
X134491649Y-129007906D01*
X134491645Y-129007913D01*
X134441403Y-129142620D01*
X134441401Y-129142627D01*
X134435000Y-129202155D01*
X130651647Y-129202155D01*
X130608979Y-129136846D01*
X130608977Y-129136844D01*
X130533270Y-129054603D01*
X130502348Y-128991948D01*
X130500500Y-128970621D01*
X130500500Y-114345781D01*
X130520185Y-114278742D01*
X130536814Y-114258105D01*
X141468033Y-103326885D01*
X141529354Y-103293402D01*
X141544898Y-103291041D01*
X141606692Y-103285635D01*
X141826496Y-103226739D01*
X142032734Y-103130568D01*
X142219139Y-103000047D01*
X142380047Y-102839139D01*
X142510568Y-102652734D01*
X142537618Y-102594724D01*
X142583790Y-102542285D01*
X142650983Y-102523133D01*
X142717865Y-102543348D01*
X142762382Y-102594725D01*
X142789429Y-102652728D01*
X142789432Y-102652734D01*
X142919954Y-102839141D01*
X143080858Y-103000045D01*
X143080861Y-103000047D01*
X143267266Y-103130568D01*
X143473504Y-103226739D01*
X143693308Y-103285635D01*
X143855230Y-103299801D01*
X143919998Y-103305468D01*
X143920000Y-103305468D01*
X143920002Y-103305468D01*
X143976673Y-103300509D01*
X144146692Y-103285635D01*
X144366496Y-103226739D01*
X144572734Y-103130568D01*
X144759139Y-103000047D01*
X144920047Y-102839139D01*
X145050568Y-102652734D01*
X145077618Y-102594724D01*
X145123790Y-102542285D01*
X145190983Y-102523133D01*
X145257865Y-102543348D01*
X145302382Y-102594725D01*
X145329429Y-102652728D01*
X145329432Y-102652734D01*
X145459954Y-102839141D01*
X145620858Y-103000045D01*
X145620861Y-103000047D01*
X145807266Y-103130568D01*
X146013504Y-103226739D01*
X146233308Y-103285635D01*
X146395230Y-103299801D01*
X146459998Y-103305468D01*
X146460000Y-103305468D01*
X146460002Y-103305468D01*
X146516673Y-103300509D01*
X146686692Y-103285635D01*
X146906496Y-103226739D01*
X147112734Y-103130568D01*
X147299139Y-103000047D01*
X147460047Y-102839139D01*
X147590568Y-102652734D01*
X147617895Y-102594129D01*
X147664064Y-102541695D01*
X147731257Y-102522542D01*
X147798139Y-102542757D01*
X147842657Y-102594133D01*
X147869865Y-102652482D01*
X148000342Y-102838820D01*
X148161179Y-102999657D01*
X148347517Y-103130134D01*
X148553673Y-103226265D01*
X148553682Y-103226269D01*
X148749999Y-103278872D01*
X148750000Y-103278871D01*
X148750000Y-102433012D01*
X148807007Y-102465925D01*
X148934174Y-102500000D01*
X149065826Y-102500000D01*
X149192993Y-102465925D01*
X149250000Y-102433012D01*
X149250000Y-103278872D01*
X149446317Y-103226269D01*
X149446326Y-103226265D01*
X149652482Y-103130134D01*
X149838820Y-102999657D01*
X149999657Y-102838820D01*
X150130132Y-102652484D01*
X150157341Y-102594134D01*
X150203513Y-102541695D01*
X150270707Y-102522542D01*
X150337588Y-102542757D01*
X150382106Y-102594133D01*
X150409431Y-102652732D01*
X150409432Y-102652734D01*
X150539954Y-102839141D01*
X150700858Y-103000045D01*
X150700861Y-103000047D01*
X150887266Y-103130568D01*
X151093504Y-103226739D01*
X151313308Y-103285635D01*
X151475230Y-103299801D01*
X151539998Y-103305468D01*
X151540000Y-103305468D01*
X151540002Y-103305468D01*
X151596673Y-103300509D01*
X151766692Y-103285635D01*
X151986496Y-103226739D01*
X152192734Y-103130568D01*
X152379139Y-103000047D01*
X152540047Y-102839139D01*
X152670568Y-102652734D01*
X152697618Y-102594724D01*
X152743790Y-102542285D01*
X152810983Y-102523133D01*
X152877865Y-102543348D01*
X152922382Y-102594725D01*
X152949429Y-102652728D01*
X152949432Y-102652734D01*
X153079954Y-102839141D01*
X153240858Y-103000045D01*
X153240861Y-103000047D01*
X153427266Y-103130568D01*
X153633504Y-103226739D01*
X153853308Y-103285635D01*
X154015230Y-103299801D01*
X154079998Y-103305468D01*
X154080000Y-103305468D01*
X154080002Y-103305468D01*
X154136673Y-103300509D01*
X154306692Y-103285635D01*
X154526496Y-103226739D01*
X154732734Y-103130568D01*
X154919139Y-103000047D01*
X155080047Y-102839139D01*
X155210568Y-102652734D01*
X155237618Y-102594724D01*
X155283790Y-102542285D01*
X155350983Y-102523133D01*
X155417865Y-102543348D01*
X155462382Y-102594725D01*
X155489429Y-102652728D01*
X155489432Y-102652734D01*
X155619954Y-102839141D01*
X155780858Y-103000045D01*
X155780861Y-103000047D01*
X155967266Y-103130568D01*
X156173504Y-103226739D01*
X156393308Y-103285635D01*
X156555230Y-103299801D01*
X156619998Y-103305468D01*
X156620000Y-103305468D01*
X156620002Y-103305468D01*
X156676673Y-103300509D01*
X156846692Y-103285635D01*
X157066496Y-103226739D01*
X157272734Y-103130568D01*
X157459139Y-103000047D01*
X157620047Y-102839139D01*
X157750568Y-102652734D01*
X157763118Y-102625819D01*
X157809290Y-102573381D01*
X157876484Y-102554229D01*
X157943365Y-102574445D01*
X157988700Y-102627610D01*
X157999500Y-102678225D01*
X157999500Y-112994216D01*
X157979815Y-113061255D01*
X157963181Y-113081897D01*
X157492304Y-113552773D01*
X157430981Y-113586258D01*
X157361289Y-113581274D01*
X157305356Y-113539402D01*
X157284848Y-113497184D01*
X157273906Y-113456346D01*
X157273904Y-113456342D01*
X157273903Y-113456337D01*
X157174035Y-113242171D01*
X157061811Y-113081897D01*
X157038494Y-113048597D01*
X156871402Y-112881506D01*
X156871396Y-112881501D01*
X156685842Y-112751575D01*
X156642217Y-112696998D01*
X156635023Y-112627500D01*
X156666546Y-112565145D01*
X156685842Y-112548425D01*
X156708026Y-112532891D01*
X156871401Y-112418495D01*
X157038495Y-112251401D01*
X157174035Y-112057830D01*
X157273903Y-111843663D01*
X157335063Y-111615408D01*
X157355659Y-111380000D01*
X157335063Y-111144592D01*
X157273903Y-110916337D01*
X157174035Y-110702171D01*
X157038495Y-110508599D01*
X156916567Y-110386671D01*
X156883084Y-110325351D01*
X156888068Y-110255659D01*
X156929939Y-110199725D01*
X156960915Y-110182810D01*
X157092331Y-110133796D01*
X157207546Y-110047546D01*
X157293796Y-109932331D01*
X157344091Y-109797483D01*
X157350500Y-109737873D01*
X157350499Y-107942128D01*
X157344091Y-107882517D01*
X157304786Y-107777136D01*
X157293797Y-107747671D01*
X157293793Y-107747664D01*
X157207547Y-107632455D01*
X157207544Y-107632452D01*
X157092335Y-107546206D01*
X157092328Y-107546202D01*
X156957482Y-107495908D01*
X156957483Y-107495908D01*
X156897883Y-107489501D01*
X156897881Y-107489500D01*
X156897873Y-107489500D01*
X156897864Y-107489500D01*
X155102129Y-107489500D01*
X155102123Y-107489501D01*
X155042516Y-107495908D01*
X154907671Y-107546202D01*
X154907664Y-107546206D01*
X154792455Y-107632452D01*
X154792452Y-107632455D01*
X154706206Y-107747664D01*
X154706202Y-107747671D01*
X154655908Y-107882517D01*
X154649501Y-107942116D01*
X154649501Y-107942123D01*
X154649500Y-107942135D01*
X154649500Y-109737870D01*
X154649501Y-109737876D01*
X154655908Y-109797483D01*
X154706202Y-109932328D01*
X154706206Y-109932335D01*
X154792452Y-110047544D01*
X154792455Y-110047547D01*
X154907664Y-110133793D01*
X154907671Y-110133797D01*
X155039081Y-110182810D01*
X155095015Y-110224681D01*
X155119432Y-110290145D01*
X155104580Y-110358418D01*
X155083430Y-110386673D01*
X154961503Y-110508600D01*
X154825965Y-110702169D01*
X154825964Y-110702171D01*
X154726098Y-110916335D01*
X154726094Y-110916344D01*
X154664938Y-111144586D01*
X154664936Y-111144596D01*
X154644341Y-111379999D01*
X154644341Y-111380000D01*
X154664936Y-111615403D01*
X154664938Y-111615413D01*
X154726094Y-111843655D01*
X154726096Y-111843659D01*
X154726097Y-111843663D01*
X154825965Y-112057830D01*
X154825967Y-112057834D01*
X154961501Y-112251395D01*
X154961506Y-112251402D01*
X155128597Y-112418493D01*
X155128603Y-112418498D01*
X155314158Y-112548425D01*
X155357783Y-112603002D01*
X155364977Y-112672500D01*
X155333454Y-112734855D01*
X155314158Y-112751575D01*
X155128597Y-112881505D01*
X154961505Y-113048597D01*
X154825965Y-113242169D01*
X154825964Y-113242171D01*
X154726098Y-113456335D01*
X154726094Y-113456344D01*
X154664938Y-113684586D01*
X154664936Y-113684596D01*
X154644341Y-113919999D01*
X154644341Y-113920000D01*
X154664936Y-114155403D01*
X154664938Y-114155413D01*
X154726094Y-114383655D01*
X154726096Y-114383659D01*
X154726097Y-114383663D01*
X154805348Y-114553616D01*
X154825965Y-114597830D01*
X154825967Y-114597834D01*
X154961501Y-114791395D01*
X154961506Y-114791402D01*
X155128597Y-114958493D01*
X155128603Y-114958498D01*
X155314158Y-115088425D01*
X155357783Y-115143002D01*
X155364977Y-115212500D01*
X155333454Y-115274855D01*
X155314158Y-115291575D01*
X155128597Y-115421505D01*
X154961505Y-115588597D01*
X154825965Y-115782169D01*
X154825964Y-115782171D01*
X154726098Y-115996335D01*
X154726094Y-115996344D01*
X154664938Y-116224586D01*
X154664936Y-116224596D01*
X154644341Y-116459999D01*
X154644341Y-116460000D01*
X154664936Y-116695403D01*
X154664938Y-116695413D01*
X154726094Y-116923655D01*
X154726096Y-116923659D01*
X154726097Y-116923663D01*
X154825965Y-117137830D01*
X154825967Y-117137834D01*
X154961501Y-117331395D01*
X154961506Y-117331402D01*
X155128597Y-117498493D01*
X155128603Y-117498498D01*
X155314158Y-117628425D01*
X155357783Y-117683002D01*
X155364977Y-117752500D01*
X155333454Y-117814855D01*
X155314158Y-117831575D01*
X155128597Y-117961505D01*
X154961505Y-118128597D01*
X154825965Y-118322169D01*
X154825964Y-118322171D01*
X154726098Y-118536335D01*
X154726094Y-118536344D01*
X154664938Y-118764586D01*
X154664936Y-118764596D01*
X154644341Y-118999999D01*
X154644341Y-119000000D01*
X154664936Y-119235403D01*
X154664938Y-119235413D01*
X154726094Y-119463655D01*
X154726096Y-119463659D01*
X154726097Y-119463663D01*
X154800577Y-119623386D01*
X154825965Y-119677830D01*
X154825967Y-119677834D01*
X154961501Y-119871395D01*
X154961506Y-119871402D01*
X155128597Y-120038493D01*
X155128603Y-120038498D01*
X155314594Y-120168730D01*
X155358219Y-120223307D01*
X155365413Y-120292805D01*
X155333890Y-120355160D01*
X155314595Y-120371880D01*
X155128922Y-120501890D01*
X155128920Y-120501891D01*
X154961891Y-120668920D01*
X154961886Y-120668926D01*
X154826400Y-120862420D01*
X154826399Y-120862422D01*
X154726570Y-121076507D01*
X154726567Y-121076513D01*
X154669364Y-121289999D01*
X154669364Y-121290000D01*
X155566988Y-121290000D01*
X155534075Y-121347007D01*
X155500000Y-121474174D01*
X155500000Y-121605826D01*
X155534075Y-121732993D01*
X155566988Y-121790000D01*
X154669364Y-121790000D01*
X154726567Y-122003486D01*
X154726570Y-122003492D01*
X154826399Y-122217578D01*
X154961894Y-122411082D01*
X155128917Y-122578105D01*
X155322421Y-122713600D01*
X155536507Y-122813429D01*
X155536516Y-122813433D01*
X155750000Y-122870634D01*
X155750000Y-121973012D01*
X155807007Y-122005925D01*
X155934174Y-122040000D01*
X156065826Y-122040000D01*
X156192993Y-122005925D01*
X156250000Y-121973012D01*
X156250000Y-122870633D01*
X156463483Y-122813433D01*
X156463492Y-122813429D01*
X156677578Y-122713600D01*
X156871082Y-122578105D01*
X157038105Y-122411082D01*
X157173600Y-122217578D01*
X157273429Y-122003492D01*
X157273432Y-122003486D01*
X157330636Y-121790000D01*
X156433012Y-121790000D01*
X156465925Y-121732993D01*
X156500000Y-121605826D01*
X156500000Y-121474174D01*
X156465925Y-121347007D01*
X156433012Y-121290000D01*
X157330636Y-121290000D01*
X157330635Y-121289999D01*
X157273432Y-121076513D01*
X157273429Y-121076507D01*
X157173600Y-120862422D01*
X157173599Y-120862420D01*
X157038113Y-120668926D01*
X157038108Y-120668920D01*
X156871078Y-120501890D01*
X156685405Y-120371879D01*
X156641780Y-120317302D01*
X156634588Y-120247804D01*
X156666110Y-120185449D01*
X156685406Y-120168730D01*
X156871401Y-120038495D01*
X157038495Y-119871401D01*
X157174035Y-119677830D01*
X157273903Y-119463663D01*
X157335063Y-119235408D01*
X157355659Y-119000000D01*
X157335063Y-118764592D01*
X157273903Y-118536337D01*
X157174035Y-118322171D01*
X157148773Y-118286092D01*
X157038494Y-118128597D01*
X156871402Y-117961506D01*
X156871396Y-117961501D01*
X156685842Y-117831575D01*
X156642217Y-117776998D01*
X156635023Y-117707500D01*
X156666546Y-117645145D01*
X156685842Y-117628425D01*
X156708026Y-117612891D01*
X156871401Y-117498495D01*
X157038495Y-117331401D01*
X157174035Y-117137830D01*
X157273903Y-116923663D01*
X157335063Y-116695408D01*
X157346043Y-116569901D01*
X157371495Y-116504834D01*
X157381882Y-116493037D01*
X159287819Y-114587101D01*
X159349142Y-114553616D01*
X159418834Y-114558600D01*
X159474767Y-114600472D01*
X159499184Y-114665936D01*
X159499500Y-114674782D01*
X159499500Y-137497785D01*
X159499421Y-137502211D01*
X159481824Y-137994906D01*
X159481193Y-138003735D01*
X159428728Y-138491732D01*
X159427468Y-138500494D01*
X159340324Y-138983499D01*
X159338442Y-138992148D01*
X159217065Y-139467699D01*
X159214571Y-139476192D01*
X159059580Y-139941866D01*
X159056487Y-139950160D01*
X158868664Y-140403602D01*
X158864987Y-140411653D01*
X158645294Y-140850546D01*
X158641056Y-140858308D01*
X158576360Y-140967348D01*
X158390613Y-141280408D01*
X158385827Y-141287854D01*
X158105916Y-141691001D01*
X158100612Y-141698087D01*
X157792647Y-142080250D01*
X157786850Y-142086940D01*
X157452411Y-142446152D01*
X157446152Y-142452411D01*
X157086940Y-142786850D01*
X157080250Y-142792647D01*
X156698087Y-143100612D01*
X156691001Y-143105916D01*
X156287854Y-143385827D01*
X156280412Y-143390610D01*
X155858308Y-143641056D01*
X155850546Y-143645294D01*
X155411653Y-143864987D01*
X155403602Y-143868664D01*
X154950160Y-144056487D01*
X154941866Y-144059580D01*
X154476192Y-144214571D01*
X154467699Y-144217065D01*
X153992148Y-144338442D01*
X153983499Y-144340324D01*
X153500494Y-144427468D01*
X153491732Y-144428728D01*
X153003735Y-144481193D01*
X152994906Y-144481824D01*
X152502212Y-144499421D01*
X152497786Y-144499500D01*
X72502214Y-144499500D01*
X72497788Y-144499421D01*
X72005093Y-144481824D01*
X71996264Y-144481193D01*
X71508267Y-144428728D01*
X71499505Y-144427468D01*
X71016500Y-144340324D01*
X71007851Y-144338442D01*
X70532300Y-144217065D01*
X70523807Y-144214571D01*
X70058133Y-144059580D01*
X70049839Y-144056487D01*
X69596397Y-143868664D01*
X69588346Y-143864987D01*
X69149453Y-143645294D01*
X69141703Y-143641062D01*
X68719574Y-143390602D01*
X68712145Y-143385827D01*
X68308998Y-143105916D01*
X68301912Y-143100612D01*
X67919749Y-142792647D01*
X67913059Y-142786850D01*
X67553847Y-142452411D01*
X67547588Y-142446152D01*
X67213149Y-142086940D01*
X67207352Y-142080250D01*
X67177222Y-142042861D01*
X67054401Y-141890449D01*
X66899387Y-141698087D01*
X66894083Y-141691001D01*
X66778750Y-141524891D01*
X66614164Y-141287842D01*
X66609401Y-141280432D01*
X66358931Y-140858287D01*
X66354705Y-140850546D01*
X66135012Y-140411653D01*
X66131335Y-140403602D01*
X65964157Y-140000000D01*
X152413497Y-140000000D01*
X152432930Y-140284106D01*
X152490870Y-140562934D01*
X152490871Y-140562937D01*
X152586234Y-140831261D01*
X152586233Y-140831261D01*
X152656748Y-140967348D01*
X152717251Y-141084113D01*
X152858498Y-141284215D01*
X152881480Y-141316772D01*
X152953724Y-141394125D01*
X153075851Y-141524891D01*
X153296755Y-141704610D01*
X153296757Y-141704611D01*
X153296758Y-141704612D01*
X153540074Y-141852576D01*
X153752069Y-141944657D01*
X153801273Y-141966030D01*
X154075488Y-142042862D01*
X154323519Y-142076953D01*
X154357611Y-142081639D01*
X154357612Y-142081639D01*
X154642389Y-142081639D01*
X154672804Y-142077458D01*
X154924512Y-142042862D01*
X155198727Y-141966030D01*
X155459927Y-141852575D01*
X155703245Y-141704610D01*
X155924149Y-141524891D01*
X156118524Y-141316767D01*
X156282749Y-141084113D01*
X156413764Y-140831265D01*
X156509130Y-140562932D01*
X156567069Y-140284112D01*
X156586503Y-140000000D01*
X156567069Y-139715888D01*
X156509130Y-139437068D01*
X156494299Y-139395339D01*
X156413765Y-139168738D01*
X156413766Y-139168738D01*
X156322264Y-138992148D01*
X156282749Y-138915887D01*
X156118524Y-138683233D01*
X156118520Y-138683229D01*
X156118519Y-138683227D01*
X156053401Y-138613503D01*
X155924149Y-138475109D01*
X155703245Y-138295390D01*
X155703243Y-138295389D01*
X155703241Y-138295387D01*
X155459925Y-138147423D01*
X155198728Y-138033970D01*
X154924517Y-137957139D01*
X154924513Y-137957138D01*
X154924512Y-137957138D01*
X154783450Y-137937749D01*
X154642389Y-137918361D01*
X154642388Y-137918361D01*
X154357612Y-137918361D01*
X154357611Y-137918361D01*
X154075488Y-137957138D01*
X154075482Y-137957139D01*
X153801271Y-138033970D01*
X153540074Y-138147423D01*
X153296758Y-138295387D01*
X153075854Y-138475106D01*
X152881480Y-138683227D01*
X152717251Y-138915886D01*
X152586234Y-139168738D01*
X152490871Y-139437062D01*
X152490870Y-139437065D01*
X152432930Y-139715893D01*
X152413497Y-140000000D01*
X65964157Y-140000000D01*
X65943512Y-139950160D01*
X65940419Y-139941866D01*
X65933700Y-139921679D01*
X65785423Y-139476177D01*
X65782938Y-139467713D01*
X65661552Y-138992128D01*
X65659679Y-138983520D01*
X65572527Y-138500471D01*
X65571274Y-138491755D01*
X65518804Y-138003717D01*
X65518176Y-137994924D01*
X65500579Y-137502211D01*
X65500500Y-137497785D01*
X65500500Y-127077135D01*
X72074500Y-127077135D01*
X72074500Y-129572870D01*
X72074501Y-129572876D01*
X72080908Y-129632483D01*
X72131202Y-129767328D01*
X72131206Y-129767335D01*
X72217452Y-129882544D01*
X72217455Y-129882547D01*
X72332664Y-129968793D01*
X72332671Y-129968797D01*
X72467517Y-130019091D01*
X72467516Y-130019091D01*
X72474444Y-130019835D01*
X72527127Y-130025500D01*
X74222872Y-130025499D01*
X74282483Y-130019091D01*
X74417331Y-129968796D01*
X74532546Y-129882546D01*
X74618796Y-129767331D01*
X74669091Y-129632483D01*
X74673061Y-129595556D01*
X74699796Y-129531011D01*
X74757188Y-129491161D01*
X74827013Y-129488666D01*
X74887102Y-129524317D01*
X74896667Y-129535929D01*
X74923032Y-129572217D01*
X75067786Y-129716971D01*
X75222749Y-129829556D01*
X75233390Y-129837287D01*
X75322212Y-129882544D01*
X75415776Y-129930218D01*
X75415778Y-129930218D01*
X75415781Y-129930220D01*
X75478597Y-129950630D01*
X75610465Y-129993477D01*
X75711557Y-130009488D01*
X75812648Y-130025500D01*
X75812649Y-130025500D01*
X76017351Y-130025500D01*
X76017352Y-130025500D01*
X76219534Y-129993477D01*
X76414219Y-129930220D01*
X76596610Y-129837287D01*
X76692901Y-129767328D01*
X76762213Y-129716971D01*
X76762215Y-129716968D01*
X76762219Y-129716966D01*
X76906966Y-129572219D01*
X76906968Y-129572215D01*
X76906971Y-129572213D01*
X77027284Y-129406614D01*
X77027285Y-129406613D01*
X77027287Y-129406610D01*
X77074516Y-129313917D01*
X77122489Y-129263123D01*
X77190310Y-129246328D01*
X77256445Y-129268865D01*
X77295485Y-129313919D01*
X77342715Y-129406614D01*
X77463028Y-129572213D01*
X77607786Y-129716971D01*
X77762749Y-129829556D01*
X77773390Y-129837287D01*
X77862212Y-129882544D01*
X77955776Y-129930218D01*
X77955778Y-129930218D01*
X77955781Y-129930220D01*
X78018597Y-129950630D01*
X78150465Y-129993477D01*
X78251557Y-130009488D01*
X78352648Y-130025500D01*
X78352649Y-130025500D01*
X78557351Y-130025500D01*
X78557352Y-130025500D01*
X78759534Y-129993477D01*
X78954219Y-129930220D01*
X79136610Y-129837287D01*
X79232901Y-129767328D01*
X79302213Y-129716971D01*
X79302215Y-129716968D01*
X79302219Y-129716966D01*
X79446966Y-129572219D01*
X79446968Y-129572215D01*
X79446971Y-129572213D01*
X79567284Y-129406614D01*
X79567285Y-129406613D01*
X79567287Y-129406610D01*
X79614516Y-129313917D01*
X79662489Y-129263123D01*
X79730310Y-129246328D01*
X79796445Y-129268865D01*
X79835485Y-129313919D01*
X79882715Y-129406614D01*
X80003028Y-129572213D01*
X80147786Y-129716971D01*
X80302749Y-129829556D01*
X80313390Y-129837287D01*
X80402212Y-129882544D01*
X80495776Y-129930218D01*
X80495778Y-129930218D01*
X80495781Y-129930220D01*
X80558597Y-129950630D01*
X80690465Y-129993477D01*
X80791557Y-130009488D01*
X80892648Y-130025500D01*
X80892649Y-130025500D01*
X81097351Y-130025500D01*
X81097352Y-130025500D01*
X81299534Y-129993477D01*
X81494219Y-129930220D01*
X81676610Y-129837287D01*
X81772901Y-129767328D01*
X81842213Y-129716971D01*
X81842215Y-129716968D01*
X81842219Y-129716966D01*
X81986966Y-129572219D01*
X81986968Y-129572215D01*
X81986971Y-129572213D01*
X82107284Y-129406614D01*
X82107285Y-129406613D01*
X82107287Y-129406610D01*
X82154516Y-129313917D01*
X82202489Y-129263123D01*
X82270310Y-129246328D01*
X82336445Y-129268865D01*
X82375485Y-129313919D01*
X82422715Y-129406614D01*
X82543028Y-129572213D01*
X82687786Y-129716971D01*
X82842749Y-129829556D01*
X82853390Y-129837287D01*
X82942212Y-129882544D01*
X83035776Y-129930218D01*
X83035778Y-129930218D01*
X83035781Y-129930220D01*
X83098597Y-129950630D01*
X83230465Y-129993477D01*
X83331557Y-130009488D01*
X83432648Y-130025500D01*
X83432649Y-130025500D01*
X83637351Y-130025500D01*
X83637352Y-130025500D01*
X83839534Y-129993477D01*
X84034219Y-129930220D01*
X84216610Y-129837287D01*
X84312901Y-129767328D01*
X84382213Y-129716971D01*
X84382215Y-129716968D01*
X84382219Y-129716966D01*
X84526966Y-129572219D01*
X84526968Y-129572215D01*
X84526971Y-129572213D01*
X84647284Y-129406614D01*
X84647285Y-129406613D01*
X84647287Y-129406610D01*
X84694516Y-129313917D01*
X84742489Y-129263123D01*
X84810310Y-129246328D01*
X84876445Y-129268865D01*
X84915485Y-129313919D01*
X84962715Y-129406614D01*
X85083028Y-129572213D01*
X85227786Y-129716971D01*
X85382749Y-129829556D01*
X85393390Y-129837287D01*
X85482212Y-129882544D01*
X85575776Y-129930218D01*
X85575778Y-129930218D01*
X85575781Y-129930220D01*
X85638597Y-129950630D01*
X85770465Y-129993477D01*
X85871557Y-130009488D01*
X85972648Y-130025500D01*
X85972649Y-130025500D01*
X86177351Y-130025500D01*
X86177352Y-130025500D01*
X86379534Y-129993477D01*
X86574219Y-129930220D01*
X86756610Y-129837287D01*
X86852901Y-129767328D01*
X86922213Y-129716971D01*
X86922215Y-129716968D01*
X86922219Y-129716966D01*
X87066966Y-129572219D01*
X87066968Y-129572215D01*
X87066971Y-129572213D01*
X87187284Y-129406614D01*
X87187285Y-129406613D01*
X87187287Y-129406610D01*
X87234516Y-129313917D01*
X87282489Y-129263123D01*
X87350310Y-129246328D01*
X87416445Y-129268865D01*
X87455485Y-129313919D01*
X87502715Y-129406614D01*
X87623028Y-129572213D01*
X87767786Y-129716971D01*
X87922749Y-129829556D01*
X87933390Y-129837287D01*
X88022212Y-129882544D01*
X88115776Y-129930218D01*
X88115778Y-129930218D01*
X88115781Y-129930220D01*
X88178597Y-129950630D01*
X88310465Y-129993477D01*
X88411557Y-130009488D01*
X88512648Y-130025500D01*
X88512649Y-130025500D01*
X88717351Y-130025500D01*
X88717352Y-130025500D01*
X88919534Y-129993477D01*
X89114219Y-129930220D01*
X89296610Y-129837287D01*
X89392901Y-129767328D01*
X89462213Y-129716971D01*
X89462215Y-129716968D01*
X89462219Y-129716966D01*
X89606966Y-129572219D01*
X89606968Y-129572215D01*
X89606971Y-129572213D01*
X89676965Y-129475873D01*
X89727287Y-129406610D01*
X89820220Y-129224219D01*
X89876133Y-129052135D01*
X95099500Y-129052135D01*
X95099500Y-130947870D01*
X95099501Y-130947876D01*
X95105908Y-131007483D01*
X95156202Y-131142328D01*
X95156206Y-131142335D01*
X95242452Y-131257544D01*
X95242455Y-131257547D01*
X95357664Y-131343793D01*
X95357671Y-131343797D01*
X95492517Y-131394091D01*
X95492516Y-131394091D01*
X95499444Y-131394835D01*
X95552127Y-131400500D01*
X97447872Y-131400499D01*
X97507483Y-131394091D01*
X97642331Y-131343796D01*
X97757546Y-131257546D01*
X97843796Y-131142331D01*
X97867009Y-131080095D01*
X97872455Y-131065493D01*
X97914326Y-131009559D01*
X97979790Y-130985141D01*
X98048063Y-130999992D01*
X98079866Y-131024843D01*
X98087302Y-131032920D01*
X98088215Y-131033912D01*
X98088222Y-131033918D01*
X98271365Y-131176464D01*
X98271371Y-131176468D01*
X98271374Y-131176470D01*
X98475497Y-131286936D01*
X98529479Y-131305468D01*
X98695015Y-131362297D01*
X98695017Y-131362297D01*
X98695019Y-131362298D01*
X98923951Y-131400500D01*
X98923952Y-131400500D01*
X99156048Y-131400500D01*
X99156049Y-131400500D01*
X99384981Y-131362298D01*
X99604503Y-131286936D01*
X99808626Y-131176470D01*
X99991784Y-131033913D01*
X100148979Y-130863153D01*
X100275924Y-130668849D01*
X100369157Y-130456300D01*
X100426134Y-130231305D01*
X100426516Y-130226697D01*
X100445300Y-130000006D01*
X100445300Y-129999993D01*
X100426135Y-129768702D01*
X100426133Y-129768691D01*
X100369157Y-129543699D01*
X100275924Y-129331151D01*
X100191647Y-129202155D01*
X103935000Y-129202155D01*
X103935000Y-129750000D01*
X104679670Y-129750000D01*
X104659925Y-129769745D01*
X104610556Y-129855255D01*
X104585000Y-129950630D01*
X104585000Y-130049370D01*
X104610556Y-130144745D01*
X104659925Y-130230255D01*
X104679670Y-130250000D01*
X103935000Y-130250000D01*
X103935000Y-130797844D01*
X103941401Y-130857372D01*
X103941403Y-130857379D01*
X103991645Y-130992086D01*
X103991649Y-130992093D01*
X104077809Y-131107187D01*
X104077812Y-131107190D01*
X104192906Y-131193350D01*
X104192913Y-131193354D01*
X104327620Y-131243596D01*
X104327627Y-131243598D01*
X104387155Y-131249999D01*
X104387172Y-131250000D01*
X104710000Y-131250000D01*
X104710000Y-130280330D01*
X104729745Y-130300075D01*
X104815255Y-130349444D01*
X104910630Y-130375000D01*
X105009370Y-130375000D01*
X105104745Y-130349444D01*
X105190255Y-130300075D01*
X105204500Y-130285830D01*
X105204500Y-130326003D01*
X105207113Y-130339141D01*
X105207617Y-130341671D01*
X105210000Y-130365865D01*
X105210000Y-131250000D01*
X105532828Y-131250000D01*
X105532844Y-131249999D01*
X105592372Y-131243598D01*
X105592376Y-131243597D01*
X105727089Y-131193352D01*
X105727896Y-131192748D01*
X105728845Y-131192393D01*
X105734876Y-131189101D01*
X105735349Y-131189967D01*
X105793360Y-131168329D01*
X105849661Y-131177451D01*
X105930873Y-131211091D01*
X106094288Y-131243596D01*
X106128992Y-131250499D01*
X106128996Y-131250500D01*
X106128997Y-131250500D01*
X106331004Y-131250500D01*
X106331005Y-131250499D01*
X106529127Y-131211091D01*
X106715756Y-131133786D01*
X106796110Y-131080094D01*
X106862786Y-131059217D01*
X106930166Y-131077701D01*
X106933865Y-131080078D01*
X107014244Y-131133786D01*
X107200873Y-131211091D01*
X107364288Y-131243596D01*
X107398992Y-131250499D01*
X107398996Y-131250500D01*
X107398997Y-131250500D01*
X107601004Y-131250500D01*
X107601005Y-131250499D01*
X107799127Y-131211091D01*
X107985756Y-131133786D01*
X108153718Y-131021558D01*
X108296558Y-130878718D01*
X108408786Y-130710756D01*
X108486091Y-130524127D01*
X108525500Y-130326003D01*
X108525500Y-129673997D01*
X108486091Y-129475873D01*
X108408786Y-129289244D01*
X108408784Y-129289241D01*
X108408782Y-129289237D01*
X108344740Y-129193391D01*
X108323862Y-129126713D01*
X108342347Y-129059333D01*
X108394326Y-129012643D01*
X108447842Y-129000500D01*
X109954218Y-129000500D01*
X110021257Y-129020185D01*
X110041899Y-129036819D01*
X110593111Y-129588032D01*
X110626596Y-129649355D01*
X110628958Y-129664903D01*
X110634364Y-129726688D01*
X110634366Y-129726697D01*
X110693258Y-129946488D01*
X110693261Y-129946497D01*
X110789431Y-130152732D01*
X110789432Y-130152734D01*
X110919954Y-130339141D01*
X111080858Y-130500045D01*
X111080861Y-130500047D01*
X111267266Y-130630568D01*
X111473504Y-130726739D01*
X111693308Y-130785635D01*
X111855230Y-130799801D01*
X111919998Y-130805468D01*
X111920000Y-130805468D01*
X111920002Y-130805468D01*
X111976673Y-130800509D01*
X112146692Y-130785635D01*
X112366496Y-130726739D01*
X112572734Y-130630568D01*
X112759139Y-130500047D01*
X112920047Y-130339139D01*
X113050568Y-130152734D01*
X113146739Y-129946496D01*
X113205635Y-129726692D01*
X113225468Y-129500000D01*
X113224476Y-129488666D01*
X113217297Y-129406610D01*
X113205635Y-129273308D01*
X113148301Y-129059333D01*
X113146741Y-129053511D01*
X113146738Y-129053502D01*
X113138959Y-129036819D01*
X113050568Y-128847266D01*
X112943876Y-128694892D01*
X112920045Y-128660858D01*
X112759141Y-128499954D01*
X112572734Y-128369432D01*
X112572732Y-128369431D01*
X112366497Y-128273261D01*
X112366488Y-128273258D01*
X112146697Y-128214366D01*
X112146688Y-128214364D01*
X112084903Y-128208958D01*
X112019835Y-128183504D01*
X112008032Y-128173111D01*
X111204209Y-127369289D01*
X111204206Y-127369285D01*
X111204206Y-127369286D01*
X111197139Y-127362219D01*
X111197139Y-127362218D01*
X111057782Y-127222861D01*
X111057781Y-127222860D01*
X111057780Y-127222859D01*
X110893916Y-127113369D01*
X110893911Y-127113366D01*
X110806440Y-127077135D01*
X110765165Y-127060038D01*
X110711836Y-127037949D01*
X110711832Y-127037948D01*
X110711828Y-127037946D01*
X110615188Y-127018724D01*
X110518544Y-126999500D01*
X110518541Y-126999500D01*
X106578540Y-126999500D01*
X106381459Y-126999500D01*
X106381456Y-126999500D01*
X106188171Y-127037946D01*
X106188167Y-127037948D01*
X106188165Y-127037948D01*
X106188164Y-127037949D01*
X106112745Y-127069188D01*
X106091988Y-127077786D01*
X106006085Y-127113368D01*
X106006085Y-127113369D01*
X106006084Y-127113369D01*
X105842222Y-127222857D01*
X105842214Y-127222863D01*
X105452860Y-127612217D01*
X105343371Y-127776080D01*
X105343364Y-127776093D01*
X105307691Y-127862218D01*
X105307691Y-127862219D01*
X105267949Y-127958163D01*
X105267947Y-127958171D01*
X105248724Y-128054812D01*
X105229500Y-128151455D01*
X105229500Y-128679138D01*
X105210000Y-128745546D01*
X105210000Y-129634134D01*
X105207617Y-129658326D01*
X105204500Y-129673997D01*
X105204500Y-129714170D01*
X105190255Y-129699925D01*
X105104745Y-129650556D01*
X105009370Y-129625000D01*
X104910630Y-129625000D01*
X104815255Y-129650556D01*
X104729745Y-129699925D01*
X104710000Y-129719670D01*
X104710000Y-128750000D01*
X104387155Y-128750000D01*
X104327627Y-128756401D01*
X104327620Y-128756403D01*
X104192913Y-128806645D01*
X104192906Y-128806649D01*
X104077812Y-128892809D01*
X104077809Y-128892812D01*
X103991649Y-129007906D01*
X103991645Y-129007913D01*
X103941403Y-129142620D01*
X103941401Y-129142627D01*
X103935000Y-129202155D01*
X100191647Y-129202155D01*
X100148983Y-129136852D01*
X100148980Y-129136849D01*
X100148979Y-129136847D01*
X99991784Y-128966087D01*
X99991779Y-128966083D01*
X99991777Y-128966081D01*
X99808634Y-128823535D01*
X99808628Y-128823531D01*
X99604504Y-128713064D01*
X99604495Y-128713061D01*
X99384984Y-128637702D01*
X99194450Y-128605908D01*
X99156049Y-128599500D01*
X98923951Y-128599500D01*
X98885550Y-128605908D01*
X98695015Y-128637702D01*
X98475504Y-128713061D01*
X98475495Y-128713064D01*
X98271371Y-128823531D01*
X98271365Y-128823535D01*
X98088222Y-128966081D01*
X98088218Y-128966085D01*
X98079866Y-128975158D01*
X98019979Y-129011148D01*
X97950141Y-129009047D01*
X97892525Y-128969522D01*
X97872455Y-128934507D01*
X97843797Y-128857671D01*
X97843793Y-128857664D01*
X97757547Y-128742455D01*
X97757544Y-128742452D01*
X97642335Y-128656206D01*
X97642328Y-128656202D01*
X97507482Y-128605908D01*
X97507483Y-128605908D01*
X97447883Y-128599501D01*
X97447881Y-128599500D01*
X97447873Y-128599500D01*
X97447864Y-128599500D01*
X95552129Y-128599500D01*
X95552123Y-128599501D01*
X95492516Y-128605908D01*
X95357671Y-128656202D01*
X95357664Y-128656206D01*
X95242455Y-128742452D01*
X95242452Y-128742455D01*
X95156206Y-128857664D01*
X95156202Y-128857671D01*
X95105908Y-128992517D01*
X95099501Y-129052116D01*
X95099500Y-129052135D01*
X89876133Y-129052135D01*
X89883477Y-129029534D01*
X89915500Y-128827352D01*
X89915500Y-127822648D01*
X89883477Y-127620466D01*
X89863842Y-127560037D01*
X89835517Y-127472861D01*
X89820220Y-127425781D01*
X89820218Y-127425778D01*
X89820218Y-127425776D01*
X89774515Y-127336080D01*
X89727287Y-127243390D01*
X89712372Y-127222861D01*
X89606971Y-127077786D01*
X89462213Y-126933028D01*
X89296613Y-126812715D01*
X89296612Y-126812714D01*
X89296610Y-126812713D01*
X89239653Y-126783691D01*
X89114223Y-126719781D01*
X88919534Y-126656522D01*
X88744995Y-126628878D01*
X88717352Y-126624500D01*
X88512648Y-126624500D01*
X88488329Y-126628351D01*
X88310465Y-126656522D01*
X88115776Y-126719781D01*
X87933386Y-126812715D01*
X87767786Y-126933028D01*
X87623028Y-127077786D01*
X87502715Y-127243386D01*
X87455485Y-127336080D01*
X87407510Y-127386876D01*
X87339689Y-127403671D01*
X87273554Y-127381134D01*
X87234515Y-127336080D01*
X87233883Y-127334840D01*
X87187287Y-127243390D01*
X87172372Y-127222861D01*
X87066971Y-127077786D01*
X86922213Y-126933028D01*
X86756613Y-126812715D01*
X86756612Y-126812714D01*
X86756610Y-126812713D01*
X86699653Y-126783691D01*
X86574223Y-126719781D01*
X86379534Y-126656522D01*
X86204995Y-126628878D01*
X86177352Y-126624500D01*
X85972648Y-126624500D01*
X85948329Y-126628351D01*
X85770465Y-126656522D01*
X85575776Y-126719781D01*
X85393386Y-126812715D01*
X85227786Y-126933028D01*
X85083028Y-127077786D01*
X84962715Y-127243386D01*
X84915485Y-127336080D01*
X84867510Y-127386876D01*
X84799689Y-127403671D01*
X84733554Y-127381134D01*
X84694515Y-127336080D01*
X84693883Y-127334840D01*
X84647287Y-127243390D01*
X84632372Y-127222861D01*
X84526971Y-127077786D01*
X84382213Y-126933028D01*
X84216613Y-126812715D01*
X84216612Y-126812714D01*
X84216610Y-126812713D01*
X84159653Y-126783691D01*
X84034223Y-126719781D01*
X83839534Y-126656522D01*
X83664995Y-126628878D01*
X83637352Y-126624500D01*
X83432648Y-126624500D01*
X83408329Y-126628351D01*
X83230465Y-126656522D01*
X83035776Y-126719781D01*
X82853386Y-126812715D01*
X82687786Y-126933028D01*
X82543028Y-127077786D01*
X82422715Y-127243386D01*
X82375485Y-127336080D01*
X82327510Y-127386876D01*
X82259689Y-127403671D01*
X82193554Y-127381134D01*
X82154515Y-127336080D01*
X82153883Y-127334840D01*
X82107287Y-127243390D01*
X82092372Y-127222861D01*
X81986971Y-127077786D01*
X81842213Y-126933028D01*
X81676613Y-126812715D01*
X81676612Y-126812714D01*
X81676610Y-126812713D01*
X81619653Y-126783691D01*
X81494223Y-126719781D01*
X81299534Y-126656522D01*
X81124995Y-126628878D01*
X81097352Y-126624500D01*
X80892648Y-126624500D01*
X80868329Y-126628351D01*
X80690465Y-126656522D01*
X80495776Y-126719781D01*
X80313386Y-126812715D01*
X80147786Y-126933028D01*
X80003028Y-127077786D01*
X79882715Y-127243386D01*
X79835485Y-127336080D01*
X79787510Y-127386876D01*
X79719689Y-127403671D01*
X79653554Y-127381134D01*
X79614515Y-127336080D01*
X79613883Y-127334840D01*
X79567287Y-127243390D01*
X79552372Y-127222861D01*
X79446971Y-127077786D01*
X79302213Y-126933028D01*
X79136613Y-126812715D01*
X79136612Y-126812714D01*
X79136610Y-126812713D01*
X79079653Y-126783691D01*
X78954223Y-126719781D01*
X78759534Y-126656522D01*
X78584995Y-126628878D01*
X78557352Y-126624500D01*
X78352648Y-126624500D01*
X78328329Y-126628351D01*
X78150465Y-126656522D01*
X77955776Y-126719781D01*
X77773386Y-126812715D01*
X77607786Y-126933028D01*
X77463028Y-127077786D01*
X77342715Y-127243386D01*
X77295485Y-127336080D01*
X77247510Y-127386876D01*
X77179689Y-127403671D01*
X77113554Y-127381134D01*
X77074515Y-127336080D01*
X77073883Y-127334840D01*
X77027287Y-127243390D01*
X77012372Y-127222861D01*
X76906971Y-127077786D01*
X76762213Y-126933028D01*
X76596613Y-126812715D01*
X76596612Y-126812714D01*
X76596610Y-126812713D01*
X76539653Y-126783691D01*
X76414223Y-126719781D01*
X76219534Y-126656522D01*
X76044995Y-126628878D01*
X76017352Y-126624500D01*
X75812648Y-126624500D01*
X75788329Y-126628351D01*
X75610465Y-126656522D01*
X75415776Y-126719781D01*
X75233386Y-126812715D01*
X75067786Y-126933028D01*
X74923032Y-127077782D01*
X74896668Y-127114070D01*
X74841338Y-127156735D01*
X74771724Y-127162714D01*
X74709929Y-127130108D01*
X74675572Y-127069269D01*
X74673060Y-127054438D01*
X74671287Y-127037946D01*
X74669091Y-127017517D01*
X74618796Y-126882669D01*
X74618795Y-126882668D01*
X74618793Y-126882664D01*
X74532547Y-126767455D01*
X74532544Y-126767452D01*
X74417335Y-126681206D01*
X74417328Y-126681202D01*
X74282482Y-126630908D01*
X74282483Y-126630908D01*
X74222883Y-126624501D01*
X74222881Y-126624500D01*
X74222873Y-126624500D01*
X74222864Y-126624500D01*
X72527129Y-126624500D01*
X72527123Y-126624501D01*
X72467516Y-126630908D01*
X72332671Y-126681202D01*
X72332664Y-126681206D01*
X72217455Y-126767452D01*
X72217452Y-126767455D01*
X72131206Y-126882664D01*
X72131202Y-126882671D01*
X72080908Y-127017517D01*
X72074501Y-127077116D01*
X72074500Y-127077135D01*
X65500500Y-127077135D01*
X65500500Y-120202648D01*
X72074500Y-120202648D01*
X72074500Y-121207351D01*
X72106522Y-121409534D01*
X72169781Y-121604223D01*
X72262715Y-121786613D01*
X72383028Y-121952213D01*
X72527786Y-122096971D01*
X72682749Y-122209556D01*
X72693390Y-122217287D01*
X72809607Y-122276503D01*
X72875776Y-122310218D01*
X72875778Y-122310218D01*
X72875781Y-122310220D01*
X72980137Y-122344127D01*
X73070465Y-122373477D01*
X73171557Y-122389488D01*
X73272648Y-122405500D01*
X73272649Y-122405500D01*
X73477351Y-122405500D01*
X73477352Y-122405500D01*
X73679534Y-122373477D01*
X73874219Y-122310220D01*
X74056610Y-122217287D01*
X74149590Y-122149732D01*
X74222213Y-122096971D01*
X74222215Y-122096968D01*
X74222219Y-122096966D01*
X74366966Y-121952219D01*
X74366968Y-121952215D01*
X74366971Y-121952213D01*
X74487284Y-121786614D01*
X74487285Y-121786613D01*
X74487287Y-121786610D01*
X74534516Y-121693917D01*
X74582489Y-121643123D01*
X74650310Y-121626328D01*
X74716445Y-121648865D01*
X74755485Y-121693919D01*
X74802715Y-121786614D01*
X74923028Y-121952213D01*
X75067786Y-122096971D01*
X75222749Y-122209556D01*
X75233390Y-122217287D01*
X75349607Y-122276503D01*
X75415776Y-122310218D01*
X75415778Y-122310218D01*
X75415781Y-122310220D01*
X75520137Y-122344127D01*
X75610465Y-122373477D01*
X75711557Y-122389488D01*
X75812648Y-122405500D01*
X75812649Y-122405500D01*
X76017351Y-122405500D01*
X76017352Y-122405500D01*
X76219534Y-122373477D01*
X76414219Y-122310220D01*
X76596610Y-122217287D01*
X76689590Y-122149732D01*
X76762213Y-122096971D01*
X76762215Y-122096968D01*
X76762219Y-122096966D01*
X76906966Y-121952219D01*
X76906968Y-121952215D01*
X76906971Y-121952213D01*
X77027284Y-121786614D01*
X77027285Y-121786613D01*
X77027287Y-121786610D01*
X77074516Y-121693917D01*
X77122489Y-121643123D01*
X77190310Y-121626328D01*
X77256445Y-121648865D01*
X77295485Y-121693919D01*
X77342715Y-121786614D01*
X77463028Y-121952213D01*
X77607786Y-122096971D01*
X77762749Y-122209556D01*
X77773390Y-122217287D01*
X77889607Y-122276503D01*
X77955776Y-122310218D01*
X77955778Y-122310218D01*
X77955781Y-122310220D01*
X78060137Y-122344127D01*
X78150465Y-122373477D01*
X78251557Y-122389488D01*
X78352648Y-122405500D01*
X78352649Y-122405500D01*
X78557351Y-122405500D01*
X78557352Y-122405500D01*
X78759534Y-122373477D01*
X78954219Y-122310220D01*
X79136610Y-122217287D01*
X79229590Y-122149732D01*
X79302213Y-122096971D01*
X79302215Y-122096968D01*
X79302219Y-122096966D01*
X79446966Y-121952219D01*
X79446968Y-121952215D01*
X79446971Y-121952213D01*
X79567284Y-121786614D01*
X79567285Y-121786613D01*
X79567287Y-121786610D01*
X79614516Y-121693917D01*
X79662489Y-121643123D01*
X79730310Y-121626328D01*
X79796445Y-121648865D01*
X79835485Y-121693919D01*
X79882715Y-121786614D01*
X80003028Y-121952213D01*
X80147786Y-122096971D01*
X80302749Y-122209556D01*
X80313390Y-122217287D01*
X80429607Y-122276503D01*
X80495776Y-122310218D01*
X80495778Y-122310218D01*
X80495781Y-122310220D01*
X80600137Y-122344127D01*
X80690465Y-122373477D01*
X80791557Y-122389488D01*
X80892648Y-122405500D01*
X80892649Y-122405500D01*
X81097351Y-122405500D01*
X81097352Y-122405500D01*
X81299534Y-122373477D01*
X81494219Y-122310220D01*
X81676610Y-122217287D01*
X81769590Y-122149732D01*
X81842213Y-122096971D01*
X81842215Y-122096968D01*
X81842219Y-122096966D01*
X81986966Y-121952219D01*
X81986968Y-121952215D01*
X81986971Y-121952213D01*
X82107284Y-121786614D01*
X82107285Y-121786613D01*
X82107287Y-121786610D01*
X82154516Y-121693917D01*
X82202489Y-121643123D01*
X82270310Y-121626328D01*
X82336445Y-121648865D01*
X82375485Y-121693919D01*
X82422715Y-121786614D01*
X82543028Y-121952213D01*
X82687786Y-122096971D01*
X82842749Y-122209556D01*
X82853390Y-122217287D01*
X82969607Y-122276503D01*
X83035776Y-122310218D01*
X83035778Y-122310218D01*
X83035781Y-122310220D01*
X83140137Y-122344127D01*
X83230465Y-122373477D01*
X83331557Y-122389488D01*
X83432648Y-122405500D01*
X83432649Y-122405500D01*
X83637351Y-122405500D01*
X83637352Y-122405500D01*
X83839534Y-122373477D01*
X84034219Y-122310220D01*
X84216610Y-122217287D01*
X84309590Y-122149732D01*
X84382213Y-122096971D01*
X84382215Y-122096968D01*
X84382219Y-122096966D01*
X84526966Y-121952219D01*
X84526968Y-121952215D01*
X84526971Y-121952213D01*
X84647284Y-121786614D01*
X84647285Y-121786613D01*
X84647287Y-121786610D01*
X84694516Y-121693917D01*
X84742489Y-121643123D01*
X84810310Y-121626328D01*
X84876445Y-121648865D01*
X84915485Y-121693919D01*
X84962715Y-121786614D01*
X85083028Y-121952213D01*
X85227786Y-122096971D01*
X85382749Y-122209556D01*
X85393390Y-122217287D01*
X85509607Y-122276503D01*
X85575776Y-122310218D01*
X85575778Y-122310218D01*
X85575781Y-122310220D01*
X85680137Y-122344127D01*
X85770465Y-122373477D01*
X85871557Y-122389488D01*
X85972648Y-122405500D01*
X85972649Y-122405500D01*
X86177351Y-122405500D01*
X86177352Y-122405500D01*
X86379534Y-122373477D01*
X86574219Y-122310220D01*
X86756610Y-122217287D01*
X86849590Y-122149732D01*
X86922213Y-122096971D01*
X86922215Y-122096968D01*
X86922219Y-122096966D01*
X87066966Y-121952219D01*
X87066968Y-121952215D01*
X87066971Y-121952213D01*
X87187284Y-121786614D01*
X87187285Y-121786613D01*
X87187287Y-121786610D01*
X87234516Y-121693917D01*
X87282489Y-121643123D01*
X87350310Y-121626328D01*
X87416445Y-121648865D01*
X87455485Y-121693919D01*
X87502715Y-121786614D01*
X87623028Y-121952213D01*
X87767786Y-122096971D01*
X87922749Y-122209556D01*
X87933390Y-122217287D01*
X88049607Y-122276503D01*
X88115776Y-122310218D01*
X88115778Y-122310218D01*
X88115781Y-122310220D01*
X88220137Y-122344127D01*
X88310465Y-122373477D01*
X88411557Y-122389488D01*
X88512648Y-122405500D01*
X88512649Y-122405500D01*
X88717351Y-122405500D01*
X88717352Y-122405500D01*
X88919534Y-122373477D01*
X89114219Y-122310220D01*
X89296610Y-122217287D01*
X89389590Y-122149732D01*
X89462213Y-122096971D01*
X89462215Y-122096968D01*
X89462219Y-122096966D01*
X89606966Y-121952219D01*
X89606968Y-121952215D01*
X89606971Y-121952213D01*
X89683406Y-121847007D01*
X89727287Y-121786610D01*
X89820220Y-121604219D01*
X89883477Y-121409534D01*
X89915500Y-121207352D01*
X89915500Y-120202648D01*
X89883477Y-120000466D01*
X89820220Y-119805781D01*
X89820218Y-119805778D01*
X89820218Y-119805776D01*
X89774515Y-119716080D01*
X89727287Y-119623390D01*
X89719556Y-119612749D01*
X89606971Y-119457786D01*
X89462213Y-119313028D01*
X89296613Y-119192715D01*
X89296612Y-119192714D01*
X89296610Y-119192713D01*
X89229938Y-119158742D01*
X89114223Y-119099781D01*
X88919534Y-119036522D01*
X88744995Y-119008878D01*
X88717352Y-119004500D01*
X88512648Y-119004500D01*
X88488329Y-119008351D01*
X88310465Y-119036522D01*
X88115776Y-119099781D01*
X87933386Y-119192715D01*
X87767786Y-119313028D01*
X87623028Y-119457786D01*
X87502715Y-119623386D01*
X87455485Y-119716080D01*
X87407510Y-119766876D01*
X87339689Y-119783671D01*
X87273554Y-119761134D01*
X87234515Y-119716080D01*
X87233883Y-119714840D01*
X87187287Y-119623390D01*
X87179556Y-119612749D01*
X87066971Y-119457786D01*
X86922213Y-119313028D01*
X86756613Y-119192715D01*
X86756612Y-119192714D01*
X86756610Y-119192713D01*
X86689938Y-119158742D01*
X86574223Y-119099781D01*
X86379534Y-119036522D01*
X86204995Y-119008878D01*
X86177352Y-119004500D01*
X85972648Y-119004500D01*
X85948329Y-119008351D01*
X85770465Y-119036522D01*
X85575776Y-119099781D01*
X85393386Y-119192715D01*
X85227786Y-119313028D01*
X85083028Y-119457786D01*
X84962715Y-119623386D01*
X84915485Y-119716080D01*
X84867510Y-119766876D01*
X84799689Y-119783671D01*
X84733554Y-119761134D01*
X84694515Y-119716080D01*
X84693883Y-119714840D01*
X84647287Y-119623390D01*
X84639556Y-119612749D01*
X84526971Y-119457786D01*
X84382213Y-119313028D01*
X84216613Y-119192715D01*
X84216612Y-119192714D01*
X84216610Y-119192713D01*
X84149938Y-119158742D01*
X84034223Y-119099781D01*
X83839534Y-119036522D01*
X83664995Y-119008878D01*
X83637352Y-119004500D01*
X83432648Y-119004500D01*
X83408329Y-119008351D01*
X83230465Y-119036522D01*
X83035776Y-119099781D01*
X82853386Y-119192715D01*
X82687786Y-119313028D01*
X82543028Y-119457786D01*
X82422715Y-119623386D01*
X82375485Y-119716080D01*
X82327510Y-119766876D01*
X82259689Y-119783671D01*
X82193554Y-119761134D01*
X82154515Y-119716080D01*
X82153883Y-119714840D01*
X82107287Y-119623390D01*
X82099556Y-119612749D01*
X81986971Y-119457786D01*
X81842213Y-119313028D01*
X81676613Y-119192715D01*
X81676612Y-119192714D01*
X81676610Y-119192713D01*
X81609938Y-119158742D01*
X81494223Y-119099781D01*
X81299534Y-119036522D01*
X81124995Y-119008878D01*
X81097352Y-119004500D01*
X80892648Y-119004500D01*
X80868329Y-119008351D01*
X80690465Y-119036522D01*
X80495776Y-119099781D01*
X80313386Y-119192715D01*
X80147786Y-119313028D01*
X80003028Y-119457786D01*
X79882715Y-119623386D01*
X79835485Y-119716080D01*
X79787510Y-119766876D01*
X79719689Y-119783671D01*
X79653554Y-119761134D01*
X79614515Y-119716080D01*
X79613883Y-119714840D01*
X79567287Y-119623390D01*
X79559556Y-119612749D01*
X79446971Y-119457786D01*
X79302213Y-119313028D01*
X79136613Y-119192715D01*
X79136612Y-119192714D01*
X79136610Y-119192713D01*
X79069938Y-119158742D01*
X78954223Y-119099781D01*
X78759534Y-119036522D01*
X78584995Y-119008878D01*
X78557352Y-119004500D01*
X78352648Y-119004500D01*
X78328329Y-119008351D01*
X78150465Y-119036522D01*
X77955776Y-119099781D01*
X77773386Y-119192715D01*
X77607786Y-119313028D01*
X77463028Y-119457786D01*
X77342715Y-119623386D01*
X77295485Y-119716080D01*
X77247510Y-119766876D01*
X77179689Y-119783671D01*
X77113554Y-119761134D01*
X77074515Y-119716080D01*
X77073883Y-119714840D01*
X77027287Y-119623390D01*
X77019556Y-119612749D01*
X76906971Y-119457786D01*
X76762213Y-119313028D01*
X76596613Y-119192715D01*
X76596612Y-119192714D01*
X76596610Y-119192713D01*
X76529938Y-119158742D01*
X76414223Y-119099781D01*
X76219534Y-119036522D01*
X76044995Y-119008878D01*
X76017352Y-119004500D01*
X75812648Y-119004500D01*
X75788329Y-119008351D01*
X75610465Y-119036522D01*
X75415776Y-119099781D01*
X75233386Y-119192715D01*
X75067786Y-119313028D01*
X74923028Y-119457786D01*
X74802715Y-119623386D01*
X74755485Y-119716080D01*
X74707510Y-119766876D01*
X74639689Y-119783671D01*
X74573554Y-119761134D01*
X74534515Y-119716080D01*
X74533883Y-119714840D01*
X74487287Y-119623390D01*
X74479556Y-119612749D01*
X74366971Y-119457786D01*
X74222213Y-119313028D01*
X74056613Y-119192715D01*
X74056612Y-119192714D01*
X74056610Y-119192713D01*
X73989938Y-119158742D01*
X73874223Y-119099781D01*
X73679534Y-119036522D01*
X73504995Y-119008878D01*
X73477352Y-119004500D01*
X73272648Y-119004500D01*
X73248329Y-119008351D01*
X73070465Y-119036522D01*
X72875776Y-119099781D01*
X72693386Y-119192715D01*
X72527786Y-119313028D01*
X72383028Y-119457786D01*
X72262715Y-119623386D01*
X72169781Y-119805776D01*
X72106522Y-120000465D01*
X72074500Y-120202648D01*
X65500500Y-120202648D01*
X65500500Y-99999994D01*
X67394859Y-99999994D01*
X67394859Y-100000005D01*
X67415385Y-100247729D01*
X67415387Y-100247738D01*
X67476412Y-100488717D01*
X67576266Y-100716364D01*
X67676564Y-100869882D01*
X68417037Y-100129409D01*
X68434075Y-100192993D01*
X68499901Y-100307007D01*
X68592993Y-100400099D01*
X68707007Y-100465925D01*
X68770590Y-100482962D01*
X68029942Y-101223609D01*
X68076768Y-101260055D01*
X68076770Y-101260056D01*
X68295385Y-101378364D01*
X68295396Y-101378369D01*
X68530506Y-101459083D01*
X68775707Y-101500000D01*
X69024293Y-101500000D01*
X69269493Y-101459083D01*
X69504603Y-101378369D01*
X69504614Y-101378364D01*
X69723228Y-101260057D01*
X69723231Y-101260055D01*
X69770056Y-101223609D01*
X69029409Y-100482962D01*
X69092993Y-100465925D01*
X69207007Y-100400099D01*
X69300099Y-100307007D01*
X69365925Y-100192993D01*
X69382962Y-100129410D01*
X70123434Y-100869882D01*
X70223731Y-100716369D01*
X70323587Y-100488717D01*
X70384612Y-100247738D01*
X70384614Y-100247729D01*
X70405141Y-100000005D01*
X70405141Y-99999994D01*
X70384614Y-99752270D01*
X70384612Y-99752261D01*
X70323587Y-99511282D01*
X70223731Y-99283630D01*
X70123434Y-99130116D01*
X69382962Y-99870589D01*
X69365925Y-99807007D01*
X69300099Y-99692993D01*
X69207007Y-99599901D01*
X69092993Y-99534075D01*
X69029410Y-99517037D01*
X69594312Y-98952135D01*
X74999500Y-98952135D01*
X74999500Y-101047870D01*
X74999501Y-101047876D01*
X75005908Y-101107483D01*
X75056202Y-101242328D01*
X75056206Y-101242335D01*
X75142452Y-101357544D01*
X75142455Y-101357547D01*
X75257664Y-101443793D01*
X75257671Y-101443797D01*
X75392517Y-101494091D01*
X75392516Y-101494091D01*
X75399444Y-101494835D01*
X75452127Y-101500500D01*
X77547872Y-101500499D01*
X77607483Y-101494091D01*
X77742331Y-101443796D01*
X77857546Y-101357546D01*
X77943796Y-101242331D01*
X77994091Y-101107483D01*
X77994091Y-101107481D01*
X77995874Y-101099938D01*
X77998146Y-101100474D01*
X78020429Y-101046688D01*
X78077823Y-101006843D01*
X78116976Y-101000500D01*
X94049588Y-101000500D01*
X94116627Y-101020185D01*
X94162382Y-101072989D01*
X94172326Y-101142147D01*
X94143301Y-101205703D01*
X94084523Y-101243477D01*
X94081681Y-101244275D01*
X93973511Y-101273258D01*
X93973502Y-101273261D01*
X93767267Y-101369431D01*
X93767265Y-101369432D01*
X93580858Y-101499954D01*
X93419954Y-101660858D01*
X93289432Y-101847265D01*
X93289431Y-101847267D01*
X93193261Y-102053502D01*
X93193258Y-102053511D01*
X93134366Y-102273302D01*
X93134364Y-102273313D01*
X93114532Y-102499998D01*
X93114532Y-102500001D01*
X93134364Y-102726686D01*
X93134366Y-102726697D01*
X93193258Y-102946488D01*
X93193261Y-102946497D01*
X93289431Y-103152732D01*
X93289432Y-103152734D01*
X93419954Y-103339141D01*
X93580858Y-103500045D01*
X93580861Y-103500047D01*
X93767266Y-103630568D01*
X93973504Y-103726739D01*
X94193308Y-103785635D01*
X94355230Y-103799801D01*
X94419998Y-103805468D01*
X94420000Y-103805468D01*
X94420002Y-103805468D01*
X94476673Y-103800509D01*
X94646692Y-103785635D01*
X94866496Y-103726739D01*
X95072734Y-103630568D01*
X95259139Y-103500047D01*
X95420047Y-103339139D01*
X95550568Y-103152734D01*
X95646739Y-102946496D01*
X95705635Y-102726692D01*
X95725468Y-102500000D01*
X95705635Y-102273308D01*
X95646739Y-102053504D01*
X95550568Y-101847266D01*
X95420047Y-101660861D01*
X95420045Y-101660858D01*
X95259141Y-101499954D01*
X95072734Y-101369432D01*
X95072732Y-101369431D01*
X94866497Y-101273261D01*
X94866488Y-101273258D01*
X94758319Y-101244275D01*
X94698658Y-101207910D01*
X94668129Y-101145063D01*
X94676424Y-101075688D01*
X94720909Y-101021810D01*
X94787461Y-101000535D01*
X94790412Y-101000500D01*
X104211520Y-101000500D01*
X104278559Y-101020185D01*
X104324314Y-101072989D01*
X104334258Y-101142147D01*
X104305233Y-101205703D01*
X104246455Y-101243477D01*
X104243613Y-101244275D01*
X104133682Y-101273730D01*
X104133673Y-101273734D01*
X103927517Y-101369865D01*
X103741179Y-101500342D01*
X103580342Y-101661179D01*
X103449865Y-101847517D01*
X103353734Y-102053673D01*
X103353730Y-102053682D01*
X103301127Y-102249999D01*
X103301128Y-102250000D01*
X104264314Y-102250000D01*
X104259920Y-102254394D01*
X104207259Y-102345606D01*
X104180000Y-102447339D01*
X104180000Y-102552661D01*
X104207259Y-102654394D01*
X104259920Y-102745606D01*
X104264314Y-102750000D01*
X103301128Y-102750000D01*
X103353730Y-102946317D01*
X103353734Y-102946326D01*
X103449865Y-103152482D01*
X103580342Y-103338820D01*
X103741179Y-103499657D01*
X103927517Y-103630134D01*
X104133673Y-103726265D01*
X104133682Y-103726269D01*
X104329999Y-103778872D01*
X104330000Y-103778871D01*
X104330000Y-102815686D01*
X104334394Y-102820080D01*
X104425606Y-102872741D01*
X104527339Y-102900000D01*
X104632661Y-102900000D01*
X104734394Y-102872741D01*
X104825606Y-102820080D01*
X104830000Y-102815686D01*
X104830000Y-103778872D01*
X105026317Y-103726269D01*
X105026326Y-103726265D01*
X105232482Y-103630134D01*
X105418820Y-103499657D01*
X105579657Y-103338820D01*
X105710134Y-103152482D01*
X105806265Y-102946326D01*
X105806269Y-102946317D01*
X105858872Y-102750000D01*
X104895686Y-102750000D01*
X104900080Y-102745606D01*
X104952741Y-102654394D01*
X104980000Y-102552661D01*
X104980000Y-102447339D01*
X104952741Y-102345606D01*
X104900080Y-102254394D01*
X104895686Y-102250000D01*
X105858872Y-102250000D01*
X105858872Y-102249999D01*
X105806269Y-102053682D01*
X105806265Y-102053673D01*
X105710134Y-101847517D01*
X105579657Y-101661179D01*
X105418820Y-101500342D01*
X105232482Y-101369865D01*
X105026326Y-101273734D01*
X105026317Y-101273730D01*
X104916387Y-101244275D01*
X104856726Y-101207910D01*
X104826197Y-101145063D01*
X104834492Y-101075688D01*
X104878977Y-101021810D01*
X104945529Y-101000535D01*
X104948480Y-101000500D01*
X110794037Y-101000500D01*
X110861076Y-101020185D01*
X110906831Y-101072989D01*
X110916775Y-101142147D01*
X110895612Y-101195623D01*
X110789432Y-101347265D01*
X110789431Y-101347267D01*
X110693261Y-101553502D01*
X110693258Y-101553511D01*
X110634366Y-101773302D01*
X110634364Y-101773313D01*
X110614532Y-101999998D01*
X110614532Y-102000001D01*
X110634364Y-102226686D01*
X110634366Y-102226697D01*
X110693258Y-102446488D01*
X110693261Y-102446497D01*
X110738424Y-102543348D01*
X110789432Y-102652734D01*
X110841217Y-102726692D01*
X110897075Y-102806465D01*
X110919402Y-102872671D01*
X110919500Y-102877588D01*
X110919500Y-107018541D01*
X110919500Y-107018543D01*
X110919499Y-107018543D01*
X110957947Y-107211829D01*
X110957950Y-107211839D01*
X111033364Y-107393907D01*
X111033371Y-107393920D01*
X111142860Y-107557781D01*
X111142863Y-107557785D01*
X111286530Y-107701452D01*
X111286549Y-107701469D01*
X111332744Y-107747664D01*
X111362220Y-107777140D01*
X111526079Y-107886627D01*
X111526083Y-107886629D01*
X111526086Y-107886631D01*
X111708164Y-107962051D01*
X111901455Y-108000499D01*
X111901458Y-108000500D01*
X111901460Y-108000500D01*
X112098542Y-108000500D01*
X112098543Y-108000499D01*
X112291836Y-107962051D01*
X112473914Y-107886631D01*
X112637781Y-107777139D01*
X112777139Y-107637781D01*
X112886631Y-107473914D01*
X112962051Y-107291836D01*
X113000500Y-107098540D01*
X113000500Y-106901460D01*
X113000500Y-106901457D01*
X113000499Y-106901455D01*
X112997551Y-106886633D01*
X112962051Y-106708164D01*
X112929939Y-106630639D01*
X112920500Y-106583186D01*
X112920500Y-102877588D01*
X112940185Y-102810549D01*
X112942925Y-102806465D01*
X112982462Y-102750000D01*
X113050568Y-102652734D01*
X113077618Y-102594724D01*
X113123790Y-102542285D01*
X113190983Y-102523133D01*
X113257865Y-102543348D01*
X113302381Y-102594724D01*
X113329432Y-102652734D01*
X113381217Y-102726692D01*
X113437075Y-102806465D01*
X113459402Y-102872671D01*
X113459500Y-102877588D01*
X113459500Y-106058541D01*
X113459500Y-106058543D01*
X113459499Y-106058543D01*
X113497947Y-106251829D01*
X113497950Y-106251839D01*
X113573364Y-106433907D01*
X113573371Y-106433920D01*
X113682859Y-106597780D01*
X113682860Y-106597781D01*
X113682861Y-106597782D01*
X113780556Y-106695477D01*
X113862216Y-106777137D01*
X113862220Y-106777141D01*
X114026079Y-106886628D01*
X114026088Y-106886633D01*
X114061884Y-106901460D01*
X114208165Y-106962052D01*
X114401455Y-107000500D01*
X114401458Y-107000501D01*
X114401460Y-107000501D01*
X114598543Y-107000501D01*
X114598544Y-107000500D01*
X114791836Y-106962052D01*
X114973915Y-106886632D01*
X115137782Y-106777140D01*
X115277140Y-106637782D01*
X115386632Y-106473915D01*
X115462052Y-106291836D01*
X115500501Y-106098541D01*
X115500501Y-105901460D01*
X115500501Y-105901457D01*
X115500500Y-105901455D01*
X115462883Y-105712340D01*
X115460500Y-105688149D01*
X115460500Y-102877588D01*
X115480185Y-102810549D01*
X115482925Y-102806465D01*
X115522462Y-102750000D01*
X115590568Y-102652734D01*
X115617618Y-102594724D01*
X115663790Y-102542285D01*
X115730983Y-102523133D01*
X115797865Y-102543348D01*
X115842382Y-102594725D01*
X115869429Y-102652728D01*
X115869432Y-102652734D01*
X115999954Y-102839141D01*
X116160858Y-103000045D01*
X116160861Y-103000047D01*
X116347266Y-103130568D01*
X116553504Y-103226739D01*
X116773308Y-103285635D01*
X116935230Y-103299801D01*
X116999998Y-103305468D01*
X117000000Y-103305468D01*
X117000002Y-103305468D01*
X117056673Y-103300509D01*
X117226692Y-103285635D01*
X117446496Y-103226739D01*
X117652734Y-103130568D01*
X117839139Y-103000047D01*
X118000047Y-102839139D01*
X118130568Y-102652734D01*
X118157618Y-102594724D01*
X118203790Y-102542285D01*
X118270983Y-102523133D01*
X118337865Y-102543348D01*
X118382382Y-102594725D01*
X118409429Y-102652728D01*
X118409432Y-102652734D01*
X118539954Y-102839141D01*
X118700858Y-103000045D01*
X118700861Y-103000047D01*
X118887266Y-103130568D01*
X119093504Y-103226739D01*
X119313308Y-103285635D01*
X119475230Y-103299801D01*
X119539998Y-103305468D01*
X119540000Y-103305468D01*
X119540002Y-103305468D01*
X119596673Y-103300509D01*
X119766692Y-103285635D01*
X119986496Y-103226739D01*
X120192734Y-103130568D01*
X120379139Y-103000047D01*
X120540047Y-102839139D01*
X120670568Y-102652734D01*
X120697618Y-102594724D01*
X120743790Y-102542285D01*
X120810983Y-102523133D01*
X120877865Y-102543348D01*
X120922382Y-102594725D01*
X120949429Y-102652728D01*
X120949432Y-102652734D01*
X121079954Y-102839141D01*
X121240858Y-103000045D01*
X121240861Y-103000047D01*
X121427266Y-103130568D01*
X121633504Y-103226739D01*
X121853308Y-103285635D01*
X122015230Y-103299801D01*
X122079998Y-103305468D01*
X122080000Y-103305468D01*
X122080002Y-103305468D01*
X122136673Y-103300509D01*
X122306692Y-103285635D01*
X122526496Y-103226739D01*
X122732734Y-103130568D01*
X122919139Y-103000047D01*
X123080047Y-102839139D01*
X123210568Y-102652734D01*
X123237618Y-102594724D01*
X123283790Y-102542285D01*
X123350983Y-102523133D01*
X123417865Y-102543348D01*
X123462382Y-102594725D01*
X123489429Y-102652728D01*
X123489432Y-102652734D01*
X123619954Y-102839141D01*
X123780858Y-103000045D01*
X123780861Y-103000047D01*
X123967266Y-103130568D01*
X124173504Y-103226739D01*
X124393308Y-103285635D01*
X124555230Y-103299801D01*
X124619998Y-103305468D01*
X124620000Y-103305468D01*
X124620002Y-103305468D01*
X124676673Y-103300509D01*
X124846692Y-103285635D01*
X125066496Y-103226739D01*
X125272734Y-103130568D01*
X125459139Y-103000047D01*
X125620047Y-102839139D01*
X125750568Y-102652734D01*
X125777618Y-102594724D01*
X125823790Y-102542285D01*
X125890983Y-102523133D01*
X125957865Y-102543348D01*
X126002382Y-102594725D01*
X126029429Y-102652728D01*
X126029432Y-102652734D01*
X126159954Y-102839141D01*
X126320858Y-103000045D01*
X126320861Y-103000047D01*
X126507266Y-103130568D01*
X126713504Y-103226739D01*
X126933308Y-103285635D01*
X127095230Y-103299801D01*
X127159998Y-103305468D01*
X127160000Y-103305468D01*
X127160002Y-103305468D01*
X127216673Y-103300509D01*
X127386692Y-103285635D01*
X127606496Y-103226739D01*
X127812734Y-103130568D01*
X127999139Y-103000047D01*
X128160047Y-102839139D01*
X128290568Y-102652734D01*
X128317618Y-102594724D01*
X128363790Y-102542285D01*
X128430983Y-102523133D01*
X128497865Y-102543348D01*
X128542382Y-102594725D01*
X128569429Y-102652728D01*
X128569432Y-102652734D01*
X128699954Y-102839141D01*
X128860858Y-103000045D01*
X128860861Y-103000047D01*
X129047266Y-103130568D01*
X129253504Y-103226739D01*
X129473308Y-103285635D01*
X129635230Y-103299801D01*
X129699998Y-103305468D01*
X129700000Y-103305468D01*
X129700002Y-103305468D01*
X129756673Y-103300509D01*
X129926692Y-103285635D01*
X130146496Y-103226739D01*
X130352734Y-103130568D01*
X130539139Y-103000047D01*
X130700047Y-102839139D01*
X130830568Y-102652734D01*
X130926739Y-102446496D01*
X130985635Y-102226692D01*
X131005468Y-102000000D01*
X130985635Y-101773308D01*
X130926739Y-101553504D01*
X130830568Y-101347266D01*
X130724387Y-101195623D01*
X130700045Y-101160858D01*
X130539141Y-100999954D01*
X130352734Y-100869432D01*
X130352732Y-100869431D01*
X130146497Y-100773261D01*
X130146488Y-100773258D01*
X129926697Y-100714366D01*
X129926693Y-100714365D01*
X129926692Y-100714365D01*
X129926691Y-100714364D01*
X129926686Y-100714364D01*
X129700002Y-100694532D01*
X129699998Y-100694532D01*
X129473313Y-100714364D01*
X129473302Y-100714366D01*
X129253511Y-100773258D01*
X129253502Y-100773261D01*
X129047267Y-100869431D01*
X129047265Y-100869432D01*
X128860858Y-100999954D01*
X128699954Y-101160858D01*
X128569432Y-101347265D01*
X128569431Y-101347267D01*
X128542382Y-101405275D01*
X128496209Y-101457714D01*
X128429016Y-101476866D01*
X128362135Y-101456650D01*
X128317618Y-101405275D01*
X128309942Y-101388813D01*
X128290568Y-101347266D01*
X128184387Y-101195623D01*
X128160045Y-101160858D01*
X127999141Y-100999954D01*
X127812734Y-100869432D01*
X127812732Y-100869431D01*
X127606497Y-100773261D01*
X127606488Y-100773258D01*
X127386697Y-100714366D01*
X127386688Y-100714364D01*
X127324902Y-100708958D01*
X127259834Y-100683504D01*
X127248031Y-100673111D01*
X125941479Y-99366559D01*
X125941459Y-99366537D01*
X125797785Y-99222863D01*
X125797781Y-99222860D01*
X125633920Y-99113371D01*
X125633911Y-99113366D01*
X125561315Y-99083296D01*
X125505165Y-99060038D01*
X125451836Y-99037949D01*
X125451832Y-99037948D01*
X125451828Y-99037946D01*
X125355188Y-99018724D01*
X125258544Y-98999500D01*
X125258541Y-98999500D01*
X78116977Y-98999500D01*
X78049938Y-98979815D01*
X78004183Y-98927011D01*
X77996733Y-98899865D01*
X77995876Y-98900068D01*
X77994092Y-98892520D01*
X77943797Y-98757671D01*
X77943793Y-98757664D01*
X77857547Y-98642455D01*
X77857544Y-98642452D01*
X77742335Y-98556206D01*
X77742328Y-98556202D01*
X77607482Y-98505908D01*
X77607483Y-98505908D01*
X77547883Y-98499501D01*
X77547881Y-98499500D01*
X77547873Y-98499500D01*
X77547864Y-98499500D01*
X75452129Y-98499500D01*
X75452123Y-98499501D01*
X75392516Y-98505908D01*
X75257671Y-98556202D01*
X75257664Y-98556206D01*
X75142455Y-98642452D01*
X75142452Y-98642455D01*
X75056206Y-98757664D01*
X75056202Y-98757671D01*
X75005908Y-98892517D01*
X74999501Y-98952116D01*
X74999500Y-98952135D01*
X69594312Y-98952135D01*
X69770057Y-98776390D01*
X69770056Y-98776389D01*
X69723229Y-98739943D01*
X69504614Y-98621635D01*
X69504603Y-98621630D01*
X69269493Y-98540916D01*
X69024293Y-98500000D01*
X68775707Y-98500000D01*
X68530506Y-98540916D01*
X68295396Y-98621630D01*
X68295390Y-98621632D01*
X68076761Y-98739949D01*
X68029942Y-98776388D01*
X68029942Y-98776390D01*
X68770590Y-99517037D01*
X68707007Y-99534075D01*
X68592993Y-99599901D01*
X68499901Y-99692993D01*
X68434075Y-99807007D01*
X68417037Y-99870589D01*
X67676564Y-99130116D01*
X67576267Y-99283632D01*
X67476412Y-99511282D01*
X67415387Y-99752261D01*
X67415385Y-99752270D01*
X67394859Y-99999994D01*
X65500500Y-99999994D01*
X65500500Y-95552135D01*
X89059500Y-95552135D01*
X89059500Y-97447870D01*
X89059501Y-97447876D01*
X89065908Y-97507483D01*
X89116202Y-97642328D01*
X89116206Y-97642335D01*
X89202452Y-97757544D01*
X89202455Y-97757547D01*
X89317664Y-97843793D01*
X89317671Y-97843797D01*
X89452517Y-97894091D01*
X89452516Y-97894091D01*
X89459444Y-97894835D01*
X89512127Y-97900500D01*
X91407872Y-97900499D01*
X91467483Y-97894091D01*
X91602331Y-97843796D01*
X91717546Y-97757546D01*
X91803796Y-97642331D01*
X91832455Y-97565493D01*
X91874326Y-97509559D01*
X91939790Y-97485141D01*
X92008063Y-97499992D01*
X92039866Y-97524843D01*
X92047302Y-97532920D01*
X92048215Y-97533912D01*
X92048222Y-97533918D01*
X92231365Y-97676464D01*
X92231371Y-97676468D01*
X92231374Y-97676470D01*
X92435497Y-97786936D01*
X92549487Y-97826068D01*
X92655015Y-97862297D01*
X92655017Y-97862297D01*
X92655019Y-97862298D01*
X92883951Y-97900500D01*
X92883952Y-97900500D01*
X93116048Y-97900500D01*
X93116049Y-97900500D01*
X93344981Y-97862298D01*
X93564503Y-97786936D01*
X93768626Y-97676470D01*
X93951784Y-97533913D01*
X94108979Y-97363153D01*
X94235924Y-97168849D01*
X94329157Y-96956300D01*
X94386134Y-96731305D01*
X94400676Y-96555785D01*
X94425829Y-96490603D01*
X94436564Y-96478354D01*
X97143101Y-93771819D01*
X97204424Y-93738334D01*
X97230782Y-93735500D01*
X103125500Y-93735500D01*
X103192539Y-93755185D01*
X103238294Y-93807989D01*
X103249500Y-93859500D01*
X103249500Y-94061007D01*
X103288907Y-94259119D01*
X103288909Y-94259127D01*
X103366213Y-94445755D01*
X103419904Y-94526109D01*
X103440782Y-94592787D01*
X103422297Y-94660167D01*
X103419904Y-94663891D01*
X103366213Y-94744244D01*
X103288909Y-94930872D01*
X103288907Y-94930880D01*
X103249500Y-95128992D01*
X103249500Y-95331007D01*
X103288907Y-95529119D01*
X103288910Y-95529131D01*
X103322547Y-95610338D01*
X103330016Y-95679807D01*
X103310405Y-95724864D01*
X103310895Y-95725132D01*
X103307910Y-95730596D01*
X103307260Y-95732092D01*
X103306646Y-95732911D01*
X103306645Y-95732913D01*
X103256403Y-95867620D01*
X103256401Y-95867627D01*
X103250000Y-95927155D01*
X103250000Y-96250000D01*
X104134134Y-96250000D01*
X104158326Y-96252383D01*
X104161123Y-96252939D01*
X104173995Y-96255499D01*
X104173996Y-96255500D01*
X104173997Y-96255500D01*
X104214170Y-96255500D01*
X104199925Y-96269745D01*
X104150556Y-96355255D01*
X104125000Y-96450630D01*
X104125000Y-96549370D01*
X104150556Y-96644745D01*
X104199925Y-96730255D01*
X104219670Y-96750000D01*
X103250000Y-96750000D01*
X103250000Y-97072844D01*
X103256401Y-97132372D01*
X103256403Y-97132379D01*
X103306645Y-97267086D01*
X103306649Y-97267093D01*
X103392809Y-97382187D01*
X103392812Y-97382190D01*
X103507906Y-97468350D01*
X103507913Y-97468354D01*
X103642620Y-97518596D01*
X103642627Y-97518598D01*
X103702155Y-97524999D01*
X103702172Y-97525000D01*
X104250000Y-97525000D01*
X104250000Y-96780330D01*
X104269745Y-96800075D01*
X104355255Y-96849444D01*
X104450630Y-96875000D01*
X104549370Y-96875000D01*
X104644745Y-96849444D01*
X104730255Y-96800075D01*
X104750000Y-96780330D01*
X104750000Y-97525000D01*
X105297828Y-97525000D01*
X105297844Y-97524999D01*
X105357372Y-97518598D01*
X105357379Y-97518596D01*
X105492086Y-97468354D01*
X105492093Y-97468350D01*
X105607187Y-97382190D01*
X105607190Y-97382187D01*
X105693350Y-97267093D01*
X105693354Y-97267086D01*
X105743596Y-97132379D01*
X105743598Y-97132372D01*
X105749999Y-97072844D01*
X105750000Y-97072827D01*
X105750000Y-96999998D01*
X127034532Y-96999998D01*
X127034532Y-97000001D01*
X127054364Y-97226686D01*
X127054366Y-97226697D01*
X127113258Y-97446488D01*
X127113261Y-97446497D01*
X127209431Y-97652732D01*
X127209432Y-97652734D01*
X127339954Y-97839141D01*
X127500858Y-98000045D01*
X127500861Y-98000047D01*
X127687266Y-98130568D01*
X127893504Y-98226739D01*
X128113308Y-98285635D01*
X128275230Y-98299801D01*
X128339998Y-98305468D01*
X128340000Y-98305468D01*
X128340002Y-98305468D01*
X128396673Y-98300509D01*
X128566692Y-98285635D01*
X128786496Y-98226739D01*
X128992734Y-98130568D01*
X129179139Y-98000047D01*
X129340047Y-97839139D01*
X129470568Y-97652734D01*
X129566739Y-97446496D01*
X129625635Y-97226692D01*
X129645468Y-97000000D01*
X129625635Y-96773308D01*
X129619389Y-96749999D01*
X137221127Y-96749999D01*
X137221128Y-96750000D01*
X138184314Y-96750000D01*
X138179920Y-96754394D01*
X138127259Y-96845606D01*
X138100000Y-96947339D01*
X138100000Y-97052661D01*
X138127259Y-97154394D01*
X138179920Y-97245606D01*
X138184314Y-97250000D01*
X137221128Y-97250000D01*
X137273730Y-97446317D01*
X137273734Y-97446326D01*
X137369865Y-97652482D01*
X137500342Y-97838820D01*
X137661179Y-97999657D01*
X137847517Y-98130134D01*
X138053673Y-98226265D01*
X138053682Y-98226269D01*
X138249999Y-98278872D01*
X138250000Y-98278871D01*
X138250000Y-97315686D01*
X138254394Y-97320080D01*
X138345606Y-97372741D01*
X138447339Y-97400000D01*
X138552661Y-97400000D01*
X138654394Y-97372741D01*
X138745606Y-97320080D01*
X138750000Y-97315686D01*
X138750000Y-98278872D01*
X138946317Y-98226269D01*
X138946326Y-98226265D01*
X139152482Y-98130134D01*
X139338820Y-97999657D01*
X139499657Y-97838820D01*
X139630134Y-97652482D01*
X139726265Y-97446326D01*
X139726269Y-97446317D01*
X139778872Y-97250000D01*
X138815686Y-97250000D01*
X138820080Y-97245606D01*
X138872741Y-97154394D01*
X138900000Y-97052661D01*
X138900000Y-96999998D01*
X145034532Y-96999998D01*
X145034532Y-97000001D01*
X145054364Y-97226686D01*
X145054366Y-97226697D01*
X145113258Y-97446488D01*
X145113261Y-97446497D01*
X145209431Y-97652732D01*
X145209432Y-97652734D01*
X145339954Y-97839141D01*
X145500858Y-98000045D01*
X145500861Y-98000047D01*
X145687266Y-98130568D01*
X145893504Y-98226739D01*
X146113308Y-98285635D01*
X146275230Y-98299801D01*
X146339998Y-98305468D01*
X146340000Y-98305468D01*
X146340002Y-98305468D01*
X146396673Y-98300509D01*
X146566692Y-98285635D01*
X146786496Y-98226739D01*
X146992734Y-98130568D01*
X147179139Y-98000047D01*
X147340047Y-97839139D01*
X147470568Y-97652734D01*
X147566739Y-97446496D01*
X147625635Y-97226692D01*
X147645468Y-97000000D01*
X147625635Y-96773308D01*
X147566739Y-96553504D01*
X147470568Y-96347266D01*
X147340047Y-96160861D01*
X147340045Y-96160858D01*
X147179141Y-95999954D01*
X146992734Y-95869432D01*
X146992732Y-95869431D01*
X146786497Y-95773261D01*
X146786488Y-95773258D01*
X146566697Y-95714366D01*
X146566693Y-95714365D01*
X146566692Y-95714365D01*
X146566691Y-95714364D01*
X146566686Y-95714364D01*
X146340002Y-95694532D01*
X146339998Y-95694532D01*
X146113313Y-95714364D01*
X146113302Y-95714366D01*
X145893511Y-95773258D01*
X145893502Y-95773261D01*
X145687267Y-95869431D01*
X145687265Y-95869432D01*
X145500858Y-95999954D01*
X145339954Y-96160858D01*
X145209432Y-96347265D01*
X145209431Y-96347267D01*
X145113261Y-96553502D01*
X145113258Y-96553511D01*
X145054366Y-96773302D01*
X145054364Y-96773313D01*
X145034532Y-96999998D01*
X138900000Y-96999998D01*
X138900000Y-96947339D01*
X138872741Y-96845606D01*
X138820080Y-96754394D01*
X138815686Y-96750000D01*
X139778872Y-96750000D01*
X139778872Y-96749999D01*
X139726269Y-96553682D01*
X139726265Y-96553673D01*
X139630134Y-96347517D01*
X139499657Y-96161179D01*
X139338820Y-96000342D01*
X139152482Y-95869865D01*
X138946328Y-95773734D01*
X138750000Y-95721127D01*
X138750000Y-96684314D01*
X138745606Y-96679920D01*
X138654394Y-96627259D01*
X138552661Y-96600000D01*
X138447339Y-96600000D01*
X138345606Y-96627259D01*
X138254394Y-96679920D01*
X138250000Y-96684314D01*
X138250000Y-95721127D01*
X138053671Y-95773734D01*
X137847517Y-95869865D01*
X137661179Y-96000342D01*
X137500342Y-96161179D01*
X137369865Y-96347517D01*
X137273734Y-96553673D01*
X137273730Y-96553682D01*
X137221127Y-96749999D01*
X129619389Y-96749999D01*
X129566739Y-96553504D01*
X129470568Y-96347266D01*
X129340047Y-96160861D01*
X129340045Y-96160858D01*
X129179141Y-95999954D01*
X128992734Y-95869432D01*
X128992732Y-95869431D01*
X128786497Y-95773261D01*
X128786488Y-95773258D01*
X128566697Y-95714366D01*
X128566693Y-95714365D01*
X128566692Y-95714365D01*
X128566691Y-95714364D01*
X128566686Y-95714364D01*
X128340002Y-95694532D01*
X128339998Y-95694532D01*
X128113313Y-95714364D01*
X128113302Y-95714366D01*
X127893511Y-95773258D01*
X127893502Y-95773261D01*
X127687267Y-95869431D01*
X127687265Y-95869432D01*
X127500858Y-95999954D01*
X127339954Y-96160858D01*
X127209432Y-96347265D01*
X127209431Y-96347267D01*
X127113261Y-96553502D01*
X127113258Y-96553511D01*
X127054366Y-96773302D01*
X127054364Y-96773313D01*
X127034532Y-96999998D01*
X105750000Y-96999998D01*
X105750000Y-96750000D01*
X104780330Y-96750000D01*
X104800075Y-96730255D01*
X104849444Y-96644745D01*
X104875000Y-96549370D01*
X104875000Y-96450630D01*
X104849444Y-96355255D01*
X104800075Y-96269745D01*
X104785830Y-96255500D01*
X104826004Y-96255500D01*
X104826004Y-96255499D01*
X104839473Y-96252820D01*
X104841674Y-96252383D01*
X104865866Y-96250000D01*
X105750000Y-96250000D01*
X105750000Y-95927172D01*
X105749999Y-95927155D01*
X105743598Y-95867627D01*
X105743596Y-95867620D01*
X105693354Y-95732913D01*
X105693353Y-95732911D01*
X105692745Y-95732099D01*
X105692390Y-95731148D01*
X105689103Y-95725128D01*
X105689968Y-95724655D01*
X105668329Y-95666634D01*
X105677452Y-95610338D01*
X105711091Y-95529127D01*
X105750500Y-95331003D01*
X105750500Y-95128997D01*
X105711091Y-94930873D01*
X105633786Y-94744244D01*
X105580094Y-94663889D01*
X105559217Y-94597214D01*
X105577701Y-94529834D01*
X105580078Y-94526134D01*
X105633786Y-94445756D01*
X105711091Y-94259127D01*
X105750500Y-94061003D01*
X105750500Y-93859500D01*
X105770185Y-93792461D01*
X105822989Y-93746706D01*
X105874500Y-93735500D01*
X113636334Y-93735500D01*
X113655662Y-93731655D01*
X113732980Y-93716275D01*
X113829628Y-93697051D01*
X113882957Y-93674961D01*
X114011706Y-93621632D01*
X114175574Y-93512139D01*
X114314931Y-93372782D01*
X114314932Y-93372779D01*
X114321998Y-93365714D01*
X114322001Y-93365710D01*
X115687713Y-91999998D01*
X117614532Y-91999998D01*
X117614532Y-92000001D01*
X117634364Y-92226686D01*
X117634366Y-92226697D01*
X117693258Y-92446488D01*
X117693261Y-92446497D01*
X117789431Y-92652732D01*
X117789432Y-92652734D01*
X117919954Y-92839141D01*
X118080858Y-93000045D01*
X118080861Y-93000047D01*
X118267266Y-93130568D01*
X118473504Y-93226739D01*
X118693308Y-93285635D01*
X118855230Y-93299801D01*
X118919998Y-93305468D01*
X118920000Y-93305468D01*
X118920002Y-93305468D01*
X118976673Y-93300509D01*
X119146692Y-93285635D01*
X119366496Y-93226739D01*
X119572734Y-93130568D01*
X119759139Y-93000047D01*
X119920047Y-92839139D01*
X120050568Y-92652734D01*
X120146739Y-92446496D01*
X120205635Y-92226692D01*
X120225468Y-92000000D01*
X120225468Y-91999998D01*
X127774532Y-91999998D01*
X127774532Y-92000001D01*
X127794364Y-92226686D01*
X127794366Y-92226697D01*
X127853258Y-92446488D01*
X127853261Y-92446497D01*
X127949431Y-92652732D01*
X127949432Y-92652734D01*
X128079954Y-92839141D01*
X128240858Y-93000045D01*
X128240861Y-93000047D01*
X128427266Y-93130568D01*
X128633504Y-93226739D01*
X128853308Y-93285635D01*
X129015230Y-93299801D01*
X129079998Y-93305468D01*
X129080000Y-93305468D01*
X129080002Y-93305468D01*
X129136673Y-93300509D01*
X129306692Y-93285635D01*
X129526496Y-93226739D01*
X129732734Y-93130568D01*
X129919139Y-93000047D01*
X130080047Y-92839139D01*
X130210568Y-92652734D01*
X130281790Y-92499998D01*
X137694532Y-92499998D01*
X137694532Y-92500001D01*
X137714364Y-92726686D01*
X137714366Y-92726697D01*
X137773258Y-92946488D01*
X137773261Y-92946497D01*
X137869431Y-93152732D01*
X137869432Y-93152734D01*
X137999954Y-93339141D01*
X138160858Y-93500045D01*
X138160861Y-93500047D01*
X138347266Y-93630568D01*
X138553504Y-93726739D01*
X138553509Y-93726740D01*
X138553511Y-93726741D01*
X138596777Y-93738334D01*
X138773308Y-93785635D01*
X138935230Y-93799801D01*
X138999998Y-93805468D01*
X139000000Y-93805468D01*
X139000002Y-93805468D01*
X139061642Y-93800075D01*
X139226692Y-93785635D01*
X139446496Y-93726739D01*
X139652734Y-93630568D01*
X139839139Y-93500047D01*
X140000047Y-93339139D01*
X140115683Y-93173992D01*
X148934500Y-93173992D01*
X148934500Y-93826004D01*
X148957117Y-93939706D01*
X148959500Y-93963898D01*
X148959500Y-95058541D01*
X148959500Y-95058543D01*
X148959499Y-95058543D01*
X148997947Y-95251829D01*
X148997950Y-95251839D01*
X149073364Y-95433907D01*
X149073371Y-95433920D01*
X149182860Y-95597781D01*
X149182863Y-95597785D01*
X149221926Y-95636847D01*
X149222860Y-95637781D01*
X149222861Y-95637782D01*
X149279611Y-95694532D01*
X149358337Y-95773258D01*
X149362220Y-95777141D01*
X149526079Y-95886628D01*
X149526085Y-95886631D01*
X149526086Y-95886632D01*
X149708165Y-95962052D01*
X149898705Y-95999953D01*
X149901455Y-96000500D01*
X149901458Y-96000501D01*
X149901460Y-96000501D01*
X150104655Y-96000501D01*
X150104675Y-96000500D01*
X153773542Y-96000500D01*
X153792870Y-95996655D01*
X153870188Y-95981275D01*
X153966836Y-95962051D01*
X154020165Y-95939961D01*
X154148914Y-95886632D01*
X154312782Y-95777139D01*
X154452139Y-95637782D01*
X154452140Y-95637781D01*
X154502139Y-95587782D01*
X154578223Y-95473915D01*
X154611632Y-95423914D01*
X154687052Y-95241835D01*
X154725500Y-95048540D01*
X154725500Y-94851459D01*
X154725500Y-87520465D01*
X154745185Y-87453426D01*
X154797989Y-87407671D01*
X154867147Y-87397727D01*
X154869846Y-87398146D01*
X154883951Y-87400500D01*
X154883952Y-87400500D01*
X155116048Y-87400500D01*
X155116049Y-87400500D01*
X155344981Y-87362298D01*
X155564503Y-87286936D01*
X155768626Y-87176470D01*
X155951784Y-87033913D01*
X156108979Y-86863153D01*
X156235924Y-86668849D01*
X156329157Y-86456300D01*
X156386134Y-86231305D01*
X156387288Y-86217379D01*
X156405300Y-86000006D01*
X156405300Y-85999993D01*
X156386135Y-85768702D01*
X156386133Y-85768691D01*
X156329157Y-85543699D01*
X156235924Y-85331151D01*
X156108983Y-85136852D01*
X156108980Y-85136849D01*
X156108979Y-85136847D01*
X155951784Y-84966087D01*
X155951779Y-84966083D01*
X155951777Y-84966081D01*
X155768634Y-84823535D01*
X155768628Y-84823531D01*
X155564504Y-84713064D01*
X155564495Y-84713061D01*
X155344984Y-84637702D01*
X155154450Y-84605908D01*
X155116049Y-84599500D01*
X154883951Y-84599500D01*
X154845550Y-84605908D01*
X154655015Y-84637702D01*
X154435504Y-84713061D01*
X154435495Y-84713064D01*
X154231371Y-84823531D01*
X154231365Y-84823535D01*
X154048222Y-84966081D01*
X154048218Y-84966085D01*
X154039866Y-84975158D01*
X153979979Y-85011148D01*
X153910141Y-85009047D01*
X153852525Y-84969522D01*
X153832455Y-84934507D01*
X153803797Y-84857671D01*
X153803793Y-84857664D01*
X153717547Y-84742455D01*
X153717544Y-84742452D01*
X153602335Y-84656206D01*
X153602328Y-84656202D01*
X153467482Y-84605908D01*
X153467483Y-84605908D01*
X153407883Y-84599501D01*
X153407881Y-84599500D01*
X153407873Y-84599500D01*
X153407864Y-84599500D01*
X151512129Y-84599500D01*
X151512123Y-84599501D01*
X151452516Y-84605908D01*
X151317671Y-84656202D01*
X151317664Y-84656206D01*
X151202455Y-84742452D01*
X151202452Y-84742455D01*
X151116206Y-84857664D01*
X151116202Y-84857671D01*
X151065908Y-84992517D01*
X151059501Y-85052116D01*
X151059500Y-85052135D01*
X151059500Y-86947870D01*
X151059501Y-86947876D01*
X151065908Y-87007483D01*
X151116202Y-87142328D01*
X151116206Y-87142335D01*
X151202452Y-87257544D01*
X151202455Y-87257547D01*
X151317664Y-87343793D01*
X151317671Y-87343797D01*
X151452517Y-87394091D01*
X151452516Y-87394091D01*
X151459444Y-87394835D01*
X151512127Y-87400500D01*
X152394217Y-87400499D01*
X152461256Y-87420183D01*
X152481898Y-87436818D01*
X152688181Y-87643101D01*
X152721666Y-87704424D01*
X152724500Y-87730782D01*
X152724500Y-93196602D01*
X152644745Y-93150556D01*
X152549370Y-93125000D01*
X152450630Y-93125000D01*
X152355255Y-93150556D01*
X152269745Y-93199925D01*
X152255500Y-93214170D01*
X152255500Y-93173996D01*
X152255499Y-93173995D01*
X152252383Y-93158326D01*
X152250000Y-93134134D01*
X152250000Y-92250000D01*
X151927155Y-92250000D01*
X151867627Y-92256401D01*
X151867620Y-92256403D01*
X151732913Y-92306645D01*
X151732911Y-92306646D01*
X151732092Y-92307260D01*
X151731134Y-92307616D01*
X151725132Y-92310895D01*
X151724660Y-92310031D01*
X151666625Y-92331671D01*
X151610338Y-92322547D01*
X151529131Y-92288910D01*
X151529119Y-92288907D01*
X151331007Y-92249500D01*
X151331003Y-92249500D01*
X151128997Y-92249500D01*
X151128992Y-92249500D01*
X150930880Y-92288907D01*
X150930872Y-92288909D01*
X150744244Y-92366213D01*
X150663891Y-92419904D01*
X150597213Y-92440782D01*
X150529833Y-92422297D01*
X150526109Y-92419904D01*
X150445755Y-92366213D01*
X150259127Y-92288909D01*
X150259119Y-92288907D01*
X150061007Y-92249500D01*
X150061003Y-92249500D01*
X149858997Y-92249500D01*
X149858992Y-92249500D01*
X149660880Y-92288907D01*
X149660872Y-92288909D01*
X149474247Y-92366212D01*
X149474237Y-92366217D01*
X149306281Y-92478441D01*
X149163441Y-92621281D01*
X149051217Y-92789237D01*
X149051212Y-92789247D01*
X148973909Y-92975872D01*
X148973907Y-92975880D01*
X148934500Y-93173992D01*
X140115683Y-93173992D01*
X140130568Y-93152734D01*
X140226739Y-92946496D01*
X140285635Y-92726692D01*
X140305468Y-92500000D01*
X140285635Y-92273308D01*
X140226739Y-92053504D01*
X140130568Y-91847266D01*
X140000047Y-91660861D01*
X140000045Y-91660858D01*
X139839141Y-91499954D01*
X139652734Y-91369432D01*
X139652732Y-91369431D01*
X139446497Y-91273261D01*
X139446488Y-91273258D01*
X139226697Y-91214366D01*
X139226693Y-91214365D01*
X139226692Y-91214365D01*
X139226691Y-91214364D01*
X139226686Y-91214364D01*
X139000002Y-91194532D01*
X138999998Y-91194532D01*
X138773313Y-91214364D01*
X138773302Y-91214366D01*
X138553511Y-91273258D01*
X138553502Y-91273261D01*
X138347267Y-91369431D01*
X138347265Y-91369432D01*
X138160858Y-91499954D01*
X137999954Y-91660858D01*
X137869432Y-91847265D01*
X137869431Y-91847267D01*
X137773261Y-92053502D01*
X137773258Y-92053511D01*
X137714366Y-92273302D01*
X137714364Y-92273313D01*
X137694532Y-92499998D01*
X130281790Y-92499998D01*
X130306739Y-92446496D01*
X130365635Y-92226692D01*
X130385468Y-92000000D01*
X130365635Y-91773308D01*
X130306739Y-91553504D01*
X130210568Y-91347266D01*
X130112839Y-91207693D01*
X130080045Y-91160858D01*
X129919141Y-90999954D01*
X129732734Y-90869432D01*
X129732732Y-90869431D01*
X129526497Y-90773261D01*
X129526488Y-90773258D01*
X129306697Y-90714366D01*
X129306693Y-90714365D01*
X129306692Y-90714365D01*
X129306691Y-90714364D01*
X129306686Y-90714364D01*
X129080002Y-90694532D01*
X129079998Y-90694532D01*
X128853313Y-90714364D01*
X128853302Y-90714366D01*
X128633511Y-90773258D01*
X128633502Y-90773261D01*
X128427267Y-90869431D01*
X128427265Y-90869432D01*
X128240858Y-90999954D01*
X128079954Y-91160858D01*
X127949432Y-91347265D01*
X127949431Y-91347267D01*
X127853261Y-91553502D01*
X127853258Y-91553511D01*
X127794366Y-91773302D01*
X127794364Y-91773313D01*
X127774532Y-91999998D01*
X120225468Y-91999998D01*
X120205635Y-91773308D01*
X120146739Y-91553504D01*
X120050568Y-91347266D01*
X119952839Y-91207693D01*
X119920045Y-91160858D01*
X119759141Y-90999954D01*
X119572734Y-90869432D01*
X119572732Y-90869431D01*
X119366497Y-90773261D01*
X119366488Y-90773258D01*
X119146697Y-90714366D01*
X119146693Y-90714365D01*
X119146692Y-90714365D01*
X119146691Y-90714364D01*
X119146686Y-90714364D01*
X118920002Y-90694532D01*
X118919998Y-90694532D01*
X118693313Y-90714364D01*
X118693302Y-90714366D01*
X118473511Y-90773258D01*
X118473502Y-90773261D01*
X118267267Y-90869431D01*
X118267265Y-90869432D01*
X118080858Y-90999954D01*
X117919954Y-91160858D01*
X117789432Y-91347265D01*
X117789431Y-91347267D01*
X117693261Y-91553502D01*
X117693258Y-91553511D01*
X117634366Y-91773302D01*
X117634364Y-91773313D01*
X117614532Y-91999998D01*
X115687713Y-91999998D01*
X116637778Y-91049933D01*
X116637782Y-91049931D01*
X116777139Y-90910574D01*
X116886632Y-90746706D01*
X116962051Y-90564627D01*
X116990783Y-90420184D01*
X117000500Y-90371335D01*
X117000500Y-90029377D01*
X117020185Y-89962338D01*
X117033264Y-89945401D01*
X117108979Y-89863153D01*
X117235924Y-89668849D01*
X117329157Y-89456300D01*
X117386134Y-89231305D01*
X117405300Y-89000000D01*
X117405300Y-88999993D01*
X117386135Y-88768702D01*
X117386133Y-88768691D01*
X117329157Y-88543699D01*
X117235924Y-88331151D01*
X117108983Y-88136852D01*
X117108980Y-88136849D01*
X117108979Y-88136847D01*
X116951784Y-87966087D01*
X116951779Y-87966083D01*
X116951777Y-87966081D01*
X116768634Y-87823535D01*
X116768628Y-87823531D01*
X116564504Y-87713064D01*
X116564495Y-87713061D01*
X116344984Y-87637702D01*
X116154450Y-87605908D01*
X116116049Y-87599500D01*
X115883951Y-87599500D01*
X115845550Y-87605908D01*
X115655015Y-87637702D01*
X115435504Y-87713061D01*
X115435495Y-87713064D01*
X115231371Y-87823531D01*
X115231365Y-87823535D01*
X115048222Y-87966081D01*
X115048218Y-87966085D01*
X115039866Y-87975158D01*
X114979979Y-88011148D01*
X114910141Y-88009047D01*
X114852525Y-87969522D01*
X114832455Y-87934507D01*
X114803797Y-87857671D01*
X114803793Y-87857664D01*
X114717547Y-87742455D01*
X114717544Y-87742452D01*
X114602335Y-87656206D01*
X114602328Y-87656202D01*
X114467482Y-87605908D01*
X114467483Y-87605908D01*
X114407883Y-87599501D01*
X114407881Y-87599500D01*
X114407873Y-87599500D01*
X114407864Y-87599500D01*
X112512129Y-87599500D01*
X112512123Y-87599501D01*
X112452516Y-87605908D01*
X112317671Y-87656202D01*
X112317664Y-87656206D01*
X112202455Y-87742452D01*
X112202452Y-87742455D01*
X112116206Y-87857664D01*
X112116202Y-87857671D01*
X112065908Y-87992517D01*
X112059501Y-88052116D01*
X112059500Y-88052135D01*
X112059500Y-89947870D01*
X112059501Y-89947876D01*
X112065908Y-90007483D01*
X112116202Y-90142328D01*
X112116206Y-90142335D01*
X112202452Y-90257544D01*
X112202455Y-90257547D01*
X112317664Y-90343793D01*
X112317671Y-90343797D01*
X112452517Y-90394091D01*
X112452516Y-90394091D01*
X112456656Y-90394536D01*
X112512127Y-90400500D01*
X114158010Y-90400499D01*
X114225049Y-90420184D01*
X114270804Y-90472987D01*
X114280748Y-90542146D01*
X114251723Y-90605702D01*
X114245691Y-90612180D01*
X113159691Y-91698181D01*
X113098368Y-91731666D01*
X113072010Y-91734500D01*
X111623922Y-91734500D01*
X111556883Y-91714815D01*
X111511128Y-91662011D01*
X111501567Y-91604632D01*
X111500500Y-91604632D01*
X111500500Y-91401457D01*
X111500499Y-91401455D01*
X111489720Y-91347265D01*
X111462051Y-91208164D01*
X111386631Y-91026086D01*
X111386629Y-91026083D01*
X111386627Y-91026079D01*
X111277139Y-90862219D01*
X111277136Y-90862215D01*
X106637784Y-86222863D01*
X106637780Y-86222860D01*
X106473920Y-86113372D01*
X106473910Y-86113367D01*
X106291836Y-86037949D01*
X106291828Y-86037947D01*
X106098543Y-85999500D01*
X106098540Y-85999500D01*
X105901460Y-85999500D01*
X105901457Y-85999500D01*
X105708171Y-86037947D01*
X105708163Y-86037949D01*
X105526089Y-86113367D01*
X105526079Y-86113372D01*
X105362219Y-86222860D01*
X105362215Y-86222863D01*
X105222863Y-86362215D01*
X105222860Y-86362219D01*
X105113372Y-86526079D01*
X105113367Y-86526089D01*
X105037949Y-86708163D01*
X105037947Y-86708171D01*
X104999500Y-86901455D01*
X104999500Y-87098544D01*
X105037947Y-87291828D01*
X105037949Y-87291836D01*
X105113367Y-87473910D01*
X105113372Y-87473920D01*
X105222860Y-87637780D01*
X105222863Y-87637784D01*
X109107899Y-91522819D01*
X109141384Y-91584142D01*
X109136400Y-91653834D01*
X109094528Y-91709767D01*
X109029064Y-91734184D01*
X109020218Y-91734500D01*
X96666455Y-91734500D01*
X96569812Y-91753724D01*
X96473171Y-91772947D01*
X96473163Y-91772949D01*
X96427567Y-91791836D01*
X96427566Y-91791836D01*
X96291092Y-91848364D01*
X96291079Y-91848371D01*
X96127219Y-91957859D01*
X96085081Y-91999998D01*
X95987861Y-92097218D01*
X95987858Y-92097221D01*
X93021899Y-95063181D01*
X92960576Y-95096666D01*
X92934218Y-95099500D01*
X92883951Y-95099500D01*
X92845550Y-95105908D01*
X92655015Y-95137702D01*
X92435504Y-95213061D01*
X92435495Y-95213064D01*
X92231371Y-95323531D01*
X92231365Y-95323535D01*
X92048222Y-95466081D01*
X92048218Y-95466085D01*
X92039866Y-95475158D01*
X91979979Y-95511148D01*
X91910141Y-95509047D01*
X91852525Y-95469522D01*
X91832455Y-95434507D01*
X91803797Y-95357671D01*
X91803793Y-95357664D01*
X91717547Y-95242455D01*
X91717544Y-95242452D01*
X91602335Y-95156206D01*
X91602328Y-95156202D01*
X91467482Y-95105908D01*
X91467483Y-95105908D01*
X91407883Y-95099501D01*
X91407881Y-95099500D01*
X91407873Y-95099500D01*
X91407864Y-95099500D01*
X89512129Y-95099500D01*
X89512123Y-95099501D01*
X89452516Y-95105908D01*
X89317671Y-95156202D01*
X89317664Y-95156206D01*
X89202455Y-95242452D01*
X89202452Y-95242455D01*
X89116206Y-95357664D01*
X89116202Y-95357671D01*
X89065908Y-95492517D01*
X89059501Y-95552116D01*
X89059500Y-95552135D01*
X65500500Y-95552135D01*
X65500500Y-84562155D01*
X144705000Y-84562155D01*
X144705000Y-85110000D01*
X145449670Y-85110000D01*
X145429925Y-85129745D01*
X145380556Y-85215255D01*
X145355000Y-85310630D01*
X145355000Y-85409370D01*
X145380556Y-85504745D01*
X145429925Y-85590255D01*
X145449670Y-85610000D01*
X144705000Y-85610000D01*
X144705000Y-86157844D01*
X144711401Y-86217372D01*
X144711403Y-86217379D01*
X144761645Y-86352086D01*
X144761649Y-86352093D01*
X144847809Y-86467187D01*
X144847812Y-86467190D01*
X144962906Y-86553350D01*
X144962913Y-86553354D01*
X145097620Y-86603596D01*
X145097627Y-86603598D01*
X145157155Y-86609999D01*
X145157172Y-86610000D01*
X145480000Y-86610000D01*
X145480000Y-85640330D01*
X145499745Y-85660075D01*
X145585255Y-85709444D01*
X145680630Y-85735000D01*
X145779370Y-85735000D01*
X145874745Y-85709444D01*
X145960255Y-85660075D01*
X145974500Y-85645830D01*
X145974500Y-85686002D01*
X145977617Y-85701671D01*
X145980000Y-85725865D01*
X145980000Y-86610000D01*
X146302828Y-86610000D01*
X146302844Y-86609999D01*
X146362372Y-86603598D01*
X146362376Y-86603597D01*
X146497089Y-86553352D01*
X146497896Y-86552748D01*
X146498845Y-86552393D01*
X146504876Y-86549101D01*
X146505349Y-86549967D01*
X146563360Y-86528329D01*
X146619661Y-86537451D01*
X146700873Y-86571091D01*
X146864288Y-86603596D01*
X146898992Y-86610499D01*
X146898996Y-86610500D01*
X146898997Y-86610500D01*
X147101004Y-86610500D01*
X147101005Y-86610499D01*
X147299127Y-86571091D01*
X147485756Y-86493786D01*
X147566110Y-86440094D01*
X147632786Y-86419217D01*
X147700166Y-86437701D01*
X147703865Y-86440078D01*
X147784244Y-86493786D01*
X147970873Y-86571091D01*
X148134288Y-86603596D01*
X148168992Y-86610499D01*
X148168996Y-86610500D01*
X148168997Y-86610500D01*
X148371004Y-86610500D01*
X148371005Y-86610499D01*
X148569127Y-86571091D01*
X148755756Y-86493786D01*
X148923718Y-86381558D01*
X149066558Y-86238718D01*
X149178786Y-86070756D01*
X149256091Y-85884127D01*
X149295500Y-85686003D01*
X149295500Y-85033997D01*
X149256091Y-84835873D01*
X149178786Y-84649244D01*
X149178784Y-84649241D01*
X149178782Y-84649237D01*
X149066558Y-84481281D01*
X148923718Y-84338441D01*
X148755762Y-84226217D01*
X148755752Y-84226212D01*
X148569127Y-84148909D01*
X148569119Y-84148907D01*
X148371007Y-84109500D01*
X148371003Y-84109500D01*
X148168997Y-84109500D01*
X148168996Y-84109500D01*
X148148688Y-84113539D01*
X148079097Y-84107310D01*
X148023921Y-84064446D01*
X148000678Y-83998555D01*
X148000500Y-83991921D01*
X148000500Y-74465782D01*
X148020185Y-74398743D01*
X148036819Y-74378101D01*
X149192061Y-73222859D01*
X151088034Y-71326885D01*
X151149355Y-71293402D01*
X151164900Y-71291041D01*
X151226692Y-71285635D01*
X151446496Y-71226739D01*
X151652734Y-71130568D01*
X151839139Y-71000047D01*
X152000047Y-70839139D01*
X152130568Y-70652734D01*
X152137618Y-70637614D01*
X152183789Y-70585176D01*
X152250982Y-70566023D01*
X152317864Y-70586238D01*
X152362381Y-70637614D01*
X152369432Y-70652733D01*
X152369432Y-70652734D01*
X152499954Y-70839141D01*
X152660858Y-71000045D01*
X152660861Y-71000047D01*
X152847266Y-71130568D01*
X153053504Y-71226739D01*
X153273308Y-71285635D01*
X153435230Y-71299801D01*
X153499998Y-71305468D01*
X153500000Y-71305468D01*
X153500002Y-71305468D01*
X153556673Y-71300509D01*
X153726692Y-71285635D01*
X153946496Y-71226739D01*
X154152734Y-71130568D01*
X154339139Y-71000047D01*
X154500047Y-70839139D01*
X154630568Y-70652734D01*
X154726739Y-70446496D01*
X154785635Y-70226692D01*
X154805468Y-70000000D01*
X154785635Y-69773308D01*
X154726739Y-69553504D01*
X154630568Y-69347266D01*
X154625479Y-69339998D01*
X156194532Y-69339998D01*
X156194532Y-69340001D01*
X156214364Y-69566686D01*
X156214366Y-69566697D01*
X156273258Y-69786488D01*
X156273261Y-69786497D01*
X156369431Y-69992732D01*
X156369432Y-69992734D01*
X156499954Y-70179141D01*
X156660858Y-70340045D01*
X156660861Y-70340047D01*
X156847266Y-70470568D01*
X157053504Y-70566739D01*
X157273308Y-70625635D01*
X157435230Y-70639801D01*
X157499998Y-70645468D01*
X157500000Y-70645468D01*
X157500002Y-70645468D01*
X157556673Y-70640509D01*
X157726692Y-70625635D01*
X157946496Y-70566739D01*
X158152734Y-70470568D01*
X158339139Y-70340047D01*
X158500047Y-70179139D01*
X158630568Y-69992734D01*
X158726739Y-69786496D01*
X158785635Y-69566692D01*
X158802634Y-69372384D01*
X158805468Y-69340001D01*
X158805468Y-69339998D01*
X158785635Y-69113313D01*
X158785635Y-69113308D01*
X158726739Y-68893504D01*
X158630568Y-68687266D01*
X158500047Y-68500861D01*
X158500045Y-68500858D01*
X158339141Y-68339954D01*
X158152734Y-68209432D01*
X158152732Y-68209431D01*
X157946497Y-68113261D01*
X157946488Y-68113258D01*
X157726697Y-68054366D01*
X157726693Y-68054365D01*
X157726692Y-68054365D01*
X157726691Y-68054364D01*
X157726686Y-68054364D01*
X157500002Y-68034532D01*
X157499998Y-68034532D01*
X157273313Y-68054364D01*
X157273302Y-68054366D01*
X157053511Y-68113258D01*
X157053502Y-68113261D01*
X156847267Y-68209431D01*
X156847265Y-68209432D01*
X156660858Y-68339954D01*
X156499954Y-68500858D01*
X156369432Y-68687265D01*
X156369431Y-68687267D01*
X156273261Y-68893502D01*
X156273258Y-68893511D01*
X156214366Y-69113302D01*
X156214364Y-69113313D01*
X156194532Y-69339998D01*
X154625479Y-69339998D01*
X154500047Y-69160861D01*
X154500045Y-69160858D01*
X154339141Y-68999954D01*
X154152734Y-68869432D01*
X154152732Y-68869431D01*
X153946497Y-68773261D01*
X153946488Y-68773258D01*
X153726697Y-68714366D01*
X153726693Y-68714365D01*
X153726692Y-68714365D01*
X153726691Y-68714364D01*
X153726686Y-68714364D01*
X153500002Y-68694532D01*
X153499998Y-68694532D01*
X153273313Y-68714364D01*
X153273302Y-68714366D01*
X153053511Y-68773258D01*
X153053502Y-68773261D01*
X152847267Y-68869431D01*
X152847265Y-68869432D01*
X152660858Y-68999954D01*
X152499954Y-69160858D01*
X152374519Y-69340001D01*
X152369432Y-69347266D01*
X152362380Y-69362387D01*
X152316209Y-69414825D01*
X152249015Y-69433976D01*
X152182134Y-69413760D01*
X152137619Y-69362387D01*
X152130568Y-69347266D01*
X152000047Y-69160861D01*
X152000045Y-69160858D01*
X151839141Y-68999954D01*
X151652734Y-68869432D01*
X151652732Y-68869431D01*
X151446497Y-68773261D01*
X151446488Y-68773258D01*
X151226697Y-68714366D01*
X151226693Y-68714365D01*
X151226692Y-68714365D01*
X151226691Y-68714364D01*
X151226686Y-68714364D01*
X151000002Y-68694532D01*
X150999998Y-68694532D01*
X150773313Y-68714364D01*
X150773302Y-68714366D01*
X150553511Y-68773258D01*
X150553502Y-68773261D01*
X150347267Y-68869431D01*
X150347265Y-68869432D01*
X150160858Y-68999954D01*
X149999954Y-69160858D01*
X149869432Y-69347265D01*
X149869431Y-69347267D01*
X149773261Y-69553502D01*
X149773258Y-69553511D01*
X149714365Y-69773307D01*
X149708958Y-69835095D01*
X149683504Y-69900163D01*
X149673111Y-69911966D01*
X147045034Y-72540045D01*
X146362220Y-73222859D01*
X146362218Y-73222861D01*
X146292538Y-73292540D01*
X146222859Y-73362219D01*
X146113371Y-73526079D01*
X146113364Y-73526092D01*
X146037950Y-73708160D01*
X146037947Y-73708170D01*
X145999500Y-73901456D01*
X145999500Y-84039138D01*
X145980000Y-84105546D01*
X145980000Y-84994134D01*
X145977617Y-85018326D01*
X145974500Y-85033995D01*
X145974500Y-85074170D01*
X145960255Y-85059925D01*
X145874745Y-85010556D01*
X145779370Y-84985000D01*
X145680630Y-84985000D01*
X145585255Y-85010556D01*
X145499745Y-85059925D01*
X145480000Y-85079670D01*
X145480000Y-84110000D01*
X145157155Y-84110000D01*
X145097627Y-84116401D01*
X145097620Y-84116403D01*
X144962913Y-84166645D01*
X144962906Y-84166649D01*
X144847812Y-84252809D01*
X144847809Y-84252812D01*
X144761649Y-84367906D01*
X144761645Y-84367913D01*
X144711403Y-84502620D01*
X144711401Y-84502627D01*
X144705000Y-84562155D01*
X65500500Y-84562155D01*
X65500500Y-80562155D01*
X106935000Y-80562155D01*
X106935000Y-81110000D01*
X107679670Y-81110000D01*
X107659925Y-81129745D01*
X107610556Y-81215255D01*
X107585000Y-81310630D01*
X107585000Y-81409370D01*
X107610556Y-81504745D01*
X107659925Y-81590255D01*
X107679670Y-81610000D01*
X106935000Y-81610000D01*
X106935000Y-82157844D01*
X106941401Y-82217372D01*
X106941403Y-82217379D01*
X106991645Y-82352086D01*
X106991649Y-82352093D01*
X107077809Y-82467187D01*
X107077812Y-82467190D01*
X107192906Y-82553350D01*
X107192913Y-82553354D01*
X107327620Y-82603596D01*
X107327627Y-82603598D01*
X107387155Y-82609999D01*
X107387172Y-82610000D01*
X107710000Y-82610000D01*
X107710000Y-81640330D01*
X107729745Y-81660075D01*
X107815255Y-81709444D01*
X107910630Y-81735000D01*
X108009370Y-81735000D01*
X108104745Y-81709444D01*
X108190255Y-81660075D01*
X108204500Y-81645830D01*
X108204500Y-81686003D01*
X108204751Y-81687267D01*
X108207617Y-81701671D01*
X108210000Y-81725865D01*
X108210000Y-82610000D01*
X108532828Y-82610000D01*
X108532844Y-82609999D01*
X108592372Y-82603598D01*
X108592376Y-82603597D01*
X108727089Y-82553352D01*
X108727896Y-82552748D01*
X108728845Y-82552393D01*
X108734876Y-82549101D01*
X108735349Y-82549967D01*
X108793360Y-82528329D01*
X108849661Y-82537451D01*
X108930873Y-82571091D01*
X109094288Y-82603596D01*
X109128992Y-82610499D01*
X109128996Y-82610500D01*
X109128997Y-82610500D01*
X109331004Y-82610500D01*
X109331005Y-82610499D01*
X109529127Y-82571091D01*
X109715756Y-82493786D01*
X109796110Y-82440094D01*
X109862786Y-82419217D01*
X109930166Y-82437701D01*
X109933865Y-82440078D01*
X110014244Y-82493786D01*
X110200873Y-82571091D01*
X110364288Y-82603596D01*
X110398992Y-82610499D01*
X110398996Y-82610500D01*
X110398997Y-82610500D01*
X110601004Y-82610500D01*
X110601005Y-82610499D01*
X110799127Y-82571091D01*
X110985756Y-82493786D01*
X111153718Y-82381558D01*
X111195278Y-82339998D01*
X137694532Y-82339998D01*
X137694532Y-82340001D01*
X137714364Y-82566686D01*
X137714366Y-82566697D01*
X137773258Y-82786488D01*
X137773261Y-82786497D01*
X137869431Y-82992732D01*
X137869432Y-82992734D01*
X137999954Y-83179141D01*
X138160858Y-83340045D01*
X138160861Y-83340047D01*
X138347266Y-83470568D01*
X138553504Y-83566739D01*
X138773308Y-83625635D01*
X138935230Y-83639801D01*
X138999998Y-83645468D01*
X139000000Y-83645468D01*
X139000002Y-83645468D01*
X139056673Y-83640509D01*
X139226692Y-83625635D01*
X139446496Y-83566739D01*
X139652734Y-83470568D01*
X139839139Y-83340047D01*
X140000047Y-83179139D01*
X140130568Y-82992734D01*
X140226739Y-82786496D01*
X140285635Y-82566692D01*
X140305468Y-82340000D01*
X140285635Y-82113308D01*
X140226739Y-81893504D01*
X140130568Y-81687266D01*
X140000047Y-81500861D01*
X140000045Y-81500858D01*
X139839141Y-81339954D01*
X139652734Y-81209432D01*
X139652732Y-81209431D01*
X139446497Y-81113261D01*
X139446488Y-81113258D01*
X139226697Y-81054366D01*
X139226693Y-81054365D01*
X139226692Y-81054365D01*
X139226691Y-81054364D01*
X139226686Y-81054364D01*
X139000002Y-81034532D01*
X138999998Y-81034532D01*
X138773313Y-81054364D01*
X138773302Y-81054366D01*
X138553511Y-81113258D01*
X138553502Y-81113261D01*
X138347267Y-81209431D01*
X138347265Y-81209432D01*
X138160858Y-81339954D01*
X137999954Y-81500858D01*
X137869432Y-81687265D01*
X137869431Y-81687267D01*
X137773261Y-81893502D01*
X137773258Y-81893511D01*
X137714366Y-82113302D01*
X137714364Y-82113313D01*
X137694532Y-82339998D01*
X111195278Y-82339998D01*
X111296558Y-82238718D01*
X111408786Y-82070756D01*
X111486091Y-81884127D01*
X111525500Y-81686003D01*
X111525500Y-81033997D01*
X111486091Y-80835873D01*
X111408786Y-80649244D01*
X111408784Y-80649241D01*
X111408782Y-80649237D01*
X111296558Y-80481281D01*
X111153718Y-80338441D01*
X110985762Y-80226217D01*
X110985752Y-80226212D01*
X110799127Y-80148909D01*
X110799119Y-80148907D01*
X110601007Y-80109500D01*
X110601003Y-80109500D01*
X110398997Y-80109500D01*
X110398992Y-80109500D01*
X110200880Y-80148907D01*
X110200872Y-80148909D01*
X110014244Y-80226213D01*
X109933891Y-80279904D01*
X109867213Y-80300782D01*
X109799833Y-80282297D01*
X109796109Y-80279904D01*
X109715755Y-80226213D01*
X109529127Y-80148909D01*
X109529119Y-80148907D01*
X109331007Y-80109500D01*
X109331003Y-80109500D01*
X109128997Y-80109500D01*
X109128992Y-80109500D01*
X108930880Y-80148907D01*
X108930868Y-80148910D01*
X108849661Y-80182547D01*
X108780191Y-80190016D01*
X108735140Y-80170405D01*
X108734872Y-80170897D01*
X108729374Y-80167894D01*
X108727895Y-80167251D01*
X108727086Y-80166645D01*
X108592379Y-80116403D01*
X108592372Y-80116401D01*
X108532844Y-80110000D01*
X108210000Y-80110000D01*
X108210000Y-80994134D01*
X108207617Y-81018326D01*
X108204500Y-81033997D01*
X108204500Y-81074170D01*
X108190255Y-81059925D01*
X108104745Y-81010556D01*
X108009370Y-80985000D01*
X107910630Y-80985000D01*
X107815255Y-81010556D01*
X107729745Y-81059925D01*
X107710000Y-81079670D01*
X107710000Y-80110000D01*
X107387155Y-80110000D01*
X107327627Y-80116401D01*
X107327620Y-80116403D01*
X107192913Y-80166645D01*
X107192906Y-80166649D01*
X107077812Y-80252809D01*
X107077809Y-80252812D01*
X106991649Y-80367906D01*
X106991645Y-80367913D01*
X106941403Y-80502620D01*
X106941401Y-80502627D01*
X106935000Y-80562155D01*
X65500500Y-80562155D01*
X65500500Y-66459998D01*
X95074532Y-66459998D01*
X95074532Y-66460001D01*
X95094364Y-66686686D01*
X95094366Y-66686697D01*
X95153258Y-66906488D01*
X95153261Y-66906497D01*
X95249431Y-67112732D01*
X95249432Y-67112734D01*
X95379954Y-67299141D01*
X95540858Y-67460045D01*
X95540861Y-67460047D01*
X95727266Y-67590568D01*
X95785275Y-67617618D01*
X95837714Y-67663791D01*
X95856866Y-67730984D01*
X95836650Y-67797865D01*
X95785275Y-67842382D01*
X95727267Y-67869431D01*
X95727265Y-67869432D01*
X95540858Y-67999954D01*
X95379954Y-68160858D01*
X95249432Y-68347265D01*
X95249431Y-68347267D01*
X95153261Y-68553502D01*
X95153258Y-68553511D01*
X95094366Y-68773302D01*
X95094364Y-68773313D01*
X95074532Y-68999998D01*
X95074532Y-69000001D01*
X95094364Y-69226686D01*
X95094366Y-69226697D01*
X95153258Y-69446488D01*
X95153261Y-69446497D01*
X95249431Y-69652732D01*
X95249432Y-69652734D01*
X95379954Y-69839141D01*
X95540858Y-70000045D01*
X95540861Y-70000047D01*
X95727266Y-70130568D01*
X95785275Y-70157618D01*
X95837714Y-70203791D01*
X95856866Y-70270984D01*
X95836650Y-70337865D01*
X95785275Y-70382382D01*
X95727267Y-70409431D01*
X95727265Y-70409432D01*
X95540858Y-70539954D01*
X95379954Y-70700858D01*
X95249432Y-70887265D01*
X95249431Y-70887267D01*
X95153261Y-71093502D01*
X95153258Y-71093511D01*
X95094366Y-71313302D01*
X95094364Y-71313313D01*
X95074532Y-71539998D01*
X95074532Y-71540001D01*
X95094364Y-71766686D01*
X95094366Y-71766697D01*
X95153258Y-71986488D01*
X95153261Y-71986497D01*
X95249431Y-72192732D01*
X95249432Y-72192734D01*
X95379954Y-72379141D01*
X95540858Y-72540045D01*
X95540861Y-72540047D01*
X95727266Y-72670568D01*
X95933504Y-72766739D01*
X96153308Y-72825635D01*
X96315230Y-72839801D01*
X96379998Y-72845468D01*
X96380000Y-72845468D01*
X96380002Y-72845468D01*
X96436673Y-72840509D01*
X96606692Y-72825635D01*
X96826496Y-72766739D01*
X97032734Y-72670568D01*
X97219139Y-72540047D01*
X97380047Y-72379139D01*
X97510568Y-72192734D01*
X97606739Y-71986496D01*
X97665635Y-71766692D01*
X97685468Y-71540000D01*
X97665635Y-71313308D01*
X97606739Y-71093504D01*
X97510568Y-70887266D01*
X97380047Y-70700861D01*
X97380045Y-70700858D01*
X97219141Y-70539954D01*
X97032734Y-70409432D01*
X97032728Y-70409429D01*
X96974725Y-70382382D01*
X96922285Y-70336210D01*
X96903133Y-70269017D01*
X96923348Y-70202135D01*
X96974725Y-70157618D01*
X97032734Y-70130568D01*
X97219139Y-70000047D01*
X97380047Y-69839139D01*
X97510568Y-69652734D01*
X97606739Y-69446496D01*
X97665635Y-69226692D01*
X97685468Y-69000000D01*
X97665635Y-68773308D01*
X97606739Y-68553504D01*
X97510568Y-68347266D01*
X97380047Y-68160861D01*
X97380045Y-68160858D01*
X97219141Y-67999954D01*
X97032734Y-67869432D01*
X97032728Y-67869429D01*
X96974725Y-67842382D01*
X96922285Y-67796210D01*
X96903133Y-67729017D01*
X96923348Y-67662135D01*
X96974725Y-67617618D01*
X97032734Y-67590568D01*
X97219139Y-67460047D01*
X97380047Y-67299139D01*
X97510568Y-67112734D01*
X97606739Y-66906496D01*
X97665635Y-66686692D01*
X97685468Y-66460000D01*
X97665635Y-66233308D01*
X97606739Y-66013504D01*
X97510568Y-65807266D01*
X97380047Y-65620861D01*
X97380045Y-65620858D01*
X97219143Y-65459956D01*
X97194536Y-65442726D01*
X97150912Y-65388149D01*
X97143719Y-65318650D01*
X97175241Y-65256296D01*
X97235471Y-65220882D01*
X97252404Y-65217861D01*
X97287483Y-65214091D01*
X97422331Y-65163796D01*
X97537546Y-65077546D01*
X97623796Y-64962331D01*
X97674091Y-64827483D01*
X97680500Y-64767873D01*
X97680499Y-63919998D01*
X102694532Y-63919998D01*
X102694532Y-63920001D01*
X102714364Y-64146686D01*
X102714366Y-64146697D01*
X102773258Y-64366488D01*
X102773261Y-64366497D01*
X102869431Y-64572732D01*
X102869432Y-64572734D01*
X102999954Y-64759141D01*
X103160858Y-64920045D01*
X103160861Y-64920047D01*
X103347266Y-65050568D01*
X103405275Y-65077618D01*
X103457714Y-65123791D01*
X103476866Y-65190984D01*
X103456650Y-65257865D01*
X103405275Y-65302382D01*
X103347267Y-65329431D01*
X103347265Y-65329432D01*
X103160858Y-65459954D01*
X102999954Y-65620858D01*
X102869432Y-65807265D01*
X102869431Y-65807267D01*
X102773261Y-66013502D01*
X102773258Y-66013511D01*
X102714366Y-66233302D01*
X102714364Y-66233313D01*
X102694532Y-66459998D01*
X102694532Y-66460001D01*
X102714364Y-66686686D01*
X102714366Y-66686697D01*
X102773258Y-66906488D01*
X102773261Y-66906497D01*
X102869431Y-67112732D01*
X102869432Y-67112734D01*
X102999954Y-67299141D01*
X103160858Y-67460045D01*
X103160861Y-67460047D01*
X103347266Y-67590568D01*
X103405275Y-67617618D01*
X103457714Y-67663791D01*
X103476866Y-67730984D01*
X103456650Y-67797865D01*
X103405275Y-67842382D01*
X103347267Y-67869431D01*
X103347265Y-67869432D01*
X103160858Y-67999954D01*
X102999954Y-68160858D01*
X102869432Y-68347265D01*
X102869431Y-68347267D01*
X102773261Y-68553502D01*
X102773258Y-68553511D01*
X102714366Y-68773302D01*
X102714364Y-68773313D01*
X102694532Y-68999998D01*
X102694532Y-69000001D01*
X102714364Y-69226686D01*
X102714366Y-69226697D01*
X102773258Y-69446488D01*
X102773261Y-69446497D01*
X102869431Y-69652732D01*
X102869432Y-69652734D01*
X102999954Y-69839141D01*
X103160858Y-70000045D01*
X103160861Y-70000047D01*
X103347266Y-70130568D01*
X103405275Y-70157618D01*
X103457714Y-70203791D01*
X103476866Y-70270984D01*
X103456650Y-70337865D01*
X103405275Y-70382382D01*
X103347267Y-70409431D01*
X103347265Y-70409432D01*
X103160858Y-70539954D01*
X102999954Y-70700858D01*
X102869432Y-70887265D01*
X102869431Y-70887267D01*
X102773261Y-71093502D01*
X102773258Y-71093511D01*
X102714366Y-71313302D01*
X102714364Y-71313313D01*
X102694532Y-71539998D01*
X102694532Y-71540001D01*
X102714364Y-71766686D01*
X102714366Y-71766697D01*
X102773258Y-71986488D01*
X102773261Y-71986497D01*
X102869431Y-72192732D01*
X102869432Y-72192734D01*
X102999954Y-72379141D01*
X103160858Y-72540045D01*
X103160861Y-72540047D01*
X103347266Y-72670568D01*
X103553504Y-72766739D01*
X103773308Y-72825635D01*
X103935230Y-72839801D01*
X103999998Y-72845468D01*
X104000000Y-72845468D01*
X104000002Y-72845468D01*
X104056673Y-72840509D01*
X104226692Y-72825635D01*
X104446496Y-72766739D01*
X104652734Y-72670568D01*
X104839139Y-72540047D01*
X105000047Y-72379139D01*
X105130568Y-72192734D01*
X105226739Y-71986496D01*
X105285635Y-71766692D01*
X105305468Y-71540000D01*
X105285635Y-71313308D01*
X105226739Y-71093504D01*
X105130568Y-70887266D01*
X105000047Y-70700861D01*
X105000045Y-70700858D01*
X104839141Y-70539954D01*
X104652734Y-70409432D01*
X104652728Y-70409429D01*
X104594725Y-70382382D01*
X104542285Y-70336210D01*
X104523133Y-70269017D01*
X104543348Y-70202135D01*
X104594725Y-70157618D01*
X104652734Y-70130568D01*
X104839139Y-70000047D01*
X105000047Y-69839139D01*
X105130568Y-69652734D01*
X105226739Y-69446496D01*
X105285635Y-69226692D01*
X105305468Y-69000000D01*
X105285635Y-68773308D01*
X105226739Y-68553504D01*
X105130568Y-68347266D01*
X105000047Y-68160861D01*
X105000045Y-68160858D01*
X104839141Y-67999954D01*
X104652734Y-67869432D01*
X104652728Y-67869429D01*
X104594725Y-67842382D01*
X104542285Y-67796210D01*
X104523133Y-67729017D01*
X104543348Y-67662135D01*
X104594725Y-67617618D01*
X104652734Y-67590568D01*
X104839139Y-67460047D01*
X105000047Y-67299139D01*
X105130568Y-67112734D01*
X105226739Y-66906496D01*
X105285635Y-66686692D01*
X105305468Y-66460000D01*
X105285635Y-66233308D01*
X105226739Y-66013504D01*
X105130568Y-65807266D01*
X105000047Y-65620861D01*
X105000045Y-65620858D01*
X104839141Y-65459954D01*
X104652734Y-65329432D01*
X104652728Y-65329429D01*
X104594725Y-65302382D01*
X104542285Y-65256210D01*
X104523133Y-65189017D01*
X104543348Y-65122135D01*
X104594725Y-65077618D01*
X104652734Y-65050568D01*
X104839139Y-64920047D01*
X105000047Y-64759139D01*
X105130568Y-64572734D01*
X105226739Y-64366496D01*
X105285635Y-64146692D01*
X105305468Y-63920000D01*
X105285635Y-63693308D01*
X105226739Y-63473504D01*
X105145826Y-63299986D01*
X145332501Y-63299986D01*
X145342994Y-63402697D01*
X145398141Y-63569119D01*
X145398143Y-63569124D01*
X145490184Y-63718345D01*
X145614154Y-63842315D01*
X145763375Y-63934356D01*
X145763380Y-63934358D01*
X145929802Y-63989505D01*
X145929809Y-63989506D01*
X146032519Y-63999999D01*
X146082499Y-63999998D01*
X146082500Y-63999998D01*
X146082500Y-63250000D01*
X145332501Y-63250000D01*
X145332501Y-63299986D01*
X105145826Y-63299986D01*
X105130568Y-63267266D01*
X105000047Y-63080861D01*
X105000045Y-63080858D01*
X104876400Y-62957213D01*
X146007500Y-62957213D01*
X146007500Y-63042787D01*
X146029649Y-63125445D01*
X146072436Y-63199554D01*
X146132946Y-63260064D01*
X146207055Y-63302851D01*
X146289713Y-63325000D01*
X146375287Y-63325000D01*
X146457945Y-63302851D01*
X146532054Y-63260064D01*
X146582500Y-63209618D01*
X146582500Y-63999999D01*
X146632472Y-63999999D01*
X146632486Y-63999998D01*
X146735197Y-63989505D01*
X146901619Y-63934358D01*
X146901624Y-63934356D01*
X147050845Y-63842315D01*
X147174817Y-63718343D01*
X147235058Y-63620677D01*
X147287006Y-63573952D01*
X147355968Y-63562729D01*
X147420050Y-63590572D01*
X147436450Y-63607108D01*
X147521616Y-63710883D01*
X147673960Y-63835909D01*
X147673967Y-63835913D01*
X147847766Y-63928811D01*
X147847769Y-63928811D01*
X147847773Y-63928814D01*
X148036368Y-63986024D01*
X148232500Y-64005341D01*
X148428632Y-63986024D01*
X148617227Y-63928814D01*
X148657135Y-63907483D01*
X148768657Y-63847873D01*
X148791038Y-63835910D01*
X148943383Y-63710883D01*
X149068410Y-63558538D01*
X149161314Y-63384727D01*
X149218524Y-63196132D01*
X149237841Y-63000000D01*
X149218524Y-62803868D01*
X149161314Y-62615273D01*
X149161311Y-62615269D01*
X149161311Y-62615266D01*
X149068413Y-62441467D01*
X149068409Y-62441460D01*
X148943383Y-62289116D01*
X148791039Y-62164090D01*
X148791032Y-62164086D01*
X148768673Y-62152135D01*
X153199500Y-62152135D01*
X153199500Y-63847870D01*
X153199501Y-63847876D01*
X153205908Y-63907483D01*
X153256202Y-64042328D01*
X153256206Y-64042335D01*
X153342452Y-64157544D01*
X153342455Y-64157547D01*
X153457664Y-64243793D01*
X153457671Y-64243797D01*
X153592517Y-64294091D01*
X153592516Y-64294091D01*
X153599444Y-64294835D01*
X153652127Y-64300500D01*
X155347872Y-64300499D01*
X155407483Y-64294091D01*
X155542331Y-64243796D01*
X155657546Y-64157546D01*
X155743796Y-64042331D01*
X155794091Y-63907483D01*
X155794092Y-63907472D01*
X155795365Y-63902088D01*
X155829933Y-63841369D01*
X155891841Y-63808978D01*
X155961433Y-63815199D01*
X156003725Y-63842912D01*
X156160858Y-64000045D01*
X156160861Y-64000047D01*
X156347266Y-64130568D01*
X156553504Y-64226739D01*
X156773308Y-64285635D01*
X156935230Y-64299801D01*
X156999998Y-64305468D01*
X157000000Y-64305468D01*
X157000002Y-64305468D01*
X157056807Y-64300498D01*
X157226692Y-64285635D01*
X157446496Y-64226739D01*
X157652734Y-64130568D01*
X157839139Y-64000047D01*
X158000047Y-63839139D01*
X158130568Y-63652734D01*
X158226739Y-63446496D01*
X158285635Y-63226692D01*
X158305468Y-63000000D01*
X158285635Y-62773308D01*
X158226739Y-62553504D01*
X158130568Y-62347266D01*
X158000047Y-62160861D01*
X158000045Y-62160858D01*
X157839141Y-61999954D01*
X157652734Y-61869432D01*
X157652732Y-61869431D01*
X157446497Y-61773261D01*
X157446488Y-61773258D01*
X157226697Y-61714366D01*
X157226693Y-61714365D01*
X157226692Y-61714365D01*
X157226691Y-61714364D01*
X157226686Y-61714364D01*
X157000002Y-61694532D01*
X156999998Y-61694532D01*
X156773313Y-61714364D01*
X156773302Y-61714366D01*
X156553511Y-61773258D01*
X156553502Y-61773261D01*
X156347267Y-61869431D01*
X156347265Y-61869432D01*
X156160862Y-61999951D01*
X156003726Y-62157087D01*
X155942403Y-62190571D01*
X155872711Y-62185587D01*
X155816778Y-62143715D01*
X155795369Y-62097923D01*
X155794091Y-62092518D01*
X155784067Y-62065643D01*
X155743796Y-61957669D01*
X155743795Y-61957668D01*
X155743793Y-61957664D01*
X155657547Y-61842455D01*
X155657544Y-61842452D01*
X155542335Y-61756206D01*
X155542328Y-61756202D01*
X155407482Y-61705908D01*
X155407483Y-61705908D01*
X155347883Y-61699501D01*
X155347881Y-61699500D01*
X155347873Y-61699500D01*
X155347864Y-61699500D01*
X153652129Y-61699500D01*
X153652123Y-61699501D01*
X153592516Y-61705908D01*
X153457671Y-61756202D01*
X153457664Y-61756206D01*
X153342455Y-61842452D01*
X153342452Y-61842455D01*
X153256206Y-61957664D01*
X153256202Y-61957671D01*
X153205908Y-62092517D01*
X153199501Y-62152116D01*
X153199500Y-62152135D01*
X148768673Y-62152135D01*
X148617233Y-62071188D01*
X148617227Y-62071186D01*
X148428632Y-62013976D01*
X148428629Y-62013975D01*
X148232500Y-61994659D01*
X148036370Y-62013975D01*
X147847766Y-62071188D01*
X147673967Y-62164086D01*
X147673960Y-62164090D01*
X147521616Y-62289116D01*
X147436450Y-62392891D01*
X147378704Y-62432225D01*
X147308859Y-62434096D01*
X147249091Y-62397908D01*
X147235058Y-62379323D01*
X147174815Y-62281654D01*
X147050845Y-62157684D01*
X146901624Y-62065643D01*
X146901619Y-62065641D01*
X146735197Y-62010494D01*
X146735190Y-62010493D01*
X146632486Y-62000000D01*
X146582500Y-62000000D01*
X146582500Y-62790382D01*
X146532054Y-62739936D01*
X146457945Y-62697149D01*
X146375287Y-62675000D01*
X146289713Y-62675000D01*
X146207055Y-62697149D01*
X146132946Y-62739936D01*
X146072436Y-62800446D01*
X146029649Y-62874555D01*
X146007500Y-62957213D01*
X104876400Y-62957213D01*
X104839141Y-62919954D01*
X104652734Y-62789432D01*
X104652732Y-62789431D01*
X104460977Y-62700013D01*
X145332500Y-62700013D01*
X145332500Y-62750000D01*
X146082500Y-62750000D01*
X146082500Y-62000000D01*
X146082499Y-61999999D01*
X146032529Y-62000000D01*
X146032511Y-62000001D01*
X145929802Y-62010494D01*
X145763380Y-62065641D01*
X145763375Y-62065643D01*
X145614154Y-62157684D01*
X145490184Y-62281654D01*
X145398143Y-62430875D01*
X145398141Y-62430880D01*
X145342994Y-62597302D01*
X145342993Y-62597309D01*
X145332500Y-62700013D01*
X104460977Y-62700013D01*
X104446497Y-62693261D01*
X104446488Y-62693258D01*
X104226697Y-62634366D01*
X104226693Y-62634365D01*
X104226692Y-62634365D01*
X104226691Y-62634364D01*
X104226686Y-62634364D01*
X104000002Y-62614532D01*
X103999998Y-62614532D01*
X103773313Y-62634364D01*
X103773302Y-62634366D01*
X103553511Y-62693258D01*
X103553502Y-62693261D01*
X103347267Y-62789431D01*
X103347265Y-62789432D01*
X103160858Y-62919954D01*
X102999954Y-63080858D01*
X102869432Y-63267265D01*
X102869431Y-63267267D01*
X102773261Y-63473502D01*
X102773258Y-63473511D01*
X102714366Y-63693302D01*
X102714364Y-63693313D01*
X102694532Y-63919998D01*
X97680499Y-63919998D01*
X97680499Y-63072128D01*
X97674091Y-63012517D01*
X97669422Y-63000000D01*
X97623797Y-62877671D01*
X97623793Y-62877664D01*
X97537547Y-62762455D01*
X97537544Y-62762452D01*
X97422335Y-62676206D01*
X97422328Y-62676202D01*
X97287482Y-62625908D01*
X97287483Y-62625908D01*
X97227883Y-62619501D01*
X97227881Y-62619500D01*
X97227873Y-62619500D01*
X97227864Y-62619500D01*
X95532129Y-62619500D01*
X95532123Y-62619501D01*
X95472516Y-62625908D01*
X95337671Y-62676202D01*
X95337664Y-62676206D01*
X95222455Y-62762452D01*
X95222452Y-62762455D01*
X95136206Y-62877664D01*
X95136202Y-62877671D01*
X95085908Y-63012517D01*
X95079501Y-63072116D01*
X95079501Y-63072123D01*
X95079500Y-63072135D01*
X95079500Y-64767870D01*
X95079501Y-64767876D01*
X95085908Y-64827483D01*
X95136202Y-64962328D01*
X95136206Y-64962335D01*
X95222452Y-65077544D01*
X95222455Y-65077547D01*
X95337664Y-65163793D01*
X95337671Y-65163797D01*
X95382618Y-65180561D01*
X95472517Y-65214091D01*
X95507596Y-65217862D01*
X95572144Y-65244599D01*
X95611993Y-65301991D01*
X95614488Y-65371816D01*
X95578836Y-65431905D01*
X95565464Y-65442725D01*
X95540858Y-65459954D01*
X95379954Y-65620858D01*
X95249432Y-65807265D01*
X95249431Y-65807267D01*
X95153261Y-66013502D01*
X95153258Y-66013511D01*
X95094366Y-66233302D01*
X95094364Y-66233313D01*
X95074532Y-66459998D01*
X65500500Y-66459998D01*
X65500500Y-57999994D01*
X95494357Y-57999994D01*
X95494357Y-58000005D01*
X95514890Y-58247812D01*
X95514892Y-58247824D01*
X95575936Y-58488881D01*
X95675826Y-58716606D01*
X95811833Y-58924782D01*
X95811836Y-58924785D01*
X95980256Y-59107738D01*
X96176491Y-59260474D01*
X96395190Y-59378828D01*
X96630386Y-59459571D01*
X96875665Y-59500500D01*
X97124335Y-59500500D01*
X97369614Y-59459571D01*
X97604810Y-59378828D01*
X97823509Y-59260474D01*
X98019744Y-59107738D01*
X98044194Y-59081177D01*
X98081626Y-59040517D01*
X98141513Y-59004526D01*
X98172855Y-59000500D01*
X102327145Y-59000500D01*
X102394184Y-59020185D01*
X102418374Y-59040517D01*
X102480252Y-59107734D01*
X102480256Y-59107738D01*
X102676491Y-59260474D01*
X102895190Y-59378828D01*
X103130386Y-59459571D01*
X103375665Y-59500500D01*
X103624335Y-59500500D01*
X103869614Y-59459571D01*
X104104810Y-59378828D01*
X104323509Y-59260474D01*
X104519744Y-59107738D01*
X104688164Y-58924785D01*
X104824173Y-58716607D01*
X104924063Y-58488881D01*
X104985108Y-58247821D01*
X105005639Y-58000047D01*
X105005643Y-58000004D01*
X105005643Y-57999995D01*
X105003447Y-57973498D01*
X105017527Y-57905062D01*
X105039339Y-57875579D01*
X105914920Y-56999998D01*
X140614532Y-56999998D01*
X140614532Y-57000001D01*
X140634364Y-57226686D01*
X140634366Y-57226697D01*
X140693258Y-57446488D01*
X140693261Y-57446497D01*
X140789431Y-57652732D01*
X140789432Y-57652734D01*
X140919954Y-57839141D01*
X141080858Y-58000045D01*
X141080861Y-58000047D01*
X141267266Y-58130568D01*
X141473504Y-58226739D01*
X141693308Y-58285635D01*
X141855230Y-58299801D01*
X141919998Y-58305468D01*
X141920000Y-58305468D01*
X141920002Y-58305468D01*
X141976673Y-58300509D01*
X142146692Y-58285635D01*
X142366496Y-58226739D01*
X142572734Y-58130568D01*
X142759139Y-58000047D01*
X142920047Y-57839139D01*
X143050568Y-57652734D01*
X143146739Y-57446496D01*
X143205635Y-57226692D01*
X143225468Y-57000000D01*
X143225468Y-56999998D01*
X150774532Y-56999998D01*
X150774532Y-57000001D01*
X150794364Y-57226686D01*
X150794366Y-57226697D01*
X150853258Y-57446488D01*
X150853261Y-57446497D01*
X150949431Y-57652732D01*
X150949432Y-57652734D01*
X151079954Y-57839141D01*
X151240858Y-58000045D01*
X151240861Y-58000047D01*
X151427266Y-58130568D01*
X151633504Y-58226739D01*
X151853308Y-58285635D01*
X152015230Y-58299801D01*
X152079998Y-58305468D01*
X152080000Y-58305468D01*
X152080002Y-58305468D01*
X152136673Y-58300509D01*
X152306692Y-58285635D01*
X152526496Y-58226739D01*
X152732734Y-58130568D01*
X152919139Y-58000047D01*
X153080047Y-57839139D01*
X153210568Y-57652734D01*
X153306739Y-57446496D01*
X153365635Y-57226692D01*
X153385468Y-57000000D01*
X153365635Y-56773308D01*
X153306739Y-56553504D01*
X153210568Y-56347266D01*
X153080047Y-56160861D01*
X153080045Y-56160858D01*
X152919141Y-55999954D01*
X152732734Y-55869432D01*
X152732732Y-55869431D01*
X152526497Y-55773261D01*
X152526488Y-55773258D01*
X152306697Y-55714366D01*
X152306693Y-55714365D01*
X152306692Y-55714365D01*
X152306691Y-55714364D01*
X152306686Y-55714364D01*
X152080002Y-55694532D01*
X152079998Y-55694532D01*
X151853313Y-55714364D01*
X151853302Y-55714366D01*
X151633511Y-55773258D01*
X151633502Y-55773261D01*
X151427267Y-55869431D01*
X151427265Y-55869432D01*
X151240858Y-55999954D01*
X151079954Y-56160858D01*
X150949432Y-56347265D01*
X150949431Y-56347267D01*
X150853261Y-56553502D01*
X150853258Y-56553511D01*
X150794366Y-56773302D01*
X150794364Y-56773313D01*
X150774532Y-56999998D01*
X143225468Y-56999998D01*
X143205635Y-56773308D01*
X143146739Y-56553504D01*
X143050568Y-56347266D01*
X142920047Y-56160861D01*
X142920045Y-56160858D01*
X142759141Y-55999954D01*
X142572734Y-55869432D01*
X142572732Y-55869431D01*
X142366497Y-55773261D01*
X142366488Y-55773258D01*
X142146697Y-55714366D01*
X142146693Y-55714365D01*
X142146692Y-55714365D01*
X142146691Y-55714364D01*
X142146686Y-55714364D01*
X141920002Y-55694532D01*
X141919998Y-55694532D01*
X141693313Y-55714364D01*
X141693302Y-55714366D01*
X141473511Y-55773258D01*
X141473502Y-55773261D01*
X141267267Y-55869431D01*
X141267265Y-55869432D01*
X141080858Y-55999954D01*
X140919954Y-56160858D01*
X140789432Y-56347265D01*
X140789431Y-56347267D01*
X140693261Y-56553502D01*
X140693258Y-56553511D01*
X140634366Y-56773302D01*
X140634364Y-56773313D01*
X140614532Y-56999998D01*
X105914920Y-56999998D01*
X109638101Y-53276819D01*
X109699424Y-53243334D01*
X109725782Y-53240500D01*
X110545863Y-53240500D01*
X110612902Y-53260185D01*
X110658657Y-53312989D01*
X110668601Y-53382147D01*
X110665638Y-53396593D01*
X110634366Y-53513302D01*
X110634364Y-53513313D01*
X110614532Y-53739998D01*
X110614532Y-53740001D01*
X110634364Y-53966686D01*
X110634366Y-53966697D01*
X110693258Y-54186488D01*
X110693261Y-54186497D01*
X110789431Y-54392732D01*
X110789432Y-54392734D01*
X110919954Y-54579141D01*
X111080858Y-54740045D01*
X111080861Y-54740047D01*
X111267266Y-54870568D01*
X111473504Y-54966739D01*
X111693308Y-55025635D01*
X111855230Y-55039801D01*
X111919998Y-55045468D01*
X111920000Y-55045468D01*
X111920002Y-55045468D01*
X111976807Y-55040498D01*
X112146692Y-55025635D01*
X112366496Y-54966739D01*
X112572734Y-54870568D01*
X112759139Y-54740047D01*
X112920047Y-54579139D01*
X113050568Y-54392734D01*
X113077618Y-54334724D01*
X113123790Y-54282285D01*
X113190983Y-54263133D01*
X113257865Y-54283348D01*
X113302381Y-54334724D01*
X113315253Y-54362328D01*
X113329429Y-54392728D01*
X113329432Y-54392734D01*
X113459954Y-54579141D01*
X113620858Y-54740045D01*
X113620861Y-54740047D01*
X113807266Y-54870568D01*
X114013504Y-54966739D01*
X114233308Y-55025635D01*
X114395230Y-55039801D01*
X114459998Y-55045468D01*
X114460000Y-55045468D01*
X114460002Y-55045468D01*
X114516807Y-55040498D01*
X114686692Y-55025635D01*
X114906496Y-54966739D01*
X115112734Y-54870568D01*
X115299139Y-54740047D01*
X115460047Y-54579139D01*
X115590568Y-54392734D01*
X115617618Y-54334724D01*
X115663790Y-54282285D01*
X115730983Y-54263133D01*
X115797865Y-54283348D01*
X115842381Y-54334724D01*
X115855253Y-54362328D01*
X115869429Y-54392728D01*
X115869432Y-54392734D01*
X115999954Y-54579141D01*
X116160858Y-54740045D01*
X116160861Y-54740047D01*
X116347266Y-54870568D01*
X116553504Y-54966739D01*
X116773308Y-55025635D01*
X116935230Y-55039801D01*
X116999998Y-55045468D01*
X117000000Y-55045468D01*
X117000002Y-55045468D01*
X117056807Y-55040498D01*
X117226692Y-55025635D01*
X117446496Y-54966739D01*
X117652734Y-54870568D01*
X117839139Y-54740047D01*
X118000047Y-54579139D01*
X118130568Y-54392734D01*
X118157618Y-54334724D01*
X118203790Y-54282285D01*
X118270983Y-54263133D01*
X118337865Y-54283348D01*
X118382381Y-54334724D01*
X118395253Y-54362328D01*
X118409429Y-54392728D01*
X118409432Y-54392734D01*
X118539954Y-54579141D01*
X118700858Y-54740045D01*
X118700861Y-54740047D01*
X118887266Y-54870568D01*
X119093504Y-54966739D01*
X119313308Y-55025635D01*
X119475230Y-55039801D01*
X119539998Y-55045468D01*
X119540000Y-55045468D01*
X119540002Y-55045468D01*
X119596807Y-55040498D01*
X119766692Y-55025635D01*
X119986496Y-54966739D01*
X120192734Y-54870568D01*
X120379139Y-54740047D01*
X120540047Y-54579139D01*
X120670568Y-54392734D01*
X120697618Y-54334724D01*
X120743790Y-54282285D01*
X120810983Y-54263133D01*
X120877865Y-54283348D01*
X120922381Y-54334724D01*
X120935253Y-54362328D01*
X120949429Y-54392728D01*
X120949432Y-54392734D01*
X121079954Y-54579141D01*
X121240858Y-54740045D01*
X121240861Y-54740047D01*
X121427266Y-54870568D01*
X121633504Y-54966739D01*
X121853308Y-55025635D01*
X122015230Y-55039801D01*
X122079998Y-55045468D01*
X122080000Y-55045468D01*
X122080002Y-55045468D01*
X122136807Y-55040498D01*
X122306692Y-55025635D01*
X122526496Y-54966739D01*
X122732734Y-54870568D01*
X122919139Y-54740047D01*
X123080047Y-54579139D01*
X123210568Y-54392734D01*
X123237618Y-54334724D01*
X123283790Y-54282285D01*
X123350983Y-54263133D01*
X123417865Y-54283348D01*
X123462381Y-54334724D01*
X123475253Y-54362328D01*
X123489429Y-54392728D01*
X123489432Y-54392734D01*
X123619954Y-54579141D01*
X123780858Y-54740045D01*
X123780861Y-54740047D01*
X123967266Y-54870568D01*
X124173504Y-54966739D01*
X124393308Y-55025635D01*
X124555230Y-55039801D01*
X124619998Y-55045468D01*
X124620000Y-55045468D01*
X124620002Y-55045468D01*
X124676807Y-55040498D01*
X124846692Y-55025635D01*
X125066496Y-54966739D01*
X125272734Y-54870568D01*
X125459139Y-54740047D01*
X125620047Y-54579139D01*
X125750568Y-54392734D01*
X125846739Y-54186496D01*
X125905635Y-53966692D01*
X125924209Y-53754394D01*
X125925468Y-53740001D01*
X125925468Y-53739998D01*
X125917283Y-53646446D01*
X125905635Y-53513308D01*
X125884115Y-53432993D01*
X125874362Y-53396593D01*
X125876025Y-53326743D01*
X125915188Y-53268881D01*
X125979417Y-53241377D01*
X125994137Y-53240500D01*
X128325863Y-53240500D01*
X128392902Y-53260185D01*
X128438657Y-53312989D01*
X128448601Y-53382147D01*
X128445638Y-53396593D01*
X128414366Y-53513302D01*
X128414364Y-53513313D01*
X128394532Y-53739998D01*
X128394532Y-53740001D01*
X128414364Y-53966686D01*
X128414366Y-53966697D01*
X128473258Y-54186488D01*
X128473261Y-54186497D01*
X128569431Y-54392732D01*
X128569432Y-54392734D01*
X128699954Y-54579141D01*
X128860858Y-54740045D01*
X128860861Y-54740047D01*
X129047266Y-54870568D01*
X129253504Y-54966739D01*
X129473308Y-55025635D01*
X129635230Y-55039801D01*
X129699998Y-55045468D01*
X129700000Y-55045468D01*
X129700002Y-55045468D01*
X129756807Y-55040498D01*
X129926692Y-55025635D01*
X130146496Y-54966739D01*
X130352734Y-54870568D01*
X130539139Y-54740047D01*
X130700047Y-54579139D01*
X130830568Y-54392734D01*
X130857895Y-54334129D01*
X130904064Y-54281695D01*
X130971257Y-54262542D01*
X131038139Y-54282757D01*
X131082657Y-54334133D01*
X131109865Y-54392482D01*
X131240342Y-54578820D01*
X131401179Y-54739657D01*
X131587517Y-54870134D01*
X131793673Y-54966265D01*
X131793682Y-54966269D01*
X131989999Y-55018872D01*
X131990000Y-55018871D01*
X131990000Y-54173012D01*
X132047007Y-54205925D01*
X132174174Y-54240000D01*
X132305826Y-54240000D01*
X132432993Y-54205925D01*
X132490000Y-54173012D01*
X132490000Y-55018872D01*
X132686317Y-54966269D01*
X132686326Y-54966265D01*
X132892482Y-54870134D01*
X133078820Y-54739657D01*
X133239657Y-54578820D01*
X133370134Y-54392481D01*
X133370135Y-54392479D01*
X133397618Y-54333543D01*
X133443790Y-54281103D01*
X133510983Y-54261951D01*
X133577864Y-54282166D01*
X133622382Y-54333543D01*
X133649864Y-54392479D01*
X133649865Y-54392481D01*
X133780342Y-54578820D01*
X133941179Y-54739657D01*
X134127517Y-54870134D01*
X134333673Y-54966265D01*
X134333682Y-54966269D01*
X134529999Y-55018872D01*
X134530000Y-55018871D01*
X134530000Y-54173012D01*
X134587007Y-54205925D01*
X134714174Y-54240000D01*
X134845826Y-54240000D01*
X134972993Y-54205925D01*
X135030000Y-54173012D01*
X135030000Y-55018872D01*
X135226317Y-54966269D01*
X135226326Y-54966265D01*
X135432482Y-54870134D01*
X135618820Y-54739657D01*
X135779657Y-54578820D01*
X135910132Y-54392484D01*
X135937341Y-54334134D01*
X135983513Y-54281695D01*
X136050707Y-54262542D01*
X136117588Y-54282757D01*
X136162105Y-54334132D01*
X136175253Y-54362328D01*
X136189431Y-54392732D01*
X136189432Y-54392734D01*
X136319954Y-54579141D01*
X136480858Y-54740045D01*
X136480861Y-54740047D01*
X136667266Y-54870568D01*
X136873504Y-54966739D01*
X137093308Y-55025635D01*
X137255230Y-55039801D01*
X137319998Y-55045468D01*
X137320000Y-55045468D01*
X137320002Y-55045468D01*
X137376807Y-55040498D01*
X137546692Y-55025635D01*
X137766496Y-54966739D01*
X137972734Y-54870568D01*
X138159139Y-54740047D01*
X138320047Y-54579139D01*
X138450568Y-54392734D01*
X138477618Y-54334724D01*
X138523790Y-54282285D01*
X138590983Y-54263133D01*
X138657865Y-54283348D01*
X138702381Y-54334724D01*
X138715253Y-54362328D01*
X138729429Y-54392728D01*
X138729432Y-54392734D01*
X138859954Y-54579141D01*
X139020858Y-54740045D01*
X139020861Y-54740047D01*
X139207266Y-54870568D01*
X139413504Y-54966739D01*
X139633308Y-55025635D01*
X139795230Y-55039801D01*
X139859998Y-55045468D01*
X139860000Y-55045468D01*
X139860002Y-55045468D01*
X139916807Y-55040498D01*
X140086692Y-55025635D01*
X140306496Y-54966739D01*
X140512734Y-54870568D01*
X140699139Y-54740047D01*
X140860047Y-54579139D01*
X140990568Y-54392734D01*
X141017618Y-54334724D01*
X141063790Y-54282285D01*
X141130983Y-54263133D01*
X141197865Y-54283348D01*
X141242381Y-54334724D01*
X141255253Y-54362328D01*
X141269429Y-54392728D01*
X141269432Y-54392734D01*
X141399954Y-54579141D01*
X141560858Y-54740045D01*
X141560861Y-54740047D01*
X141747266Y-54870568D01*
X141953504Y-54966739D01*
X142173308Y-55025635D01*
X142335230Y-55039801D01*
X142399998Y-55045468D01*
X142400000Y-55045468D01*
X142400002Y-55045468D01*
X142456807Y-55040498D01*
X142626692Y-55025635D01*
X142846496Y-54966739D01*
X143052734Y-54870568D01*
X143239139Y-54740047D01*
X143400047Y-54579139D01*
X143530568Y-54392734D01*
X143557618Y-54334724D01*
X143603790Y-54282285D01*
X143670983Y-54263133D01*
X143737865Y-54283348D01*
X143782381Y-54334724D01*
X143795253Y-54362328D01*
X143809429Y-54392728D01*
X143809432Y-54392734D01*
X143939954Y-54579141D01*
X144100858Y-54740045D01*
X144100861Y-54740047D01*
X144287266Y-54870568D01*
X144493504Y-54966739D01*
X144713308Y-55025635D01*
X144875230Y-55039801D01*
X144939998Y-55045468D01*
X144940000Y-55045468D01*
X144940002Y-55045468D01*
X144996807Y-55040498D01*
X145166692Y-55025635D01*
X145386496Y-54966739D01*
X145592734Y-54870568D01*
X145779139Y-54740047D01*
X145940047Y-54579139D01*
X145957272Y-54554539D01*
X146011848Y-54510913D01*
X146081346Y-54503718D01*
X146143701Y-54535239D01*
X146179116Y-54595468D01*
X146182138Y-54612406D01*
X146185908Y-54647483D01*
X146236202Y-54782328D01*
X146236206Y-54782335D01*
X146322452Y-54897544D01*
X146322455Y-54897547D01*
X146437664Y-54983793D01*
X146437671Y-54983797D01*
X146572517Y-55034091D01*
X146572516Y-55034091D01*
X146579444Y-55034835D01*
X146632127Y-55040500D01*
X148327872Y-55040499D01*
X148387483Y-55034091D01*
X148522331Y-54983796D01*
X148637546Y-54897546D01*
X148723796Y-54782331D01*
X148774091Y-54647483D01*
X148780500Y-54587873D01*
X148780499Y-52892128D01*
X148774091Y-52832517D01*
X148759704Y-52793944D01*
X148723797Y-52697671D01*
X148723793Y-52697664D01*
X148637547Y-52582455D01*
X148637544Y-52582452D01*
X148522335Y-52496206D01*
X148522328Y-52496202D01*
X148387482Y-52445908D01*
X148387483Y-52445908D01*
X148327883Y-52439501D01*
X148327881Y-52439500D01*
X148327873Y-52439500D01*
X148327864Y-52439500D01*
X146632129Y-52439500D01*
X146632123Y-52439501D01*
X146572516Y-52445908D01*
X146437671Y-52496202D01*
X146437664Y-52496206D01*
X146322455Y-52582452D01*
X146322452Y-52582455D01*
X146236206Y-52697664D01*
X146236202Y-52697671D01*
X146185908Y-52832516D01*
X146182137Y-52867596D01*
X146155398Y-52932146D01*
X146098006Y-52971994D01*
X146028180Y-52974487D01*
X145968092Y-52938834D01*
X145957273Y-52925462D01*
X145940045Y-52900858D01*
X145779141Y-52739954D01*
X145592734Y-52609432D01*
X145592732Y-52609431D01*
X145386497Y-52513261D01*
X145386488Y-52513258D01*
X145166697Y-52454366D01*
X145166693Y-52454365D01*
X145166692Y-52454365D01*
X145166691Y-52454364D01*
X145166686Y-52454364D01*
X144940002Y-52434532D01*
X144939998Y-52434532D01*
X144713313Y-52454364D01*
X144713302Y-52454366D01*
X144493511Y-52513258D01*
X144493502Y-52513261D01*
X144287267Y-52609431D01*
X144287265Y-52609432D01*
X144100858Y-52739954D01*
X143939954Y-52900858D01*
X143809432Y-53087265D01*
X143809431Y-53087267D01*
X143782382Y-53145275D01*
X143736209Y-53197714D01*
X143669016Y-53216866D01*
X143602135Y-53196650D01*
X143557618Y-53145275D01*
X143530568Y-53087266D01*
X143400047Y-52900861D01*
X143400045Y-52900858D01*
X143239141Y-52739954D01*
X143052734Y-52609432D01*
X143052732Y-52609431D01*
X142846497Y-52513261D01*
X142846488Y-52513258D01*
X142626697Y-52454366D01*
X142626693Y-52454365D01*
X142626692Y-52454365D01*
X142626691Y-52454364D01*
X142626686Y-52454364D01*
X142400002Y-52434532D01*
X142399998Y-52434532D01*
X142173313Y-52454364D01*
X142173302Y-52454366D01*
X141953511Y-52513258D01*
X141953502Y-52513261D01*
X141747267Y-52609431D01*
X141747265Y-52609432D01*
X141560858Y-52739954D01*
X141399954Y-52900858D01*
X141269432Y-53087265D01*
X141269431Y-53087267D01*
X141242382Y-53145275D01*
X141196209Y-53197714D01*
X141129016Y-53216866D01*
X141062135Y-53196650D01*
X141017618Y-53145275D01*
X140990568Y-53087266D01*
X140860047Y-52900861D01*
X140860045Y-52900858D01*
X140699141Y-52739954D01*
X140512734Y-52609432D01*
X140512732Y-52609431D01*
X140306497Y-52513261D01*
X140306488Y-52513258D01*
X140086697Y-52454366D01*
X140086693Y-52454365D01*
X140086692Y-52454365D01*
X140086691Y-52454364D01*
X140086686Y-52454364D01*
X139860002Y-52434532D01*
X139859998Y-52434532D01*
X139633313Y-52454364D01*
X139633302Y-52454366D01*
X139413511Y-52513258D01*
X139413502Y-52513261D01*
X139207267Y-52609431D01*
X139207265Y-52609432D01*
X139020858Y-52739954D01*
X138859954Y-52900858D01*
X138729432Y-53087265D01*
X138729431Y-53087267D01*
X138702382Y-53145275D01*
X138656209Y-53197714D01*
X138589016Y-53216866D01*
X138522135Y-53196650D01*
X138477618Y-53145275D01*
X138450568Y-53087266D01*
X138320047Y-52900861D01*
X138320045Y-52900858D01*
X138159141Y-52739954D01*
X137972734Y-52609432D01*
X137972732Y-52609431D01*
X137766497Y-52513261D01*
X137766488Y-52513258D01*
X137546697Y-52454366D01*
X137546688Y-52454364D01*
X137484903Y-52448958D01*
X137419835Y-52423504D01*
X137408032Y-52413111D01*
X136604209Y-51609289D01*
X136604206Y-51609285D01*
X136604206Y-51609286D01*
X136597139Y-51602219D01*
X136597139Y-51602218D01*
X136457782Y-51462861D01*
X136457781Y-51462860D01*
X136457780Y-51462859D01*
X136293920Y-51353371D01*
X136293911Y-51353366D01*
X136221315Y-51323296D01*
X136165165Y-51300038D01*
X136111836Y-51277949D01*
X136111832Y-51277948D01*
X136111828Y-51277946D01*
X136015188Y-51258724D01*
X135918544Y-51239500D01*
X135918541Y-51239500D01*
X109161459Y-51239500D01*
X109161455Y-51239500D01*
X109064812Y-51258724D01*
X108968167Y-51277947D01*
X108968161Y-51277949D01*
X108914834Y-51300037D01*
X108914834Y-51300038D01*
X108869315Y-51318892D01*
X108786089Y-51353366D01*
X108786079Y-51353371D01*
X108622219Y-51462859D01*
X108552540Y-51532538D01*
X108482861Y-51602218D01*
X108482858Y-51602221D01*
X106038073Y-54047007D01*
X103621899Y-56463181D01*
X103560576Y-56496666D01*
X103534218Y-56499500D01*
X103375665Y-56499500D01*
X103130383Y-56540429D01*
X102895197Y-56621169D01*
X102895188Y-56621172D01*
X102676493Y-56739524D01*
X102480255Y-56892262D01*
X102480252Y-56892265D01*
X102418374Y-56959483D01*
X102358487Y-56995474D01*
X102327145Y-56999500D01*
X98172855Y-56999500D01*
X98105816Y-56979815D01*
X98081626Y-56959483D01*
X98019747Y-56892265D01*
X98019744Y-56892262D01*
X97823506Y-56739524D01*
X97604811Y-56621172D01*
X97604802Y-56621169D01*
X97369616Y-56540429D01*
X97124335Y-56499500D01*
X96875665Y-56499500D01*
X96630383Y-56540429D01*
X96395197Y-56621169D01*
X96395188Y-56621172D01*
X96176493Y-56739524D01*
X95980257Y-56892261D01*
X95811833Y-57075217D01*
X95675826Y-57283393D01*
X95575936Y-57511118D01*
X95514892Y-57752175D01*
X95514890Y-57752187D01*
X95494357Y-57999994D01*
X65500500Y-57999994D01*
X65500500Y-57502214D01*
X65500579Y-57497788D01*
X65510261Y-57226686D01*
X65518176Y-57005073D01*
X65518804Y-56996284D01*
X65571274Y-56508240D01*
X65572527Y-56499532D01*
X65659680Y-56016473D01*
X65661551Y-56007877D01*
X65782940Y-55532278D01*
X65785421Y-55523829D01*
X65820357Y-55418862D01*
X67913497Y-55418862D01*
X67932930Y-55702968D01*
X67990870Y-55981796D01*
X67990871Y-55981799D01*
X68086234Y-56250123D01*
X68086233Y-56250123D01*
X68156748Y-56386210D01*
X68217251Y-56502975D01*
X68343167Y-56681358D01*
X68381480Y-56735634D01*
X68453724Y-56812987D01*
X68575851Y-56943753D01*
X68796755Y-57123472D01*
X68796757Y-57123473D01*
X68796758Y-57123474D01*
X69040074Y-57271438D01*
X69252069Y-57363519D01*
X69301273Y-57384892D01*
X69575488Y-57461724D01*
X69823519Y-57495815D01*
X69857611Y-57500501D01*
X69857612Y-57500501D01*
X70142389Y-57500501D01*
X70172804Y-57496320D01*
X70424512Y-57461724D01*
X70698727Y-57384892D01*
X70910723Y-57292809D01*
X70959925Y-57271438D01*
X70959927Y-57271437D01*
X71203245Y-57123472D01*
X71424149Y-56943753D01*
X71618524Y-56735629D01*
X71782749Y-56502975D01*
X71913764Y-56250127D01*
X72009130Y-55981794D01*
X72067069Y-55702974D01*
X72086503Y-55418862D01*
X72067069Y-55134750D01*
X72009130Y-54855930D01*
X71913765Y-54587600D01*
X71913766Y-54587600D01*
X71826420Y-54419030D01*
X71782749Y-54334749D01*
X71618524Y-54102095D01*
X71618520Y-54102091D01*
X71618519Y-54102089D01*
X71523174Y-54000001D01*
X71523171Y-53999998D01*
X82694838Y-53999998D01*
X82694838Y-54000001D01*
X82713450Y-54212741D01*
X82713452Y-54212752D01*
X82768721Y-54419022D01*
X82768723Y-54419026D01*
X82768724Y-54419030D01*
X82771408Y-54424785D01*
X82858977Y-54612578D01*
X82981472Y-54787521D01*
X83132478Y-54938527D01*
X83132481Y-54938529D01*
X83307419Y-55061021D01*
X83307421Y-55061022D01*
X83307420Y-55061022D01*
X83371936Y-55091106D01*
X83500970Y-55151276D01*
X83707253Y-55206549D01*
X83859215Y-55219844D01*
X83919998Y-55225162D01*
X83920000Y-55225162D01*
X83920002Y-55225162D01*
X83975630Y-55220295D01*
X84132747Y-55206549D01*
X84339030Y-55151276D01*
X84532581Y-55061021D01*
X84707519Y-54938529D01*
X84858529Y-54787519D01*
X84981021Y-54612581D01*
X85071276Y-54419030D01*
X85071280Y-54419013D01*
X85073130Y-54413936D01*
X85075253Y-54414709D01*
X85106576Y-54363305D01*
X85169419Y-54332766D01*
X85238796Y-54341050D01*
X85292680Y-54385528D01*
X85305827Y-54414315D01*
X85306870Y-54413936D01*
X85308722Y-54419022D01*
X85308724Y-54419030D01*
X85311408Y-54424785D01*
X85398977Y-54612578D01*
X85521472Y-54787521D01*
X85672478Y-54938527D01*
X85672481Y-54938529D01*
X85847419Y-55061021D01*
X85847421Y-55061022D01*
X85847420Y-55061022D01*
X85911936Y-55091106D01*
X86040970Y-55151276D01*
X86247253Y-55206549D01*
X86399215Y-55219844D01*
X86459998Y-55225162D01*
X86460000Y-55225162D01*
X86460002Y-55225162D01*
X86515630Y-55220295D01*
X86672747Y-55206549D01*
X86879030Y-55151276D01*
X87072581Y-55061021D01*
X87247519Y-54938529D01*
X87398529Y-54787519D01*
X87521021Y-54612581D01*
X87611276Y-54419030D01*
X87611280Y-54419013D01*
X87613130Y-54413936D01*
X87614981Y-54414609D01*
X87646847Y-54362328D01*
X87709694Y-54331797D01*
X87779069Y-54340091D01*
X87832948Y-54384575D01*
X87846430Y-54414095D01*
X87847342Y-54413764D01*
X87849197Y-54418859D01*
X87939413Y-54612329D01*
X87978415Y-54668030D01*
X88600000Y-54046445D01*
X88600000Y-54052661D01*
X88627259Y-54154394D01*
X88679920Y-54245606D01*
X88754394Y-54320080D01*
X88845606Y-54372741D01*
X88947339Y-54400000D01*
X88953553Y-54400000D01*
X88331968Y-55021584D01*
X88387663Y-55060582D01*
X88387669Y-55060586D01*
X88581140Y-55150802D01*
X88581146Y-55150805D01*
X88787337Y-55206054D01*
X88787345Y-55206055D01*
X88999998Y-55224660D01*
X89000002Y-55224660D01*
X89212654Y-55206055D01*
X89212662Y-55206054D01*
X89418853Y-55150805D01*
X89418864Y-55150801D01*
X89612325Y-55060589D01*
X89668030Y-55021583D01*
X89046448Y-54400000D01*
X89052661Y-54400000D01*
X89154394Y-54372741D01*
X89245606Y-54320080D01*
X89320080Y-54245606D01*
X89372741Y-54154394D01*
X89400000Y-54052661D01*
X89400000Y-54046446D01*
X90021583Y-54668029D01*
X90060589Y-54612325D01*
X90150801Y-54418864D01*
X90150805Y-54418853D01*
X90206054Y-54212662D01*
X90206055Y-54212654D01*
X90224660Y-54000002D01*
X90224660Y-53999997D01*
X90206055Y-53787345D01*
X90206054Y-53787337D01*
X90150805Y-53581146D01*
X90150802Y-53581140D01*
X90112963Y-53499994D01*
X95494357Y-53499994D01*
X95494357Y-53500005D01*
X95514890Y-53747812D01*
X95514892Y-53747824D01*
X95575936Y-53988881D01*
X95675826Y-54216606D01*
X95811833Y-54424782D01*
X95811836Y-54424785D01*
X95980256Y-54607738D01*
X96176491Y-54760474D01*
X96395190Y-54878828D01*
X96630386Y-54959571D01*
X96875665Y-55000500D01*
X97124335Y-55000500D01*
X97369614Y-54959571D01*
X97604810Y-54878828D01*
X97823509Y-54760474D01*
X98019744Y-54607738D01*
X98060679Y-54563271D01*
X98081626Y-54540517D01*
X98141513Y-54504526D01*
X98172855Y-54500500D01*
X102327145Y-54500500D01*
X102394184Y-54520185D01*
X102418374Y-54540517D01*
X102480252Y-54607734D01*
X102480256Y-54607738D01*
X102676491Y-54760474D01*
X102895190Y-54878828D01*
X103130386Y-54959571D01*
X103375665Y-55000500D01*
X103624335Y-55000500D01*
X103869614Y-54959571D01*
X104104810Y-54878828D01*
X104323509Y-54760474D01*
X104519744Y-54607738D01*
X104688164Y-54424785D01*
X104824173Y-54216607D01*
X104924063Y-53988881D01*
X104985108Y-53747821D01*
X104988064Y-53712145D01*
X105005643Y-53500005D01*
X105005643Y-53499994D01*
X104985109Y-53252187D01*
X104985107Y-53252175D01*
X104924063Y-53011118D01*
X104824173Y-52783393D01*
X104688166Y-52575217D01*
X104631131Y-52513261D01*
X104519744Y-52392262D01*
X104323509Y-52239526D01*
X104323507Y-52239525D01*
X104323506Y-52239524D01*
X104104811Y-52121172D01*
X104104802Y-52121169D01*
X103869616Y-52040429D01*
X103624335Y-51999500D01*
X103375665Y-51999500D01*
X103130383Y-52040429D01*
X102895197Y-52121169D01*
X102895188Y-52121172D01*
X102676493Y-52239524D01*
X102480255Y-52392262D01*
X102480252Y-52392265D01*
X102418374Y-52459483D01*
X102358487Y-52495474D01*
X102327145Y-52499500D01*
X98172855Y-52499500D01*
X98105816Y-52479815D01*
X98081626Y-52459483D01*
X98019747Y-52392265D01*
X98019744Y-52392262D01*
X97823506Y-52239524D01*
X97604811Y-52121172D01*
X97604802Y-52121169D01*
X97369616Y-52040429D01*
X97124335Y-51999500D01*
X96875665Y-51999500D01*
X96630383Y-52040429D01*
X96395197Y-52121169D01*
X96395188Y-52121172D01*
X96176493Y-52239524D01*
X95980257Y-52392261D01*
X95811833Y-52575217D01*
X95675826Y-52783393D01*
X95575936Y-53011118D01*
X95514892Y-53252175D01*
X95514890Y-53252187D01*
X95494357Y-53499994D01*
X90112963Y-53499994D01*
X90060586Y-53387669D01*
X90060582Y-53387663D01*
X90021584Y-53331968D01*
X89400000Y-53953552D01*
X89400000Y-53947339D01*
X89372741Y-53845606D01*
X89320080Y-53754394D01*
X89245606Y-53679920D01*
X89154394Y-53627259D01*
X89052661Y-53600000D01*
X89046447Y-53600000D01*
X89668030Y-52978415D01*
X89612329Y-52939413D01*
X89418859Y-52849197D01*
X89418853Y-52849194D01*
X89212662Y-52793945D01*
X89212654Y-52793944D01*
X89000002Y-52775340D01*
X88999998Y-52775340D01*
X88787345Y-52793944D01*
X88787337Y-52793945D01*
X88581146Y-52849194D01*
X88581140Y-52849197D01*
X88387671Y-52939412D01*
X88387669Y-52939413D01*
X88331969Y-52978415D01*
X88331968Y-52978415D01*
X88953554Y-53600000D01*
X88947339Y-53600000D01*
X88845606Y-53627259D01*
X88754394Y-53679920D01*
X88679920Y-53754394D01*
X88627259Y-53845606D01*
X88600000Y-53947339D01*
X88600000Y-53953553D01*
X87978415Y-53331968D01*
X87978415Y-53331969D01*
X87939413Y-53387669D01*
X87939412Y-53387671D01*
X87849197Y-53581140D01*
X87847342Y-53586236D01*
X87845445Y-53585545D01*
X87813656Y-53637684D01*
X87750805Y-53668205D01*
X87681431Y-53659901D01*
X87627559Y-53615408D01*
X87614012Y-53585742D01*
X87613130Y-53586064D01*
X87611279Y-53580983D01*
X87611276Y-53580970D01*
X87521021Y-53387419D01*
X87398529Y-53212481D01*
X87398527Y-53212478D01*
X87247521Y-53061472D01*
X87072578Y-52938977D01*
X87072579Y-52938977D01*
X86943547Y-52878809D01*
X86879030Y-52848724D01*
X86879026Y-52848723D01*
X86879022Y-52848721D01*
X86672752Y-52793452D01*
X86672748Y-52793451D01*
X86672747Y-52793451D01*
X86672746Y-52793450D01*
X86672741Y-52793450D01*
X86460002Y-52774838D01*
X86459998Y-52774838D01*
X86247258Y-52793450D01*
X86247247Y-52793452D01*
X86040977Y-52848721D01*
X86040968Y-52848725D01*
X85847421Y-52938977D01*
X85672478Y-53061472D01*
X85521472Y-53212478D01*
X85398977Y-53387421D01*
X85308725Y-53580968D01*
X85306870Y-53586064D01*
X85304749Y-53585292D01*
X85273406Y-53636710D01*
X85210558Y-53667237D01*
X85141183Y-53658939D01*
X85087307Y-53614452D01*
X85074169Y-53585685D01*
X85073130Y-53586064D01*
X85071279Y-53580983D01*
X85071276Y-53580970D01*
X84981021Y-53387419D01*
X84858529Y-53212481D01*
X84858527Y-53212478D01*
X84707521Y-53061472D01*
X84532578Y-52938977D01*
X84532579Y-52938977D01*
X84403547Y-52878809D01*
X84339030Y-52848724D01*
X84339026Y-52848723D01*
X84339022Y-52848721D01*
X84132752Y-52793452D01*
X84132748Y-52793451D01*
X84132747Y-52793451D01*
X84132746Y-52793450D01*
X84132741Y-52793450D01*
X83920002Y-52774838D01*
X83919998Y-52774838D01*
X83707258Y-52793450D01*
X83707247Y-52793452D01*
X83500977Y-52848721D01*
X83500968Y-52848725D01*
X83307421Y-52938977D01*
X83132478Y-53061472D01*
X82981472Y-53212478D01*
X82858977Y-53387421D01*
X82768725Y-53580968D01*
X82768721Y-53580977D01*
X82713452Y-53787247D01*
X82713450Y-53787258D01*
X82694838Y-53999998D01*
X71523171Y-53999998D01*
X71424149Y-53893971D01*
X71203245Y-53714252D01*
X71203243Y-53714251D01*
X71203241Y-53714249D01*
X70959925Y-53566285D01*
X70698728Y-53452832D01*
X70424517Y-53376001D01*
X70424513Y-53376000D01*
X70424512Y-53376000D01*
X70283450Y-53356611D01*
X70142389Y-53337223D01*
X70142388Y-53337223D01*
X69857612Y-53337223D01*
X69857611Y-53337223D01*
X69575488Y-53376000D01*
X69575482Y-53376001D01*
X69301271Y-53452832D01*
X69040074Y-53566285D01*
X68796758Y-53714249D01*
X68575854Y-53893968D01*
X68381480Y-54102089D01*
X68217251Y-54334748D01*
X68086234Y-54587600D01*
X67990871Y-54855924D01*
X67990870Y-54855927D01*
X67932930Y-55134755D01*
X67913497Y-55418862D01*
X65820357Y-55418862D01*
X65940423Y-55058121D01*
X65943512Y-55049839D01*
X65947381Y-55040500D01*
X66131337Y-54596392D01*
X66135012Y-54588346D01*
X66222125Y-54414315D01*
X66354714Y-54149436D01*
X66358924Y-54141724D01*
X66609409Y-53719554D01*
X66614155Y-53712170D01*
X66894087Y-53308992D01*
X66899387Y-53301912D01*
X66906163Y-53293504D01*
X67207369Y-52919728D01*
X67213131Y-52913079D01*
X67547595Y-52553839D01*
X67553839Y-52547595D01*
X67913079Y-52213131D01*
X67919728Y-52207369D01*
X68301918Y-51899382D01*
X68308998Y-51894083D01*
X68387624Y-51839492D01*
X68712170Y-51614155D01*
X68719554Y-51609409D01*
X69141724Y-51358924D01*
X69149436Y-51354714D01*
X69474822Y-51191837D01*
X69588346Y-51135012D01*
X69596397Y-51131335D01*
X69620281Y-51121442D01*
X70049850Y-50943507D01*
X70058121Y-50940423D01*
X70523829Y-50785421D01*
X70532278Y-50782940D01*
X71007877Y-50661551D01*
X71016473Y-50659680D01*
X71499532Y-50572527D01*
X71508240Y-50571274D01*
X71996284Y-50518804D01*
X72005073Y-50518176D01*
X72497788Y-50500578D01*
X72502214Y-50500500D01*
X72565892Y-50500500D01*
X152434108Y-50500500D01*
X152497786Y-50500500D01*
X152502211Y-50500578D01*
G37*
%TD.AperFunction*%
%TD*%
M02*
