%TF.GenerationSoftware,KiCad,Pcbnew,8.0.6*%
%TF.CreationDate,2025-03-20T16:43:13-06:00*%
%TF.ProjectId,Invitaci_nTDS_general,496e7669-7461-4636-99f3-6e5444535f67,rev?*%
%TF.SameCoordinates,Original*%
%TF.FileFunction,Soldermask,Top*%
%TF.FilePolarity,Negative*%
%FSLAX46Y46*%
G04 Gerber Fmt 4.6, Leading zero omitted, Abs format (unit mm)*
G04 Created by KiCad (PCBNEW 8.0.6) date 2025-03-20 16:43:13*
%MOMM*%
%LPD*%
G01*
G04 APERTURE LIST*
G04 Aperture macros list*
%AMRoundRect*
0 Rectangle with rounded corners*
0 $1 Rounding radius*
0 $2 $3 $4 $5 $6 $7 $8 $9 X,Y pos of 4 corners*
0 Add a 4 corners polygon primitive as box body*
4,1,4,$2,$3,$4,$5,$6,$7,$8,$9,$2,$3,0*
0 Add four circle primitives for the rounded corners*
1,1,$1+$1,$2,$3*
1,1,$1+$1,$4,$5*
1,1,$1+$1,$6,$7*
1,1,$1+$1,$8,$9*
0 Add four rect primitives between the rounded corners*
20,1,$1+$1,$2,$3,$4,$5,0*
20,1,$1+$1,$4,$5,$6,$7,0*
20,1,$1+$1,$6,$7,$8,$9,0*
20,1,$1+$1,$8,$9,$2,$3,0*%
G04 Aperture macros list end*
%ADD10C,1.600000*%
%ADD11O,1.600000X1.600000*%
%ADD12R,1.800000X1.800000*%
%ADD13C,1.800000*%
%ADD14RoundRect,0.250000X-0.250000X-0.250000X0.250000X-0.250000X0.250000X0.250000X-0.250000X0.250000X0*%
%ADD15C,1.000000*%
%ADD16R,1.050000X1.500000*%
%ADD17O,1.050000X1.500000*%
%ADD18R,1.500000X1.050000*%
%ADD19O,1.500000X1.050000*%
%ADD20R,1.600000X1.600000*%
%ADD21R,1.600000X2.400000*%
%ADD22O,1.600000X2.400000*%
%ADD23C,1.440000*%
%ADD24R,1.700000X1.700000*%
%ADD25O,1.700000X1.700000*%
%ADD26R,2.000000X2.000000*%
%ADD27C,2.000000*%
G04 APERTURE END LIST*
D10*
%TO.C,R1*%
X94420000Y-102500000D03*
D11*
X104580000Y-102500000D03*
%TD*%
D12*
%TO.C,D4*%
X113460000Y-89000000D03*
D13*
X116000000Y-89000000D03*
%TD*%
D10*
%TO.C,R9*%
X141920000Y-57000000D03*
D11*
X152080000Y-57000000D03*
%TD*%
D10*
%TO.C,R5*%
X142420000Y-130000000D03*
D11*
X152580000Y-130000000D03*
%TD*%
D10*
%TO.C,R10*%
X128340000Y-97000000D03*
D11*
X138500000Y-97000000D03*
%TD*%
D14*
%TO.C,MK1*%
X146332500Y-63000000D03*
D15*
X148232500Y-63000000D03*
%TD*%
D16*
%TO.C,Q2*%
X152500000Y-93500000D03*
D17*
X151230000Y-93500000D03*
X149960000Y-93500000D03*
%TD*%
D18*
%TO.C,Q1*%
X104500000Y-96500000D03*
D19*
X104500000Y-95230000D03*
X104500000Y-93960000D03*
%TD*%
D10*
%TO.C,C1*%
X151000000Y-70000000D03*
X153500000Y-70000000D03*
%TD*%
D20*
%TO.C,U1*%
X96380000Y-63920000D03*
D11*
X96380000Y-66460000D03*
X96380000Y-69000000D03*
X96380000Y-71540000D03*
X104000000Y-71540000D03*
X104000000Y-69000000D03*
X104000000Y-66460000D03*
X104000000Y-63920000D03*
%TD*%
D12*
%TO.C,D2*%
X152460000Y-86000000D03*
D13*
X155000000Y-86000000D03*
%TD*%
D16*
%TO.C,Q7*%
X145730000Y-85360000D03*
D17*
X147000000Y-85360000D03*
X148270000Y-85360000D03*
%TD*%
D12*
%TO.C,D1*%
X90460000Y-96500000D03*
D13*
X93000000Y-96500000D03*
%TD*%
D21*
%TO.C,U2*%
X73375000Y-128325000D03*
D22*
X75915000Y-128325000D03*
X78455000Y-128325000D03*
X80995000Y-128325000D03*
X83535000Y-128325000D03*
X86075000Y-128325000D03*
X88615000Y-128325000D03*
X88615000Y-120705000D03*
X86075000Y-120705000D03*
X83535000Y-120705000D03*
X80995000Y-120705000D03*
X78455000Y-120705000D03*
X75915000Y-120705000D03*
X73375000Y-120705000D03*
%TD*%
D12*
%TO.C,D3*%
X96500000Y-130000000D03*
D13*
X99040000Y-130000000D03*
%TD*%
D23*
%TO.C,RV1*%
X83920000Y-54000000D03*
X86460000Y-54000000D03*
X89000000Y-54000000D03*
%TD*%
D16*
%TO.C,Q5*%
X135460000Y-130000000D03*
D17*
X136730000Y-130000000D03*
X138000000Y-130000000D03*
%TD*%
D24*
%TO.C,J2*%
X156000000Y-108840000D03*
D25*
X156000000Y-111380000D03*
X156000000Y-113920000D03*
X156000000Y-116460000D03*
X156000000Y-119000000D03*
X156000000Y-121540000D03*
%TD*%
D16*
%TO.C,Q3*%
X104960000Y-130000000D03*
D17*
X106230000Y-130000000D03*
X107500000Y-130000000D03*
%TD*%
D10*
%TO.C,R3*%
X111920000Y-129500000D03*
D11*
X122080000Y-129500000D03*
%TD*%
D26*
%TO.C,BZ1*%
X76500000Y-100000000D03*
D27*
X68900000Y-100000000D03*
%TD*%
%TO.C,SW1*%
X97000000Y-53500000D03*
X103500000Y-53500000D03*
X97000000Y-58000000D03*
X103500000Y-58000000D03*
%TD*%
D10*
%TO.C,R7*%
X157500000Y-79500000D03*
D11*
X157500000Y-69340000D03*
%TD*%
D12*
%TO.C,D5*%
X126960000Y-130000000D03*
D13*
X129500000Y-130000000D03*
%TD*%
D20*
%TO.C,C2*%
X154500000Y-63000000D03*
D10*
X157000000Y-63000000D03*
%TD*%
%TO.C,R4*%
X118920000Y-92000000D03*
D11*
X129080000Y-92000000D03*
%TD*%
D16*
%TO.C,Q4*%
X107960000Y-81360000D03*
D17*
X109230000Y-81360000D03*
X110500000Y-81360000D03*
%TD*%
D10*
%TO.C,R8*%
X139000000Y-92500000D03*
D11*
X139000000Y-82340000D03*
%TD*%
D10*
%TO.C,R2*%
X156500000Y-97000000D03*
D11*
X146340000Y-97000000D03*
%TD*%
%TO.C,A1*%
X156620000Y-102000000D03*
X154080000Y-102000000D03*
X151540000Y-102000000D03*
X149000000Y-102000000D03*
X146460000Y-102000000D03*
X143920000Y-102000000D03*
X141380000Y-102000000D03*
X138840000Y-102000000D03*
X136300000Y-102000000D03*
X133760000Y-102000000D03*
X129700000Y-102000000D03*
X127160000Y-102000000D03*
X124620000Y-102000000D03*
X122080000Y-102000000D03*
X119540000Y-102000000D03*
X117000000Y-102000000D03*
X114460000Y-102000000D03*
X111920000Y-102000000D03*
X111920000Y-53740000D03*
X114460000Y-53740000D03*
X117000000Y-53740000D03*
X119540000Y-53740000D03*
X122080000Y-53740000D03*
X124620000Y-53740000D03*
X129700000Y-53740000D03*
X132240000Y-53740000D03*
X134780000Y-53740000D03*
X137320000Y-53740000D03*
X139860000Y-53740000D03*
X142400000Y-53740000D03*
X144940000Y-53740000D03*
D20*
X147480000Y-53740000D03*
%TD*%
M02*
