M48
; DRILL file {KiCad 8.0.6} date 2025-03-20T16:43:43-0600
; FORMAT={-:-/ absolute / metric / decimal}
; #@! TF.CreationDate,2025-03-20T16:43:43-06:00
; #@! TF.GenerationSoftware,Kicad,Pcbnew,8.0.6
; #@! TF.FileFunction,Plated,1,2,PTH
FMAT,2
METRIC
; #@! TA.AperFunction,Plated,PTH,ViaDrill
T1C0.300
; #@! TA.AperFunction,Plated,PTH,ComponentDrill
T2C0.650
; #@! TA.AperFunction,Plated,PTH,ComponentDrill
T3C0.750
; #@! TA.AperFunction,Plated,PTH,ComponentDrill
T4C0.800
; #@! TA.AperFunction,Plated,PTH,ComponentDrill
T5C0.900
; #@! TA.AperFunction,Plated,PTH,ComponentDrill
T6C1.000
; #@! TA.AperFunction,Plated,PTH,ComponentDrill
T7C1.100
%
G90
G05
T1
X93.5Y-56.0
X106.0Y-87.0
X110.5Y-91.5
X112.0Y-107.0
X114.5Y-106.0
X152.0Y-99.0
X155.5Y-95.5
T2
X146.332Y-63.0
X148.232Y-63.0
T3
X104.5Y-93.96
X104.5Y-95.23
X104.5Y-96.5
X104.96Y-130.0
X106.23Y-130.0
X107.5Y-130.0
X107.96Y-81.36
X109.23Y-81.36
X110.5Y-81.36
X135.46Y-130.0
X136.73Y-130.0
X138.0Y-130.0
X145.73Y-85.36
X147.0Y-85.36
X148.27Y-85.36
X149.96Y-93.5
X151.23Y-93.5
X152.5Y-93.5
T4
X73.375Y-120.705
X73.375Y-128.325
X75.915Y-120.705
X75.915Y-128.325
X78.455Y-120.705
X78.455Y-128.325
X80.995Y-120.705
X80.995Y-128.325
X83.535Y-120.705
X83.535Y-128.325
X83.92Y-54.0
X86.075Y-120.705
X86.075Y-128.325
X86.46Y-54.0
X88.615Y-120.705
X88.615Y-128.325
X89.0Y-54.0
X94.42Y-102.5
X96.38Y-63.92
X96.38Y-66.46
X96.38Y-69.0
X96.38Y-71.54
X104.0Y-63.92
X104.0Y-66.46
X104.0Y-69.0
X104.0Y-71.54
X104.58Y-102.5
X111.92Y-129.5
X118.92Y-92.0
X122.08Y-129.5
X128.34Y-97.0
X129.08Y-92.0
X138.5Y-97.0
X139.0Y-82.34
X139.0Y-92.5
X141.92Y-57.0
X142.42Y-130.0
X146.34Y-97.0
X151.0Y-70.0
X152.08Y-57.0
X152.58Y-130.0
X153.5Y-70.0
X154.5Y-63.0
X156.5Y-97.0
X157.0Y-63.0
X157.5Y-69.34
X157.5Y-79.5
T5
X90.46Y-96.5
X93.0Y-96.5
X96.5Y-130.0
X99.04Y-130.0
X113.46Y-89.0
X116.0Y-89.0
X126.96Y-130.0
X129.5Y-130.0
X152.46Y-86.0
X155.0Y-86.0
T6
X68.9Y-100.0
X76.5Y-100.0
X111.92Y-53.74
X111.92Y-102.0
X114.46Y-53.74
X114.46Y-102.0
X117.0Y-53.74
X117.0Y-102.0
X119.54Y-53.74
X119.54Y-102.0
X122.08Y-53.74
X122.08Y-102.0
X124.62Y-53.74
X124.62Y-102.0
X127.16Y-102.0
X129.7Y-53.74
X129.7Y-102.0
X132.24Y-53.74
X133.76Y-102.0
X134.78Y-53.74
X136.3Y-102.0
X137.32Y-53.74
X138.84Y-102.0
X139.86Y-53.74
X141.38Y-102.0
X142.4Y-53.74
X143.92Y-102.0
X144.94Y-53.74
X146.46Y-102.0
X147.48Y-53.74
X149.0Y-102.0
X151.54Y-102.0
X154.08Y-102.0
X156.0Y-108.84
X156.0Y-111.38
X156.0Y-113.92
X156.0Y-116.46
X156.0Y-119.0
X156.0Y-121.54
X156.62Y-102.0
T7
X97.0Y-53.5
X97.0Y-58.0
X103.5Y-53.5
X103.5Y-58.0
M30
