%TF.GenerationSoftware,KiCad,Pcbnew,8.0.6*%
%TF.CreationDate,2025-03-20T16:43:44-06:00*%
%TF.ProjectId,Invitaci_nTDS_general,496e7669-7461-4636-99f3-6e5444535f67,rev?*%
%TF.SameCoordinates,Original*%
%TF.FileFunction,Drillmap*%
%TF.FilePolarity,Positive*%
%FSLAX45Y45*%
G04 Gerber Fmt 4.5, Leading zero omitted, Abs format (unit mm)*
G04 Created by KiCad (PCBNEW 8.0.6) date 2025-03-20 16:43:44*
%MOMM*%
%LPD*%
G01*
G04 APERTURE LIST*
%ADD10C,0.050000*%
%ADD11C,0.200000*%
%ADD12C,0.100000*%
%ADD13C,0.110000*%
G04 APERTURE END LIST*
D10*
X6500000Y-5750000D02*
G75*
G02*
X7250000Y-5000000I750000J0D01*
G01*
X15608114Y-14000000D02*
G75*
G02*
X15291886Y-14000000I-158114J0D01*
G01*
X15291886Y-14000000D02*
G75*
G02*
X15608114Y-14000000I158114J0D01*
G01*
X7250000Y-14500000D02*
G75*
G02*
X6500000Y-13750000I0J750000D01*
G01*
X15250000Y-5000000D02*
G75*
G02*
X16000000Y-5750000I0J-750000D01*
G01*
X16000000Y-13750000D02*
G75*
G02*
X15250000Y-14500000I-750000J0D01*
G01*
X7158114Y-5541886D02*
G75*
G02*
X6841886Y-5541886I-158114J0D01*
G01*
X6841886Y-5541886D02*
G75*
G02*
X7158114Y-5541886I158114J0D01*
G01*
X6500000Y-13750000D02*
X6500000Y-5750000D01*
X16000000Y-5750000D02*
X16000000Y-13750000D01*
X15250000Y-14500000D02*
X7250000Y-14500000D01*
X7250000Y-5000000D02*
X15250000Y-5000000D01*
D11*
D12*
X9335000Y-5585000D02*
X9365000Y-5615000D01*
X9365000Y-5585000D02*
X9335000Y-5615000D01*
X10585000Y-8685000D02*
X10615000Y-8715000D01*
X10615000Y-8685000D02*
X10585000Y-8715000D01*
X11035000Y-9135000D02*
X11065000Y-9165000D01*
X11065000Y-9135000D02*
X11035000Y-9165000D01*
X11185000Y-10685000D02*
X11215000Y-10715000D01*
X11215000Y-10685000D02*
X11185000Y-10715000D01*
X11435000Y-10585000D02*
X11465000Y-10615000D01*
X11465000Y-10585000D02*
X11435000Y-10615000D01*
X15185000Y-9885000D02*
X15215000Y-9915000D01*
X15215000Y-9885000D02*
X15185000Y-9915000D01*
X15535000Y-9535000D02*
X15565000Y-9565000D01*
X15565000Y-9535000D02*
X15535000Y-9565000D01*
X14665750Y-6300000D02*
G75*
G02*
X14600750Y-6300000I-32500J0D01*
G01*
X14600750Y-6300000D02*
G75*
G02*
X14665750Y-6300000I32500J0D01*
G01*
X14855750Y-6300000D02*
G75*
G02*
X14790750Y-6300000I-32500J0D01*
G01*
X14790750Y-6300000D02*
G75*
G02*
X14855750Y-6300000I32500J0D01*
G01*
X10450000Y-9358500D02*
X10450000Y-9433500D01*
X10412500Y-9396000D02*
X10487500Y-9396000D01*
X10450000Y-9485500D02*
X10450000Y-9560500D01*
X10412500Y-9523000D02*
X10487500Y-9523000D01*
X10450000Y-9612500D02*
X10450000Y-9687500D01*
X10412500Y-9650000D02*
X10487500Y-9650000D01*
X10496000Y-12962500D02*
X10496000Y-13037500D01*
X10458500Y-13000000D02*
X10533500Y-13000000D01*
X10623000Y-12962500D02*
X10623000Y-13037500D01*
X10585500Y-13000000D02*
X10660500Y-13000000D01*
X10750000Y-12962500D02*
X10750000Y-13037500D01*
X10712500Y-13000000D02*
X10787500Y-13000000D01*
X10796000Y-8098500D02*
X10796000Y-8173500D01*
X10758500Y-8136000D02*
X10833500Y-8136000D01*
X10923000Y-8098500D02*
X10923000Y-8173500D01*
X10885500Y-8136000D02*
X10960500Y-8136000D01*
X11050000Y-8098500D02*
X11050000Y-8173500D01*
X11012500Y-8136000D02*
X11087500Y-8136000D01*
X13546000Y-12962500D02*
X13546000Y-13037500D01*
X13508500Y-13000000D02*
X13583500Y-13000000D01*
X13673000Y-12962500D02*
X13673000Y-13037500D01*
X13635500Y-13000000D02*
X13710500Y-13000000D01*
X13800000Y-12962500D02*
X13800000Y-13037500D01*
X13762500Y-13000000D02*
X13837500Y-13000000D01*
X14573000Y-8498500D02*
X14573000Y-8573500D01*
X14535500Y-8536000D02*
X14610500Y-8536000D01*
X14700000Y-8498500D02*
X14700000Y-8573500D01*
X14662500Y-8536000D02*
X14737500Y-8536000D01*
X14827000Y-8498500D02*
X14827000Y-8573500D01*
X14789500Y-8536000D02*
X14864500Y-8536000D01*
X14996000Y-9312500D02*
X14996000Y-9387500D01*
X14958500Y-9350000D02*
X15033500Y-9350000D01*
X15123000Y-9312500D02*
X15123000Y-9387500D01*
X15085500Y-9350000D02*
X15160500Y-9350000D01*
X15250000Y-9312500D02*
X15250000Y-9387500D01*
X15212500Y-9350000D02*
X15287500Y-9350000D01*
X7365784Y-12098784D02*
X7365784Y-12042215D01*
X7309215Y-12042215D01*
X7309215Y-12098784D01*
X7365784Y-12098784D01*
X7365784Y-12860784D02*
X7365784Y-12804215D01*
X7309215Y-12804215D01*
X7309215Y-12860784D01*
X7365784Y-12860784D01*
X7619784Y-12098784D02*
X7619784Y-12042215D01*
X7563215Y-12042215D01*
X7563215Y-12098784D01*
X7619784Y-12098784D01*
X7619784Y-12860784D02*
X7619784Y-12804215D01*
X7563215Y-12804215D01*
X7563215Y-12860784D01*
X7619784Y-12860784D01*
X7873784Y-12098784D02*
X7873784Y-12042215D01*
X7817215Y-12042215D01*
X7817215Y-12098784D01*
X7873784Y-12098784D01*
X7873784Y-12860784D02*
X7873784Y-12804215D01*
X7817215Y-12804215D01*
X7817215Y-12860784D01*
X7873784Y-12860784D01*
X8127784Y-12098784D02*
X8127784Y-12042215D01*
X8071215Y-12042215D01*
X8071215Y-12098784D01*
X8127784Y-12098784D01*
X8127784Y-12860784D02*
X8127784Y-12804215D01*
X8071215Y-12804215D01*
X8071215Y-12860784D01*
X8127784Y-12860784D01*
X8381784Y-12098784D02*
X8381784Y-12042215D01*
X8325215Y-12042215D01*
X8325215Y-12098784D01*
X8381784Y-12098784D01*
X8381784Y-12860784D02*
X8381784Y-12804215D01*
X8325215Y-12804215D01*
X8325215Y-12860784D01*
X8381784Y-12860784D01*
X8420285Y-5428285D02*
X8420285Y-5371716D01*
X8363715Y-5371716D01*
X8363715Y-5428285D01*
X8420285Y-5428285D01*
X8635785Y-12098784D02*
X8635785Y-12042215D01*
X8579216Y-12042215D01*
X8579216Y-12098784D01*
X8635785Y-12098784D01*
X8635785Y-12860784D02*
X8635785Y-12804215D01*
X8579216Y-12804215D01*
X8579216Y-12860784D01*
X8635785Y-12860784D01*
X8674285Y-5428285D02*
X8674285Y-5371716D01*
X8617716Y-5371716D01*
X8617716Y-5428285D01*
X8674285Y-5428285D01*
X8889785Y-12098784D02*
X8889785Y-12042215D01*
X8833216Y-12042215D01*
X8833216Y-12098784D01*
X8889785Y-12098784D01*
X8889785Y-12860784D02*
X8889785Y-12804215D01*
X8833216Y-12804215D01*
X8833216Y-12860784D01*
X8889785Y-12860784D01*
X8928285Y-5428285D02*
X8928285Y-5371716D01*
X8871716Y-5371716D01*
X8871716Y-5428285D01*
X8928285Y-5428285D01*
X9470285Y-10278285D02*
X9470285Y-10221716D01*
X9413716Y-10221716D01*
X9413716Y-10278285D01*
X9470285Y-10278285D01*
X9666285Y-6420284D02*
X9666285Y-6363715D01*
X9609716Y-6363715D01*
X9609716Y-6420284D01*
X9666285Y-6420284D01*
X9666285Y-6674284D02*
X9666285Y-6617715D01*
X9609716Y-6617715D01*
X9609716Y-6674284D01*
X9666285Y-6674284D01*
X9666285Y-6928284D02*
X9666285Y-6871715D01*
X9609716Y-6871715D01*
X9609716Y-6928284D01*
X9666285Y-6928284D01*
X9666285Y-7182284D02*
X9666285Y-7125715D01*
X9609716Y-7125715D01*
X9609716Y-7182284D01*
X9666285Y-7182284D01*
X10428285Y-6420284D02*
X10428285Y-6363715D01*
X10371716Y-6363715D01*
X10371716Y-6420284D01*
X10428285Y-6420284D01*
X10428285Y-6674284D02*
X10428285Y-6617715D01*
X10371716Y-6617715D01*
X10371716Y-6674284D01*
X10428285Y-6674284D01*
X10428285Y-6928284D02*
X10428285Y-6871715D01*
X10371716Y-6871715D01*
X10371716Y-6928284D01*
X10428285Y-6928284D01*
X10428285Y-7182284D02*
X10428285Y-7125715D01*
X10371716Y-7125715D01*
X10371716Y-7182284D01*
X10428285Y-7182284D01*
X10486285Y-10278285D02*
X10486285Y-10221716D01*
X10429716Y-10221716D01*
X10429716Y-10278285D01*
X10486285Y-10278285D01*
X11220284Y-12978284D02*
X11220284Y-12921715D01*
X11163716Y-12921715D01*
X11163716Y-12978284D01*
X11220284Y-12978284D01*
X11920284Y-9228285D02*
X11920284Y-9171716D01*
X11863715Y-9171716D01*
X11863715Y-9228285D01*
X11920284Y-9228285D01*
X12236284Y-12978284D02*
X12236284Y-12921715D01*
X12179715Y-12921715D01*
X12179715Y-12978284D01*
X12236284Y-12978284D01*
X12862284Y-9728285D02*
X12862284Y-9671716D01*
X12805715Y-9671716D01*
X12805715Y-9728285D01*
X12862284Y-9728285D01*
X12936284Y-9228285D02*
X12936284Y-9171716D01*
X12879715Y-9171716D01*
X12879715Y-9228285D01*
X12936284Y-9228285D01*
X13878284Y-9728285D02*
X13878284Y-9671716D01*
X13821715Y-9671716D01*
X13821715Y-9728285D01*
X13878284Y-9728285D01*
X13928284Y-8262284D02*
X13928284Y-8205715D01*
X13871715Y-8205715D01*
X13871715Y-8262284D01*
X13928284Y-8262284D01*
X13928284Y-9278285D02*
X13928284Y-9221716D01*
X13871715Y-9221716D01*
X13871715Y-9278285D01*
X13928284Y-9278285D01*
X14220284Y-5728284D02*
X14220284Y-5671715D01*
X14163715Y-5671715D01*
X14163715Y-5728284D01*
X14220284Y-5728284D01*
X14270284Y-13028284D02*
X14270284Y-12971715D01*
X14213715Y-12971715D01*
X14213715Y-13028284D01*
X14270284Y-13028284D01*
X14662284Y-9728285D02*
X14662284Y-9671716D01*
X14605715Y-9671716D01*
X14605715Y-9728285D01*
X14662284Y-9728285D01*
X15128284Y-7028284D02*
X15128284Y-6971715D01*
X15071715Y-6971715D01*
X15071715Y-7028284D01*
X15128284Y-7028284D01*
X15236284Y-5728284D02*
X15236284Y-5671715D01*
X15179715Y-5671715D01*
X15179715Y-5728284D01*
X15236284Y-5728284D01*
X15286284Y-13028284D02*
X15286284Y-12971715D01*
X15229715Y-12971715D01*
X15229715Y-13028284D01*
X15286284Y-13028284D01*
X15378284Y-7028284D02*
X15378284Y-6971715D01*
X15321715Y-6971715D01*
X15321715Y-7028284D01*
X15378284Y-7028284D01*
X15478284Y-6328284D02*
X15478284Y-6271715D01*
X15421715Y-6271715D01*
X15421715Y-6328284D01*
X15478284Y-6328284D01*
X15678284Y-9728285D02*
X15678284Y-9671716D01*
X15621715Y-9671716D01*
X15621715Y-9728285D01*
X15678284Y-9728285D01*
X15728284Y-6328284D02*
X15728284Y-6271715D01*
X15671715Y-6271715D01*
X15671715Y-6328284D01*
X15728284Y-6328284D01*
X15778284Y-6962284D02*
X15778284Y-6905715D01*
X15721715Y-6905715D01*
X15721715Y-6962284D01*
X15778284Y-6962284D01*
X15778284Y-7978284D02*
X15778284Y-7921715D01*
X15721715Y-7921715D01*
X15721715Y-7978284D01*
X15778284Y-7978284D01*
X9046000Y-9695000D02*
X9091000Y-9650000D01*
X9046000Y-9605000D01*
X9001000Y-9650000D01*
X9046000Y-9695000D01*
X9300000Y-9695000D02*
X9345000Y-9650000D01*
X9300000Y-9605000D01*
X9255000Y-9650000D01*
X9300000Y-9695000D01*
X9650000Y-13045000D02*
X9695000Y-13000000D01*
X9650000Y-12955000D01*
X9605000Y-13000000D01*
X9650000Y-13045000D01*
X9904000Y-13045000D02*
X9949000Y-13000000D01*
X9904000Y-12955000D01*
X9859000Y-13000000D01*
X9904000Y-13045000D01*
X11346000Y-8945000D02*
X11391000Y-8900000D01*
X11346000Y-8855000D01*
X11301000Y-8900000D01*
X11346000Y-8945000D01*
X11600000Y-8945000D02*
X11645000Y-8900000D01*
X11600000Y-8855000D01*
X11555000Y-8900000D01*
X11600000Y-8945000D01*
X12696000Y-13045000D02*
X12741000Y-13000000D01*
X12696000Y-12955000D01*
X12651000Y-13000000D01*
X12696000Y-13045000D01*
X12950000Y-13045000D02*
X12995000Y-13000000D01*
X12950000Y-12955000D01*
X12905000Y-13000000D01*
X12950000Y-13045000D01*
X15246000Y-8645000D02*
X15291000Y-8600000D01*
X15246000Y-8555000D01*
X15201000Y-8600000D01*
X15246000Y-8645000D01*
X15500000Y-8645000D02*
X15545000Y-8600000D01*
X15500000Y-8555000D01*
X15455000Y-8600000D01*
X15500000Y-8645000D01*
X6840000Y-9950000D02*
X6940000Y-10050000D01*
X6940000Y-9950000D02*
X6840000Y-10050000D01*
X6940000Y-10000000D02*
G75*
G02*
X6840000Y-10000000I-50000J0D01*
G01*
X6840000Y-10000000D02*
G75*
G02*
X6940000Y-10000000I50000J0D01*
G01*
X7600000Y-9950000D02*
X7700000Y-10050000D01*
X7700000Y-9950000D02*
X7600000Y-10050000D01*
X7700000Y-10000000D02*
G75*
G02*
X7600000Y-10000000I-50000J0D01*
G01*
X7600000Y-10000000D02*
G75*
G02*
X7700000Y-10000000I50000J0D01*
G01*
X11142000Y-5324000D02*
X11242000Y-5424000D01*
X11242000Y-5324000D02*
X11142000Y-5424000D01*
X11242000Y-5374000D02*
G75*
G02*
X11142000Y-5374000I-50000J0D01*
G01*
X11142000Y-5374000D02*
G75*
G02*
X11242000Y-5374000I50000J0D01*
G01*
X11142000Y-10150000D02*
X11242000Y-10250000D01*
X11242000Y-10150000D02*
X11142000Y-10250000D01*
X11242000Y-10200000D02*
G75*
G02*
X11142000Y-10200000I-50000J0D01*
G01*
X11142000Y-10200000D02*
G75*
G02*
X11242000Y-10200000I50000J0D01*
G01*
X11396000Y-5324000D02*
X11496000Y-5424000D01*
X11496000Y-5324000D02*
X11396000Y-5424000D01*
X11496000Y-5374000D02*
G75*
G02*
X11396000Y-5374000I-50000J0D01*
G01*
X11396000Y-5374000D02*
G75*
G02*
X11496000Y-5374000I50000J0D01*
G01*
X11396000Y-10150000D02*
X11496000Y-10250000D01*
X11496000Y-10150000D02*
X11396000Y-10250000D01*
X11496000Y-10200000D02*
G75*
G02*
X11396000Y-10200000I-50000J0D01*
G01*
X11396000Y-10200000D02*
G75*
G02*
X11496000Y-10200000I50000J0D01*
G01*
X11650000Y-5324000D02*
X11750000Y-5424000D01*
X11750000Y-5324000D02*
X11650000Y-5424000D01*
X11750000Y-5374000D02*
G75*
G02*
X11650000Y-5374000I-50000J0D01*
G01*
X11650000Y-5374000D02*
G75*
G02*
X11750000Y-5374000I50000J0D01*
G01*
X11650000Y-10150000D02*
X11750000Y-10250000D01*
X11750000Y-10150000D02*
X11650000Y-10250000D01*
X11750000Y-10200000D02*
G75*
G02*
X11650000Y-10200000I-50000J0D01*
G01*
X11650000Y-10200000D02*
G75*
G02*
X11750000Y-10200000I50000J0D01*
G01*
X11904000Y-5324000D02*
X12004000Y-5424000D01*
X12004000Y-5324000D02*
X11904000Y-5424000D01*
X12004000Y-5374000D02*
G75*
G02*
X11904000Y-5374000I-50000J0D01*
G01*
X11904000Y-5374000D02*
G75*
G02*
X12004000Y-5374000I50000J0D01*
G01*
X11904000Y-10150000D02*
X12004000Y-10250000D01*
X12004000Y-10150000D02*
X11904000Y-10250000D01*
X12004000Y-10200000D02*
G75*
G02*
X11904000Y-10200000I-50000J0D01*
G01*
X11904000Y-10200000D02*
G75*
G02*
X12004000Y-10200000I50000J0D01*
G01*
X12158000Y-5324000D02*
X12258000Y-5424000D01*
X12258000Y-5324000D02*
X12158000Y-5424000D01*
X12258000Y-5374000D02*
G75*
G02*
X12158000Y-5374000I-50000J0D01*
G01*
X12158000Y-5374000D02*
G75*
G02*
X12258000Y-5374000I50000J0D01*
G01*
X12158000Y-10150000D02*
X12258000Y-10250000D01*
X12258000Y-10150000D02*
X12158000Y-10250000D01*
X12258000Y-10200000D02*
G75*
G02*
X12158000Y-10200000I-50000J0D01*
G01*
X12158000Y-10200000D02*
G75*
G02*
X12258000Y-10200000I50000J0D01*
G01*
X12412000Y-5324000D02*
X12512000Y-5424000D01*
X12512000Y-5324000D02*
X12412000Y-5424000D01*
X12512000Y-5374000D02*
G75*
G02*
X12412000Y-5374000I-50000J0D01*
G01*
X12412000Y-5374000D02*
G75*
G02*
X12512000Y-5374000I50000J0D01*
G01*
X12412000Y-10150000D02*
X12512000Y-10250000D01*
X12512000Y-10150000D02*
X12412000Y-10250000D01*
X12512000Y-10200000D02*
G75*
G02*
X12412000Y-10200000I-50000J0D01*
G01*
X12412000Y-10200000D02*
G75*
G02*
X12512000Y-10200000I50000J0D01*
G01*
X12666000Y-10150000D02*
X12766000Y-10250000D01*
X12766000Y-10150000D02*
X12666000Y-10250000D01*
X12766000Y-10200000D02*
G75*
G02*
X12666000Y-10200000I-50000J0D01*
G01*
X12666000Y-10200000D02*
G75*
G02*
X12766000Y-10200000I50000J0D01*
G01*
X12920000Y-5324000D02*
X13020000Y-5424000D01*
X13020000Y-5324000D02*
X12920000Y-5424000D01*
X13020000Y-5374000D02*
G75*
G02*
X12920000Y-5374000I-50000J0D01*
G01*
X12920000Y-5374000D02*
G75*
G02*
X13020000Y-5374000I50000J0D01*
G01*
X12920000Y-10150000D02*
X13020000Y-10250000D01*
X13020000Y-10150000D02*
X12920000Y-10250000D01*
X13020000Y-10200000D02*
G75*
G02*
X12920000Y-10200000I-50000J0D01*
G01*
X12920000Y-10200000D02*
G75*
G02*
X13020000Y-10200000I50000J0D01*
G01*
X13174000Y-5324000D02*
X13274000Y-5424000D01*
X13274000Y-5324000D02*
X13174000Y-5424000D01*
X13274000Y-5374000D02*
G75*
G02*
X13174000Y-5374000I-50000J0D01*
G01*
X13174000Y-5374000D02*
G75*
G02*
X13274000Y-5374000I50000J0D01*
G01*
X13326000Y-10150000D02*
X13426000Y-10250000D01*
X13426000Y-10150000D02*
X13326000Y-10250000D01*
X13426000Y-10200000D02*
G75*
G02*
X13326000Y-10200000I-50000J0D01*
G01*
X13326000Y-10200000D02*
G75*
G02*
X13426000Y-10200000I50000J0D01*
G01*
X13428000Y-5324000D02*
X13528000Y-5424000D01*
X13528000Y-5324000D02*
X13428000Y-5424000D01*
X13528000Y-5374000D02*
G75*
G02*
X13428000Y-5374000I-50000J0D01*
G01*
X13428000Y-5374000D02*
G75*
G02*
X13528000Y-5374000I50000J0D01*
G01*
X13580000Y-10150000D02*
X13680000Y-10250000D01*
X13680000Y-10150000D02*
X13580000Y-10250000D01*
X13680000Y-10200000D02*
G75*
G02*
X13580000Y-10200000I-50000J0D01*
G01*
X13580000Y-10200000D02*
G75*
G02*
X13680000Y-10200000I50000J0D01*
G01*
X13682000Y-5324000D02*
X13782000Y-5424000D01*
X13782000Y-5324000D02*
X13682000Y-5424000D01*
X13782000Y-5374000D02*
G75*
G02*
X13682000Y-5374000I-50000J0D01*
G01*
X13682000Y-5374000D02*
G75*
G02*
X13782000Y-5374000I50000J0D01*
G01*
X13834000Y-10150000D02*
X13934000Y-10250000D01*
X13934000Y-10150000D02*
X13834000Y-10250000D01*
X13934000Y-10200000D02*
G75*
G02*
X13834000Y-10200000I-50000J0D01*
G01*
X13834000Y-10200000D02*
G75*
G02*
X13934000Y-10200000I50000J0D01*
G01*
X13936000Y-5324000D02*
X14036000Y-5424000D01*
X14036000Y-5324000D02*
X13936000Y-5424000D01*
X14036000Y-5374000D02*
G75*
G02*
X13936000Y-5374000I-50000J0D01*
G01*
X13936000Y-5374000D02*
G75*
G02*
X14036000Y-5374000I50000J0D01*
G01*
X14088000Y-10150000D02*
X14188000Y-10250000D01*
X14188000Y-10150000D02*
X14088000Y-10250000D01*
X14188000Y-10200000D02*
G75*
G02*
X14088000Y-10200000I-50000J0D01*
G01*
X14088000Y-10200000D02*
G75*
G02*
X14188000Y-10200000I50000J0D01*
G01*
X14190000Y-5324000D02*
X14290000Y-5424000D01*
X14290000Y-5324000D02*
X14190000Y-5424000D01*
X14290000Y-5374000D02*
G75*
G02*
X14190000Y-5374000I-50000J0D01*
G01*
X14190000Y-5374000D02*
G75*
G02*
X14290000Y-5374000I50000J0D01*
G01*
X14342000Y-10150000D02*
X14442000Y-10250000D01*
X14442000Y-10150000D02*
X14342000Y-10250000D01*
X14442000Y-10200000D02*
G75*
G02*
X14342000Y-10200000I-50000J0D01*
G01*
X14342000Y-10200000D02*
G75*
G02*
X14442000Y-10200000I50000J0D01*
G01*
X14444000Y-5324000D02*
X14544000Y-5424000D01*
X14544000Y-5324000D02*
X14444000Y-5424000D01*
X14544000Y-5374000D02*
G75*
G02*
X14444000Y-5374000I-50000J0D01*
G01*
X14444000Y-5374000D02*
G75*
G02*
X14544000Y-5374000I50000J0D01*
G01*
X14596000Y-10150000D02*
X14696000Y-10250000D01*
X14696000Y-10150000D02*
X14596000Y-10250000D01*
X14696000Y-10200000D02*
G75*
G02*
X14596000Y-10200000I-50000J0D01*
G01*
X14596000Y-10200000D02*
G75*
G02*
X14696000Y-10200000I50000J0D01*
G01*
X14698000Y-5324000D02*
X14798000Y-5424000D01*
X14798000Y-5324000D02*
X14698000Y-5424000D01*
X14798000Y-5374000D02*
G75*
G02*
X14698000Y-5374000I-50000J0D01*
G01*
X14698000Y-5374000D02*
G75*
G02*
X14798000Y-5374000I50000J0D01*
G01*
X14850000Y-10150000D02*
X14950000Y-10250000D01*
X14950000Y-10150000D02*
X14850000Y-10250000D01*
X14950000Y-10200000D02*
G75*
G02*
X14850000Y-10200000I-50000J0D01*
G01*
X14850000Y-10200000D02*
G75*
G02*
X14950000Y-10200000I50000J0D01*
G01*
X15104000Y-10150000D02*
X15204000Y-10250000D01*
X15204000Y-10150000D02*
X15104000Y-10250000D01*
X15204000Y-10200000D02*
G75*
G02*
X15104000Y-10200000I-50000J0D01*
G01*
X15104000Y-10200000D02*
G75*
G02*
X15204000Y-10200000I50000J0D01*
G01*
X15358000Y-10150000D02*
X15458000Y-10250000D01*
X15458000Y-10150000D02*
X15358000Y-10250000D01*
X15458000Y-10200000D02*
G75*
G02*
X15358000Y-10200000I-50000J0D01*
G01*
X15358000Y-10200000D02*
G75*
G02*
X15458000Y-10200000I50000J0D01*
G01*
X15550000Y-10834000D02*
X15650000Y-10934000D01*
X15650000Y-10834000D02*
X15550000Y-10934000D01*
X15650000Y-10884000D02*
G75*
G02*
X15550000Y-10884000I-50000J0D01*
G01*
X15550000Y-10884000D02*
G75*
G02*
X15650000Y-10884000I50000J0D01*
G01*
X15550000Y-11088000D02*
X15650000Y-11188000D01*
X15650000Y-11088000D02*
X15550000Y-11188000D01*
X15650000Y-11138000D02*
G75*
G02*
X15550000Y-11138000I-50000J0D01*
G01*
X15550000Y-11138000D02*
G75*
G02*
X15650000Y-11138000I50000J0D01*
G01*
X15550000Y-11342000D02*
X15650000Y-11442000D01*
X15650000Y-11342000D02*
X15550000Y-11442000D01*
X15650000Y-11392000D02*
G75*
G02*
X15550000Y-11392000I-50000J0D01*
G01*
X15550000Y-11392000D02*
G75*
G02*
X15650000Y-11392000I50000J0D01*
G01*
X15550000Y-11596000D02*
X15650000Y-11696000D01*
X15650000Y-11596000D02*
X15550000Y-11696000D01*
X15650000Y-11646000D02*
G75*
G02*
X15550000Y-11646000I-50000J0D01*
G01*
X15550000Y-11646000D02*
G75*
G02*
X15650000Y-11646000I50000J0D01*
G01*
X15550000Y-11850000D02*
X15650000Y-11950000D01*
X15650000Y-11850000D02*
X15550000Y-11950000D01*
X15650000Y-11900000D02*
G75*
G02*
X15550000Y-11900000I-50000J0D01*
G01*
X15550000Y-11900000D02*
G75*
G02*
X15650000Y-11900000I50000J0D01*
G01*
X15550000Y-12104000D02*
X15650000Y-12204000D01*
X15650000Y-12104000D02*
X15550000Y-12204000D01*
X15650000Y-12154000D02*
G75*
G02*
X15550000Y-12154000I-50000J0D01*
G01*
X15550000Y-12154000D02*
G75*
G02*
X15650000Y-12154000I50000J0D01*
G01*
X15612000Y-10150000D02*
X15712000Y-10250000D01*
X15712000Y-10150000D02*
X15612000Y-10250000D01*
X15712000Y-10200000D02*
G75*
G02*
X15612000Y-10200000I-50000J0D01*
G01*
X15612000Y-10200000D02*
G75*
G02*
X15712000Y-10200000I50000J0D01*
G01*
D13*
X9645000Y-5295000D02*
X9755000Y-5405000D01*
X9755000Y-5295000D02*
X9645000Y-5405000D01*
X9700000Y-5295000D02*
X9700000Y-5405000D01*
X9645000Y-5350000D02*
X9755000Y-5350000D01*
X9645000Y-5745000D02*
X9755000Y-5855000D01*
X9755000Y-5745000D02*
X9645000Y-5855000D01*
X9700000Y-5745000D02*
X9700000Y-5855000D01*
X9645000Y-5800000D02*
X9755000Y-5800000D01*
X10295000Y-5295000D02*
X10405000Y-5405000D01*
X10405000Y-5295000D02*
X10295000Y-5405000D01*
X10350000Y-5295000D02*
X10350000Y-5405000D01*
X10295000Y-5350000D02*
X10405000Y-5350000D01*
X10295000Y-5745000D02*
X10405000Y-5855000D01*
X10405000Y-5745000D02*
X10295000Y-5855000D01*
X10350000Y-5745000D02*
X10350000Y-5855000D01*
X10295000Y-5800000D02*
X10405000Y-5800000D01*
D11*
X6758277Y-14813984D02*
X6758277Y-14613984D01*
X6758277Y-14613984D02*
X6805896Y-14613984D01*
X6805896Y-14613984D02*
X6834467Y-14623508D01*
X6834467Y-14623508D02*
X6853515Y-14642555D01*
X6853515Y-14642555D02*
X6863039Y-14661603D01*
X6863039Y-14661603D02*
X6872562Y-14699698D01*
X6872562Y-14699698D02*
X6872562Y-14728269D01*
X6872562Y-14728269D02*
X6863039Y-14766365D01*
X6863039Y-14766365D02*
X6853515Y-14785412D01*
X6853515Y-14785412D02*
X6834467Y-14804460D01*
X6834467Y-14804460D02*
X6805896Y-14813984D01*
X6805896Y-14813984D02*
X6758277Y-14813984D01*
X6958277Y-14813984D02*
X6958277Y-14680650D01*
X6958277Y-14718746D02*
X6967801Y-14699698D01*
X6967801Y-14699698D02*
X6977324Y-14690174D01*
X6977324Y-14690174D02*
X6996372Y-14680650D01*
X6996372Y-14680650D02*
X7015420Y-14680650D01*
X7082086Y-14813984D02*
X7082086Y-14680650D01*
X7082086Y-14613984D02*
X7072562Y-14623508D01*
X7072562Y-14623508D02*
X7082086Y-14633031D01*
X7082086Y-14633031D02*
X7091610Y-14623508D01*
X7091610Y-14623508D02*
X7082086Y-14613984D01*
X7082086Y-14613984D02*
X7082086Y-14633031D01*
X7205896Y-14813984D02*
X7186848Y-14804460D01*
X7186848Y-14804460D02*
X7177324Y-14785412D01*
X7177324Y-14785412D02*
X7177324Y-14613984D01*
X7310658Y-14813984D02*
X7291610Y-14804460D01*
X7291610Y-14804460D02*
X7282086Y-14785412D01*
X7282086Y-14785412D02*
X7282086Y-14613984D01*
X7539229Y-14813984D02*
X7539229Y-14613984D01*
X7539229Y-14613984D02*
X7605896Y-14756841D01*
X7605896Y-14756841D02*
X7672562Y-14613984D01*
X7672562Y-14613984D02*
X7672562Y-14813984D01*
X7853515Y-14813984D02*
X7853515Y-14709222D01*
X7853515Y-14709222D02*
X7843991Y-14690174D01*
X7843991Y-14690174D02*
X7824943Y-14680650D01*
X7824943Y-14680650D02*
X7786848Y-14680650D01*
X7786848Y-14680650D02*
X7767801Y-14690174D01*
X7853515Y-14804460D02*
X7834467Y-14813984D01*
X7834467Y-14813984D02*
X7786848Y-14813984D01*
X7786848Y-14813984D02*
X7767801Y-14804460D01*
X7767801Y-14804460D02*
X7758277Y-14785412D01*
X7758277Y-14785412D02*
X7758277Y-14766365D01*
X7758277Y-14766365D02*
X7767801Y-14747317D01*
X7767801Y-14747317D02*
X7786848Y-14737793D01*
X7786848Y-14737793D02*
X7834467Y-14737793D01*
X7834467Y-14737793D02*
X7853515Y-14728269D01*
X7948753Y-14680650D02*
X7948753Y-14880650D01*
X7948753Y-14690174D02*
X7967801Y-14680650D01*
X7967801Y-14680650D02*
X8005896Y-14680650D01*
X8005896Y-14680650D02*
X8024943Y-14690174D01*
X8024943Y-14690174D02*
X8034467Y-14699698D01*
X8034467Y-14699698D02*
X8043991Y-14718746D01*
X8043991Y-14718746D02*
X8043991Y-14775888D01*
X8043991Y-14775888D02*
X8034467Y-14794936D01*
X8034467Y-14794936D02*
X8024943Y-14804460D01*
X8024943Y-14804460D02*
X8005896Y-14813984D01*
X8005896Y-14813984D02*
X7967801Y-14813984D01*
X7967801Y-14813984D02*
X7948753Y-14804460D01*
X8129705Y-14794936D02*
X8139229Y-14804460D01*
X8139229Y-14804460D02*
X8129705Y-14813984D01*
X8129705Y-14813984D02*
X8120182Y-14804460D01*
X8120182Y-14804460D02*
X8129705Y-14794936D01*
X8129705Y-14794936D02*
X8129705Y-14813984D01*
X8129705Y-14690174D02*
X8139229Y-14699698D01*
X8139229Y-14699698D02*
X8129705Y-14709222D01*
X8129705Y-14709222D02*
X8120182Y-14699698D01*
X8120182Y-14699698D02*
X8129705Y-14690174D01*
X8129705Y-14690174D02*
X8129705Y-14709222D01*
D12*
X6467500Y-15127500D02*
X6497500Y-15157500D01*
X6497500Y-15127500D02*
X6467500Y-15157500D01*
D11*
X6796372Y-15033984D02*
X6815420Y-15033984D01*
X6815420Y-15033984D02*
X6834467Y-15043508D01*
X6834467Y-15043508D02*
X6843991Y-15053031D01*
X6843991Y-15053031D02*
X6853515Y-15072079D01*
X6853515Y-15072079D02*
X6863039Y-15110174D01*
X6863039Y-15110174D02*
X6863039Y-15157793D01*
X6863039Y-15157793D02*
X6853515Y-15195888D01*
X6853515Y-15195888D02*
X6843991Y-15214936D01*
X6843991Y-15214936D02*
X6834467Y-15224460D01*
X6834467Y-15224460D02*
X6815420Y-15233984D01*
X6815420Y-15233984D02*
X6796372Y-15233984D01*
X6796372Y-15233984D02*
X6777324Y-15224460D01*
X6777324Y-15224460D02*
X6767801Y-15214936D01*
X6767801Y-15214936D02*
X6758277Y-15195888D01*
X6758277Y-15195888D02*
X6748753Y-15157793D01*
X6748753Y-15157793D02*
X6748753Y-15110174D01*
X6748753Y-15110174D02*
X6758277Y-15072079D01*
X6758277Y-15072079D02*
X6767801Y-15053031D01*
X6767801Y-15053031D02*
X6777324Y-15043508D01*
X6777324Y-15043508D02*
X6796372Y-15033984D01*
X6948753Y-15214936D02*
X6958277Y-15224460D01*
X6958277Y-15224460D02*
X6948753Y-15233984D01*
X6948753Y-15233984D02*
X6939229Y-15224460D01*
X6939229Y-15224460D02*
X6948753Y-15214936D01*
X6948753Y-15214936D02*
X6948753Y-15233984D01*
X7024943Y-15033984D02*
X7148753Y-15033984D01*
X7148753Y-15033984D02*
X7082086Y-15110174D01*
X7082086Y-15110174D02*
X7110658Y-15110174D01*
X7110658Y-15110174D02*
X7129705Y-15119698D01*
X7129705Y-15119698D02*
X7139229Y-15129222D01*
X7139229Y-15129222D02*
X7148753Y-15148269D01*
X7148753Y-15148269D02*
X7148753Y-15195888D01*
X7148753Y-15195888D02*
X7139229Y-15214936D01*
X7139229Y-15214936D02*
X7129705Y-15224460D01*
X7129705Y-15224460D02*
X7110658Y-15233984D01*
X7110658Y-15233984D02*
X7053515Y-15233984D01*
X7053515Y-15233984D02*
X7034467Y-15224460D01*
X7034467Y-15224460D02*
X7024943Y-15214936D01*
X7272562Y-15033984D02*
X7291610Y-15033984D01*
X7291610Y-15033984D02*
X7310658Y-15043508D01*
X7310658Y-15043508D02*
X7320182Y-15053031D01*
X7320182Y-15053031D02*
X7329705Y-15072079D01*
X7329705Y-15072079D02*
X7339229Y-15110174D01*
X7339229Y-15110174D02*
X7339229Y-15157793D01*
X7339229Y-15157793D02*
X7329705Y-15195888D01*
X7329705Y-15195888D02*
X7320182Y-15214936D01*
X7320182Y-15214936D02*
X7310658Y-15224460D01*
X7310658Y-15224460D02*
X7291610Y-15233984D01*
X7291610Y-15233984D02*
X7272562Y-15233984D01*
X7272562Y-15233984D02*
X7253515Y-15224460D01*
X7253515Y-15224460D02*
X7243991Y-15214936D01*
X7243991Y-15214936D02*
X7234467Y-15195888D01*
X7234467Y-15195888D02*
X7224943Y-15157793D01*
X7224943Y-15157793D02*
X7224943Y-15110174D01*
X7224943Y-15110174D02*
X7234467Y-15072079D01*
X7234467Y-15072079D02*
X7243991Y-15053031D01*
X7243991Y-15053031D02*
X7253515Y-15043508D01*
X7253515Y-15043508D02*
X7272562Y-15033984D01*
X7463039Y-15033984D02*
X7482086Y-15033984D01*
X7482086Y-15033984D02*
X7501134Y-15043508D01*
X7501134Y-15043508D02*
X7510658Y-15053031D01*
X7510658Y-15053031D02*
X7520182Y-15072079D01*
X7520182Y-15072079D02*
X7529705Y-15110174D01*
X7529705Y-15110174D02*
X7529705Y-15157793D01*
X7529705Y-15157793D02*
X7520182Y-15195888D01*
X7520182Y-15195888D02*
X7510658Y-15214936D01*
X7510658Y-15214936D02*
X7501134Y-15224460D01*
X7501134Y-15224460D02*
X7482086Y-15233984D01*
X7482086Y-15233984D02*
X7463039Y-15233984D01*
X7463039Y-15233984D02*
X7443991Y-15224460D01*
X7443991Y-15224460D02*
X7434467Y-15214936D01*
X7434467Y-15214936D02*
X7424943Y-15195888D01*
X7424943Y-15195888D02*
X7415420Y-15157793D01*
X7415420Y-15157793D02*
X7415420Y-15110174D01*
X7415420Y-15110174D02*
X7424943Y-15072079D01*
X7424943Y-15072079D02*
X7434467Y-15053031D01*
X7434467Y-15053031D02*
X7443991Y-15043508D01*
X7443991Y-15043508D02*
X7463039Y-15033984D01*
X7615420Y-15233984D02*
X7615420Y-15100650D01*
X7615420Y-15119698D02*
X7624943Y-15110174D01*
X7624943Y-15110174D02*
X7643991Y-15100650D01*
X7643991Y-15100650D02*
X7672563Y-15100650D01*
X7672563Y-15100650D02*
X7691610Y-15110174D01*
X7691610Y-15110174D02*
X7701134Y-15129222D01*
X7701134Y-15129222D02*
X7701134Y-15233984D01*
X7701134Y-15129222D02*
X7710658Y-15110174D01*
X7710658Y-15110174D02*
X7729705Y-15100650D01*
X7729705Y-15100650D02*
X7758277Y-15100650D01*
X7758277Y-15100650D02*
X7777324Y-15110174D01*
X7777324Y-15110174D02*
X7786848Y-15129222D01*
X7786848Y-15129222D02*
X7786848Y-15233984D01*
X7882086Y-15233984D02*
X7882086Y-15100650D01*
X7882086Y-15119698D02*
X7891610Y-15110174D01*
X7891610Y-15110174D02*
X7910658Y-15100650D01*
X7910658Y-15100650D02*
X7939229Y-15100650D01*
X7939229Y-15100650D02*
X7958277Y-15110174D01*
X7958277Y-15110174D02*
X7967801Y-15129222D01*
X7967801Y-15129222D02*
X7967801Y-15233984D01*
X7967801Y-15129222D02*
X7977324Y-15110174D01*
X7977324Y-15110174D02*
X7996372Y-15100650D01*
X7996372Y-15100650D02*
X8024943Y-15100650D01*
X8024943Y-15100650D02*
X8043991Y-15110174D01*
X8043991Y-15110174D02*
X8053515Y-15129222D01*
X8053515Y-15129222D02*
X8053515Y-15233984D01*
X8443991Y-15024460D02*
X8272563Y-15281603D01*
X8701134Y-15033984D02*
X8720182Y-15033984D01*
X8720182Y-15033984D02*
X8739229Y-15043508D01*
X8739229Y-15043508D02*
X8748753Y-15053031D01*
X8748753Y-15053031D02*
X8758277Y-15072079D01*
X8758277Y-15072079D02*
X8767801Y-15110174D01*
X8767801Y-15110174D02*
X8767801Y-15157793D01*
X8767801Y-15157793D02*
X8758277Y-15195888D01*
X8758277Y-15195888D02*
X8748753Y-15214936D01*
X8748753Y-15214936D02*
X8739229Y-15224460D01*
X8739229Y-15224460D02*
X8720182Y-15233984D01*
X8720182Y-15233984D02*
X8701134Y-15233984D01*
X8701134Y-15233984D02*
X8682087Y-15224460D01*
X8682087Y-15224460D02*
X8672563Y-15214936D01*
X8672563Y-15214936D02*
X8663039Y-15195888D01*
X8663039Y-15195888D02*
X8653515Y-15157793D01*
X8653515Y-15157793D02*
X8653515Y-15110174D01*
X8653515Y-15110174D02*
X8663039Y-15072079D01*
X8663039Y-15072079D02*
X8672563Y-15053031D01*
X8672563Y-15053031D02*
X8682087Y-15043508D01*
X8682087Y-15043508D02*
X8701134Y-15033984D01*
X8853515Y-15214936D02*
X8863039Y-15224460D01*
X8863039Y-15224460D02*
X8853515Y-15233984D01*
X8853515Y-15233984D02*
X8843991Y-15224460D01*
X8843991Y-15224460D02*
X8853515Y-15214936D01*
X8853515Y-15214936D02*
X8853515Y-15233984D01*
X8986848Y-15033984D02*
X9005896Y-15033984D01*
X9005896Y-15033984D02*
X9024944Y-15043508D01*
X9024944Y-15043508D02*
X9034468Y-15053031D01*
X9034468Y-15053031D02*
X9043991Y-15072079D01*
X9043991Y-15072079D02*
X9053515Y-15110174D01*
X9053515Y-15110174D02*
X9053515Y-15157793D01*
X9053515Y-15157793D02*
X9043991Y-15195888D01*
X9043991Y-15195888D02*
X9034468Y-15214936D01*
X9034468Y-15214936D02*
X9024944Y-15224460D01*
X9024944Y-15224460D02*
X9005896Y-15233984D01*
X9005896Y-15233984D02*
X8986848Y-15233984D01*
X8986848Y-15233984D02*
X8967801Y-15224460D01*
X8967801Y-15224460D02*
X8958277Y-15214936D01*
X8958277Y-15214936D02*
X8948753Y-15195888D01*
X8948753Y-15195888D02*
X8939229Y-15157793D01*
X8939229Y-15157793D02*
X8939229Y-15110174D01*
X8939229Y-15110174D02*
X8948753Y-15072079D01*
X8948753Y-15072079D02*
X8958277Y-15053031D01*
X8958277Y-15053031D02*
X8967801Y-15043508D01*
X8967801Y-15043508D02*
X8986848Y-15033984D01*
X9243991Y-15233984D02*
X9129706Y-15233984D01*
X9186848Y-15233984D02*
X9186848Y-15033984D01*
X9186848Y-15033984D02*
X9167801Y-15062555D01*
X9167801Y-15062555D02*
X9148753Y-15081603D01*
X9148753Y-15081603D02*
X9129706Y-15091127D01*
X9434468Y-15233984D02*
X9320182Y-15233984D01*
X9377325Y-15233984D02*
X9377325Y-15033984D01*
X9377325Y-15033984D02*
X9358277Y-15062555D01*
X9358277Y-15062555D02*
X9339229Y-15081603D01*
X9339229Y-15081603D02*
X9320182Y-15091127D01*
X9548753Y-15119698D02*
X9529706Y-15110174D01*
X9529706Y-15110174D02*
X9520182Y-15100650D01*
X9520182Y-15100650D02*
X9510658Y-15081603D01*
X9510658Y-15081603D02*
X9510658Y-15072079D01*
X9510658Y-15072079D02*
X9520182Y-15053031D01*
X9520182Y-15053031D02*
X9529706Y-15043508D01*
X9529706Y-15043508D02*
X9548753Y-15033984D01*
X9548753Y-15033984D02*
X9586849Y-15033984D01*
X9586849Y-15033984D02*
X9605896Y-15043508D01*
X9605896Y-15043508D02*
X9615420Y-15053031D01*
X9615420Y-15053031D02*
X9624944Y-15072079D01*
X9624944Y-15072079D02*
X9624944Y-15081603D01*
X9624944Y-15081603D02*
X9615420Y-15100650D01*
X9615420Y-15100650D02*
X9605896Y-15110174D01*
X9605896Y-15110174D02*
X9586849Y-15119698D01*
X9586849Y-15119698D02*
X9548753Y-15119698D01*
X9548753Y-15119698D02*
X9529706Y-15129222D01*
X9529706Y-15129222D02*
X9520182Y-15138746D01*
X9520182Y-15138746D02*
X9510658Y-15157793D01*
X9510658Y-15157793D02*
X9510658Y-15195888D01*
X9510658Y-15195888D02*
X9520182Y-15214936D01*
X9520182Y-15214936D02*
X9529706Y-15224460D01*
X9529706Y-15224460D02*
X9548753Y-15233984D01*
X9548753Y-15233984D02*
X9586849Y-15233984D01*
X9586849Y-15233984D02*
X9605896Y-15224460D01*
X9605896Y-15224460D02*
X9615420Y-15214936D01*
X9615420Y-15214936D02*
X9624944Y-15195888D01*
X9624944Y-15195888D02*
X9624944Y-15157793D01*
X9624944Y-15157793D02*
X9615420Y-15138746D01*
X9615420Y-15138746D02*
X9605896Y-15129222D01*
X9605896Y-15129222D02*
X9586849Y-15119698D01*
X9701134Y-15033984D02*
X9701134Y-15072079D01*
X9777325Y-15033984D02*
X9777325Y-15072079D01*
X10072563Y-15310174D02*
X10063039Y-15300650D01*
X10063039Y-15300650D02*
X10043991Y-15272079D01*
X10043991Y-15272079D02*
X10034468Y-15253031D01*
X10034468Y-15253031D02*
X10024944Y-15224460D01*
X10024944Y-15224460D02*
X10015420Y-15176841D01*
X10015420Y-15176841D02*
X10015420Y-15138746D01*
X10015420Y-15138746D02*
X10024944Y-15091127D01*
X10024944Y-15091127D02*
X10034468Y-15062555D01*
X10034468Y-15062555D02*
X10043991Y-15043508D01*
X10043991Y-15043508D02*
X10063039Y-15014936D01*
X10063039Y-15014936D02*
X10072563Y-15005412D01*
X10129706Y-15033984D02*
X10263039Y-15033984D01*
X10263039Y-15033984D02*
X10177325Y-15233984D01*
X10491611Y-15233984D02*
X10491611Y-15033984D01*
X10577325Y-15233984D02*
X10577325Y-15129222D01*
X10577325Y-15129222D02*
X10567801Y-15110174D01*
X10567801Y-15110174D02*
X10548753Y-15100650D01*
X10548753Y-15100650D02*
X10520182Y-15100650D01*
X10520182Y-15100650D02*
X10501134Y-15110174D01*
X10501134Y-15110174D02*
X10491611Y-15119698D01*
X10701134Y-15233984D02*
X10682087Y-15224460D01*
X10682087Y-15224460D02*
X10672563Y-15214936D01*
X10672563Y-15214936D02*
X10663039Y-15195888D01*
X10663039Y-15195888D02*
X10663039Y-15138746D01*
X10663039Y-15138746D02*
X10672563Y-15119698D01*
X10672563Y-15119698D02*
X10682087Y-15110174D01*
X10682087Y-15110174D02*
X10701134Y-15100650D01*
X10701134Y-15100650D02*
X10729706Y-15100650D01*
X10729706Y-15100650D02*
X10748753Y-15110174D01*
X10748753Y-15110174D02*
X10758277Y-15119698D01*
X10758277Y-15119698D02*
X10767801Y-15138746D01*
X10767801Y-15138746D02*
X10767801Y-15195888D01*
X10767801Y-15195888D02*
X10758277Y-15214936D01*
X10758277Y-15214936D02*
X10748753Y-15224460D01*
X10748753Y-15224460D02*
X10729706Y-15233984D01*
X10729706Y-15233984D02*
X10701134Y-15233984D01*
X10882087Y-15233984D02*
X10863039Y-15224460D01*
X10863039Y-15224460D02*
X10853515Y-15205412D01*
X10853515Y-15205412D02*
X10853515Y-15033984D01*
X11034468Y-15224460D02*
X11015420Y-15233984D01*
X11015420Y-15233984D02*
X10977325Y-15233984D01*
X10977325Y-15233984D02*
X10958277Y-15224460D01*
X10958277Y-15224460D02*
X10948753Y-15205412D01*
X10948753Y-15205412D02*
X10948753Y-15129222D01*
X10948753Y-15129222D02*
X10958277Y-15110174D01*
X10958277Y-15110174D02*
X10977325Y-15100650D01*
X10977325Y-15100650D02*
X11015420Y-15100650D01*
X11015420Y-15100650D02*
X11034468Y-15110174D01*
X11034468Y-15110174D02*
X11043992Y-15129222D01*
X11043992Y-15129222D02*
X11043992Y-15148269D01*
X11043992Y-15148269D02*
X10948753Y-15167317D01*
X11120182Y-15224460D02*
X11139230Y-15233984D01*
X11139230Y-15233984D02*
X11177325Y-15233984D01*
X11177325Y-15233984D02*
X11196372Y-15224460D01*
X11196372Y-15224460D02*
X11205896Y-15205412D01*
X11205896Y-15205412D02*
X11205896Y-15195888D01*
X11205896Y-15195888D02*
X11196372Y-15176841D01*
X11196372Y-15176841D02*
X11177325Y-15167317D01*
X11177325Y-15167317D02*
X11148753Y-15167317D01*
X11148753Y-15167317D02*
X11129706Y-15157793D01*
X11129706Y-15157793D02*
X11120182Y-15138746D01*
X11120182Y-15138746D02*
X11120182Y-15129222D01*
X11120182Y-15129222D02*
X11129706Y-15110174D01*
X11129706Y-15110174D02*
X11148753Y-15100650D01*
X11148753Y-15100650D02*
X11177325Y-15100650D01*
X11177325Y-15100650D02*
X11196372Y-15110174D01*
X11272563Y-15310174D02*
X11282087Y-15300650D01*
X11282087Y-15300650D02*
X11301134Y-15272079D01*
X11301134Y-15272079D02*
X11310658Y-15253031D01*
X11310658Y-15253031D02*
X11320182Y-15224460D01*
X11320182Y-15224460D02*
X11329706Y-15176841D01*
X11329706Y-15176841D02*
X11329706Y-15138746D01*
X11329706Y-15138746D02*
X11320182Y-15091127D01*
X11320182Y-15091127D02*
X11310658Y-15062555D01*
X11310658Y-15062555D02*
X11301134Y-15043508D01*
X11301134Y-15043508D02*
X11282087Y-15014936D01*
X11282087Y-15014936D02*
X11272563Y-15005412D01*
D12*
X6497500Y-15406500D02*
G75*
G02*
X6432500Y-15406500I-32500J0D01*
G01*
X6432500Y-15406500D02*
G75*
G02*
X6497500Y-15406500I32500J0D01*
G01*
D11*
X6796372Y-15297984D02*
X6815420Y-15297984D01*
X6815420Y-15297984D02*
X6834467Y-15307508D01*
X6834467Y-15307508D02*
X6843991Y-15317031D01*
X6843991Y-15317031D02*
X6853515Y-15336079D01*
X6853515Y-15336079D02*
X6863039Y-15374174D01*
X6863039Y-15374174D02*
X6863039Y-15421793D01*
X6863039Y-15421793D02*
X6853515Y-15459888D01*
X6853515Y-15459888D02*
X6843991Y-15478936D01*
X6843991Y-15478936D02*
X6834467Y-15488460D01*
X6834467Y-15488460D02*
X6815420Y-15497984D01*
X6815420Y-15497984D02*
X6796372Y-15497984D01*
X6796372Y-15497984D02*
X6777324Y-15488460D01*
X6777324Y-15488460D02*
X6767801Y-15478936D01*
X6767801Y-15478936D02*
X6758277Y-15459888D01*
X6758277Y-15459888D02*
X6748753Y-15421793D01*
X6748753Y-15421793D02*
X6748753Y-15374174D01*
X6748753Y-15374174D02*
X6758277Y-15336079D01*
X6758277Y-15336079D02*
X6767801Y-15317031D01*
X6767801Y-15317031D02*
X6777324Y-15307508D01*
X6777324Y-15307508D02*
X6796372Y-15297984D01*
X6948753Y-15478936D02*
X6958277Y-15488460D01*
X6958277Y-15488460D02*
X6948753Y-15497984D01*
X6948753Y-15497984D02*
X6939229Y-15488460D01*
X6939229Y-15488460D02*
X6948753Y-15478936D01*
X6948753Y-15478936D02*
X6948753Y-15497984D01*
X7129705Y-15297984D02*
X7091610Y-15297984D01*
X7091610Y-15297984D02*
X7072562Y-15307508D01*
X7072562Y-15307508D02*
X7063039Y-15317031D01*
X7063039Y-15317031D02*
X7043991Y-15345603D01*
X7043991Y-15345603D02*
X7034467Y-15383698D01*
X7034467Y-15383698D02*
X7034467Y-15459888D01*
X7034467Y-15459888D02*
X7043991Y-15478936D01*
X7043991Y-15478936D02*
X7053515Y-15488460D01*
X7053515Y-15488460D02*
X7072562Y-15497984D01*
X7072562Y-15497984D02*
X7110658Y-15497984D01*
X7110658Y-15497984D02*
X7129705Y-15488460D01*
X7129705Y-15488460D02*
X7139229Y-15478936D01*
X7139229Y-15478936D02*
X7148753Y-15459888D01*
X7148753Y-15459888D02*
X7148753Y-15412269D01*
X7148753Y-15412269D02*
X7139229Y-15393222D01*
X7139229Y-15393222D02*
X7129705Y-15383698D01*
X7129705Y-15383698D02*
X7110658Y-15374174D01*
X7110658Y-15374174D02*
X7072562Y-15374174D01*
X7072562Y-15374174D02*
X7053515Y-15383698D01*
X7053515Y-15383698D02*
X7043991Y-15393222D01*
X7043991Y-15393222D02*
X7034467Y-15412269D01*
X7329705Y-15297984D02*
X7234467Y-15297984D01*
X7234467Y-15297984D02*
X7224943Y-15393222D01*
X7224943Y-15393222D02*
X7234467Y-15383698D01*
X7234467Y-15383698D02*
X7253515Y-15374174D01*
X7253515Y-15374174D02*
X7301134Y-15374174D01*
X7301134Y-15374174D02*
X7320182Y-15383698D01*
X7320182Y-15383698D02*
X7329705Y-15393222D01*
X7329705Y-15393222D02*
X7339229Y-15412269D01*
X7339229Y-15412269D02*
X7339229Y-15459888D01*
X7339229Y-15459888D02*
X7329705Y-15478936D01*
X7329705Y-15478936D02*
X7320182Y-15488460D01*
X7320182Y-15488460D02*
X7301134Y-15497984D01*
X7301134Y-15497984D02*
X7253515Y-15497984D01*
X7253515Y-15497984D02*
X7234467Y-15488460D01*
X7234467Y-15488460D02*
X7224943Y-15478936D01*
X7463039Y-15297984D02*
X7482086Y-15297984D01*
X7482086Y-15297984D02*
X7501134Y-15307508D01*
X7501134Y-15307508D02*
X7510658Y-15317031D01*
X7510658Y-15317031D02*
X7520182Y-15336079D01*
X7520182Y-15336079D02*
X7529705Y-15374174D01*
X7529705Y-15374174D02*
X7529705Y-15421793D01*
X7529705Y-15421793D02*
X7520182Y-15459888D01*
X7520182Y-15459888D02*
X7510658Y-15478936D01*
X7510658Y-15478936D02*
X7501134Y-15488460D01*
X7501134Y-15488460D02*
X7482086Y-15497984D01*
X7482086Y-15497984D02*
X7463039Y-15497984D01*
X7463039Y-15497984D02*
X7443991Y-15488460D01*
X7443991Y-15488460D02*
X7434467Y-15478936D01*
X7434467Y-15478936D02*
X7424943Y-15459888D01*
X7424943Y-15459888D02*
X7415420Y-15421793D01*
X7415420Y-15421793D02*
X7415420Y-15374174D01*
X7415420Y-15374174D02*
X7424943Y-15336079D01*
X7424943Y-15336079D02*
X7434467Y-15317031D01*
X7434467Y-15317031D02*
X7443991Y-15307508D01*
X7443991Y-15307508D02*
X7463039Y-15297984D01*
X7615420Y-15497984D02*
X7615420Y-15364650D01*
X7615420Y-15383698D02*
X7624943Y-15374174D01*
X7624943Y-15374174D02*
X7643991Y-15364650D01*
X7643991Y-15364650D02*
X7672563Y-15364650D01*
X7672563Y-15364650D02*
X7691610Y-15374174D01*
X7691610Y-15374174D02*
X7701134Y-15393222D01*
X7701134Y-15393222D02*
X7701134Y-15497984D01*
X7701134Y-15393222D02*
X7710658Y-15374174D01*
X7710658Y-15374174D02*
X7729705Y-15364650D01*
X7729705Y-15364650D02*
X7758277Y-15364650D01*
X7758277Y-15364650D02*
X7777324Y-15374174D01*
X7777324Y-15374174D02*
X7786848Y-15393222D01*
X7786848Y-15393222D02*
X7786848Y-15497984D01*
X7882086Y-15497984D02*
X7882086Y-15364650D01*
X7882086Y-15383698D02*
X7891610Y-15374174D01*
X7891610Y-15374174D02*
X7910658Y-15364650D01*
X7910658Y-15364650D02*
X7939229Y-15364650D01*
X7939229Y-15364650D02*
X7958277Y-15374174D01*
X7958277Y-15374174D02*
X7967801Y-15393222D01*
X7967801Y-15393222D02*
X7967801Y-15497984D01*
X7967801Y-15393222D02*
X7977324Y-15374174D01*
X7977324Y-15374174D02*
X7996372Y-15364650D01*
X7996372Y-15364650D02*
X8024943Y-15364650D01*
X8024943Y-15364650D02*
X8043991Y-15374174D01*
X8043991Y-15374174D02*
X8053515Y-15393222D01*
X8053515Y-15393222D02*
X8053515Y-15497984D01*
X8443991Y-15288460D02*
X8272563Y-15545603D01*
X8701134Y-15297984D02*
X8720182Y-15297984D01*
X8720182Y-15297984D02*
X8739229Y-15307508D01*
X8739229Y-15307508D02*
X8748753Y-15317031D01*
X8748753Y-15317031D02*
X8758277Y-15336079D01*
X8758277Y-15336079D02*
X8767801Y-15374174D01*
X8767801Y-15374174D02*
X8767801Y-15421793D01*
X8767801Y-15421793D02*
X8758277Y-15459888D01*
X8758277Y-15459888D02*
X8748753Y-15478936D01*
X8748753Y-15478936D02*
X8739229Y-15488460D01*
X8739229Y-15488460D02*
X8720182Y-15497984D01*
X8720182Y-15497984D02*
X8701134Y-15497984D01*
X8701134Y-15497984D02*
X8682087Y-15488460D01*
X8682087Y-15488460D02*
X8672563Y-15478936D01*
X8672563Y-15478936D02*
X8663039Y-15459888D01*
X8663039Y-15459888D02*
X8653515Y-15421793D01*
X8653515Y-15421793D02*
X8653515Y-15374174D01*
X8653515Y-15374174D02*
X8663039Y-15336079D01*
X8663039Y-15336079D02*
X8672563Y-15317031D01*
X8672563Y-15317031D02*
X8682087Y-15307508D01*
X8682087Y-15307508D02*
X8701134Y-15297984D01*
X8853515Y-15478936D02*
X8863039Y-15488460D01*
X8863039Y-15488460D02*
X8853515Y-15497984D01*
X8853515Y-15497984D02*
X8843991Y-15488460D01*
X8843991Y-15488460D02*
X8853515Y-15478936D01*
X8853515Y-15478936D02*
X8853515Y-15497984D01*
X8986848Y-15297984D02*
X9005896Y-15297984D01*
X9005896Y-15297984D02*
X9024944Y-15307508D01*
X9024944Y-15307508D02*
X9034468Y-15317031D01*
X9034468Y-15317031D02*
X9043991Y-15336079D01*
X9043991Y-15336079D02*
X9053515Y-15374174D01*
X9053515Y-15374174D02*
X9053515Y-15421793D01*
X9053515Y-15421793D02*
X9043991Y-15459888D01*
X9043991Y-15459888D02*
X9034468Y-15478936D01*
X9034468Y-15478936D02*
X9024944Y-15488460D01*
X9024944Y-15488460D02*
X9005896Y-15497984D01*
X9005896Y-15497984D02*
X8986848Y-15497984D01*
X8986848Y-15497984D02*
X8967801Y-15488460D01*
X8967801Y-15488460D02*
X8958277Y-15478936D01*
X8958277Y-15478936D02*
X8948753Y-15459888D01*
X8948753Y-15459888D02*
X8939229Y-15421793D01*
X8939229Y-15421793D02*
X8939229Y-15374174D01*
X8939229Y-15374174D02*
X8948753Y-15336079D01*
X8948753Y-15336079D02*
X8958277Y-15317031D01*
X8958277Y-15317031D02*
X8967801Y-15307508D01*
X8967801Y-15307508D02*
X8986848Y-15297984D01*
X9129706Y-15317031D02*
X9139229Y-15307508D01*
X9139229Y-15307508D02*
X9158277Y-15297984D01*
X9158277Y-15297984D02*
X9205896Y-15297984D01*
X9205896Y-15297984D02*
X9224944Y-15307508D01*
X9224944Y-15307508D02*
X9234468Y-15317031D01*
X9234468Y-15317031D02*
X9243991Y-15336079D01*
X9243991Y-15336079D02*
X9243991Y-15355127D01*
X9243991Y-15355127D02*
X9234468Y-15383698D01*
X9234468Y-15383698D02*
X9120182Y-15497984D01*
X9120182Y-15497984D02*
X9243991Y-15497984D01*
X9424944Y-15297984D02*
X9329706Y-15297984D01*
X9329706Y-15297984D02*
X9320182Y-15393222D01*
X9320182Y-15393222D02*
X9329706Y-15383698D01*
X9329706Y-15383698D02*
X9348753Y-15374174D01*
X9348753Y-15374174D02*
X9396372Y-15374174D01*
X9396372Y-15374174D02*
X9415420Y-15383698D01*
X9415420Y-15383698D02*
X9424944Y-15393222D01*
X9424944Y-15393222D02*
X9434468Y-15412269D01*
X9434468Y-15412269D02*
X9434468Y-15459888D01*
X9434468Y-15459888D02*
X9424944Y-15478936D01*
X9424944Y-15478936D02*
X9415420Y-15488460D01*
X9415420Y-15488460D02*
X9396372Y-15497984D01*
X9396372Y-15497984D02*
X9348753Y-15497984D01*
X9348753Y-15497984D02*
X9329706Y-15488460D01*
X9329706Y-15488460D02*
X9320182Y-15478936D01*
X9605896Y-15297984D02*
X9567801Y-15297984D01*
X9567801Y-15297984D02*
X9548753Y-15307508D01*
X9548753Y-15307508D02*
X9539229Y-15317031D01*
X9539229Y-15317031D02*
X9520182Y-15345603D01*
X9520182Y-15345603D02*
X9510658Y-15383698D01*
X9510658Y-15383698D02*
X9510658Y-15459888D01*
X9510658Y-15459888D02*
X9520182Y-15478936D01*
X9520182Y-15478936D02*
X9529706Y-15488460D01*
X9529706Y-15488460D02*
X9548753Y-15497984D01*
X9548753Y-15497984D02*
X9586849Y-15497984D01*
X9586849Y-15497984D02*
X9605896Y-15488460D01*
X9605896Y-15488460D02*
X9615420Y-15478936D01*
X9615420Y-15478936D02*
X9624944Y-15459888D01*
X9624944Y-15459888D02*
X9624944Y-15412269D01*
X9624944Y-15412269D02*
X9615420Y-15393222D01*
X9615420Y-15393222D02*
X9605896Y-15383698D01*
X9605896Y-15383698D02*
X9586849Y-15374174D01*
X9586849Y-15374174D02*
X9548753Y-15374174D01*
X9548753Y-15374174D02*
X9529706Y-15383698D01*
X9529706Y-15383698D02*
X9520182Y-15393222D01*
X9520182Y-15393222D02*
X9510658Y-15412269D01*
X9701134Y-15297984D02*
X9701134Y-15336079D01*
X9777325Y-15297984D02*
X9777325Y-15336079D01*
X10072563Y-15574174D02*
X10063039Y-15564650D01*
X10063039Y-15564650D02*
X10043991Y-15536079D01*
X10043991Y-15536079D02*
X10034468Y-15517031D01*
X10034468Y-15517031D02*
X10024944Y-15488460D01*
X10024944Y-15488460D02*
X10015420Y-15440841D01*
X10015420Y-15440841D02*
X10015420Y-15402746D01*
X10015420Y-15402746D02*
X10024944Y-15355127D01*
X10024944Y-15355127D02*
X10034468Y-15326555D01*
X10034468Y-15326555D02*
X10043991Y-15307508D01*
X10043991Y-15307508D02*
X10063039Y-15278936D01*
X10063039Y-15278936D02*
X10072563Y-15269412D01*
X10139230Y-15317031D02*
X10148753Y-15307508D01*
X10148753Y-15307508D02*
X10167801Y-15297984D01*
X10167801Y-15297984D02*
X10215420Y-15297984D01*
X10215420Y-15297984D02*
X10234468Y-15307508D01*
X10234468Y-15307508D02*
X10243991Y-15317031D01*
X10243991Y-15317031D02*
X10253515Y-15336079D01*
X10253515Y-15336079D02*
X10253515Y-15355127D01*
X10253515Y-15355127D02*
X10243991Y-15383698D01*
X10243991Y-15383698D02*
X10129706Y-15497984D01*
X10129706Y-15497984D02*
X10253515Y-15497984D01*
X10491611Y-15497984D02*
X10491611Y-15297984D01*
X10577325Y-15497984D02*
X10577325Y-15393222D01*
X10577325Y-15393222D02*
X10567801Y-15374174D01*
X10567801Y-15374174D02*
X10548753Y-15364650D01*
X10548753Y-15364650D02*
X10520182Y-15364650D01*
X10520182Y-15364650D02*
X10501134Y-15374174D01*
X10501134Y-15374174D02*
X10491611Y-15383698D01*
X10701134Y-15497984D02*
X10682087Y-15488460D01*
X10682087Y-15488460D02*
X10672563Y-15478936D01*
X10672563Y-15478936D02*
X10663039Y-15459888D01*
X10663039Y-15459888D02*
X10663039Y-15402746D01*
X10663039Y-15402746D02*
X10672563Y-15383698D01*
X10672563Y-15383698D02*
X10682087Y-15374174D01*
X10682087Y-15374174D02*
X10701134Y-15364650D01*
X10701134Y-15364650D02*
X10729706Y-15364650D01*
X10729706Y-15364650D02*
X10748753Y-15374174D01*
X10748753Y-15374174D02*
X10758277Y-15383698D01*
X10758277Y-15383698D02*
X10767801Y-15402746D01*
X10767801Y-15402746D02*
X10767801Y-15459888D01*
X10767801Y-15459888D02*
X10758277Y-15478936D01*
X10758277Y-15478936D02*
X10748753Y-15488460D01*
X10748753Y-15488460D02*
X10729706Y-15497984D01*
X10729706Y-15497984D02*
X10701134Y-15497984D01*
X10882087Y-15497984D02*
X10863039Y-15488460D01*
X10863039Y-15488460D02*
X10853515Y-15469412D01*
X10853515Y-15469412D02*
X10853515Y-15297984D01*
X11034468Y-15488460D02*
X11015420Y-15497984D01*
X11015420Y-15497984D02*
X10977325Y-15497984D01*
X10977325Y-15497984D02*
X10958277Y-15488460D01*
X10958277Y-15488460D02*
X10948753Y-15469412D01*
X10948753Y-15469412D02*
X10948753Y-15393222D01*
X10948753Y-15393222D02*
X10958277Y-15374174D01*
X10958277Y-15374174D02*
X10977325Y-15364650D01*
X10977325Y-15364650D02*
X11015420Y-15364650D01*
X11015420Y-15364650D02*
X11034468Y-15374174D01*
X11034468Y-15374174D02*
X11043992Y-15393222D01*
X11043992Y-15393222D02*
X11043992Y-15412269D01*
X11043992Y-15412269D02*
X10948753Y-15431317D01*
X11120182Y-15488460D02*
X11139230Y-15497984D01*
X11139230Y-15497984D02*
X11177325Y-15497984D01*
X11177325Y-15497984D02*
X11196372Y-15488460D01*
X11196372Y-15488460D02*
X11205896Y-15469412D01*
X11205896Y-15469412D02*
X11205896Y-15459888D01*
X11205896Y-15459888D02*
X11196372Y-15440841D01*
X11196372Y-15440841D02*
X11177325Y-15431317D01*
X11177325Y-15431317D02*
X11148753Y-15431317D01*
X11148753Y-15431317D02*
X11129706Y-15421793D01*
X11129706Y-15421793D02*
X11120182Y-15402746D01*
X11120182Y-15402746D02*
X11120182Y-15393222D01*
X11120182Y-15393222D02*
X11129706Y-15374174D01*
X11129706Y-15374174D02*
X11148753Y-15364650D01*
X11148753Y-15364650D02*
X11177325Y-15364650D01*
X11177325Y-15364650D02*
X11196372Y-15374174D01*
X11272563Y-15574174D02*
X11282087Y-15564650D01*
X11282087Y-15564650D02*
X11301134Y-15536079D01*
X11301134Y-15536079D02*
X11310658Y-15517031D01*
X11310658Y-15517031D02*
X11320182Y-15488460D01*
X11320182Y-15488460D02*
X11329706Y-15440841D01*
X11329706Y-15440841D02*
X11329706Y-15402746D01*
X11329706Y-15402746D02*
X11320182Y-15355127D01*
X11320182Y-15355127D02*
X11310658Y-15326555D01*
X11310658Y-15326555D02*
X11301134Y-15307508D01*
X11301134Y-15307508D02*
X11282087Y-15278936D01*
X11282087Y-15278936D02*
X11272563Y-15269412D01*
D12*
X6460000Y-15633000D02*
X6460000Y-15708000D01*
X6422500Y-15670500D02*
X6497500Y-15670500D01*
D11*
X6796372Y-15561984D02*
X6815420Y-15561984D01*
X6815420Y-15561984D02*
X6834467Y-15571508D01*
X6834467Y-15571508D02*
X6843991Y-15581031D01*
X6843991Y-15581031D02*
X6853515Y-15600079D01*
X6853515Y-15600079D02*
X6863039Y-15638174D01*
X6863039Y-15638174D02*
X6863039Y-15685793D01*
X6863039Y-15685793D02*
X6853515Y-15723888D01*
X6853515Y-15723888D02*
X6843991Y-15742936D01*
X6843991Y-15742936D02*
X6834467Y-15752460D01*
X6834467Y-15752460D02*
X6815420Y-15761984D01*
X6815420Y-15761984D02*
X6796372Y-15761984D01*
X6796372Y-15761984D02*
X6777324Y-15752460D01*
X6777324Y-15752460D02*
X6767801Y-15742936D01*
X6767801Y-15742936D02*
X6758277Y-15723888D01*
X6758277Y-15723888D02*
X6748753Y-15685793D01*
X6748753Y-15685793D02*
X6748753Y-15638174D01*
X6748753Y-15638174D02*
X6758277Y-15600079D01*
X6758277Y-15600079D02*
X6767801Y-15581031D01*
X6767801Y-15581031D02*
X6777324Y-15571508D01*
X6777324Y-15571508D02*
X6796372Y-15561984D01*
X6948753Y-15742936D02*
X6958277Y-15752460D01*
X6958277Y-15752460D02*
X6948753Y-15761984D01*
X6948753Y-15761984D02*
X6939229Y-15752460D01*
X6939229Y-15752460D02*
X6948753Y-15742936D01*
X6948753Y-15742936D02*
X6948753Y-15761984D01*
X7024943Y-15561984D02*
X7158277Y-15561984D01*
X7158277Y-15561984D02*
X7072562Y-15761984D01*
X7329705Y-15561984D02*
X7234467Y-15561984D01*
X7234467Y-15561984D02*
X7224943Y-15657222D01*
X7224943Y-15657222D02*
X7234467Y-15647698D01*
X7234467Y-15647698D02*
X7253515Y-15638174D01*
X7253515Y-15638174D02*
X7301134Y-15638174D01*
X7301134Y-15638174D02*
X7320182Y-15647698D01*
X7320182Y-15647698D02*
X7329705Y-15657222D01*
X7329705Y-15657222D02*
X7339229Y-15676269D01*
X7339229Y-15676269D02*
X7339229Y-15723888D01*
X7339229Y-15723888D02*
X7329705Y-15742936D01*
X7329705Y-15742936D02*
X7320182Y-15752460D01*
X7320182Y-15752460D02*
X7301134Y-15761984D01*
X7301134Y-15761984D02*
X7253515Y-15761984D01*
X7253515Y-15761984D02*
X7234467Y-15752460D01*
X7234467Y-15752460D02*
X7224943Y-15742936D01*
X7463039Y-15561984D02*
X7482086Y-15561984D01*
X7482086Y-15561984D02*
X7501134Y-15571508D01*
X7501134Y-15571508D02*
X7510658Y-15581031D01*
X7510658Y-15581031D02*
X7520182Y-15600079D01*
X7520182Y-15600079D02*
X7529705Y-15638174D01*
X7529705Y-15638174D02*
X7529705Y-15685793D01*
X7529705Y-15685793D02*
X7520182Y-15723888D01*
X7520182Y-15723888D02*
X7510658Y-15742936D01*
X7510658Y-15742936D02*
X7501134Y-15752460D01*
X7501134Y-15752460D02*
X7482086Y-15761984D01*
X7482086Y-15761984D02*
X7463039Y-15761984D01*
X7463039Y-15761984D02*
X7443991Y-15752460D01*
X7443991Y-15752460D02*
X7434467Y-15742936D01*
X7434467Y-15742936D02*
X7424943Y-15723888D01*
X7424943Y-15723888D02*
X7415420Y-15685793D01*
X7415420Y-15685793D02*
X7415420Y-15638174D01*
X7415420Y-15638174D02*
X7424943Y-15600079D01*
X7424943Y-15600079D02*
X7434467Y-15581031D01*
X7434467Y-15581031D02*
X7443991Y-15571508D01*
X7443991Y-15571508D02*
X7463039Y-15561984D01*
X7615420Y-15761984D02*
X7615420Y-15628650D01*
X7615420Y-15647698D02*
X7624943Y-15638174D01*
X7624943Y-15638174D02*
X7643991Y-15628650D01*
X7643991Y-15628650D02*
X7672563Y-15628650D01*
X7672563Y-15628650D02*
X7691610Y-15638174D01*
X7691610Y-15638174D02*
X7701134Y-15657222D01*
X7701134Y-15657222D02*
X7701134Y-15761984D01*
X7701134Y-15657222D02*
X7710658Y-15638174D01*
X7710658Y-15638174D02*
X7729705Y-15628650D01*
X7729705Y-15628650D02*
X7758277Y-15628650D01*
X7758277Y-15628650D02*
X7777324Y-15638174D01*
X7777324Y-15638174D02*
X7786848Y-15657222D01*
X7786848Y-15657222D02*
X7786848Y-15761984D01*
X7882086Y-15761984D02*
X7882086Y-15628650D01*
X7882086Y-15647698D02*
X7891610Y-15638174D01*
X7891610Y-15638174D02*
X7910658Y-15628650D01*
X7910658Y-15628650D02*
X7939229Y-15628650D01*
X7939229Y-15628650D02*
X7958277Y-15638174D01*
X7958277Y-15638174D02*
X7967801Y-15657222D01*
X7967801Y-15657222D02*
X7967801Y-15761984D01*
X7967801Y-15657222D02*
X7977324Y-15638174D01*
X7977324Y-15638174D02*
X7996372Y-15628650D01*
X7996372Y-15628650D02*
X8024943Y-15628650D01*
X8024943Y-15628650D02*
X8043991Y-15638174D01*
X8043991Y-15638174D02*
X8053515Y-15657222D01*
X8053515Y-15657222D02*
X8053515Y-15761984D01*
X8443991Y-15552460D02*
X8272563Y-15809603D01*
X8701134Y-15561984D02*
X8720182Y-15561984D01*
X8720182Y-15561984D02*
X8739229Y-15571508D01*
X8739229Y-15571508D02*
X8748753Y-15581031D01*
X8748753Y-15581031D02*
X8758277Y-15600079D01*
X8758277Y-15600079D02*
X8767801Y-15638174D01*
X8767801Y-15638174D02*
X8767801Y-15685793D01*
X8767801Y-15685793D02*
X8758277Y-15723888D01*
X8758277Y-15723888D02*
X8748753Y-15742936D01*
X8748753Y-15742936D02*
X8739229Y-15752460D01*
X8739229Y-15752460D02*
X8720182Y-15761984D01*
X8720182Y-15761984D02*
X8701134Y-15761984D01*
X8701134Y-15761984D02*
X8682087Y-15752460D01*
X8682087Y-15752460D02*
X8672563Y-15742936D01*
X8672563Y-15742936D02*
X8663039Y-15723888D01*
X8663039Y-15723888D02*
X8653515Y-15685793D01*
X8653515Y-15685793D02*
X8653515Y-15638174D01*
X8653515Y-15638174D02*
X8663039Y-15600079D01*
X8663039Y-15600079D02*
X8672563Y-15581031D01*
X8672563Y-15581031D02*
X8682087Y-15571508D01*
X8682087Y-15571508D02*
X8701134Y-15561984D01*
X8853515Y-15742936D02*
X8863039Y-15752460D01*
X8863039Y-15752460D02*
X8853515Y-15761984D01*
X8853515Y-15761984D02*
X8843991Y-15752460D01*
X8843991Y-15752460D02*
X8853515Y-15742936D01*
X8853515Y-15742936D02*
X8853515Y-15761984D01*
X8986848Y-15561984D02*
X9005896Y-15561984D01*
X9005896Y-15561984D02*
X9024944Y-15571508D01*
X9024944Y-15571508D02*
X9034468Y-15581031D01*
X9034468Y-15581031D02*
X9043991Y-15600079D01*
X9043991Y-15600079D02*
X9053515Y-15638174D01*
X9053515Y-15638174D02*
X9053515Y-15685793D01*
X9053515Y-15685793D02*
X9043991Y-15723888D01*
X9043991Y-15723888D02*
X9034468Y-15742936D01*
X9034468Y-15742936D02*
X9024944Y-15752460D01*
X9024944Y-15752460D02*
X9005896Y-15761984D01*
X9005896Y-15761984D02*
X8986848Y-15761984D01*
X8986848Y-15761984D02*
X8967801Y-15752460D01*
X8967801Y-15752460D02*
X8958277Y-15742936D01*
X8958277Y-15742936D02*
X8948753Y-15723888D01*
X8948753Y-15723888D02*
X8939229Y-15685793D01*
X8939229Y-15685793D02*
X8939229Y-15638174D01*
X8939229Y-15638174D02*
X8948753Y-15600079D01*
X8948753Y-15600079D02*
X8958277Y-15581031D01*
X8958277Y-15581031D02*
X8967801Y-15571508D01*
X8967801Y-15571508D02*
X8986848Y-15561984D01*
X9129706Y-15581031D02*
X9139229Y-15571508D01*
X9139229Y-15571508D02*
X9158277Y-15561984D01*
X9158277Y-15561984D02*
X9205896Y-15561984D01*
X9205896Y-15561984D02*
X9224944Y-15571508D01*
X9224944Y-15571508D02*
X9234468Y-15581031D01*
X9234468Y-15581031D02*
X9243991Y-15600079D01*
X9243991Y-15600079D02*
X9243991Y-15619127D01*
X9243991Y-15619127D02*
X9234468Y-15647698D01*
X9234468Y-15647698D02*
X9120182Y-15761984D01*
X9120182Y-15761984D02*
X9243991Y-15761984D01*
X9339229Y-15761984D02*
X9377325Y-15761984D01*
X9377325Y-15761984D02*
X9396372Y-15752460D01*
X9396372Y-15752460D02*
X9405896Y-15742936D01*
X9405896Y-15742936D02*
X9424944Y-15714365D01*
X9424944Y-15714365D02*
X9434468Y-15676269D01*
X9434468Y-15676269D02*
X9434468Y-15600079D01*
X9434468Y-15600079D02*
X9424944Y-15581031D01*
X9424944Y-15581031D02*
X9415420Y-15571508D01*
X9415420Y-15571508D02*
X9396372Y-15561984D01*
X9396372Y-15561984D02*
X9358277Y-15561984D01*
X9358277Y-15561984D02*
X9339229Y-15571508D01*
X9339229Y-15571508D02*
X9329706Y-15581031D01*
X9329706Y-15581031D02*
X9320182Y-15600079D01*
X9320182Y-15600079D02*
X9320182Y-15647698D01*
X9320182Y-15647698D02*
X9329706Y-15666746D01*
X9329706Y-15666746D02*
X9339229Y-15676269D01*
X9339229Y-15676269D02*
X9358277Y-15685793D01*
X9358277Y-15685793D02*
X9396372Y-15685793D01*
X9396372Y-15685793D02*
X9415420Y-15676269D01*
X9415420Y-15676269D02*
X9424944Y-15666746D01*
X9424944Y-15666746D02*
X9434468Y-15647698D01*
X9615420Y-15561984D02*
X9520182Y-15561984D01*
X9520182Y-15561984D02*
X9510658Y-15657222D01*
X9510658Y-15657222D02*
X9520182Y-15647698D01*
X9520182Y-15647698D02*
X9539229Y-15638174D01*
X9539229Y-15638174D02*
X9586849Y-15638174D01*
X9586849Y-15638174D02*
X9605896Y-15647698D01*
X9605896Y-15647698D02*
X9615420Y-15657222D01*
X9615420Y-15657222D02*
X9624944Y-15676269D01*
X9624944Y-15676269D02*
X9624944Y-15723888D01*
X9624944Y-15723888D02*
X9615420Y-15742936D01*
X9615420Y-15742936D02*
X9605896Y-15752460D01*
X9605896Y-15752460D02*
X9586849Y-15761984D01*
X9586849Y-15761984D02*
X9539229Y-15761984D01*
X9539229Y-15761984D02*
X9520182Y-15752460D01*
X9520182Y-15752460D02*
X9510658Y-15742936D01*
X9701134Y-15561984D02*
X9701134Y-15600079D01*
X9777325Y-15561984D02*
X9777325Y-15600079D01*
X10072563Y-15838174D02*
X10063039Y-15828650D01*
X10063039Y-15828650D02*
X10043991Y-15800079D01*
X10043991Y-15800079D02*
X10034468Y-15781031D01*
X10034468Y-15781031D02*
X10024944Y-15752460D01*
X10024944Y-15752460D02*
X10015420Y-15704841D01*
X10015420Y-15704841D02*
X10015420Y-15666746D01*
X10015420Y-15666746D02*
X10024944Y-15619127D01*
X10024944Y-15619127D02*
X10034468Y-15590555D01*
X10034468Y-15590555D02*
X10043991Y-15571508D01*
X10043991Y-15571508D02*
X10063039Y-15542936D01*
X10063039Y-15542936D02*
X10072563Y-15533412D01*
X10253515Y-15761984D02*
X10139230Y-15761984D01*
X10196372Y-15761984D02*
X10196372Y-15561984D01*
X10196372Y-15561984D02*
X10177325Y-15590555D01*
X10177325Y-15590555D02*
X10158277Y-15609603D01*
X10158277Y-15609603D02*
X10139230Y-15619127D01*
X10367801Y-15647698D02*
X10348753Y-15638174D01*
X10348753Y-15638174D02*
X10339230Y-15628650D01*
X10339230Y-15628650D02*
X10329706Y-15609603D01*
X10329706Y-15609603D02*
X10329706Y-15600079D01*
X10329706Y-15600079D02*
X10339230Y-15581031D01*
X10339230Y-15581031D02*
X10348753Y-15571508D01*
X10348753Y-15571508D02*
X10367801Y-15561984D01*
X10367801Y-15561984D02*
X10405896Y-15561984D01*
X10405896Y-15561984D02*
X10424944Y-15571508D01*
X10424944Y-15571508D02*
X10434468Y-15581031D01*
X10434468Y-15581031D02*
X10443991Y-15600079D01*
X10443991Y-15600079D02*
X10443991Y-15609603D01*
X10443991Y-15609603D02*
X10434468Y-15628650D01*
X10434468Y-15628650D02*
X10424944Y-15638174D01*
X10424944Y-15638174D02*
X10405896Y-15647698D01*
X10405896Y-15647698D02*
X10367801Y-15647698D01*
X10367801Y-15647698D02*
X10348753Y-15657222D01*
X10348753Y-15657222D02*
X10339230Y-15666746D01*
X10339230Y-15666746D02*
X10329706Y-15685793D01*
X10329706Y-15685793D02*
X10329706Y-15723888D01*
X10329706Y-15723888D02*
X10339230Y-15742936D01*
X10339230Y-15742936D02*
X10348753Y-15752460D01*
X10348753Y-15752460D02*
X10367801Y-15761984D01*
X10367801Y-15761984D02*
X10405896Y-15761984D01*
X10405896Y-15761984D02*
X10424944Y-15752460D01*
X10424944Y-15752460D02*
X10434468Y-15742936D01*
X10434468Y-15742936D02*
X10443991Y-15723888D01*
X10443991Y-15723888D02*
X10443991Y-15685793D01*
X10443991Y-15685793D02*
X10434468Y-15666746D01*
X10434468Y-15666746D02*
X10424944Y-15657222D01*
X10424944Y-15657222D02*
X10405896Y-15647698D01*
X10682087Y-15761984D02*
X10682087Y-15561984D01*
X10767801Y-15761984D02*
X10767801Y-15657222D01*
X10767801Y-15657222D02*
X10758277Y-15638174D01*
X10758277Y-15638174D02*
X10739230Y-15628650D01*
X10739230Y-15628650D02*
X10710658Y-15628650D01*
X10710658Y-15628650D02*
X10691611Y-15638174D01*
X10691611Y-15638174D02*
X10682087Y-15647698D01*
X10891611Y-15761984D02*
X10872563Y-15752460D01*
X10872563Y-15752460D02*
X10863039Y-15742936D01*
X10863039Y-15742936D02*
X10853515Y-15723888D01*
X10853515Y-15723888D02*
X10853515Y-15666746D01*
X10853515Y-15666746D02*
X10863039Y-15647698D01*
X10863039Y-15647698D02*
X10872563Y-15638174D01*
X10872563Y-15638174D02*
X10891611Y-15628650D01*
X10891611Y-15628650D02*
X10920182Y-15628650D01*
X10920182Y-15628650D02*
X10939230Y-15638174D01*
X10939230Y-15638174D02*
X10948753Y-15647698D01*
X10948753Y-15647698D02*
X10958277Y-15666746D01*
X10958277Y-15666746D02*
X10958277Y-15723888D01*
X10958277Y-15723888D02*
X10948753Y-15742936D01*
X10948753Y-15742936D02*
X10939230Y-15752460D01*
X10939230Y-15752460D02*
X10920182Y-15761984D01*
X10920182Y-15761984D02*
X10891611Y-15761984D01*
X11072563Y-15761984D02*
X11053515Y-15752460D01*
X11053515Y-15752460D02*
X11043992Y-15733412D01*
X11043992Y-15733412D02*
X11043992Y-15561984D01*
X11224944Y-15752460D02*
X11205896Y-15761984D01*
X11205896Y-15761984D02*
X11167801Y-15761984D01*
X11167801Y-15761984D02*
X11148753Y-15752460D01*
X11148753Y-15752460D02*
X11139230Y-15733412D01*
X11139230Y-15733412D02*
X11139230Y-15657222D01*
X11139230Y-15657222D02*
X11148753Y-15638174D01*
X11148753Y-15638174D02*
X11167801Y-15628650D01*
X11167801Y-15628650D02*
X11205896Y-15628650D01*
X11205896Y-15628650D02*
X11224944Y-15638174D01*
X11224944Y-15638174D02*
X11234468Y-15657222D01*
X11234468Y-15657222D02*
X11234468Y-15676269D01*
X11234468Y-15676269D02*
X11139230Y-15695317D01*
X11310658Y-15752460D02*
X11329706Y-15761984D01*
X11329706Y-15761984D02*
X11367801Y-15761984D01*
X11367801Y-15761984D02*
X11386849Y-15752460D01*
X11386849Y-15752460D02*
X11396372Y-15733412D01*
X11396372Y-15733412D02*
X11396372Y-15723888D01*
X11396372Y-15723888D02*
X11386849Y-15704841D01*
X11386849Y-15704841D02*
X11367801Y-15695317D01*
X11367801Y-15695317D02*
X11339230Y-15695317D01*
X11339230Y-15695317D02*
X11320182Y-15685793D01*
X11320182Y-15685793D02*
X11310658Y-15666746D01*
X11310658Y-15666746D02*
X11310658Y-15657222D01*
X11310658Y-15657222D02*
X11320182Y-15638174D01*
X11320182Y-15638174D02*
X11339230Y-15628650D01*
X11339230Y-15628650D02*
X11367801Y-15628650D01*
X11367801Y-15628650D02*
X11386849Y-15638174D01*
X11463039Y-15838174D02*
X11472563Y-15828650D01*
X11472563Y-15828650D02*
X11491611Y-15800079D01*
X11491611Y-15800079D02*
X11501134Y-15781031D01*
X11501134Y-15781031D02*
X11510658Y-15752460D01*
X11510658Y-15752460D02*
X11520182Y-15704841D01*
X11520182Y-15704841D02*
X11520182Y-15666746D01*
X11520182Y-15666746D02*
X11510658Y-15619127D01*
X11510658Y-15619127D02*
X11501134Y-15590555D01*
X11501134Y-15590555D02*
X11491611Y-15571508D01*
X11491611Y-15571508D02*
X11472563Y-15542936D01*
X11472563Y-15542936D02*
X11463039Y-15533412D01*
D12*
X6485784Y-15962784D02*
X6485784Y-15906215D01*
X6429215Y-15906215D01*
X6429215Y-15962784D01*
X6485784Y-15962784D01*
D11*
X6796372Y-15825984D02*
X6815420Y-15825984D01*
X6815420Y-15825984D02*
X6834467Y-15835508D01*
X6834467Y-15835508D02*
X6843991Y-15845031D01*
X6843991Y-15845031D02*
X6853515Y-15864079D01*
X6853515Y-15864079D02*
X6863039Y-15902174D01*
X6863039Y-15902174D02*
X6863039Y-15949793D01*
X6863039Y-15949793D02*
X6853515Y-15987888D01*
X6853515Y-15987888D02*
X6843991Y-16006936D01*
X6843991Y-16006936D02*
X6834467Y-16016460D01*
X6834467Y-16016460D02*
X6815420Y-16025984D01*
X6815420Y-16025984D02*
X6796372Y-16025984D01*
X6796372Y-16025984D02*
X6777324Y-16016460D01*
X6777324Y-16016460D02*
X6767801Y-16006936D01*
X6767801Y-16006936D02*
X6758277Y-15987888D01*
X6758277Y-15987888D02*
X6748753Y-15949793D01*
X6748753Y-15949793D02*
X6748753Y-15902174D01*
X6748753Y-15902174D02*
X6758277Y-15864079D01*
X6758277Y-15864079D02*
X6767801Y-15845031D01*
X6767801Y-15845031D02*
X6777324Y-15835508D01*
X6777324Y-15835508D02*
X6796372Y-15825984D01*
X6948753Y-16006936D02*
X6958277Y-16016460D01*
X6958277Y-16016460D02*
X6948753Y-16025984D01*
X6948753Y-16025984D02*
X6939229Y-16016460D01*
X6939229Y-16016460D02*
X6948753Y-16006936D01*
X6948753Y-16006936D02*
X6948753Y-16025984D01*
X7072562Y-15911698D02*
X7053515Y-15902174D01*
X7053515Y-15902174D02*
X7043991Y-15892650D01*
X7043991Y-15892650D02*
X7034467Y-15873603D01*
X7034467Y-15873603D02*
X7034467Y-15864079D01*
X7034467Y-15864079D02*
X7043991Y-15845031D01*
X7043991Y-15845031D02*
X7053515Y-15835508D01*
X7053515Y-15835508D02*
X7072562Y-15825984D01*
X7072562Y-15825984D02*
X7110658Y-15825984D01*
X7110658Y-15825984D02*
X7129705Y-15835508D01*
X7129705Y-15835508D02*
X7139229Y-15845031D01*
X7139229Y-15845031D02*
X7148753Y-15864079D01*
X7148753Y-15864079D02*
X7148753Y-15873603D01*
X7148753Y-15873603D02*
X7139229Y-15892650D01*
X7139229Y-15892650D02*
X7129705Y-15902174D01*
X7129705Y-15902174D02*
X7110658Y-15911698D01*
X7110658Y-15911698D02*
X7072562Y-15911698D01*
X7072562Y-15911698D02*
X7053515Y-15921222D01*
X7053515Y-15921222D02*
X7043991Y-15930746D01*
X7043991Y-15930746D02*
X7034467Y-15949793D01*
X7034467Y-15949793D02*
X7034467Y-15987888D01*
X7034467Y-15987888D02*
X7043991Y-16006936D01*
X7043991Y-16006936D02*
X7053515Y-16016460D01*
X7053515Y-16016460D02*
X7072562Y-16025984D01*
X7072562Y-16025984D02*
X7110658Y-16025984D01*
X7110658Y-16025984D02*
X7129705Y-16016460D01*
X7129705Y-16016460D02*
X7139229Y-16006936D01*
X7139229Y-16006936D02*
X7148753Y-15987888D01*
X7148753Y-15987888D02*
X7148753Y-15949793D01*
X7148753Y-15949793D02*
X7139229Y-15930746D01*
X7139229Y-15930746D02*
X7129705Y-15921222D01*
X7129705Y-15921222D02*
X7110658Y-15911698D01*
X7272562Y-15825984D02*
X7291610Y-15825984D01*
X7291610Y-15825984D02*
X7310658Y-15835508D01*
X7310658Y-15835508D02*
X7320182Y-15845031D01*
X7320182Y-15845031D02*
X7329705Y-15864079D01*
X7329705Y-15864079D02*
X7339229Y-15902174D01*
X7339229Y-15902174D02*
X7339229Y-15949793D01*
X7339229Y-15949793D02*
X7329705Y-15987888D01*
X7329705Y-15987888D02*
X7320182Y-16006936D01*
X7320182Y-16006936D02*
X7310658Y-16016460D01*
X7310658Y-16016460D02*
X7291610Y-16025984D01*
X7291610Y-16025984D02*
X7272562Y-16025984D01*
X7272562Y-16025984D02*
X7253515Y-16016460D01*
X7253515Y-16016460D02*
X7243991Y-16006936D01*
X7243991Y-16006936D02*
X7234467Y-15987888D01*
X7234467Y-15987888D02*
X7224943Y-15949793D01*
X7224943Y-15949793D02*
X7224943Y-15902174D01*
X7224943Y-15902174D02*
X7234467Y-15864079D01*
X7234467Y-15864079D02*
X7243991Y-15845031D01*
X7243991Y-15845031D02*
X7253515Y-15835508D01*
X7253515Y-15835508D02*
X7272562Y-15825984D01*
X7463039Y-15825984D02*
X7482086Y-15825984D01*
X7482086Y-15825984D02*
X7501134Y-15835508D01*
X7501134Y-15835508D02*
X7510658Y-15845031D01*
X7510658Y-15845031D02*
X7520182Y-15864079D01*
X7520182Y-15864079D02*
X7529705Y-15902174D01*
X7529705Y-15902174D02*
X7529705Y-15949793D01*
X7529705Y-15949793D02*
X7520182Y-15987888D01*
X7520182Y-15987888D02*
X7510658Y-16006936D01*
X7510658Y-16006936D02*
X7501134Y-16016460D01*
X7501134Y-16016460D02*
X7482086Y-16025984D01*
X7482086Y-16025984D02*
X7463039Y-16025984D01*
X7463039Y-16025984D02*
X7443991Y-16016460D01*
X7443991Y-16016460D02*
X7434467Y-16006936D01*
X7434467Y-16006936D02*
X7424943Y-15987888D01*
X7424943Y-15987888D02*
X7415420Y-15949793D01*
X7415420Y-15949793D02*
X7415420Y-15902174D01*
X7415420Y-15902174D02*
X7424943Y-15864079D01*
X7424943Y-15864079D02*
X7434467Y-15845031D01*
X7434467Y-15845031D02*
X7443991Y-15835508D01*
X7443991Y-15835508D02*
X7463039Y-15825984D01*
X7615420Y-16025984D02*
X7615420Y-15892650D01*
X7615420Y-15911698D02*
X7624943Y-15902174D01*
X7624943Y-15902174D02*
X7643991Y-15892650D01*
X7643991Y-15892650D02*
X7672563Y-15892650D01*
X7672563Y-15892650D02*
X7691610Y-15902174D01*
X7691610Y-15902174D02*
X7701134Y-15921222D01*
X7701134Y-15921222D02*
X7701134Y-16025984D01*
X7701134Y-15921222D02*
X7710658Y-15902174D01*
X7710658Y-15902174D02*
X7729705Y-15892650D01*
X7729705Y-15892650D02*
X7758277Y-15892650D01*
X7758277Y-15892650D02*
X7777324Y-15902174D01*
X7777324Y-15902174D02*
X7786848Y-15921222D01*
X7786848Y-15921222D02*
X7786848Y-16025984D01*
X7882086Y-16025984D02*
X7882086Y-15892650D01*
X7882086Y-15911698D02*
X7891610Y-15902174D01*
X7891610Y-15902174D02*
X7910658Y-15892650D01*
X7910658Y-15892650D02*
X7939229Y-15892650D01*
X7939229Y-15892650D02*
X7958277Y-15902174D01*
X7958277Y-15902174D02*
X7967801Y-15921222D01*
X7967801Y-15921222D02*
X7967801Y-16025984D01*
X7967801Y-15921222D02*
X7977324Y-15902174D01*
X7977324Y-15902174D02*
X7996372Y-15892650D01*
X7996372Y-15892650D02*
X8024943Y-15892650D01*
X8024943Y-15892650D02*
X8043991Y-15902174D01*
X8043991Y-15902174D02*
X8053515Y-15921222D01*
X8053515Y-15921222D02*
X8053515Y-16025984D01*
X8443991Y-15816460D02*
X8272563Y-16073603D01*
X8701134Y-15825984D02*
X8720182Y-15825984D01*
X8720182Y-15825984D02*
X8739229Y-15835508D01*
X8739229Y-15835508D02*
X8748753Y-15845031D01*
X8748753Y-15845031D02*
X8758277Y-15864079D01*
X8758277Y-15864079D02*
X8767801Y-15902174D01*
X8767801Y-15902174D02*
X8767801Y-15949793D01*
X8767801Y-15949793D02*
X8758277Y-15987888D01*
X8758277Y-15987888D02*
X8748753Y-16006936D01*
X8748753Y-16006936D02*
X8739229Y-16016460D01*
X8739229Y-16016460D02*
X8720182Y-16025984D01*
X8720182Y-16025984D02*
X8701134Y-16025984D01*
X8701134Y-16025984D02*
X8682087Y-16016460D01*
X8682087Y-16016460D02*
X8672563Y-16006936D01*
X8672563Y-16006936D02*
X8663039Y-15987888D01*
X8663039Y-15987888D02*
X8653515Y-15949793D01*
X8653515Y-15949793D02*
X8653515Y-15902174D01*
X8653515Y-15902174D02*
X8663039Y-15864079D01*
X8663039Y-15864079D02*
X8672563Y-15845031D01*
X8672563Y-15845031D02*
X8682087Y-15835508D01*
X8682087Y-15835508D02*
X8701134Y-15825984D01*
X8853515Y-16006936D02*
X8863039Y-16016460D01*
X8863039Y-16016460D02*
X8853515Y-16025984D01*
X8853515Y-16025984D02*
X8843991Y-16016460D01*
X8843991Y-16016460D02*
X8853515Y-16006936D01*
X8853515Y-16006936D02*
X8853515Y-16025984D01*
X8986848Y-15825984D02*
X9005896Y-15825984D01*
X9005896Y-15825984D02*
X9024944Y-15835508D01*
X9024944Y-15835508D02*
X9034468Y-15845031D01*
X9034468Y-15845031D02*
X9043991Y-15864079D01*
X9043991Y-15864079D02*
X9053515Y-15902174D01*
X9053515Y-15902174D02*
X9053515Y-15949793D01*
X9053515Y-15949793D02*
X9043991Y-15987888D01*
X9043991Y-15987888D02*
X9034468Y-16006936D01*
X9034468Y-16006936D02*
X9024944Y-16016460D01*
X9024944Y-16016460D02*
X9005896Y-16025984D01*
X9005896Y-16025984D02*
X8986848Y-16025984D01*
X8986848Y-16025984D02*
X8967801Y-16016460D01*
X8967801Y-16016460D02*
X8958277Y-16006936D01*
X8958277Y-16006936D02*
X8948753Y-15987888D01*
X8948753Y-15987888D02*
X8939229Y-15949793D01*
X8939229Y-15949793D02*
X8939229Y-15902174D01*
X8939229Y-15902174D02*
X8948753Y-15864079D01*
X8948753Y-15864079D02*
X8958277Y-15845031D01*
X8958277Y-15845031D02*
X8967801Y-15835508D01*
X8967801Y-15835508D02*
X8986848Y-15825984D01*
X9120182Y-15825984D02*
X9243991Y-15825984D01*
X9243991Y-15825984D02*
X9177325Y-15902174D01*
X9177325Y-15902174D02*
X9205896Y-15902174D01*
X9205896Y-15902174D02*
X9224944Y-15911698D01*
X9224944Y-15911698D02*
X9234468Y-15921222D01*
X9234468Y-15921222D02*
X9243991Y-15940269D01*
X9243991Y-15940269D02*
X9243991Y-15987888D01*
X9243991Y-15987888D02*
X9234468Y-16006936D01*
X9234468Y-16006936D02*
X9224944Y-16016460D01*
X9224944Y-16016460D02*
X9205896Y-16025984D01*
X9205896Y-16025984D02*
X9148753Y-16025984D01*
X9148753Y-16025984D02*
X9129706Y-16016460D01*
X9129706Y-16016460D02*
X9120182Y-16006936D01*
X9434468Y-16025984D02*
X9320182Y-16025984D01*
X9377325Y-16025984D02*
X9377325Y-15825984D01*
X9377325Y-15825984D02*
X9358277Y-15854555D01*
X9358277Y-15854555D02*
X9339229Y-15873603D01*
X9339229Y-15873603D02*
X9320182Y-15883127D01*
X9615420Y-15825984D02*
X9520182Y-15825984D01*
X9520182Y-15825984D02*
X9510658Y-15921222D01*
X9510658Y-15921222D02*
X9520182Y-15911698D01*
X9520182Y-15911698D02*
X9539229Y-15902174D01*
X9539229Y-15902174D02*
X9586849Y-15902174D01*
X9586849Y-15902174D02*
X9605896Y-15911698D01*
X9605896Y-15911698D02*
X9615420Y-15921222D01*
X9615420Y-15921222D02*
X9624944Y-15940269D01*
X9624944Y-15940269D02*
X9624944Y-15987888D01*
X9624944Y-15987888D02*
X9615420Y-16006936D01*
X9615420Y-16006936D02*
X9605896Y-16016460D01*
X9605896Y-16016460D02*
X9586849Y-16025984D01*
X9586849Y-16025984D02*
X9539229Y-16025984D01*
X9539229Y-16025984D02*
X9520182Y-16016460D01*
X9520182Y-16016460D02*
X9510658Y-16006936D01*
X9701134Y-15825984D02*
X9701134Y-15864079D01*
X9777325Y-15825984D02*
X9777325Y-15864079D01*
X10072563Y-16102174D02*
X10063039Y-16092650D01*
X10063039Y-16092650D02*
X10043991Y-16064079D01*
X10043991Y-16064079D02*
X10034468Y-16045031D01*
X10034468Y-16045031D02*
X10024944Y-16016460D01*
X10024944Y-16016460D02*
X10015420Y-15968841D01*
X10015420Y-15968841D02*
X10015420Y-15930746D01*
X10015420Y-15930746D02*
X10024944Y-15883127D01*
X10024944Y-15883127D02*
X10034468Y-15854555D01*
X10034468Y-15854555D02*
X10043991Y-15835508D01*
X10043991Y-15835508D02*
X10063039Y-15806936D01*
X10063039Y-15806936D02*
X10072563Y-15797412D01*
X10234468Y-15892650D02*
X10234468Y-16025984D01*
X10186849Y-15816460D02*
X10139230Y-15959317D01*
X10139230Y-15959317D02*
X10263039Y-15959317D01*
X10320182Y-15825984D02*
X10453515Y-15825984D01*
X10453515Y-15825984D02*
X10367801Y-16025984D01*
X10682087Y-16025984D02*
X10682087Y-15825984D01*
X10767801Y-16025984D02*
X10767801Y-15921222D01*
X10767801Y-15921222D02*
X10758277Y-15902174D01*
X10758277Y-15902174D02*
X10739230Y-15892650D01*
X10739230Y-15892650D02*
X10710658Y-15892650D01*
X10710658Y-15892650D02*
X10691611Y-15902174D01*
X10691611Y-15902174D02*
X10682087Y-15911698D01*
X10891611Y-16025984D02*
X10872563Y-16016460D01*
X10872563Y-16016460D02*
X10863039Y-16006936D01*
X10863039Y-16006936D02*
X10853515Y-15987888D01*
X10853515Y-15987888D02*
X10853515Y-15930746D01*
X10853515Y-15930746D02*
X10863039Y-15911698D01*
X10863039Y-15911698D02*
X10872563Y-15902174D01*
X10872563Y-15902174D02*
X10891611Y-15892650D01*
X10891611Y-15892650D02*
X10920182Y-15892650D01*
X10920182Y-15892650D02*
X10939230Y-15902174D01*
X10939230Y-15902174D02*
X10948753Y-15911698D01*
X10948753Y-15911698D02*
X10958277Y-15930746D01*
X10958277Y-15930746D02*
X10958277Y-15987888D01*
X10958277Y-15987888D02*
X10948753Y-16006936D01*
X10948753Y-16006936D02*
X10939230Y-16016460D01*
X10939230Y-16016460D02*
X10920182Y-16025984D01*
X10920182Y-16025984D02*
X10891611Y-16025984D01*
X11072563Y-16025984D02*
X11053515Y-16016460D01*
X11053515Y-16016460D02*
X11043992Y-15997412D01*
X11043992Y-15997412D02*
X11043992Y-15825984D01*
X11224944Y-16016460D02*
X11205896Y-16025984D01*
X11205896Y-16025984D02*
X11167801Y-16025984D01*
X11167801Y-16025984D02*
X11148753Y-16016460D01*
X11148753Y-16016460D02*
X11139230Y-15997412D01*
X11139230Y-15997412D02*
X11139230Y-15921222D01*
X11139230Y-15921222D02*
X11148753Y-15902174D01*
X11148753Y-15902174D02*
X11167801Y-15892650D01*
X11167801Y-15892650D02*
X11205896Y-15892650D01*
X11205896Y-15892650D02*
X11224944Y-15902174D01*
X11224944Y-15902174D02*
X11234468Y-15921222D01*
X11234468Y-15921222D02*
X11234468Y-15940269D01*
X11234468Y-15940269D02*
X11139230Y-15959317D01*
X11310658Y-16016460D02*
X11329706Y-16025984D01*
X11329706Y-16025984D02*
X11367801Y-16025984D01*
X11367801Y-16025984D02*
X11386849Y-16016460D01*
X11386849Y-16016460D02*
X11396372Y-15997412D01*
X11396372Y-15997412D02*
X11396372Y-15987888D01*
X11396372Y-15987888D02*
X11386849Y-15968841D01*
X11386849Y-15968841D02*
X11367801Y-15959317D01*
X11367801Y-15959317D02*
X11339230Y-15959317D01*
X11339230Y-15959317D02*
X11320182Y-15949793D01*
X11320182Y-15949793D02*
X11310658Y-15930746D01*
X11310658Y-15930746D02*
X11310658Y-15921222D01*
X11310658Y-15921222D02*
X11320182Y-15902174D01*
X11320182Y-15902174D02*
X11339230Y-15892650D01*
X11339230Y-15892650D02*
X11367801Y-15892650D01*
X11367801Y-15892650D02*
X11386849Y-15902174D01*
X11463039Y-16102174D02*
X11472563Y-16092650D01*
X11472563Y-16092650D02*
X11491611Y-16064079D01*
X11491611Y-16064079D02*
X11501134Y-16045031D01*
X11501134Y-16045031D02*
X11510658Y-16016460D01*
X11510658Y-16016460D02*
X11520182Y-15968841D01*
X11520182Y-15968841D02*
X11520182Y-15930746D01*
X11520182Y-15930746D02*
X11510658Y-15883127D01*
X11510658Y-15883127D02*
X11501134Y-15854555D01*
X11501134Y-15854555D02*
X11491611Y-15835508D01*
X11491611Y-15835508D02*
X11472563Y-15806936D01*
X11472563Y-15806936D02*
X11463039Y-15797412D01*
D12*
X6452500Y-16243500D02*
X6497500Y-16198500D01*
X6452500Y-16153500D01*
X6407500Y-16198500D01*
X6452500Y-16243500D01*
D11*
X6796372Y-16089984D02*
X6815420Y-16089984D01*
X6815420Y-16089984D02*
X6834467Y-16099508D01*
X6834467Y-16099508D02*
X6843991Y-16109031D01*
X6843991Y-16109031D02*
X6853515Y-16128079D01*
X6853515Y-16128079D02*
X6863039Y-16166174D01*
X6863039Y-16166174D02*
X6863039Y-16213793D01*
X6863039Y-16213793D02*
X6853515Y-16251888D01*
X6853515Y-16251888D02*
X6843991Y-16270936D01*
X6843991Y-16270936D02*
X6834467Y-16280460D01*
X6834467Y-16280460D02*
X6815420Y-16289984D01*
X6815420Y-16289984D02*
X6796372Y-16289984D01*
X6796372Y-16289984D02*
X6777324Y-16280460D01*
X6777324Y-16280460D02*
X6767801Y-16270936D01*
X6767801Y-16270936D02*
X6758277Y-16251888D01*
X6758277Y-16251888D02*
X6748753Y-16213793D01*
X6748753Y-16213793D02*
X6748753Y-16166174D01*
X6748753Y-16166174D02*
X6758277Y-16128079D01*
X6758277Y-16128079D02*
X6767801Y-16109031D01*
X6767801Y-16109031D02*
X6777324Y-16099508D01*
X6777324Y-16099508D02*
X6796372Y-16089984D01*
X6948753Y-16270936D02*
X6958277Y-16280460D01*
X6958277Y-16280460D02*
X6948753Y-16289984D01*
X6948753Y-16289984D02*
X6939229Y-16280460D01*
X6939229Y-16280460D02*
X6948753Y-16270936D01*
X6948753Y-16270936D02*
X6948753Y-16289984D01*
X7053515Y-16289984D02*
X7091610Y-16289984D01*
X7091610Y-16289984D02*
X7110658Y-16280460D01*
X7110658Y-16280460D02*
X7120182Y-16270936D01*
X7120182Y-16270936D02*
X7139229Y-16242365D01*
X7139229Y-16242365D02*
X7148753Y-16204269D01*
X7148753Y-16204269D02*
X7148753Y-16128079D01*
X7148753Y-16128079D02*
X7139229Y-16109031D01*
X7139229Y-16109031D02*
X7129705Y-16099508D01*
X7129705Y-16099508D02*
X7110658Y-16089984D01*
X7110658Y-16089984D02*
X7072562Y-16089984D01*
X7072562Y-16089984D02*
X7053515Y-16099508D01*
X7053515Y-16099508D02*
X7043991Y-16109031D01*
X7043991Y-16109031D02*
X7034467Y-16128079D01*
X7034467Y-16128079D02*
X7034467Y-16175698D01*
X7034467Y-16175698D02*
X7043991Y-16194746D01*
X7043991Y-16194746D02*
X7053515Y-16204269D01*
X7053515Y-16204269D02*
X7072562Y-16213793D01*
X7072562Y-16213793D02*
X7110658Y-16213793D01*
X7110658Y-16213793D02*
X7129705Y-16204269D01*
X7129705Y-16204269D02*
X7139229Y-16194746D01*
X7139229Y-16194746D02*
X7148753Y-16175698D01*
X7272562Y-16089984D02*
X7291610Y-16089984D01*
X7291610Y-16089984D02*
X7310658Y-16099508D01*
X7310658Y-16099508D02*
X7320182Y-16109031D01*
X7320182Y-16109031D02*
X7329705Y-16128079D01*
X7329705Y-16128079D02*
X7339229Y-16166174D01*
X7339229Y-16166174D02*
X7339229Y-16213793D01*
X7339229Y-16213793D02*
X7329705Y-16251888D01*
X7329705Y-16251888D02*
X7320182Y-16270936D01*
X7320182Y-16270936D02*
X7310658Y-16280460D01*
X7310658Y-16280460D02*
X7291610Y-16289984D01*
X7291610Y-16289984D02*
X7272562Y-16289984D01*
X7272562Y-16289984D02*
X7253515Y-16280460D01*
X7253515Y-16280460D02*
X7243991Y-16270936D01*
X7243991Y-16270936D02*
X7234467Y-16251888D01*
X7234467Y-16251888D02*
X7224943Y-16213793D01*
X7224943Y-16213793D02*
X7224943Y-16166174D01*
X7224943Y-16166174D02*
X7234467Y-16128079D01*
X7234467Y-16128079D02*
X7243991Y-16109031D01*
X7243991Y-16109031D02*
X7253515Y-16099508D01*
X7253515Y-16099508D02*
X7272562Y-16089984D01*
X7463039Y-16089984D02*
X7482086Y-16089984D01*
X7482086Y-16089984D02*
X7501134Y-16099508D01*
X7501134Y-16099508D02*
X7510658Y-16109031D01*
X7510658Y-16109031D02*
X7520182Y-16128079D01*
X7520182Y-16128079D02*
X7529705Y-16166174D01*
X7529705Y-16166174D02*
X7529705Y-16213793D01*
X7529705Y-16213793D02*
X7520182Y-16251888D01*
X7520182Y-16251888D02*
X7510658Y-16270936D01*
X7510658Y-16270936D02*
X7501134Y-16280460D01*
X7501134Y-16280460D02*
X7482086Y-16289984D01*
X7482086Y-16289984D02*
X7463039Y-16289984D01*
X7463039Y-16289984D02*
X7443991Y-16280460D01*
X7443991Y-16280460D02*
X7434467Y-16270936D01*
X7434467Y-16270936D02*
X7424943Y-16251888D01*
X7424943Y-16251888D02*
X7415420Y-16213793D01*
X7415420Y-16213793D02*
X7415420Y-16166174D01*
X7415420Y-16166174D02*
X7424943Y-16128079D01*
X7424943Y-16128079D02*
X7434467Y-16109031D01*
X7434467Y-16109031D02*
X7443991Y-16099508D01*
X7443991Y-16099508D02*
X7463039Y-16089984D01*
X7615420Y-16289984D02*
X7615420Y-16156650D01*
X7615420Y-16175698D02*
X7624943Y-16166174D01*
X7624943Y-16166174D02*
X7643991Y-16156650D01*
X7643991Y-16156650D02*
X7672563Y-16156650D01*
X7672563Y-16156650D02*
X7691610Y-16166174D01*
X7691610Y-16166174D02*
X7701134Y-16185222D01*
X7701134Y-16185222D02*
X7701134Y-16289984D01*
X7701134Y-16185222D02*
X7710658Y-16166174D01*
X7710658Y-16166174D02*
X7729705Y-16156650D01*
X7729705Y-16156650D02*
X7758277Y-16156650D01*
X7758277Y-16156650D02*
X7777324Y-16166174D01*
X7777324Y-16166174D02*
X7786848Y-16185222D01*
X7786848Y-16185222D02*
X7786848Y-16289984D01*
X7882086Y-16289984D02*
X7882086Y-16156650D01*
X7882086Y-16175698D02*
X7891610Y-16166174D01*
X7891610Y-16166174D02*
X7910658Y-16156650D01*
X7910658Y-16156650D02*
X7939229Y-16156650D01*
X7939229Y-16156650D02*
X7958277Y-16166174D01*
X7958277Y-16166174D02*
X7967801Y-16185222D01*
X7967801Y-16185222D02*
X7967801Y-16289984D01*
X7967801Y-16185222D02*
X7977324Y-16166174D01*
X7977324Y-16166174D02*
X7996372Y-16156650D01*
X7996372Y-16156650D02*
X8024943Y-16156650D01*
X8024943Y-16156650D02*
X8043991Y-16166174D01*
X8043991Y-16166174D02*
X8053515Y-16185222D01*
X8053515Y-16185222D02*
X8053515Y-16289984D01*
X8443991Y-16080460D02*
X8272563Y-16337603D01*
X8701134Y-16089984D02*
X8720182Y-16089984D01*
X8720182Y-16089984D02*
X8739229Y-16099508D01*
X8739229Y-16099508D02*
X8748753Y-16109031D01*
X8748753Y-16109031D02*
X8758277Y-16128079D01*
X8758277Y-16128079D02*
X8767801Y-16166174D01*
X8767801Y-16166174D02*
X8767801Y-16213793D01*
X8767801Y-16213793D02*
X8758277Y-16251888D01*
X8758277Y-16251888D02*
X8748753Y-16270936D01*
X8748753Y-16270936D02*
X8739229Y-16280460D01*
X8739229Y-16280460D02*
X8720182Y-16289984D01*
X8720182Y-16289984D02*
X8701134Y-16289984D01*
X8701134Y-16289984D02*
X8682087Y-16280460D01*
X8682087Y-16280460D02*
X8672563Y-16270936D01*
X8672563Y-16270936D02*
X8663039Y-16251888D01*
X8663039Y-16251888D02*
X8653515Y-16213793D01*
X8653515Y-16213793D02*
X8653515Y-16166174D01*
X8653515Y-16166174D02*
X8663039Y-16128079D01*
X8663039Y-16128079D02*
X8672563Y-16109031D01*
X8672563Y-16109031D02*
X8682087Y-16099508D01*
X8682087Y-16099508D02*
X8701134Y-16089984D01*
X8853515Y-16270936D02*
X8863039Y-16280460D01*
X8863039Y-16280460D02*
X8853515Y-16289984D01*
X8853515Y-16289984D02*
X8843991Y-16280460D01*
X8843991Y-16280460D02*
X8853515Y-16270936D01*
X8853515Y-16270936D02*
X8853515Y-16289984D01*
X8986848Y-16089984D02*
X9005896Y-16089984D01*
X9005896Y-16089984D02*
X9024944Y-16099508D01*
X9024944Y-16099508D02*
X9034468Y-16109031D01*
X9034468Y-16109031D02*
X9043991Y-16128079D01*
X9043991Y-16128079D02*
X9053515Y-16166174D01*
X9053515Y-16166174D02*
X9053515Y-16213793D01*
X9053515Y-16213793D02*
X9043991Y-16251888D01*
X9043991Y-16251888D02*
X9034468Y-16270936D01*
X9034468Y-16270936D02*
X9024944Y-16280460D01*
X9024944Y-16280460D02*
X9005896Y-16289984D01*
X9005896Y-16289984D02*
X8986848Y-16289984D01*
X8986848Y-16289984D02*
X8967801Y-16280460D01*
X8967801Y-16280460D02*
X8958277Y-16270936D01*
X8958277Y-16270936D02*
X8948753Y-16251888D01*
X8948753Y-16251888D02*
X8939229Y-16213793D01*
X8939229Y-16213793D02*
X8939229Y-16166174D01*
X8939229Y-16166174D02*
X8948753Y-16128079D01*
X8948753Y-16128079D02*
X8958277Y-16109031D01*
X8958277Y-16109031D02*
X8967801Y-16099508D01*
X8967801Y-16099508D02*
X8986848Y-16089984D01*
X9120182Y-16089984D02*
X9243991Y-16089984D01*
X9243991Y-16089984D02*
X9177325Y-16166174D01*
X9177325Y-16166174D02*
X9205896Y-16166174D01*
X9205896Y-16166174D02*
X9224944Y-16175698D01*
X9224944Y-16175698D02*
X9234468Y-16185222D01*
X9234468Y-16185222D02*
X9243991Y-16204269D01*
X9243991Y-16204269D02*
X9243991Y-16251888D01*
X9243991Y-16251888D02*
X9234468Y-16270936D01*
X9234468Y-16270936D02*
X9224944Y-16280460D01*
X9224944Y-16280460D02*
X9205896Y-16289984D01*
X9205896Y-16289984D02*
X9148753Y-16289984D01*
X9148753Y-16289984D02*
X9129706Y-16280460D01*
X9129706Y-16280460D02*
X9120182Y-16270936D01*
X9424944Y-16089984D02*
X9329706Y-16089984D01*
X9329706Y-16089984D02*
X9320182Y-16185222D01*
X9320182Y-16185222D02*
X9329706Y-16175698D01*
X9329706Y-16175698D02*
X9348753Y-16166174D01*
X9348753Y-16166174D02*
X9396372Y-16166174D01*
X9396372Y-16166174D02*
X9415420Y-16175698D01*
X9415420Y-16175698D02*
X9424944Y-16185222D01*
X9424944Y-16185222D02*
X9434468Y-16204269D01*
X9434468Y-16204269D02*
X9434468Y-16251888D01*
X9434468Y-16251888D02*
X9424944Y-16270936D01*
X9424944Y-16270936D02*
X9415420Y-16280460D01*
X9415420Y-16280460D02*
X9396372Y-16289984D01*
X9396372Y-16289984D02*
X9348753Y-16289984D01*
X9348753Y-16289984D02*
X9329706Y-16280460D01*
X9329706Y-16280460D02*
X9320182Y-16270936D01*
X9605896Y-16156650D02*
X9605896Y-16289984D01*
X9558277Y-16080460D02*
X9510658Y-16223317D01*
X9510658Y-16223317D02*
X9634468Y-16223317D01*
X9701134Y-16089984D02*
X9701134Y-16128079D01*
X9777325Y-16089984D02*
X9777325Y-16128079D01*
X10072563Y-16366174D02*
X10063039Y-16356650D01*
X10063039Y-16356650D02*
X10043991Y-16328079D01*
X10043991Y-16328079D02*
X10034468Y-16309031D01*
X10034468Y-16309031D02*
X10024944Y-16280460D01*
X10024944Y-16280460D02*
X10015420Y-16232841D01*
X10015420Y-16232841D02*
X10015420Y-16194746D01*
X10015420Y-16194746D02*
X10024944Y-16147127D01*
X10024944Y-16147127D02*
X10034468Y-16118555D01*
X10034468Y-16118555D02*
X10043991Y-16099508D01*
X10043991Y-16099508D02*
X10063039Y-16070936D01*
X10063039Y-16070936D02*
X10072563Y-16061412D01*
X10253515Y-16289984D02*
X10139230Y-16289984D01*
X10196372Y-16289984D02*
X10196372Y-16089984D01*
X10196372Y-16089984D02*
X10177325Y-16118555D01*
X10177325Y-16118555D02*
X10158277Y-16137603D01*
X10158277Y-16137603D02*
X10139230Y-16147127D01*
X10377325Y-16089984D02*
X10396372Y-16089984D01*
X10396372Y-16089984D02*
X10415420Y-16099508D01*
X10415420Y-16099508D02*
X10424944Y-16109031D01*
X10424944Y-16109031D02*
X10434468Y-16128079D01*
X10434468Y-16128079D02*
X10443991Y-16166174D01*
X10443991Y-16166174D02*
X10443991Y-16213793D01*
X10443991Y-16213793D02*
X10434468Y-16251888D01*
X10434468Y-16251888D02*
X10424944Y-16270936D01*
X10424944Y-16270936D02*
X10415420Y-16280460D01*
X10415420Y-16280460D02*
X10396372Y-16289984D01*
X10396372Y-16289984D02*
X10377325Y-16289984D01*
X10377325Y-16289984D02*
X10358277Y-16280460D01*
X10358277Y-16280460D02*
X10348753Y-16270936D01*
X10348753Y-16270936D02*
X10339230Y-16251888D01*
X10339230Y-16251888D02*
X10329706Y-16213793D01*
X10329706Y-16213793D02*
X10329706Y-16166174D01*
X10329706Y-16166174D02*
X10339230Y-16128079D01*
X10339230Y-16128079D02*
X10348753Y-16109031D01*
X10348753Y-16109031D02*
X10358277Y-16099508D01*
X10358277Y-16099508D02*
X10377325Y-16089984D01*
X10682087Y-16289984D02*
X10682087Y-16089984D01*
X10767801Y-16289984D02*
X10767801Y-16185222D01*
X10767801Y-16185222D02*
X10758277Y-16166174D01*
X10758277Y-16166174D02*
X10739230Y-16156650D01*
X10739230Y-16156650D02*
X10710658Y-16156650D01*
X10710658Y-16156650D02*
X10691611Y-16166174D01*
X10691611Y-16166174D02*
X10682087Y-16175698D01*
X10891611Y-16289984D02*
X10872563Y-16280460D01*
X10872563Y-16280460D02*
X10863039Y-16270936D01*
X10863039Y-16270936D02*
X10853515Y-16251888D01*
X10853515Y-16251888D02*
X10853515Y-16194746D01*
X10853515Y-16194746D02*
X10863039Y-16175698D01*
X10863039Y-16175698D02*
X10872563Y-16166174D01*
X10872563Y-16166174D02*
X10891611Y-16156650D01*
X10891611Y-16156650D02*
X10920182Y-16156650D01*
X10920182Y-16156650D02*
X10939230Y-16166174D01*
X10939230Y-16166174D02*
X10948753Y-16175698D01*
X10948753Y-16175698D02*
X10958277Y-16194746D01*
X10958277Y-16194746D02*
X10958277Y-16251888D01*
X10958277Y-16251888D02*
X10948753Y-16270936D01*
X10948753Y-16270936D02*
X10939230Y-16280460D01*
X10939230Y-16280460D02*
X10920182Y-16289984D01*
X10920182Y-16289984D02*
X10891611Y-16289984D01*
X11072563Y-16289984D02*
X11053515Y-16280460D01*
X11053515Y-16280460D02*
X11043992Y-16261412D01*
X11043992Y-16261412D02*
X11043992Y-16089984D01*
X11224944Y-16280460D02*
X11205896Y-16289984D01*
X11205896Y-16289984D02*
X11167801Y-16289984D01*
X11167801Y-16289984D02*
X11148753Y-16280460D01*
X11148753Y-16280460D02*
X11139230Y-16261412D01*
X11139230Y-16261412D02*
X11139230Y-16185222D01*
X11139230Y-16185222D02*
X11148753Y-16166174D01*
X11148753Y-16166174D02*
X11167801Y-16156650D01*
X11167801Y-16156650D02*
X11205896Y-16156650D01*
X11205896Y-16156650D02*
X11224944Y-16166174D01*
X11224944Y-16166174D02*
X11234468Y-16185222D01*
X11234468Y-16185222D02*
X11234468Y-16204269D01*
X11234468Y-16204269D02*
X11139230Y-16223317D01*
X11310658Y-16280460D02*
X11329706Y-16289984D01*
X11329706Y-16289984D02*
X11367801Y-16289984D01*
X11367801Y-16289984D02*
X11386849Y-16280460D01*
X11386849Y-16280460D02*
X11396372Y-16261412D01*
X11396372Y-16261412D02*
X11396372Y-16251888D01*
X11396372Y-16251888D02*
X11386849Y-16232841D01*
X11386849Y-16232841D02*
X11367801Y-16223317D01*
X11367801Y-16223317D02*
X11339230Y-16223317D01*
X11339230Y-16223317D02*
X11320182Y-16213793D01*
X11320182Y-16213793D02*
X11310658Y-16194746D01*
X11310658Y-16194746D02*
X11310658Y-16185222D01*
X11310658Y-16185222D02*
X11320182Y-16166174D01*
X11320182Y-16166174D02*
X11339230Y-16156650D01*
X11339230Y-16156650D02*
X11367801Y-16156650D01*
X11367801Y-16156650D02*
X11386849Y-16166174D01*
X11463039Y-16366174D02*
X11472563Y-16356650D01*
X11472563Y-16356650D02*
X11491611Y-16328079D01*
X11491611Y-16328079D02*
X11501134Y-16309031D01*
X11501134Y-16309031D02*
X11510658Y-16280460D01*
X11510658Y-16280460D02*
X11520182Y-16232841D01*
X11520182Y-16232841D02*
X11520182Y-16194746D01*
X11520182Y-16194746D02*
X11510658Y-16147127D01*
X11510658Y-16147127D02*
X11501134Y-16118555D01*
X11501134Y-16118555D02*
X11491611Y-16099508D01*
X11491611Y-16099508D02*
X11472563Y-16070936D01*
X11472563Y-16070936D02*
X11463039Y-16061412D01*
D12*
X6397500Y-16412500D02*
X6497500Y-16512500D01*
X6497500Y-16412500D02*
X6397500Y-16512500D01*
X6497500Y-16462500D02*
G75*
G02*
X6397500Y-16462500I-50000J0D01*
G01*
X6397500Y-16462500D02*
G75*
G02*
X6497500Y-16462500I50000J0D01*
G01*
D11*
X6863039Y-16553984D02*
X6748753Y-16553984D01*
X6805896Y-16553984D02*
X6805896Y-16353984D01*
X6805896Y-16353984D02*
X6786848Y-16382555D01*
X6786848Y-16382555D02*
X6767801Y-16401603D01*
X6767801Y-16401603D02*
X6748753Y-16411127D01*
X6948753Y-16534936D02*
X6958277Y-16544460D01*
X6958277Y-16544460D02*
X6948753Y-16553984D01*
X6948753Y-16553984D02*
X6939229Y-16544460D01*
X6939229Y-16544460D02*
X6948753Y-16534936D01*
X6948753Y-16534936D02*
X6948753Y-16553984D01*
X7082086Y-16353984D02*
X7101134Y-16353984D01*
X7101134Y-16353984D02*
X7120182Y-16363508D01*
X7120182Y-16363508D02*
X7129705Y-16373031D01*
X7129705Y-16373031D02*
X7139229Y-16392079D01*
X7139229Y-16392079D02*
X7148753Y-16430174D01*
X7148753Y-16430174D02*
X7148753Y-16477793D01*
X7148753Y-16477793D02*
X7139229Y-16515888D01*
X7139229Y-16515888D02*
X7129705Y-16534936D01*
X7129705Y-16534936D02*
X7120182Y-16544460D01*
X7120182Y-16544460D02*
X7101134Y-16553984D01*
X7101134Y-16553984D02*
X7082086Y-16553984D01*
X7082086Y-16553984D02*
X7063039Y-16544460D01*
X7063039Y-16544460D02*
X7053515Y-16534936D01*
X7053515Y-16534936D02*
X7043991Y-16515888D01*
X7043991Y-16515888D02*
X7034467Y-16477793D01*
X7034467Y-16477793D02*
X7034467Y-16430174D01*
X7034467Y-16430174D02*
X7043991Y-16392079D01*
X7043991Y-16392079D02*
X7053515Y-16373031D01*
X7053515Y-16373031D02*
X7063039Y-16363508D01*
X7063039Y-16363508D02*
X7082086Y-16353984D01*
X7272562Y-16353984D02*
X7291610Y-16353984D01*
X7291610Y-16353984D02*
X7310658Y-16363508D01*
X7310658Y-16363508D02*
X7320182Y-16373031D01*
X7320182Y-16373031D02*
X7329705Y-16392079D01*
X7329705Y-16392079D02*
X7339229Y-16430174D01*
X7339229Y-16430174D02*
X7339229Y-16477793D01*
X7339229Y-16477793D02*
X7329705Y-16515888D01*
X7329705Y-16515888D02*
X7320182Y-16534936D01*
X7320182Y-16534936D02*
X7310658Y-16544460D01*
X7310658Y-16544460D02*
X7291610Y-16553984D01*
X7291610Y-16553984D02*
X7272562Y-16553984D01*
X7272562Y-16553984D02*
X7253515Y-16544460D01*
X7253515Y-16544460D02*
X7243991Y-16534936D01*
X7243991Y-16534936D02*
X7234467Y-16515888D01*
X7234467Y-16515888D02*
X7224943Y-16477793D01*
X7224943Y-16477793D02*
X7224943Y-16430174D01*
X7224943Y-16430174D02*
X7234467Y-16392079D01*
X7234467Y-16392079D02*
X7243991Y-16373031D01*
X7243991Y-16373031D02*
X7253515Y-16363508D01*
X7253515Y-16363508D02*
X7272562Y-16353984D01*
X7463039Y-16353984D02*
X7482086Y-16353984D01*
X7482086Y-16353984D02*
X7501134Y-16363508D01*
X7501134Y-16363508D02*
X7510658Y-16373031D01*
X7510658Y-16373031D02*
X7520182Y-16392079D01*
X7520182Y-16392079D02*
X7529705Y-16430174D01*
X7529705Y-16430174D02*
X7529705Y-16477793D01*
X7529705Y-16477793D02*
X7520182Y-16515888D01*
X7520182Y-16515888D02*
X7510658Y-16534936D01*
X7510658Y-16534936D02*
X7501134Y-16544460D01*
X7501134Y-16544460D02*
X7482086Y-16553984D01*
X7482086Y-16553984D02*
X7463039Y-16553984D01*
X7463039Y-16553984D02*
X7443991Y-16544460D01*
X7443991Y-16544460D02*
X7434467Y-16534936D01*
X7434467Y-16534936D02*
X7424943Y-16515888D01*
X7424943Y-16515888D02*
X7415420Y-16477793D01*
X7415420Y-16477793D02*
X7415420Y-16430174D01*
X7415420Y-16430174D02*
X7424943Y-16392079D01*
X7424943Y-16392079D02*
X7434467Y-16373031D01*
X7434467Y-16373031D02*
X7443991Y-16363508D01*
X7443991Y-16363508D02*
X7463039Y-16353984D01*
X7615420Y-16553984D02*
X7615420Y-16420650D01*
X7615420Y-16439698D02*
X7624943Y-16430174D01*
X7624943Y-16430174D02*
X7643991Y-16420650D01*
X7643991Y-16420650D02*
X7672563Y-16420650D01*
X7672563Y-16420650D02*
X7691610Y-16430174D01*
X7691610Y-16430174D02*
X7701134Y-16449222D01*
X7701134Y-16449222D02*
X7701134Y-16553984D01*
X7701134Y-16449222D02*
X7710658Y-16430174D01*
X7710658Y-16430174D02*
X7729705Y-16420650D01*
X7729705Y-16420650D02*
X7758277Y-16420650D01*
X7758277Y-16420650D02*
X7777324Y-16430174D01*
X7777324Y-16430174D02*
X7786848Y-16449222D01*
X7786848Y-16449222D02*
X7786848Y-16553984D01*
X7882086Y-16553984D02*
X7882086Y-16420650D01*
X7882086Y-16439698D02*
X7891610Y-16430174D01*
X7891610Y-16430174D02*
X7910658Y-16420650D01*
X7910658Y-16420650D02*
X7939229Y-16420650D01*
X7939229Y-16420650D02*
X7958277Y-16430174D01*
X7958277Y-16430174D02*
X7967801Y-16449222D01*
X7967801Y-16449222D02*
X7967801Y-16553984D01*
X7967801Y-16449222D02*
X7977324Y-16430174D01*
X7977324Y-16430174D02*
X7996372Y-16420650D01*
X7996372Y-16420650D02*
X8024943Y-16420650D01*
X8024943Y-16420650D02*
X8043991Y-16430174D01*
X8043991Y-16430174D02*
X8053515Y-16449222D01*
X8053515Y-16449222D02*
X8053515Y-16553984D01*
X8443991Y-16344460D02*
X8272563Y-16601603D01*
X8701134Y-16353984D02*
X8720182Y-16353984D01*
X8720182Y-16353984D02*
X8739229Y-16363508D01*
X8739229Y-16363508D02*
X8748753Y-16373031D01*
X8748753Y-16373031D02*
X8758277Y-16392079D01*
X8758277Y-16392079D02*
X8767801Y-16430174D01*
X8767801Y-16430174D02*
X8767801Y-16477793D01*
X8767801Y-16477793D02*
X8758277Y-16515888D01*
X8758277Y-16515888D02*
X8748753Y-16534936D01*
X8748753Y-16534936D02*
X8739229Y-16544460D01*
X8739229Y-16544460D02*
X8720182Y-16553984D01*
X8720182Y-16553984D02*
X8701134Y-16553984D01*
X8701134Y-16553984D02*
X8682087Y-16544460D01*
X8682087Y-16544460D02*
X8672563Y-16534936D01*
X8672563Y-16534936D02*
X8663039Y-16515888D01*
X8663039Y-16515888D02*
X8653515Y-16477793D01*
X8653515Y-16477793D02*
X8653515Y-16430174D01*
X8653515Y-16430174D02*
X8663039Y-16392079D01*
X8663039Y-16392079D02*
X8672563Y-16373031D01*
X8672563Y-16373031D02*
X8682087Y-16363508D01*
X8682087Y-16363508D02*
X8701134Y-16353984D01*
X8853515Y-16534936D02*
X8863039Y-16544460D01*
X8863039Y-16544460D02*
X8853515Y-16553984D01*
X8853515Y-16553984D02*
X8843991Y-16544460D01*
X8843991Y-16544460D02*
X8853515Y-16534936D01*
X8853515Y-16534936D02*
X8853515Y-16553984D01*
X8986848Y-16353984D02*
X9005896Y-16353984D01*
X9005896Y-16353984D02*
X9024944Y-16363508D01*
X9024944Y-16363508D02*
X9034468Y-16373031D01*
X9034468Y-16373031D02*
X9043991Y-16392079D01*
X9043991Y-16392079D02*
X9053515Y-16430174D01*
X9053515Y-16430174D02*
X9053515Y-16477793D01*
X9053515Y-16477793D02*
X9043991Y-16515888D01*
X9043991Y-16515888D02*
X9034468Y-16534936D01*
X9034468Y-16534936D02*
X9024944Y-16544460D01*
X9024944Y-16544460D02*
X9005896Y-16553984D01*
X9005896Y-16553984D02*
X8986848Y-16553984D01*
X8986848Y-16553984D02*
X8967801Y-16544460D01*
X8967801Y-16544460D02*
X8958277Y-16534936D01*
X8958277Y-16534936D02*
X8948753Y-16515888D01*
X8948753Y-16515888D02*
X8939229Y-16477793D01*
X8939229Y-16477793D02*
X8939229Y-16430174D01*
X8939229Y-16430174D02*
X8948753Y-16392079D01*
X8948753Y-16392079D02*
X8958277Y-16373031D01*
X8958277Y-16373031D02*
X8967801Y-16363508D01*
X8967801Y-16363508D02*
X8986848Y-16353984D01*
X9120182Y-16353984D02*
X9243991Y-16353984D01*
X9243991Y-16353984D02*
X9177325Y-16430174D01*
X9177325Y-16430174D02*
X9205896Y-16430174D01*
X9205896Y-16430174D02*
X9224944Y-16439698D01*
X9224944Y-16439698D02*
X9234468Y-16449222D01*
X9234468Y-16449222D02*
X9243991Y-16468269D01*
X9243991Y-16468269D02*
X9243991Y-16515888D01*
X9243991Y-16515888D02*
X9234468Y-16534936D01*
X9234468Y-16534936D02*
X9224944Y-16544460D01*
X9224944Y-16544460D02*
X9205896Y-16553984D01*
X9205896Y-16553984D02*
X9148753Y-16553984D01*
X9148753Y-16553984D02*
X9129706Y-16544460D01*
X9129706Y-16544460D02*
X9120182Y-16534936D01*
X9339229Y-16553984D02*
X9377325Y-16553984D01*
X9377325Y-16553984D02*
X9396372Y-16544460D01*
X9396372Y-16544460D02*
X9405896Y-16534936D01*
X9405896Y-16534936D02*
X9424944Y-16506365D01*
X9424944Y-16506365D02*
X9434468Y-16468269D01*
X9434468Y-16468269D02*
X9434468Y-16392079D01*
X9434468Y-16392079D02*
X9424944Y-16373031D01*
X9424944Y-16373031D02*
X9415420Y-16363508D01*
X9415420Y-16363508D02*
X9396372Y-16353984D01*
X9396372Y-16353984D02*
X9358277Y-16353984D01*
X9358277Y-16353984D02*
X9339229Y-16363508D01*
X9339229Y-16363508D02*
X9329706Y-16373031D01*
X9329706Y-16373031D02*
X9320182Y-16392079D01*
X9320182Y-16392079D02*
X9320182Y-16439698D01*
X9320182Y-16439698D02*
X9329706Y-16458746D01*
X9329706Y-16458746D02*
X9339229Y-16468269D01*
X9339229Y-16468269D02*
X9358277Y-16477793D01*
X9358277Y-16477793D02*
X9396372Y-16477793D01*
X9396372Y-16477793D02*
X9415420Y-16468269D01*
X9415420Y-16468269D02*
X9424944Y-16458746D01*
X9424944Y-16458746D02*
X9434468Y-16439698D01*
X9605896Y-16420650D02*
X9605896Y-16553984D01*
X9558277Y-16344460D02*
X9510658Y-16487317D01*
X9510658Y-16487317D02*
X9634468Y-16487317D01*
X9701134Y-16353984D02*
X9701134Y-16392079D01*
X9777325Y-16353984D02*
X9777325Y-16392079D01*
X10072563Y-16630174D02*
X10063039Y-16620650D01*
X10063039Y-16620650D02*
X10043991Y-16592079D01*
X10043991Y-16592079D02*
X10034468Y-16573031D01*
X10034468Y-16573031D02*
X10024944Y-16544460D01*
X10024944Y-16544460D02*
X10015420Y-16496841D01*
X10015420Y-16496841D02*
X10015420Y-16458746D01*
X10015420Y-16458746D02*
X10024944Y-16411127D01*
X10024944Y-16411127D02*
X10034468Y-16382555D01*
X10034468Y-16382555D02*
X10043991Y-16363508D01*
X10043991Y-16363508D02*
X10063039Y-16334936D01*
X10063039Y-16334936D02*
X10072563Y-16325412D01*
X10234468Y-16420650D02*
X10234468Y-16553984D01*
X10186849Y-16344460D02*
X10139230Y-16487317D01*
X10139230Y-16487317D02*
X10263039Y-16487317D01*
X10377325Y-16353984D02*
X10396372Y-16353984D01*
X10396372Y-16353984D02*
X10415420Y-16363508D01*
X10415420Y-16363508D02*
X10424944Y-16373031D01*
X10424944Y-16373031D02*
X10434468Y-16392079D01*
X10434468Y-16392079D02*
X10443991Y-16430174D01*
X10443991Y-16430174D02*
X10443991Y-16477793D01*
X10443991Y-16477793D02*
X10434468Y-16515888D01*
X10434468Y-16515888D02*
X10424944Y-16534936D01*
X10424944Y-16534936D02*
X10415420Y-16544460D01*
X10415420Y-16544460D02*
X10396372Y-16553984D01*
X10396372Y-16553984D02*
X10377325Y-16553984D01*
X10377325Y-16553984D02*
X10358277Y-16544460D01*
X10358277Y-16544460D02*
X10348753Y-16534936D01*
X10348753Y-16534936D02*
X10339230Y-16515888D01*
X10339230Y-16515888D02*
X10329706Y-16477793D01*
X10329706Y-16477793D02*
X10329706Y-16430174D01*
X10329706Y-16430174D02*
X10339230Y-16392079D01*
X10339230Y-16392079D02*
X10348753Y-16373031D01*
X10348753Y-16373031D02*
X10358277Y-16363508D01*
X10358277Y-16363508D02*
X10377325Y-16353984D01*
X10682087Y-16553984D02*
X10682087Y-16353984D01*
X10767801Y-16553984D02*
X10767801Y-16449222D01*
X10767801Y-16449222D02*
X10758277Y-16430174D01*
X10758277Y-16430174D02*
X10739230Y-16420650D01*
X10739230Y-16420650D02*
X10710658Y-16420650D01*
X10710658Y-16420650D02*
X10691611Y-16430174D01*
X10691611Y-16430174D02*
X10682087Y-16439698D01*
X10891611Y-16553984D02*
X10872563Y-16544460D01*
X10872563Y-16544460D02*
X10863039Y-16534936D01*
X10863039Y-16534936D02*
X10853515Y-16515888D01*
X10853515Y-16515888D02*
X10853515Y-16458746D01*
X10853515Y-16458746D02*
X10863039Y-16439698D01*
X10863039Y-16439698D02*
X10872563Y-16430174D01*
X10872563Y-16430174D02*
X10891611Y-16420650D01*
X10891611Y-16420650D02*
X10920182Y-16420650D01*
X10920182Y-16420650D02*
X10939230Y-16430174D01*
X10939230Y-16430174D02*
X10948753Y-16439698D01*
X10948753Y-16439698D02*
X10958277Y-16458746D01*
X10958277Y-16458746D02*
X10958277Y-16515888D01*
X10958277Y-16515888D02*
X10948753Y-16534936D01*
X10948753Y-16534936D02*
X10939230Y-16544460D01*
X10939230Y-16544460D02*
X10920182Y-16553984D01*
X10920182Y-16553984D02*
X10891611Y-16553984D01*
X11072563Y-16553984D02*
X11053515Y-16544460D01*
X11053515Y-16544460D02*
X11043992Y-16525412D01*
X11043992Y-16525412D02*
X11043992Y-16353984D01*
X11224944Y-16544460D02*
X11205896Y-16553984D01*
X11205896Y-16553984D02*
X11167801Y-16553984D01*
X11167801Y-16553984D02*
X11148753Y-16544460D01*
X11148753Y-16544460D02*
X11139230Y-16525412D01*
X11139230Y-16525412D02*
X11139230Y-16449222D01*
X11139230Y-16449222D02*
X11148753Y-16430174D01*
X11148753Y-16430174D02*
X11167801Y-16420650D01*
X11167801Y-16420650D02*
X11205896Y-16420650D01*
X11205896Y-16420650D02*
X11224944Y-16430174D01*
X11224944Y-16430174D02*
X11234468Y-16449222D01*
X11234468Y-16449222D02*
X11234468Y-16468269D01*
X11234468Y-16468269D02*
X11139230Y-16487317D01*
X11310658Y-16544460D02*
X11329706Y-16553984D01*
X11329706Y-16553984D02*
X11367801Y-16553984D01*
X11367801Y-16553984D02*
X11386849Y-16544460D01*
X11386849Y-16544460D02*
X11396372Y-16525412D01*
X11396372Y-16525412D02*
X11396372Y-16515888D01*
X11396372Y-16515888D02*
X11386849Y-16496841D01*
X11386849Y-16496841D02*
X11367801Y-16487317D01*
X11367801Y-16487317D02*
X11339230Y-16487317D01*
X11339230Y-16487317D02*
X11320182Y-16477793D01*
X11320182Y-16477793D02*
X11310658Y-16458746D01*
X11310658Y-16458746D02*
X11310658Y-16449222D01*
X11310658Y-16449222D02*
X11320182Y-16430174D01*
X11320182Y-16430174D02*
X11339230Y-16420650D01*
X11339230Y-16420650D02*
X11367801Y-16420650D01*
X11367801Y-16420650D02*
X11386849Y-16430174D01*
X11463039Y-16630174D02*
X11472563Y-16620650D01*
X11472563Y-16620650D02*
X11491611Y-16592079D01*
X11491611Y-16592079D02*
X11501134Y-16573031D01*
X11501134Y-16573031D02*
X11510658Y-16544460D01*
X11510658Y-16544460D02*
X11520182Y-16496841D01*
X11520182Y-16496841D02*
X11520182Y-16458746D01*
X11520182Y-16458746D02*
X11510658Y-16411127D01*
X11510658Y-16411127D02*
X11501134Y-16382555D01*
X11501134Y-16382555D02*
X11491611Y-16363508D01*
X11491611Y-16363508D02*
X11472563Y-16334936D01*
X11472563Y-16334936D02*
X11463039Y-16325412D01*
D13*
X6387500Y-16671500D02*
X6497500Y-16781500D01*
X6497500Y-16671500D02*
X6387500Y-16781500D01*
X6442500Y-16671500D02*
X6442500Y-16781500D01*
X6387500Y-16726500D02*
X6497500Y-16726500D01*
D11*
X6863039Y-16817984D02*
X6748753Y-16817984D01*
X6805896Y-16817984D02*
X6805896Y-16617984D01*
X6805896Y-16617984D02*
X6786848Y-16646555D01*
X6786848Y-16646555D02*
X6767801Y-16665603D01*
X6767801Y-16665603D02*
X6748753Y-16675127D01*
X6948753Y-16798936D02*
X6958277Y-16808460D01*
X6958277Y-16808460D02*
X6948753Y-16817984D01*
X6948753Y-16817984D02*
X6939229Y-16808460D01*
X6939229Y-16808460D02*
X6948753Y-16798936D01*
X6948753Y-16798936D02*
X6948753Y-16817984D01*
X7148753Y-16817984D02*
X7034467Y-16817984D01*
X7091610Y-16817984D02*
X7091610Y-16617984D01*
X7091610Y-16617984D02*
X7072562Y-16646555D01*
X7072562Y-16646555D02*
X7053515Y-16665603D01*
X7053515Y-16665603D02*
X7034467Y-16675127D01*
X7272562Y-16617984D02*
X7291610Y-16617984D01*
X7291610Y-16617984D02*
X7310658Y-16627508D01*
X7310658Y-16627508D02*
X7320182Y-16637031D01*
X7320182Y-16637031D02*
X7329705Y-16656079D01*
X7329705Y-16656079D02*
X7339229Y-16694174D01*
X7339229Y-16694174D02*
X7339229Y-16741793D01*
X7339229Y-16741793D02*
X7329705Y-16779889D01*
X7329705Y-16779889D02*
X7320182Y-16798936D01*
X7320182Y-16798936D02*
X7310658Y-16808460D01*
X7310658Y-16808460D02*
X7291610Y-16817984D01*
X7291610Y-16817984D02*
X7272562Y-16817984D01*
X7272562Y-16817984D02*
X7253515Y-16808460D01*
X7253515Y-16808460D02*
X7243991Y-16798936D01*
X7243991Y-16798936D02*
X7234467Y-16779889D01*
X7234467Y-16779889D02*
X7224943Y-16741793D01*
X7224943Y-16741793D02*
X7224943Y-16694174D01*
X7224943Y-16694174D02*
X7234467Y-16656079D01*
X7234467Y-16656079D02*
X7243991Y-16637031D01*
X7243991Y-16637031D02*
X7253515Y-16627508D01*
X7253515Y-16627508D02*
X7272562Y-16617984D01*
X7463039Y-16617984D02*
X7482086Y-16617984D01*
X7482086Y-16617984D02*
X7501134Y-16627508D01*
X7501134Y-16627508D02*
X7510658Y-16637031D01*
X7510658Y-16637031D02*
X7520182Y-16656079D01*
X7520182Y-16656079D02*
X7529705Y-16694174D01*
X7529705Y-16694174D02*
X7529705Y-16741793D01*
X7529705Y-16741793D02*
X7520182Y-16779889D01*
X7520182Y-16779889D02*
X7510658Y-16798936D01*
X7510658Y-16798936D02*
X7501134Y-16808460D01*
X7501134Y-16808460D02*
X7482086Y-16817984D01*
X7482086Y-16817984D02*
X7463039Y-16817984D01*
X7463039Y-16817984D02*
X7443991Y-16808460D01*
X7443991Y-16808460D02*
X7434467Y-16798936D01*
X7434467Y-16798936D02*
X7424943Y-16779889D01*
X7424943Y-16779889D02*
X7415420Y-16741793D01*
X7415420Y-16741793D02*
X7415420Y-16694174D01*
X7415420Y-16694174D02*
X7424943Y-16656079D01*
X7424943Y-16656079D02*
X7434467Y-16637031D01*
X7434467Y-16637031D02*
X7443991Y-16627508D01*
X7443991Y-16627508D02*
X7463039Y-16617984D01*
X7615420Y-16817984D02*
X7615420Y-16684650D01*
X7615420Y-16703698D02*
X7624943Y-16694174D01*
X7624943Y-16694174D02*
X7643991Y-16684650D01*
X7643991Y-16684650D02*
X7672563Y-16684650D01*
X7672563Y-16684650D02*
X7691610Y-16694174D01*
X7691610Y-16694174D02*
X7701134Y-16713222D01*
X7701134Y-16713222D02*
X7701134Y-16817984D01*
X7701134Y-16713222D02*
X7710658Y-16694174D01*
X7710658Y-16694174D02*
X7729705Y-16684650D01*
X7729705Y-16684650D02*
X7758277Y-16684650D01*
X7758277Y-16684650D02*
X7777324Y-16694174D01*
X7777324Y-16694174D02*
X7786848Y-16713222D01*
X7786848Y-16713222D02*
X7786848Y-16817984D01*
X7882086Y-16817984D02*
X7882086Y-16684650D01*
X7882086Y-16703698D02*
X7891610Y-16694174D01*
X7891610Y-16694174D02*
X7910658Y-16684650D01*
X7910658Y-16684650D02*
X7939229Y-16684650D01*
X7939229Y-16684650D02*
X7958277Y-16694174D01*
X7958277Y-16694174D02*
X7967801Y-16713222D01*
X7967801Y-16713222D02*
X7967801Y-16817984D01*
X7967801Y-16713222D02*
X7977324Y-16694174D01*
X7977324Y-16694174D02*
X7996372Y-16684650D01*
X7996372Y-16684650D02*
X8024943Y-16684650D01*
X8024943Y-16684650D02*
X8043991Y-16694174D01*
X8043991Y-16694174D02*
X8053515Y-16713222D01*
X8053515Y-16713222D02*
X8053515Y-16817984D01*
X8443991Y-16608460D02*
X8272563Y-16865603D01*
X8701134Y-16617984D02*
X8720182Y-16617984D01*
X8720182Y-16617984D02*
X8739229Y-16627508D01*
X8739229Y-16627508D02*
X8748753Y-16637031D01*
X8748753Y-16637031D02*
X8758277Y-16656079D01*
X8758277Y-16656079D02*
X8767801Y-16694174D01*
X8767801Y-16694174D02*
X8767801Y-16741793D01*
X8767801Y-16741793D02*
X8758277Y-16779889D01*
X8758277Y-16779889D02*
X8748753Y-16798936D01*
X8748753Y-16798936D02*
X8739229Y-16808460D01*
X8739229Y-16808460D02*
X8720182Y-16817984D01*
X8720182Y-16817984D02*
X8701134Y-16817984D01*
X8701134Y-16817984D02*
X8682087Y-16808460D01*
X8682087Y-16808460D02*
X8672563Y-16798936D01*
X8672563Y-16798936D02*
X8663039Y-16779889D01*
X8663039Y-16779889D02*
X8653515Y-16741793D01*
X8653515Y-16741793D02*
X8653515Y-16694174D01*
X8653515Y-16694174D02*
X8663039Y-16656079D01*
X8663039Y-16656079D02*
X8672563Y-16637031D01*
X8672563Y-16637031D02*
X8682087Y-16627508D01*
X8682087Y-16627508D02*
X8701134Y-16617984D01*
X8853515Y-16798936D02*
X8863039Y-16808460D01*
X8863039Y-16808460D02*
X8853515Y-16817984D01*
X8853515Y-16817984D02*
X8843991Y-16808460D01*
X8843991Y-16808460D02*
X8853515Y-16798936D01*
X8853515Y-16798936D02*
X8853515Y-16817984D01*
X8986848Y-16617984D02*
X9005896Y-16617984D01*
X9005896Y-16617984D02*
X9024944Y-16627508D01*
X9024944Y-16627508D02*
X9034468Y-16637031D01*
X9034468Y-16637031D02*
X9043991Y-16656079D01*
X9043991Y-16656079D02*
X9053515Y-16694174D01*
X9053515Y-16694174D02*
X9053515Y-16741793D01*
X9053515Y-16741793D02*
X9043991Y-16779889D01*
X9043991Y-16779889D02*
X9034468Y-16798936D01*
X9034468Y-16798936D02*
X9024944Y-16808460D01*
X9024944Y-16808460D02*
X9005896Y-16817984D01*
X9005896Y-16817984D02*
X8986848Y-16817984D01*
X8986848Y-16817984D02*
X8967801Y-16808460D01*
X8967801Y-16808460D02*
X8958277Y-16798936D01*
X8958277Y-16798936D02*
X8948753Y-16779889D01*
X8948753Y-16779889D02*
X8939229Y-16741793D01*
X8939229Y-16741793D02*
X8939229Y-16694174D01*
X8939229Y-16694174D02*
X8948753Y-16656079D01*
X8948753Y-16656079D02*
X8958277Y-16637031D01*
X8958277Y-16637031D02*
X8967801Y-16627508D01*
X8967801Y-16627508D02*
X8986848Y-16617984D01*
X9224944Y-16684650D02*
X9224944Y-16817984D01*
X9177325Y-16608460D02*
X9129706Y-16751317D01*
X9129706Y-16751317D02*
X9253515Y-16751317D01*
X9310658Y-16617984D02*
X9434468Y-16617984D01*
X9434468Y-16617984D02*
X9367801Y-16694174D01*
X9367801Y-16694174D02*
X9396372Y-16694174D01*
X9396372Y-16694174D02*
X9415420Y-16703698D01*
X9415420Y-16703698D02*
X9424944Y-16713222D01*
X9424944Y-16713222D02*
X9434468Y-16732269D01*
X9434468Y-16732269D02*
X9434468Y-16779889D01*
X9434468Y-16779889D02*
X9424944Y-16798936D01*
X9424944Y-16798936D02*
X9415420Y-16808460D01*
X9415420Y-16808460D02*
X9396372Y-16817984D01*
X9396372Y-16817984D02*
X9339229Y-16817984D01*
X9339229Y-16817984D02*
X9320182Y-16808460D01*
X9320182Y-16808460D02*
X9310658Y-16798936D01*
X9501134Y-16617984D02*
X9624944Y-16617984D01*
X9624944Y-16617984D02*
X9558277Y-16694174D01*
X9558277Y-16694174D02*
X9586849Y-16694174D01*
X9586849Y-16694174D02*
X9605896Y-16703698D01*
X9605896Y-16703698D02*
X9615420Y-16713222D01*
X9615420Y-16713222D02*
X9624944Y-16732269D01*
X9624944Y-16732269D02*
X9624944Y-16779889D01*
X9624944Y-16779889D02*
X9615420Y-16798936D01*
X9615420Y-16798936D02*
X9605896Y-16808460D01*
X9605896Y-16808460D02*
X9586849Y-16817984D01*
X9586849Y-16817984D02*
X9529706Y-16817984D01*
X9529706Y-16817984D02*
X9510658Y-16808460D01*
X9510658Y-16808460D02*
X9501134Y-16798936D01*
X9701134Y-16617984D02*
X9701134Y-16656079D01*
X9777325Y-16617984D02*
X9777325Y-16656079D01*
X10072563Y-16894174D02*
X10063039Y-16884650D01*
X10063039Y-16884650D02*
X10043991Y-16856079D01*
X10043991Y-16856079D02*
X10034468Y-16837031D01*
X10034468Y-16837031D02*
X10024944Y-16808460D01*
X10024944Y-16808460D02*
X10015420Y-16760841D01*
X10015420Y-16760841D02*
X10015420Y-16722746D01*
X10015420Y-16722746D02*
X10024944Y-16675127D01*
X10024944Y-16675127D02*
X10034468Y-16646555D01*
X10034468Y-16646555D02*
X10043991Y-16627508D01*
X10043991Y-16627508D02*
X10063039Y-16598936D01*
X10063039Y-16598936D02*
X10072563Y-16589412D01*
X10234468Y-16684650D02*
X10234468Y-16817984D01*
X10186849Y-16608460D02*
X10139230Y-16751317D01*
X10139230Y-16751317D02*
X10263039Y-16751317D01*
X10491611Y-16817984D02*
X10491611Y-16617984D01*
X10577325Y-16817984D02*
X10577325Y-16713222D01*
X10577325Y-16713222D02*
X10567801Y-16694174D01*
X10567801Y-16694174D02*
X10548753Y-16684650D01*
X10548753Y-16684650D02*
X10520182Y-16684650D01*
X10520182Y-16684650D02*
X10501134Y-16694174D01*
X10501134Y-16694174D02*
X10491611Y-16703698D01*
X10701134Y-16817984D02*
X10682087Y-16808460D01*
X10682087Y-16808460D02*
X10672563Y-16798936D01*
X10672563Y-16798936D02*
X10663039Y-16779889D01*
X10663039Y-16779889D02*
X10663039Y-16722746D01*
X10663039Y-16722746D02*
X10672563Y-16703698D01*
X10672563Y-16703698D02*
X10682087Y-16694174D01*
X10682087Y-16694174D02*
X10701134Y-16684650D01*
X10701134Y-16684650D02*
X10729706Y-16684650D01*
X10729706Y-16684650D02*
X10748753Y-16694174D01*
X10748753Y-16694174D02*
X10758277Y-16703698D01*
X10758277Y-16703698D02*
X10767801Y-16722746D01*
X10767801Y-16722746D02*
X10767801Y-16779889D01*
X10767801Y-16779889D02*
X10758277Y-16798936D01*
X10758277Y-16798936D02*
X10748753Y-16808460D01*
X10748753Y-16808460D02*
X10729706Y-16817984D01*
X10729706Y-16817984D02*
X10701134Y-16817984D01*
X10882087Y-16817984D02*
X10863039Y-16808460D01*
X10863039Y-16808460D02*
X10853515Y-16789412D01*
X10853515Y-16789412D02*
X10853515Y-16617984D01*
X11034468Y-16808460D02*
X11015420Y-16817984D01*
X11015420Y-16817984D02*
X10977325Y-16817984D01*
X10977325Y-16817984D02*
X10958277Y-16808460D01*
X10958277Y-16808460D02*
X10948753Y-16789412D01*
X10948753Y-16789412D02*
X10948753Y-16713222D01*
X10948753Y-16713222D02*
X10958277Y-16694174D01*
X10958277Y-16694174D02*
X10977325Y-16684650D01*
X10977325Y-16684650D02*
X11015420Y-16684650D01*
X11015420Y-16684650D02*
X11034468Y-16694174D01*
X11034468Y-16694174D02*
X11043992Y-16713222D01*
X11043992Y-16713222D02*
X11043992Y-16732269D01*
X11043992Y-16732269D02*
X10948753Y-16751317D01*
X11120182Y-16808460D02*
X11139230Y-16817984D01*
X11139230Y-16817984D02*
X11177325Y-16817984D01*
X11177325Y-16817984D02*
X11196372Y-16808460D01*
X11196372Y-16808460D02*
X11205896Y-16789412D01*
X11205896Y-16789412D02*
X11205896Y-16779889D01*
X11205896Y-16779889D02*
X11196372Y-16760841D01*
X11196372Y-16760841D02*
X11177325Y-16751317D01*
X11177325Y-16751317D02*
X11148753Y-16751317D01*
X11148753Y-16751317D02*
X11129706Y-16741793D01*
X11129706Y-16741793D02*
X11120182Y-16722746D01*
X11120182Y-16722746D02*
X11120182Y-16713222D01*
X11120182Y-16713222D02*
X11129706Y-16694174D01*
X11129706Y-16694174D02*
X11148753Y-16684650D01*
X11148753Y-16684650D02*
X11177325Y-16684650D01*
X11177325Y-16684650D02*
X11196372Y-16694174D01*
X11272563Y-16894174D02*
X11282087Y-16884650D01*
X11282087Y-16884650D02*
X11301134Y-16856079D01*
X11301134Y-16856079D02*
X11310658Y-16837031D01*
X11310658Y-16837031D02*
X11320182Y-16808460D01*
X11320182Y-16808460D02*
X11329706Y-16760841D01*
X11329706Y-16760841D02*
X11329706Y-16722746D01*
X11329706Y-16722746D02*
X11320182Y-16675127D01*
X11320182Y-16675127D02*
X11310658Y-16646555D01*
X11310658Y-16646555D02*
X11301134Y-16627508D01*
X11301134Y-16627508D02*
X11282087Y-16598936D01*
X11282087Y-16598936D02*
X11272563Y-16589412D01*
M02*
